<svg width="121" height="96" viewBox="0 0 121 96" fill="none" xmlns="http://www.w3.org/2000/svg">
<rect width="120.847" height="96" rx="16" fill="#8F00FF"/>
<rect width="120.847" height="96" rx="16" stroke="#6F6571"/>
<g opacity="0.15">
<path d="M38.9246 83.5492H46.6666L47.6483 88.4575C47.808 89.256 47.1974 90.001 46.383 90.001H39.2082C38.394 90.001 37.7832 89.256 37.9429 88.4575L38.9246 83.5492Z" fill="#867E88"/>
<path d="M42.1685 87.4202H37.0075L37.7818 83.5492H45.5237L46.5054 88.4575C46.6651 89.256 46.0545 90.001 45.2401 90.001H43.7423L43.4337 88.4577C43.3132 87.8542 42.7837 87.4202 42.1685 87.4202Z" fill="#6F6571"/>
<path d="M34.1583 39.6853L37.6093 37.097H47.932L51.383 39.6853C52.4782 40.5066 53.2021 41.7294 53.3957 43.0844L55.6738 59.0327H29.8672L32.1455 43.0844C32.3392 41.7294 33.0631 40.5067 34.1583 39.6853Z" fill="#C9C6CA"/>
<path d="M38.4126 52.5811H46.1546L81.3092 72.6694C81.8681 72.9888 82.1061 73.6713 81.867 74.2689L80.3521 78.0559C79.9603 79.0356 79.0113 79.6781 77.956 79.6781H48.7352H35.8318H6.61091C5.55574 79.6781 4.60667 79.0356 4.21479 78.0559L2.69993 74.2689C2.46086 73.6713 2.69884 72.9888 3.25775 72.6694L38.4126 52.5811Z" fill="#DBD9DC"/>
<path d="M44.2452 79.6781H41.6646H40.3743V53.3184L44.2452 55.5305V79.6781Z" fill="#C9C6CA"/>
<path d="M36.1393 47.672L38.3426 12.4197C38.4276 11.0595 39.5555 10 40.9183 10H43.8114C45.1743 10 46.3021 11.0595 46.3871 12.4197L48.5904 47.672C48.7412 50.0837 48.8167 52.4995 48.8167 54.9159V82.2587C48.8167 83.6839 47.6612 84.8394 46.236 84.8394H38.494C37.0689 84.8394 35.9134 83.6839 35.9134 82.2587V54.9161C35.9132 52.4995 35.9887 50.0837 36.1393 47.672Z" fill="#EDEBED"/>
<path d="M42.66 82.2589V54.9161C42.66 52.4997 42.5845 50.0839 42.4337 47.6721L40.2304 12.4199C40.1559 11.2264 39.2782 10.2655 38.1437 10.0475C38.3023 10.017 38.4654 10.0003 38.6326 10.0003H41.5257C42.8886 10.0003 44.0164 11.0599 44.1014 12.42L46.3047 47.6723C46.4555 50.084 46.5309 52.4998 46.5309 54.9162V82.259C46.5309 83.6842 45.3755 84.8397 43.9503 84.8397H40.0793C41.5045 84.8395 42.66 83.684 42.66 82.2589Z" fill="#DBD9DC"/>
<path d="M42.8075 46.1294C44.2328 46.1294 45.3881 47.2849 45.3881 48.7101V51.2907C45.3881 52.0034 44.8105 52.5811 44.0978 52.5811H41.5171C40.8045 52.5811 40.2268 52.0034 40.2268 51.2907V48.7101C40.2268 47.2848 41.3821 46.1294 42.8075 46.1294Z" fill="#99E7FF"/>
<path d="M43.7839 10C45.1467 10 46.2745 11.0595 46.3595 12.4197L46.5309 15.1613H38.1438L38.3152 12.4197C38.4001 11.0595 39.5279 10 40.8907 10H43.7839Z" fill="#C9C6CA"/>
<path d="M42.6411 10C44.0039 10 45.1317 11.0595 45.2167 12.4197L45.3881 15.1613H41.5171L41.3457 12.4197C41.2712 11.2263 40.3935 10.2653 39.259 10.0473C39.4176 10.0169 39.5807 10.0002 39.7479 10.0002L42.6411 10Z" fill="#B7B2B8"/>
<path d="M48.8167 77.0974V82.2587C48.8167 83.6839 47.6612 84.8394 46.236 84.8394H38.494C37.0689 84.8394 35.9134 83.6839 35.9134 82.2587V77.0974H48.8167Z" fill="#C9C6CA"/>
<path d="M41.5171 82.2589V77.0976H45.3881V82.2589C45.3881 83.684 44.2326 84.8395 42.8075 84.8395H38.9365C40.3617 84.8395 41.5171 83.684 41.5171 82.2589Z" fill="#B7B2B8"/>
<path d="M42.8075 46.1294C44.2326 46.1294 45.3881 47.2849 45.3881 48.7101V51.2907C45.3881 49.8654 44.2326 48.7101 42.8075 48.7101C41.3823 48.7101 40.2268 49.8654 40.2268 51.2907V48.7101C40.2268 47.2848 41.3823 46.1294 42.8075 46.1294Z" fill="#59D8FF"/>
<path d="M58.9179 82.2589H60.2083C60.9209 82.2589 61.4986 81.6812 61.4986 80.9685V71.2911C61.4986 70.2222 60.632 69.3556 59.5631 69.3556C58.4942 69.3556 57.6276 70.2222 57.6276 71.2911V80.9685C57.6276 81.681 58.2053 82.2589 58.9179 82.2589Z" fill="#C9C6CA"/>
<path d="M67.9503 82.2589H69.2406C69.9533 82.2589 70.5309 81.6812 70.5309 80.9685V75.1621C70.5309 74.0932 69.6644 73.2266 68.5955 73.2266C67.5265 73.2266 66.66 74.0932 66.66 75.1621V80.9685C66.66 81.6811 67.2376 82.2589 67.9503 82.2589Z" fill="#C9C6CA"/>
<path d="M25.3692 82.2589H24.0789C23.3662 82.2589 22.7886 81.6812 22.7886 80.9685V71.2911C22.7886 70.2222 23.6551 69.3556 24.7241 69.3556C25.793 69.3556 26.6595 70.2222 26.6595 71.2911V80.9685C26.6597 81.681 26.0819 82.2589 25.3692 82.2589Z" fill="#C9C6CA"/>
<path d="M16.337 82.2589H15.0467C14.334 82.2589 13.7563 81.6812 13.7563 80.9685V75.1621C13.7563 74.0932 14.6229 73.2266 15.6918 73.2266C16.7607 73.2266 17.6273 74.0932 17.6273 75.1621V80.9685C17.6273 81.6811 17.0497 82.2589 16.337 82.2589Z" fill="#C9C6CA"/>
</g>
<g opacity="0.15">
<path d="M75.9246 83.5492H83.6666L84.6483 88.4575C84.808 89.256 84.1974 90.001 83.383 90.001H76.2082C75.394 90.001 74.7832 89.256 74.9429 88.4575L75.9246 83.5492Z" fill="#867E88"/>
<path d="M79.1685 87.4202H74.0075L74.7818 83.5492H82.5237L83.5054 88.4575C83.6651 89.256 83.0545 90.001 82.2401 90.001H80.7423L80.4337 88.4577C80.3132 87.8542 79.7837 87.4202 79.1685 87.4202Z" fill="#6F6571"/>
<path d="M71.1583 39.6853L74.6093 37.097H84.932L88.383 39.6853C89.4782 40.5066 90.2021 41.7294 90.3957 43.0844L92.6738 59.0327H66.8672L69.1455 43.0844C69.3392 41.7294 70.0631 40.5067 71.1583 39.6853Z" fill="#C9C6CA"/>
<path d="M75.4126 52.5811H83.1546L118.309 72.6694C118.868 72.9888 119.106 73.6713 118.867 74.2689L117.352 78.0559C116.96 79.0356 116.011 79.6781 114.956 79.6781H85.7352H72.8318H43.6109C42.5557 79.6781 41.6067 79.0356 41.2148 78.0559L39.6999 74.2689C39.4609 73.6713 39.6988 72.9888 40.2578 72.6694L75.4126 52.5811Z" fill="#DBD9DC"/>
<path d="M81.2452 79.6781H78.6646H77.3743V53.3184L81.2452 55.5305V79.6781Z" fill="#C9C6CA"/>
<path d="M73.1393 47.672L75.3426 12.4197C75.4276 11.0595 76.5555 10 77.9183 10H80.8114C82.1743 10 83.3021 11.0595 83.3871 12.4197L85.5904 47.672C85.7412 50.0837 85.8167 52.4995 85.8167 54.9159V82.2587C85.8167 83.6839 84.6612 84.8394 83.236 84.8394H75.494C74.0689 84.8394 72.9134 83.6839 72.9134 82.2587V54.9161C72.9132 52.4995 72.9887 50.0837 73.1393 47.672Z" fill="#EDEBED"/>
<path d="M79.66 82.2589V54.9161C79.66 52.4997 79.5845 50.0839 79.4337 47.6721L77.2304 12.4199C77.1559 11.2264 76.2782 10.2655 75.1437 10.0475C75.3023 10.017 75.4654 10.0003 75.6326 10.0003H78.5257C79.8886 10.0003 81.0164 11.0599 81.1014 12.42L83.3047 47.6723C83.4555 50.084 83.5309 52.4998 83.5309 54.9162V82.259C83.5309 83.6842 82.3755 84.8397 80.9503 84.8397H77.0793C78.5045 84.8395 79.66 83.684 79.66 82.2589Z" fill="#DBD9DC"/>
<path d="M79.8075 46.1294C81.2328 46.1294 82.3881 47.2849 82.3881 48.7101V51.2907C82.3881 52.0034 81.8105 52.5811 81.0978 52.5811H78.5171C77.8045 52.5811 77.2268 52.0034 77.2268 51.2907V48.7101C77.2268 47.2848 78.3821 46.1294 79.8075 46.1294Z" fill="#99E7FF"/>
<path d="M80.7839 10C82.1467 10 83.2745 11.0595 83.3595 12.4197L83.5309 15.1613H75.1438L75.3152 12.4197C75.4001 11.0595 76.5279 10 77.8907 10H80.7839Z" fill="#C9C6CA"/>
<path d="M79.6411 10C81.0039 10 82.1317 11.0595 82.2167 12.4197L82.3881 15.1613H78.5171L78.3457 12.4197C78.2712 11.2263 77.3935 10.2653 76.259 10.0473C76.4176 10.0169 76.5807 10.0002 76.7479 10.0002L79.6411 10Z" fill="#B7B2B8"/>
<path d="M85.8167 77.0974V82.2587C85.8167 83.6839 84.6612 84.8394 83.236 84.8394H75.494C74.0689 84.8394 72.9134 83.6839 72.9134 82.2587V77.0974H85.8167Z" fill="#C9C6CA"/>
<path d="M78.5171 82.2589V77.0976H82.3881V82.2589C82.3881 83.684 81.2326 84.8395 79.8075 84.8395H75.9365C77.3617 84.8395 78.5171 83.684 78.5171 82.2589Z" fill="#B7B2B8"/>
<path d="M79.8075 46.1294C81.2326 46.1294 82.3881 47.2849 82.3881 48.7101V51.2907C82.3881 49.8654 81.2326 48.7101 79.8075 48.7101C78.3823 48.7101 77.2268 49.8654 77.2268 51.2907V48.7101C77.2268 47.2848 78.3823 46.1294 79.8075 46.1294Z" fill="#59D8FF"/>
<path d="M95.9179 82.2589H97.2083C97.9209 82.2589 98.4986 81.6812 98.4986 80.9685V71.2911C98.4986 70.2222 97.632 69.3556 96.5631 69.3556C95.4942 69.3556 94.6276 70.2222 94.6276 71.2911V80.9685C94.6276 81.681 95.2053 82.2589 95.9179 82.2589Z" fill="#C9C6CA"/>
<path d="M104.95 82.2589H106.241C106.953 82.2589 107.531 81.6812 107.531 80.9685V75.1621C107.531 74.0932 106.664 73.2266 105.595 73.2266C104.527 73.2266 103.66 74.0932 103.66 75.1621V80.9685C103.66 81.6811 104.238 82.2589 104.95 82.2589Z" fill="#C9C6CA"/>
<path d="M62.3692 82.2589H61.0789C60.3662 82.2589 59.7886 81.6812 59.7886 80.9685V71.2911C59.7886 70.2222 60.6551 69.3556 61.7241 69.3556C62.793 69.3556 63.6595 70.2222 63.6595 71.2911V80.9685C63.6597 81.681 63.0819 82.2589 62.3692 82.2589Z" fill="#C9C6CA"/>
<path d="M53.337 82.2589H52.0467C51.334 82.2589 50.7563 81.6812 50.7563 80.9685V75.1621C50.7563 74.0932 51.6229 73.2266 52.6918 73.2266C53.7607 73.2266 54.6273 74.0932 54.6273 75.1621V80.9685C54.6273 81.6811 54.0497 82.2589 53.337 82.2589Z" fill="#C9C6CA"/>
</g>
<path d="M57.3445 77.3557H64.1187L64.9777 81.6505C65.1174 82.3491 64.5831 83.001 63.8705 83.001H57.5926C56.8801 83.001 56.3457 82.3491 56.4854 81.6505L57.3445 77.3557Z" fill="#867E88"/>
<path d="M60.1829 80.7428H55.667L56.3445 77.3557H63.1187L63.9777 81.6505C64.1174 82.3491 63.5831 83.001 62.8705 83.001H61.5599L61.2899 81.6506C61.1845 81.1226 60.7211 80.7428 60.1829 80.7428Z" fill="#6F6571"/>
<path d="M53.1739 38.9747L56.1935 36.7099H65.2259L68.2455 38.9747C69.2038 39.6933 69.8372 40.7633 70.0066 41.9489L72 55.9037H49.4191L51.4126 41.9489C51.5822 40.7633 52.2156 39.6934 53.1739 38.9747Z" fill="#C9C6CA"/>
<path d="M56.8965 50.2585H63.6707L94.431 67.8358C94.92 68.1153 95.1283 68.7125 94.9191 69.2354L93.5936 72.549C93.2507 73.4062 92.4204 73.9684 91.497 73.9684H65.9288H54.6382H29.0699C28.1466 73.9684 27.3162 73.4062 26.9733 72.549L25.6478 69.2354C25.4386 68.7125 25.6468 68.1153 26.1359 67.8358L56.8965 50.2585Z" fill="#DBD9DC"/>
<path d="M62 73.9684H59.7419H58.6129V50.9037L62 52.8392V73.9684Z" fill="#C9C6CA"/>
<path d="M54.9073 45.963L56.8352 15.1173C56.9096 13.9271 57.8964 13 59.0889 13H61.6204C62.8129 13 63.7998 13.9271 63.8741 15.1173L65.802 45.963C65.934 48.0733 66 50.1871 66 52.3015V76.2265C66 77.4735 64.989 78.4846 63.7419 78.4846H56.9677C55.7207 78.4846 54.7096 77.4735 54.7096 76.2265V52.3016C54.7095 50.1871 54.7755 48.0733 54.9073 45.963Z" fill="#EDEBED"/>
<path d="M60.6129 76.2266V52.3016C60.6129 50.1873 60.5469 48.0734 60.4149 45.9632L58.487 15.1174C58.4218 14.0731 57.6539 13.2323 56.6611 13.0416C56.7999 13.0149 56.9426 13.0003 57.0889 13.0003H59.6204C60.8129 13.0003 61.7998 13.9274 61.8741 15.1175L63.802 45.9633C63.934 48.0736 64 50.1874 64 52.3018V76.2268C64 77.4738 62.989 78.4848 61.7419 78.4848H58.3548C59.6018 78.4847 60.6129 77.4736 60.6129 76.2266Z" fill="#DBD9DC"/>
<path d="M60.7419 44.6133C61.9891 44.6133 63 45.6244 63 46.8714V49.1295C63 49.753 62.4945 50.2585 61.871 50.2585H59.6129C58.9893 50.2585 58.4839 49.753 58.4839 49.1295V46.8714C58.4839 45.6242 59.4948 44.6133 60.7419 44.6133Z" fill="#99E7FF"/>
<path d="M61.5963 13C62.7888 13 63.7756 13.9271 63.85 15.1173L64 17.5161H56.6613L56.8112 15.1173C56.8855 13.9271 57.8723 13 59.0648 13H61.5963Z" fill="#C9C6CA"/>
<path d="M60.5963 13C61.7888 13 62.7756 13.9271 62.85 15.1173L63 17.5161H59.6129L59.4629 15.1173C59.3977 14.073 58.6297 13.2322 57.637 13.0414C57.7758 13.0148 57.9185 13.0001 58.0648 13.0001L60.5963 13Z" fill="#B7B2B8"/>
<path d="M66 71.7103V76.2265C66 77.4735 64.989 78.4846 63.7419 78.4846H56.9677C55.7207 78.4846 54.7096 77.4735 54.7096 76.2265V71.7103H66Z" fill="#C9C6CA"/>
<path d="M59.6129 76.2266V71.7105H63V76.2266C63 77.4737 61.989 78.4847 60.7419 78.4847H57.3548C58.6018 78.4847 59.6129 77.4737 59.6129 76.2266Z" fill="#B7B2B8"/>
<path d="M60.7419 44.6133C61.989 44.6133 63 45.6244 63 46.8714V49.1295C63 47.8823 61.989 46.8714 60.7419 46.8714C59.4949 46.8714 58.4839 47.8823 58.4839 49.1295V46.8714C58.4839 45.6242 59.4949 44.6133 60.7419 44.6133Z" fill="#59D8FF"/>
<path d="M74.8387 76.2266H75.9677C76.5913 76.2266 77.0967 75.7212 77.0967 75.0976V66.6298C77.0967 65.6945 76.3385 64.9362 75.4032 64.9362C74.4679 64.9362 73.7096 65.6945 73.7096 66.6298V75.0976C73.7096 75.721 74.2151 76.2266 74.8387 76.2266Z" fill="#C9C6CA"/>
<path d="M82.7419 76.2266H83.871C84.4945 76.2266 85 75.7212 85 75.0976V70.0169C85 69.0816 84.2417 68.3234 83.3064 68.3234C82.3711 68.3234 81.6129 69.0816 81.6129 70.0169V75.0976C81.6129 75.721 82.1183 76.2266 82.7419 76.2266Z" fill="#C9C6CA"/>
<path d="M45.4834 76.2266H44.3544C43.7308 76.2266 43.2254 75.7212 43.2254 75.0976V66.6298C43.2254 65.6945 43.9836 64.9362 44.9189 64.9362C45.8542 64.9362 46.6125 65.6945 46.6125 66.6298V75.0976C46.6126 75.721 46.107 76.2266 45.4834 76.2266Z" fill="#C9C6CA"/>
<path d="M37.5801 76.2266H36.4511C35.8275 76.2266 35.3221 75.7212 35.3221 75.0976V70.0169C35.3221 69.0816 36.0803 68.3234 37.0156 68.3234C37.9509 68.3234 38.7092 69.0816 38.7092 70.0169V75.0976C38.7092 75.721 38.2037 76.2266 37.5801 76.2266Z" fill="#C9C6CA"/>
</svg>
