<svg width="106" height="100" viewBox="0 0 106 100" fill="none" xmlns="http://www.w3.org/2000/svg">
<path d="M52.6379 3.77338C38.7282 7.96028 30.6459 8.53122 28.3435 8.29332C9.05087 5.6765 0 3.77338 0 37.3161C0 70.8589 27.8671 104.639 61.2124 99.168C94.5577 93.6964 112.898 60.6295 103.132 27.0868C93.3668 -6.45596 70.0251 -1.46024 52.6379 3.77338Z" fill="#464548" fill-opacity="0.4"/>
<path d="M63.9404 13.0714V28.5599H55.7262L52.4294 31.8567L49.1326 28.5599H40.9183V13.0714H63.9404Z" fill="white"/>
<path d="M60.0168 13.0717H63.9406V28.56H60.0168V13.0717Z" fill="#ACABB1"/>
<path d="M51.8024 28.5599H55.7262L52.4294 31.8567L50.4675 29.8948L51.8024 28.5599Z" fill="#ACABB1"/>
<path d="M68.4927 70.7976H72.1118V75.3121H68.4927V70.7976Z" fill="#ACABB1"/>
<path d="M62.9017 61.9896V46.4918H77.702V61.9896H79.7232V66.4215H60.8805V61.9896H62.9017Z" fill="#2488FF"/>
<path d="M74.4569 61.9896V46.4918H77.702V61.9896H79.7232V66.4215H76.478V61.9896H74.4569Z" fill="#005ECE"/>
<path d="M83.0178 59.2321H86.84V79.2988H83.0178V59.2321Z" fill="#FFA733"/>
<path d="M84.9289 59.2321H86.84V79.2988H84.9289V59.2321Z" fill="#FF6243"/>
<path d="M77.7017 55.4108H87.9286V59.233H77.7017V55.4108Z" fill="#FF6243"/>
<path d="M53.7628 59.2321H57.585V79.2988H53.7628V59.2321Z" fill="#FFA733"/>
<path d="M55.6739 59.2321H57.585V79.2988H55.6739V59.2321Z" fill="#FF6243"/>
<path d="M52.6751 55.4108H62.902V59.233H52.6751V55.4108Z" fill="#FFA733"/>
<path d="M60.0449 55.4108H62.902V59.233H60.0449V55.4108Z" fill="#FF6243"/>
<path d="M57.4239 33.9055H83.1791V46.4981H57.4239V33.9055Z" fill="#9BC9FF"/>
<path d="M57.425 46.4981H62.902V50.0766H57.425V46.4981Z" fill="#ACABB1"/>
<path d="M77.7021 33.9055H83.1791V46.4981H77.7021V33.9055Z" fill="#2488FF"/>
<path d="M77.7019 46.4981H78.8668V50.0766H77.7019V46.4981Z" fill="#ACABB1"/>
<path d="M77.7021 46.4981H83.1791V50.0766H77.7021V46.4981Z" fill="#787680"/>
<path d="M32.7478 70.7976H36.3669V75.3121H32.7478V70.7976Z" fill="#ACABB1"/>
<path d="M27.1568 61.9896V46.4918H41.957V61.9896H43.9783V66.4215H25.1355V61.9896H27.1568Z" fill="#2488FF"/>
<path d="M47.2729 59.2321H51.0951V79.2988H47.2729V59.2321Z" fill="#FFA733"/>
<path d="M41.9567 55.4108H52.1836V59.233H41.9567V55.4108Z" fill="#FF6243"/>
<path d="M18.0178 59.2321H21.84V79.2988H18.0178V59.2321Z" fill="#FFA733"/>
<path d="M16.9301 55.4108H27.157V59.233H16.9301V55.4108Z" fill="#FFA733"/>
<path d="M21.6786 33.9055H47.4337V46.4981H21.6786V33.9055Z" fill="#9BC9FF"/>
<path d="M21.68 46.498H27.157V50.0765H21.68V46.498Z" fill="#ACABB1"/>
<path d="M41.9567 46.4981H47.4337V50.0766H41.9567V46.4981Z" fill="#ACABB1"/>
<path d="M38.7072 61.9896V46.4918H41.9523V61.9896H43.9734V66.4215H40.7283V61.9896H38.7072Z" fill="#005ECE"/>
<path d="M49.1797 59.2321H51.0908V79.2988H49.1797V59.2321Z" fill="#FF6243"/>
<path d="M19.9246 59.2321H21.8357V79.2988H19.9246V59.2321Z" fill="#FF6243"/>
<path d="M24.2956 55.4108H27.1527V59.233H24.2956V55.4108Z" fill="#FF6243"/>
<path d="M41.9524 33.9055H47.4295V46.4981H41.9524V33.9055Z" fill="#2488FF"/>
<path d="M41.9524 46.4981H47.4295V50.0766H41.9524V46.4981Z" fill="#787680"/>
<path d="M52.4293 33.3718L48.6887 29.6312H39.8467V12H65.0118V29.6313H56.17L52.4293 33.3718ZM62.869 14.1428H41.9897V27.4885H49.5763L52.4293 30.3415L55.2824 27.4884H62.869V14.1428Z" fill="#1D1D1F"/>
<path d="M61.8303 45.4204H78.7733V60.9182H80.7946V67.4929H71.3732V69.7263H73.1827V74.2408H78.7733V80.3039H76.6305V76.3836H71.3732V80.3039H69.2304V76.3836H63.9731V80.3039H61.8303V74.2408H67.4209V69.7263H69.2304V67.4929H59.8092V60.9182H61.8303V45.4204ZM71.0399 74.2407V71.869H69.5637V74.2407H71.0399ZM61.952 65.3501H78.6518V63.061H71.8093V60.9182H76.6307V47.5632H63.9732V63.061H61.9521L61.952 65.3501Z" fill="#1D1D1F"/>
<path d="M74.756 41.6111H80.6487V43.7539H74.756V41.6111Z" fill="#1D1D1F"/>
<path d="M65.6919 56.4493H67.8347V63.0206H65.6919V56.4493Z" fill="white"/>
<path d="M65.6919 52.878H67.8347V55.0208H65.6919V52.878Z" fill="white"/>
<path d="M65.6919 49.3066H67.8347V51.4495H65.6919V49.3066Z" fill="white"/>
<path d="M80.5591 60.304V58.1612H86.8572V56.4818H80.5591V54.339H89V60.304H87.9118V80.3706H81.9468V60.304H80.5591ZM84.0896 78.2278H85.769V60.304H84.0896V78.2278Z" fill="#1D1D1F"/>
<path d="M80.5591 49.0059H82.1077V47.5698H80.5591V45.427H82.1077V34.9768H58.496V45.427H60.0446V47.5698H58.496V49.0059H60.0446V51.1487H56.3531V32.834H84.2505V51.1487H80.5591V49.0059Z" fill="#1D1D1F"/>
<path d="M59.9735 36.4312H65.7762V38.574H59.9735V36.4312Z" fill="white"/>
<path d="M70.7761 36.4312H72.9189V38.574H70.7761V36.4312Z" fill="white"/>
<path d="M67.2047 36.4312H69.3475V38.574H67.2047V36.4312Z" fill="white"/>
<path d="M56.6765 15.9443L58.1917 17.4594L55.4634 20.1877L58.1917 22.916L56.6765 24.4312L52.4331 20.1877L56.6765 15.9443Z" fill="#1D1D1F"/>
<path d="M47.4252 22.6029H52.1865V24.7457H47.4252V22.6029Z" fill="#1D1D1F"/>
<path d="M26.0853 45.4204H43.0283V60.9182H45.0495V67.4929H35.6281V69.7263H37.4378V74.2408H43.0283V80.3039H40.8854V76.3836H35.6281V80.3039H33.4853V76.3836H28.228V80.3039H26.0852V74.2408H31.6758V69.7263H33.4855V67.4929H24.0642V60.9182H26.0853V45.4204ZM35.2951 74.2407V71.869H33.8187V74.2407H35.2951ZM26.2069 65.3501H42.9068V63.061H36.0644V60.9182H40.8856V47.5632H28.2281V63.061H26.207L26.2069 65.3501Z" fill="#1D1D1F"/>
<path d="M39.0111 41.611H44.9038V43.7538H39.0111V41.611Z" fill="#1D1D1F"/>
<path d="M29.9484 49.3066H32.0912V51.4495H29.9484V49.3066Z" fill="white"/>
<path d="M29.9484 52.878H32.0912V55.0208H29.9484V52.878Z" fill="white"/>
<path d="M29.9484 56.4493H32.0912V63.0206H29.9484V56.4493Z" fill="white"/>
<path d="M44.814 60.304V58.1612H51.1123V56.4818H44.814V54.339H60.0447V56.4818H53.7465V58.1612H60.0447V60.304H58.657V80.3706H52.692V60.304H52.1668V80.3706H46.2018V60.304H44.814ZM54.8348 78.2278H56.5142V60.304H54.8348V78.2278ZM48.3446 78.2278H50.024V60.304H48.3446V78.2278Z" fill="#1D1D1F"/>
<path d="M15.8587 54.339H24.2997V56.4818H18.0016V58.1612H24.2997V60.304H22.912V80.3706H16.947V60.304H15.8587V54.339ZM19.0898 78.2278H20.7692V60.304H19.0898V78.2278Z" fill="#1D1D1F"/>
<path d="M20.6082 32.834H48.5056V51.1487H44.814V49.0059H46.3628V47.5698H44.814V45.427H46.3628V34.9768H22.751V45.427H24.2997V47.5698H22.751V49.0059H24.2997V51.1487H20.6082V32.834Z" fill="#1D1D1F"/>
<path d="M35.0312 36.4312H37.174V38.574H35.0312V36.4312Z" fill="white"/>
<path d="M24.2285 36.4312H30.0312V38.574H24.2285V36.4312Z" fill="white"/>
<path d="M31.4598 36.4312H33.6026V38.574H31.4598V36.4312Z" fill="white"/>
</svg>
