<svg width="121" height="96" viewBox="0 0 121 96" fill="none" xmlns="http://www.w3.org/2000/svg">
<rect width="120.847" height="96" rx="16" fill="#DA922A"/>
<rect width="120.847" height="96" rx="16" stroke="#6F6571"/>
<path d="M71.011 15.7009V31.1894H62.7968L59.5 34.4862L56.2032 31.1894H47.989V15.7009H71.011Z" fill="white"/>
<path d="M67.0874 15.7011H71.0112V31.1894H67.0874V15.7011Z" fill="#ACABB1"/>
<path d="M58.873 31.1894H62.7968L59.5 34.4862L57.5382 32.5242L58.873 31.1894Z" fill="#ACABB1"/>
<path d="M75.5633 73.427H79.1824V77.9415H75.5633V73.427Z" fill="#ACABB1"/>
<path d="M69.9723 64.6191V49.1213H84.7726V64.6191H86.7938V69.051H67.9511V64.6191H69.9723Z" fill="#2488FF"/>
<path d="M81.5275 64.6191V49.1213H84.7726V64.6191H86.7938V69.051H83.5486V64.6191H81.5275Z" fill="#005ECE"/>
<path d="M90.0885 61.8616H93.9107V81.9283H90.0885V61.8616Z" fill="#FFA733"/>
<path d="M91.9996 61.8616H93.9107V81.9283H91.9996V61.8616Z" fill="#FF6243"/>
<path d="M84.7723 58.0402H94.9992V61.8624H84.7723V58.0402Z" fill="#FF6243"/>
<path d="M60.8334 61.8616H64.6556V81.9283H60.8334V61.8616Z" fill="#FFA733"/>
<path d="M62.7445 61.8616H64.6556V81.9283H62.7445V61.8616Z" fill="#FF6243"/>
<path d="M59.7457 58.0402H69.9726V61.8624H59.7457V58.0402Z" fill="#FFA733"/>
<path d="M67.1155 58.0402H69.9726V61.8624H67.1155V58.0402Z" fill="#FF6243"/>
<path d="M64.4946 36.535H90.2497V49.1276H64.4946V36.535Z" fill="#9BC9FF"/>
<path d="M64.4956 49.1276H69.9726V52.7061H64.4956V49.1276Z" fill="#ACABB1"/>
<path d="M84.7727 36.535H90.2497V49.1276H84.7727V36.535Z" fill="#2488FF"/>
<path d="M84.7726 49.1276H85.9374V52.7061H84.7726V49.1276Z" fill="#ACABB1"/>
<path d="M84.7727 49.1276H90.2497V52.7061H84.7727V49.1276Z" fill="#787680"/>
<path d="M39.8184 73.4271H43.4375V77.9415H39.8184V73.4271Z" fill="#ACABB1"/>
<path d="M34.2274 64.6191V49.1213H49.0276V64.6191H51.0489V69.051H32.2061V64.6191H34.2274Z" fill="#2488FF"/>
<path d="M54.3435 61.8616H58.1657V81.9283H54.3435V61.8616Z" fill="#FFA733"/>
<path d="M49.0274 58.0402H59.2543V61.8624H49.0274V58.0402Z" fill="#FF6243"/>
<path d="M25.0884 61.8616H28.9106V81.9283H25.0884V61.8616Z" fill="#FFA733"/>
<path d="M24.0007 58.0402H34.2277V61.8624H24.0007V58.0402Z" fill="#FFA733"/>
<path d="M28.7492 36.535H54.5044V49.1276H28.7492V36.535Z" fill="#9BC9FF"/>
<path d="M28.7507 49.1275H34.2277V52.706H28.7507V49.1275Z" fill="#ACABB1"/>
<path d="M49.0274 49.1276H54.5044V52.7061H49.0274V49.1276Z" fill="#ACABB1"/>
<path d="M45.7779 64.6191V49.1213H49.0229V64.6191H51.044V69.051H47.799V64.6191H45.7779Z" fill="#005ECE"/>
<path d="M56.2503 61.8616H58.1614V81.9283H56.2503V61.8616Z" fill="#FF6243"/>
<path d="M26.9952 61.8616H28.9063V81.9283H26.9952V61.8616Z" fill="#FF6243"/>
<path d="M31.3663 58.0403H34.2234V61.8625H31.3663V58.0403Z" fill="#FF6243"/>
<path d="M49.0231 36.535H54.5001V49.1276H49.0231V36.535Z" fill="#2488FF"/>
<path d="M49.0231 49.1276H54.5001V52.7061H49.0231V49.1276Z" fill="#787680"/>
<path d="M59.5 36.0013L55.7593 32.2606H46.9174V14.6294H72.0824V32.2608H63.2406L59.5 36.0013ZM69.9396 16.7723H49.0603V30.118H56.6469L59.5 32.9709L62.3531 30.1178H69.9396V16.7723Z" fill="#1D1D1F"/>
<path d="M68.9009 48.0499H85.844V63.5477H87.8652V70.1224H78.4438V72.3558H80.2534V76.8703H85.844V82.9334H83.7012V79.0131H78.4438V82.9334H76.301V79.0131H71.0437V82.9334H68.9009V76.8703H74.4915V72.3558H76.301V70.1224H66.8798V63.5477H68.9009V48.0499ZM78.1106 76.8701V74.4984H76.6343V76.8701H78.1106ZM69.0226 67.9796H85.7224V65.6905H78.88V63.5477H83.7013V50.1927H71.0439V65.6905H69.0228L69.0226 67.9796Z" fill="#1D1D1F"/>
<path d="M81.8266 44.2405H87.7194V46.3833H81.8266V44.2405Z" fill="#1D1D1F"/>
<path d="M72.7626 59.0788H74.9054V65.6501H72.7626V59.0788Z" fill="white"/>
<path d="M72.7626 55.5074H74.9054V57.6503H72.7626V55.5074Z" fill="white"/>
<path d="M72.7626 51.9361H74.9054V54.0789H72.7626V51.9361Z" fill="white"/>
<path d="M87.6297 62.9335V60.7906H93.9278V59.1113H87.6297V56.9684H96.0707V62.9335H94.9824V83H89.0174V62.9335H87.6297ZM91.1602 80.8572H92.8396V62.9335H91.1602V80.8572Z" fill="#1D1D1F"/>
<path d="M87.6297 51.6354H89.1784V50.1993H87.6297V48.0565H89.1784V37.6063H65.5666V48.0565H67.1153V50.1993H65.5666V51.6354H67.1153V53.7782H63.4238V35.4635H91.3212V53.7782H87.6297V51.6354Z" fill="#1D1D1F"/>
<path d="M67.0441 39.0606H72.8468V41.2034H67.0441V39.0606Z" fill="white"/>
<path d="M77.8467 39.0606H79.9895V41.2034H77.8467V39.0606Z" fill="white"/>
<path d="M74.2754 39.0606H76.4182V41.2034H74.2754V39.0606Z" fill="white"/>
<path d="M63.7472 18.5738L65.2623 20.0889L62.534 22.8171L65.2623 25.5455L63.7472 27.0606L59.5037 22.8171L63.7472 18.5738Z" fill="#1D1D1F"/>
<path d="M54.4958 25.2323H59.2571V27.3752H54.4958V25.2323Z" fill="#1D1D1F"/>
<path d="M33.156 48.0499H50.0989V63.5477H52.1201V70.1224H42.6988V72.3558H44.5084V76.8702H50.0989V82.9334H47.9561V79.0131H42.6988V82.9334H40.5559V79.0131H35.2986V82.9334H33.1558V76.8702H38.7464V72.3558H40.5561V70.1224H31.1349V63.5477H33.156V48.0499ZM42.3658 76.8701V74.4984H40.8894V76.8701H42.3658ZM33.2775 67.9796H49.9775V65.6905H43.135V63.5477H47.9562V50.1927H35.2988V65.6905H33.2777L33.2775 67.9796Z" fill="#1D1D1F"/>
<path d="M46.0817 44.2405H51.9744V46.3833H46.0817V44.2405Z" fill="#1D1D1F"/>
<path d="M37.019 51.9361H39.1618V54.0789H37.019V51.9361Z" fill="white"/>
<path d="M37.019 55.5074H39.1619V57.6503H37.019V55.5074Z" fill="white"/>
<path d="M37.019 59.0788H39.1619V65.6501H37.019V59.0788Z" fill="white"/>
<path d="M51.8846 62.9335V60.7906H58.1829V59.1113H51.8846V56.9684H67.1153V59.1113H60.8171V60.7906H67.1153V62.9335H65.7276V83H59.7626V62.9335H59.2375V83H53.2725V62.9335H51.8846ZM61.9054 80.8572H63.5848V62.9335H61.9054V80.8572ZM55.4153 80.8572H57.0947V62.9335H55.4153V80.8572Z" fill="#1D1D1F"/>
<path d="M22.9294 56.9684H31.3703V59.1113H25.0722V60.7906H31.3703V62.9335H29.9827V83H24.0176V62.9335H22.9294V56.9684ZM26.1605 80.8572H27.8398V62.9335H26.1605V80.8572Z" fill="#1D1D1F"/>
<path d="M27.6788 35.4635H55.5762V53.7782H51.8846V51.6354H53.4334V50.1993H51.8846V48.0565H53.4334V37.6063H29.8217V48.0565H31.3703V50.1993H29.8217V51.6354H31.3703V53.7782H27.6788V35.4635Z" fill="#1D1D1F"/>
<path d="M42.1018 39.0606H44.2446V41.2034H42.1018V39.0606Z" fill="white"/>
<path d="M31.2991 39.0606H37.1019V41.2034H31.2991V39.0606Z" fill="white"/>
<path d="M38.5304 39.0606H40.6732V41.2034H38.5304V39.0606Z" fill="white"/>
</svg>
