<svg width="102" height="30" viewBox="0 0 102 30" fill="none" xmlns="http://www.w3.org/2000/svg">
<rect width="102" height="30" rx="15" fill="#5D00EF"/>
<rect width="102" height="30" rx="15" stroke="black"/>
<path d="M14.5168 17.344C15.4368 17.344 16.1888 16.98 16.7728 16.252L17.9728 17.488C17.0208 18.56 15.8968 19.096 14.6008 19.096C13.3128 19.096 12.2488 18.688 11.4088 17.872C10.5768 17.056 10.1608 16.028 10.1608 14.788C10.1608 13.54 10.5848 12.5 11.4328 11.668C12.2888 10.836 13.3328 10.42 14.5648 10.42C15.9408 10.42 17.0928 10.944 18.0208 11.992L16.8568 13.312C16.2648 12.576 15.5288 12.208 14.6488 12.208C13.9448 12.208 13.3408 12.44 12.8368 12.904C12.3408 13.36 12.0928 13.98 12.0928 14.764C12.0928 15.54 12.3288 16.164 12.8008 16.636C13.2728 17.108 13.8448 17.344 14.5168 17.344ZM20.4561 15.772C20.4561 16.3 20.6041 16.732 20.9001 17.068C21.2041 17.396 21.5881 17.56 22.0521 17.56C22.5241 17.56 22.9081 17.396 23.2041 17.068C23.5081 16.732 23.6601 16.3 23.6601 15.772C23.6601 15.244 23.5081 14.812 23.2041 14.476C22.9081 14.14 22.5241 13.972 22.0521 13.972C21.5881 13.972 21.2041 14.14 20.9001 14.476C20.6041 14.812 20.4561 15.244 20.4561 15.772ZM25.4721 15.772C25.4721 16.708 25.1481 17.496 24.5001 18.136C23.8521 18.776 23.0361 19.096 22.0521 19.096C21.0761 19.096 20.2641 18.776 19.6161 18.136C18.9681 17.496 18.6441 16.708 18.6441 15.772C18.6441 14.836 18.9681 14.048 19.6161 13.408C20.2641 12.76 21.0761 12.436 22.0521 12.436C23.0361 12.436 23.8521 12.76 24.5001 13.408C25.1481 14.048 25.4721 14.836 25.4721 15.772ZM32.737 15.52V19H30.925V15.472C30.925 14.96 30.845 14.584 30.685 14.344C30.533 14.104 30.281 13.984 29.929 13.984C29.585 13.984 29.277 14.116 29.005 14.38C28.741 14.636 28.609 15.016 28.609 15.52V19H26.809V12.544H28.609V13.276C29.105 12.716 29.673 12.436 30.313 12.436C30.721 12.436 31.089 12.556 31.417 12.796C31.753 13.036 32.005 13.328 32.173 13.672C32.421 13.28 32.753 12.976 33.169 12.76C33.593 12.544 34.017 12.436 34.441 12.436C35.201 12.436 35.813 12.664 36.277 13.12C36.741 13.568 36.973 14.22 36.973 15.076V19H35.161V15.472C35.161 14.48 34.797 13.984 34.069 13.984C33.709 13.984 33.397 14.116 33.133 14.38C32.869 14.636 32.737 15.016 32.737 15.52ZM42.3658 12.436C43.1178 12.436 43.7858 12.752 44.3698 13.384C44.9618 14.008 45.2578 14.796 45.2578 15.748C45.2578 16.7 44.9618 17.496 44.3698 18.136C43.7858 18.776 43.0978 19.096 42.3058 19.096C41.5218 19.096 40.8898 18.78 40.4098 18.148V21.328H38.6098V12.544H40.4098V13.264C40.9618 12.712 41.6138 12.436 42.3658 12.436ZM40.3858 15.784C40.3858 16.304 40.5298 16.732 40.8178 17.068C41.1138 17.396 41.4698 17.56 41.8858 17.56C42.3018 17.56 42.6658 17.396 42.9778 17.068C43.2898 16.732 43.4458 16.304 43.4458 15.784C43.4458 15.264 43.2938 14.828 42.9898 14.476C42.6858 14.124 42.3218 13.948 41.8978 13.948C41.4738 13.948 41.1138 14.124 40.8178 14.476C40.5298 14.82 40.3858 15.256 40.3858 15.784ZM52.194 18.064C51.466 18.752 50.61 19.096 49.626 19.096C48.65 19.096 47.842 18.796 47.202 18.196C46.562 17.588 46.242 16.776 46.242 15.76C46.242 14.744 46.566 13.936 47.214 13.336C47.87 12.736 48.642 12.436 49.53 12.436C50.418 12.436 51.17 12.704 51.786 13.24C52.41 13.776 52.722 14.512 52.722 15.448V16.408H48.018C48.074 16.76 48.258 17.048 48.57 17.272C48.882 17.496 49.234 17.608 49.626 17.608C50.258 17.608 50.778 17.396 51.186 16.972L52.194 18.064ZM50.898 15.124C50.858 14.74 50.714 14.444 50.466 14.236C50.218 14.028 49.914 13.924 49.554 13.924C49.202 13.924 48.878 14.032 48.582 14.248C48.286 14.464 48.114 14.756 48.066 15.124H50.898ZM56.0977 13.84V16.732C56.0977 16.98 56.1617 17.176 56.2897 17.32C56.4177 17.456 56.5697 17.524 56.7457 17.524C57.0817 17.524 57.3657 17.372 57.5977 17.068L58.2697 18.328C57.7097 18.84 57.1177 19.096 56.4937 19.096C55.8777 19.096 55.3537 18.892 54.9217 18.484C54.4977 18.076 54.2857 17.52 54.2857 16.816V13.84H53.5297V12.544H54.2857V10.612H56.0977V12.544H57.6577V13.84H56.0977ZM61.0348 19H59.2348V12.544H61.0348V19ZM59.3788 11.728C59.1788 11.52 59.0788 11.268 59.0788 10.972C59.0788 10.676 59.1788 10.428 59.3788 10.228C59.5868 10.02 59.8388 9.916 60.1348 9.916C60.4308 9.916 60.6788 10.02 60.8788 10.228C61.0868 10.428 61.1908 10.676 61.1908 10.972C61.1908 11.268 61.0868 11.52 60.8788 11.728C60.6788 11.928 60.4308 12.028 60.1348 12.028C59.8388 12.028 59.5868 11.928 59.3788 11.728ZM64.8867 13.84V16.732C64.8867 16.98 64.9507 17.176 65.0787 17.32C65.2067 17.456 65.3587 17.524 65.5347 17.524C65.8707 17.524 66.1547 17.372 66.3867 17.068L67.0587 18.328C66.4987 18.84 65.9067 19.096 65.2827 19.096C64.6667 19.096 64.1427 18.892 63.7107 18.484C63.2867 18.076 63.0747 17.52 63.0747 16.816V13.84H62.3187V12.544H63.0747V10.612H64.8867V12.544H66.4467V13.84H64.8867ZM69.8239 19H68.0239V12.544H69.8239V19ZM68.1679 11.728C67.9679 11.52 67.8679 11.268 67.8679 10.972C67.8679 10.676 67.9679 10.428 68.1679 10.228C68.3759 10.02 68.6279 9.916 68.9239 9.916C69.2199 9.916 69.4679 10.02 69.6679 10.228C69.8759 10.428 69.9799 10.676 69.9799 10.972C69.9799 11.268 69.8759 11.52 69.6679 11.728C69.4679 11.928 69.2199 12.028 68.9239 12.028C68.6279 12.028 68.3759 11.928 68.1679 11.728ZM72.9678 15.772C72.9678 16.3 73.1158 16.732 73.4118 17.068C73.7158 17.396 74.0998 17.56 74.5638 17.56C75.0358 17.56 75.4198 17.396 75.7158 17.068C76.0198 16.732 76.1718 16.3 76.1718 15.772C76.1718 15.244 76.0198 14.812 75.7158 14.476C75.4198 14.14 75.0358 13.972 74.5638 13.972C74.0998 13.972 73.7158 14.14 73.4118 14.476C73.1158 14.812 72.9678 15.244 72.9678 15.772ZM77.9838 15.772C77.9838 16.708 77.6598 17.496 77.0118 18.136C76.3638 18.776 75.5478 19.096 74.5638 19.096C73.5878 19.096 72.7758 18.776 72.1278 18.136C71.4798 17.496 71.1558 16.708 71.1558 15.772C71.1558 14.836 71.4798 14.048 72.1278 13.408C72.7758 12.76 73.5878 12.436 74.5638 12.436C75.5478 12.436 76.3638 12.76 77.0118 13.408C77.6598 14.048 77.9838 14.836 77.9838 15.772ZM81.1208 15.4V19H79.3208V12.544H81.1208V13.264C81.6648 12.712 82.2768 12.436 82.9568 12.436C83.6368 12.436 84.2048 12.676 84.6608 13.156C85.1248 13.636 85.3568 14.276 85.3568 15.076V19H83.5568V15.352C83.5568 14.36 83.1928 13.864 82.4648 13.864C82.1048 13.864 81.7888 13.996 81.5168 14.26C81.2528 14.516 81.1208 14.896 81.1208 15.4ZM91.8448 16.996C91.8448 17.628 91.6088 18.136 91.1368 18.52C90.6728 18.904 90.0808 19.096 89.3608 19.096C88.8808 19.096 88.3808 19.012 87.8608 18.844C87.3408 18.668 86.8728 18.412 86.4568 18.076L87.2488 16.948C87.9208 17.468 88.6368 17.728 89.3968 17.728C89.6288 17.728 89.8128 17.684 89.9488 17.596C90.0848 17.5 90.1528 17.376 90.1528 17.224C90.1528 17.072 90.0568 16.932 89.8648 16.804C89.6808 16.676 89.4088 16.556 89.0488 16.444C88.6968 16.332 88.4248 16.236 88.2328 16.156C88.0488 16.076 87.8368 15.96 87.5968 15.808C87.1088 15.504 86.8648 15.056 86.8648 14.464C86.8648 13.864 87.1048 13.376 87.5848 13C88.0648 12.624 88.6848 12.436 89.4448 12.436C90.2048 12.436 90.9648 12.692 91.7248 13.204L91.0528 14.404C90.4928 14.02 89.9328 13.828 89.3728 13.828C88.8208 13.828 88.5448 13.98 88.5448 14.284C88.5448 14.452 88.6328 14.584 88.8088 14.68C88.9848 14.776 89.2768 14.888 89.6848 15.016C90.0928 15.144 90.3808 15.244 90.5488 15.316C90.7248 15.38 90.9328 15.484 91.1728 15.628C91.6208 15.9 91.8448 16.356 91.8448 16.996Z" fill="white"/>
</svg>
