<svg width="105" height="29" viewBox="0 0 105 29" fill="none" xmlns="http://www.w3.org/2000/svg">
<rect width="105" height="29" rx="14.5" fill="#5D00EF"/>
<path d="M16.5168 17.344C17.4368 17.344 18.1888 16.98 18.7728 16.252L19.9728 17.488C19.0208 18.56 17.8968 19.096 16.6008 19.096C15.3128 19.096 14.2488 18.688 13.4088 17.872C12.5768 17.056 12.1608 16.028 12.1608 14.788C12.1608 13.54 12.5848 12.5 13.4328 11.668C14.2888 10.836 15.3328 10.42 16.5648 10.42C17.9408 10.42 19.0928 10.944 20.0208 11.992L18.8568 13.312C18.2648 12.576 17.5288 12.208 16.6488 12.208C15.9448 12.208 15.3408 12.44 14.8368 12.904C14.3408 13.36 14.0928 13.98 14.0928 14.764C14.0928 15.54 14.3288 16.164 14.8008 16.636C15.2728 17.108 15.8448 17.344 16.5168 17.344ZM22.4561 15.772C22.4561 16.3 22.6041 16.732 22.9001 17.068C23.2041 17.396 23.5881 17.56 24.0521 17.56C24.5241 17.56 24.9081 17.396 25.2041 17.068C25.5081 16.732 25.6601 16.3 25.6601 15.772C25.6601 15.244 25.5081 14.812 25.2041 14.476C24.9081 14.14 24.5241 13.972 24.0521 13.972C23.5881 13.972 23.2041 14.14 22.9001 14.476C22.6041 14.812 22.4561 15.244 22.4561 15.772ZM27.4721 15.772C27.4721 16.708 27.1481 17.496 26.5001 18.136C25.8521 18.776 25.0361 19.096 24.0521 19.096C23.0761 19.096 22.2641 18.776 21.6161 18.136C20.9681 17.496 20.6441 16.708 20.6441 15.772C20.6441 14.836 20.9681 14.048 21.6161 13.408C22.2641 12.76 23.0761 12.436 24.0521 12.436C25.0361 12.436 25.8521 12.76 26.5001 13.408C27.1481 14.048 27.4721 14.836 27.4721 15.772ZM34.737 15.52V19H32.925V15.472C32.925 14.96 32.845 14.584 32.685 14.344C32.533 14.104 32.281 13.984 31.929 13.984C31.585 13.984 31.277 14.116 31.005 14.38C30.741 14.636 30.609 15.016 30.609 15.52V19H28.809V12.544H30.609V13.276C31.105 12.716 31.673 12.436 32.313 12.436C32.721 12.436 33.089 12.556 33.417 12.796C33.753 13.036 34.005 13.328 34.173 13.672C34.421 13.28 34.753 12.976 35.169 12.76C35.593 12.544 36.017 12.436 36.441 12.436C37.201 12.436 37.813 12.664 38.277 13.12C38.741 13.568 38.973 14.22 38.973 15.076V19H37.161V15.472C37.161 14.48 36.797 13.984 36.069 13.984C35.709 13.984 35.397 14.116 35.133 14.38C34.869 14.636 34.737 15.016 34.737 15.52ZM44.3658 12.436C45.1178 12.436 45.7858 12.752 46.3698 13.384C46.9618 14.008 47.2578 14.796 47.2578 15.748C47.2578 16.7 46.9618 17.496 46.3698 18.136C45.7858 18.776 45.0978 19.096 44.3058 19.096C43.5218 19.096 42.8898 18.78 42.4098 18.148V21.328H40.6098V12.544H42.4098V13.264C42.9618 12.712 43.6138 12.436 44.3658 12.436ZM42.3858 15.784C42.3858 16.304 42.5298 16.732 42.8178 17.068C43.1138 17.396 43.4698 17.56 43.8858 17.56C44.3018 17.56 44.6658 17.396 44.9778 17.068C45.2898 16.732 45.4458 16.304 45.4458 15.784C45.4458 15.264 45.2938 14.828 44.9898 14.476C44.6858 14.124 44.3218 13.948 43.8978 13.948C43.4738 13.948 43.1138 14.124 42.8178 14.476C42.5298 14.82 42.3858 15.256 42.3858 15.784ZM54.194 18.064C53.466 18.752 52.61 19.096 51.626 19.096C50.65 19.096 49.842 18.796 49.202 18.196C48.562 17.588 48.242 16.776 48.242 15.76C48.242 14.744 48.566 13.936 49.214 13.336C49.87 12.736 50.642 12.436 51.53 12.436C52.418 12.436 53.17 12.704 53.786 13.24C54.41 13.776 54.722 14.512 54.722 15.448V16.408H50.018C50.074 16.76 50.258 17.048 50.57 17.272C50.882 17.496 51.234 17.608 51.626 17.608C52.258 17.608 52.778 17.396 53.186 16.972L54.194 18.064ZM52.898 15.124C52.858 14.74 52.714 14.444 52.466 14.236C52.218 14.028 51.914 13.924 51.554 13.924C51.202 13.924 50.878 14.032 50.582 14.248C50.286 14.464 50.114 14.756 50.066 15.124H52.898ZM58.0977 13.84V16.732C58.0977 16.98 58.1617 17.176 58.2897 17.32C58.4177 17.456 58.5697 17.524 58.7457 17.524C59.0817 17.524 59.3657 17.372 59.5977 17.068L60.2697 18.328C59.7097 18.84 59.1177 19.096 58.4937 19.096C57.8777 19.096 57.3537 18.892 56.9217 18.484C56.4977 18.076 56.2857 17.52 56.2857 16.816V13.84H55.5297V12.544H56.2857V10.612H58.0977V12.544H59.6577V13.84H58.0977ZM63.0348 19H61.2348V12.544H63.0348V19ZM61.3788 11.728C61.1788 11.52 61.0788 11.268 61.0788 10.972C61.0788 10.676 61.1788 10.428 61.3788 10.228C61.5868 10.02 61.8388 9.916 62.1348 9.916C62.4308 9.916 62.6788 10.02 62.8788 10.228C63.0868 10.428 63.1908 10.676 63.1908 10.972C63.1908 11.268 63.0868 11.52 62.8788 11.728C62.6788 11.928 62.4308 12.028 62.1348 12.028C61.8388 12.028 61.5868 11.928 61.3788 11.728ZM66.8867 13.84V16.732C66.8867 16.98 66.9507 17.176 67.0787 17.32C67.2067 17.456 67.3587 17.524 67.5347 17.524C67.8707 17.524 68.1547 17.372 68.3867 17.068L69.0587 18.328C68.4987 18.84 67.9067 19.096 67.2827 19.096C66.6667 19.096 66.1427 18.892 65.7107 18.484C65.2867 18.076 65.0747 17.52 65.0747 16.816V13.84H64.3187V12.544H65.0747V10.612H66.8867V12.544H68.4467V13.84H66.8867ZM71.8239 19H70.0239V12.544H71.8239V19ZM70.1679 11.728C69.9679 11.52 69.8679 11.268 69.8679 10.972C69.8679 10.676 69.9679 10.428 70.1679 10.228C70.3759 10.02 70.6279 9.916 70.9239 9.916C71.2199 9.916 71.4679 10.02 71.6679 10.228C71.8759 10.428 71.9799 10.676 71.9799 10.972C71.9799 11.268 71.8759 11.52 71.6679 11.728C71.4679 11.928 71.2199 12.028 70.9239 12.028C70.6279 12.028 70.3759 11.928 70.1679 11.728ZM74.9678 15.772C74.9678 16.3 75.1158 16.732 75.4118 17.068C75.7158 17.396 76.0998 17.56 76.5638 17.56C77.0358 17.56 77.4198 17.396 77.7158 17.068C78.0198 16.732 78.1718 16.3 78.1718 15.772C78.1718 15.244 78.0198 14.812 77.7158 14.476C77.4198 14.14 77.0358 13.972 76.5638 13.972C76.0998 13.972 75.7158 14.14 75.4118 14.476C75.1158 14.812 74.9678 15.244 74.9678 15.772ZM79.9838 15.772C79.9838 16.708 79.6598 17.496 79.0118 18.136C78.3638 18.776 77.5478 19.096 76.5638 19.096C75.5878 19.096 74.7758 18.776 74.1278 18.136C73.4798 17.496 73.1558 16.708 73.1558 15.772C73.1558 14.836 73.4798 14.048 74.1278 13.408C74.7758 12.76 75.5878 12.436 76.5638 12.436C77.5478 12.436 78.3638 12.76 79.0118 13.408C79.6598 14.048 79.9838 14.836 79.9838 15.772ZM83.1208 15.4V19H81.3208V12.544H83.1208V13.264C83.6648 12.712 84.2768 12.436 84.9568 12.436C85.6368 12.436 86.2048 12.676 86.6608 13.156C87.1248 13.636 87.3568 14.276 87.3568 15.076V19H85.5568V15.352C85.5568 14.36 85.1928 13.864 84.4648 13.864C84.1048 13.864 83.7888 13.996 83.5168 14.26C83.2528 14.516 83.1208 14.896 83.1208 15.4ZM93.8448 16.996C93.8448 17.628 93.6088 18.136 93.1368 18.52C92.6728 18.904 92.0808 19.096 91.3608 19.096C90.8808 19.096 90.3808 19.012 89.8608 18.844C89.3408 18.668 88.8728 18.412 88.4568 18.076L89.2488 16.948C89.9208 17.468 90.6368 17.728 91.3968 17.728C91.6288 17.728 91.8128 17.684 91.9488 17.596C92.0848 17.5 92.1528 17.376 92.1528 17.224C92.1528 17.072 92.0568 16.932 91.8648 16.804C91.6808 16.676 91.4088 16.556 91.0488 16.444C90.6968 16.332 90.4248 16.236 90.2328 16.156C90.0488 16.076 89.8368 15.96 89.5968 15.808C89.1088 15.504 88.8648 15.056 88.8648 14.464C88.8648 13.864 89.1048 13.376 89.5848 13C90.0648 12.624 90.6848 12.436 91.4448 12.436C92.2048 12.436 92.9648 12.692 93.7248 13.204L93.0528 14.404C92.4928 14.02 91.9328 13.828 91.3728 13.828C90.8208 13.828 90.5448 13.98 90.5448 14.284C90.5448 14.452 90.6328 14.584 90.8088 14.68C90.9848 14.776 91.2768 14.888 91.6848 15.016C92.0928 15.144 92.3808 15.244 92.5488 15.316C92.7248 15.38 92.9328 15.484 93.1728 15.628C93.6208 15.9 93.8448 16.356 93.8448 16.996Z" fill="white"/>
</svg>
