<svg width="75" height="75" viewBox="0 0 75 75" fill="none" xmlns="http://www.w3.org/2000/svg">
<rect y="0.405396" width="74.2725" height="74.2725" rx="19" fill="white"/>
<path d="M33.9261 60.1257C33.7288 59.8964 33.4941 59.7177 33.2221 59.5897C32.9555 59.4617 32.6835 59.3977 32.4061 59.3977C32.0595 59.3977 31.7421 59.4804 31.4541 59.6457C31.1661 59.8111 30.9395 60.0404 30.7741 60.3337C30.6088 60.6217 30.5261 60.9391 30.5261 61.2857C30.5261 61.6324 30.6088 61.9524 30.7741 62.2457C30.9395 62.5337 31.1661 62.7631 31.4541 62.9337C31.7421 63.0991 32.0595 63.1817 32.4061 63.1817C32.6728 63.1817 32.9395 63.1231 33.2061 63.0057C33.4781 62.8884 33.7181 62.7257 33.9261 62.5177L34.5581 63.2217C34.2648 63.5204 33.9235 63.7577 33.5341 63.9337C33.1448 64.1044 32.7501 64.1897 32.3501 64.1897C31.8115 64.1897 31.3181 64.0617 30.8701 63.8057C30.4221 63.5497 30.0701 63.2031 29.8141 62.7657C29.5581 62.3231 29.4301 61.8351 29.4301 61.3017C29.4301 60.7684 29.5608 60.2831 29.8221 59.8457C30.0835 59.4084 30.4381 59.0644 30.8861 58.8137C31.3395 58.5631 31.8408 58.4377 32.3901 58.4377C32.7901 58.4377 33.1821 58.5177 33.5661 58.6777C33.9501 58.8377 34.2781 59.0591 34.5501 59.3417L33.9261 60.1257ZM38.9605 59.9497C38.6725 59.7737 38.3765 59.6377 38.0725 59.5417C37.7738 59.4457 37.5098 59.3977 37.2805 59.3977C37.0245 59.3977 36.8218 59.4457 36.6725 59.5417C36.5231 59.6377 36.4485 59.7711 36.4485 59.9417C36.4485 60.0964 36.4991 60.2271 36.6005 60.3337C36.7071 60.4351 36.8378 60.5204 36.9925 60.5897C37.1525 60.6537 37.3685 60.7257 37.6405 60.8057C38.0191 60.9177 38.3285 61.0297 38.5685 61.1417C38.8138 61.2537 39.0218 61.4191 39.1925 61.6377C39.3631 61.8564 39.4485 62.1444 39.4485 62.5017C39.4485 62.8431 39.3551 63.1417 39.1685 63.3977C38.9871 63.6484 38.7338 63.8404 38.4085 63.9737C38.0885 64.1071 37.7205 64.1737 37.3045 64.1737C36.8671 64.1737 36.4405 64.0937 36.0245 63.9337C35.6085 63.7684 35.2458 63.5497 34.9365 63.2777L35.3845 62.3657C35.6671 62.6271 35.9845 62.8324 36.3365 62.9817C36.6885 63.1311 37.0165 63.2057 37.3205 63.2057C37.6191 63.2057 37.8538 63.1497 38.0245 63.0377C38.1951 62.9204 38.2805 62.7631 38.2805 62.5657C38.2805 62.4057 38.2271 62.2751 38.1205 62.1737C38.0191 62.0671 37.8885 61.9817 37.7285 61.9177C37.5685 61.8537 37.3498 61.7817 37.0725 61.7017C36.6938 61.5897 36.3845 61.4804 36.1445 61.3737C35.9045 61.2671 35.6991 61.1071 35.5285 60.8937C35.3578 60.6751 35.2725 60.3897 35.2725 60.0377C35.2725 59.7124 35.3578 59.4297 35.5285 59.1897C35.7045 58.9444 35.9498 58.7551 36.2645 58.6217C36.5845 58.4884 36.9525 58.4217 37.3685 58.4217C37.7311 58.4217 38.0885 58.4751 38.4405 58.5817C38.7978 58.6884 39.1151 58.8324 39.3925 59.0137L38.9605 59.9497ZM40.4639 58.5097H44.5679V59.4457H41.5359V60.8297H44.2559V61.7657H41.5359V63.1737H44.6639V64.1097H40.4639V58.5097Z" fill="black"/>
<path d="M24.9991 25.9971C24.7231 25.9971 24.4993 26.2209 24.4993 26.4969V28.9962C24.4993 29.2723 24.7231 29.4961 24.9991 29.4961C25.2752 29.4961 25.499 29.2723 25.499 28.9962V26.4969C25.499 26.2209 25.2752 25.9971 24.9991 25.9971Z" fill="#0B3446"/>
<path d="M27.4983 29.4961C28.3261 29.4952 28.9968 28.8243 28.9977 27.9965V27.4968C28.9977 26.6685 28.3263 25.9971 27.4983 25.9971C26.67 25.9971 25.9987 26.6685 25.9987 27.4968V27.9965C25.9996 28.8243 26.6704 29.4952 27.4983 29.4961ZM26.9983 27.4968C26.9983 27.2206 27.2221 26.9968 27.4983 26.9968C27.7742 26.9968 27.998 27.2206 27.998 27.4968V27.9965C27.998 28.2727 27.7742 28.4964 27.4983 28.4964C27.2221 28.4964 26.9983 28.2727 26.9983 27.9965V27.4968Z" fill="#0B3446"/>
<path d="M29.9977 29.4961C30.2736 29.4961 30.4974 29.2723 30.4974 28.9962V26.4969C30.4974 26.2209 30.2736 25.9971 29.9977 25.9971C29.7215 25.9971 29.4977 26.2209 29.4977 26.4969V28.9962C29.4977 29.2723 29.7215 29.4961 29.9977 29.4961Z" fill="#0B3446"/>
<path d="M32.4966 29.4961C33.3244 29.4952 33.9953 28.8243 33.9962 27.9965V27.4968C33.9962 26.6685 33.3249 25.9971 32.4966 25.9971C31.6685 25.9971 30.9972 26.6685 30.9972 27.4968V27.9965C30.9981 28.8243 31.6688 29.4952 32.4966 29.4961ZM31.9969 27.4968C31.9969 27.2206 32.2206 26.9968 32.4966 26.9968C32.7728 26.9968 32.9965 27.2206 32.9965 27.4968V27.9965C32.9965 28.2727 32.7728 28.4964 32.4966 28.4964C32.2206 28.4964 31.9969 28.2727 31.9969 27.9965V27.4968Z" fill="#0B3446"/>
<path d="M34.9959 29.4961C35.2718 29.4961 35.4956 29.2723 35.4956 28.9962V26.4969C35.4956 26.2209 35.2718 25.9971 34.9959 25.9971C34.7197 25.9971 34.4959 26.2209 34.4959 26.4969V28.9962C34.4959 29.2723 34.7197 29.4961 34.9959 29.4961Z" fill="#0B3446"/>
<path d="M24.9991 30.496C24.7231 30.496 24.4993 30.7197 24.4993 30.9957V33.495C24.4993 33.7709 24.7231 33.9947 24.9991 33.9947C25.2752 33.9947 25.499 33.7709 25.499 33.495V30.9957C25.499 30.7197 25.2752 30.496 24.9991 30.496Z" fill="#0B3446"/>
<path d="M27.998 31.9954V32.4953C27.998 33.3234 28.6696 33.9947 29.4977 33.9947C30.3257 33.9947 30.9973 33.3234 30.9973 32.4953V31.9954C30.9973 31.1673 30.3257 30.496 29.4977 30.496C28.6696 30.496 27.998 31.1673 27.998 31.9954ZM28.9977 31.9954C28.9977 31.7194 29.2217 31.4956 29.4977 31.4956C29.7736 31.4956 29.9976 31.7194 29.9976 31.9954V32.4953C29.9976 32.7713 29.7736 32.995 29.4977 32.995C29.2217 32.995 28.9977 32.7713 28.9977 32.4953V31.9954Z" fill="#0B3446"/>
<path d="M27.4984 30.9957C27.4984 30.7197 27.2746 30.496 26.9984 30.496C26.7225 30.496 26.4987 30.7197 26.4987 30.9957V33.495C26.4987 33.7709 26.7225 33.9947 26.9984 33.9947C27.2746 33.9947 27.4984 33.7709 27.4984 33.495V30.9957Z" fill="#0B3446"/>
<path d="M34.496 30.496C33.6684 30.4969 32.9976 31.1678 32.9966 31.9954V32.4953C32.9966 33.3234 33.668 33.9947 34.496 33.9947C35.3243 33.9947 35.9957 33.3234 35.9957 32.4953V31.9954C35.9947 31.1678 35.3239 30.4969 34.496 30.496ZM34.996 32.4953C34.996 32.7713 34.7722 32.995 34.496 32.995C34.2201 32.995 33.9963 32.7713 33.9963 32.4953V31.9954C33.9963 31.7194 34.2201 31.4956 34.496 31.4956C34.7722 31.4956 34.996 31.7194 34.996 31.9954V32.4953Z" fill="#0B3446"/>
<path d="M24.9991 34.9947C24.7231 34.9947 24.4993 35.2185 24.4993 35.4944V37.9937C24.4993 38.2697 24.7231 38.4934 24.9991 38.4934C25.2752 38.4934 25.499 38.2697 25.499 37.9937V35.4944C25.499 35.2185 25.2752 34.9947 24.9991 34.9947Z" fill="#0B3446"/>
<path d="M30.9973 36.4941C30.9973 35.666 30.3257 34.9947 29.4977 34.9947C28.6696 34.9947 27.998 35.666 27.998 36.4941V36.994C27.998 37.8221 28.6696 38.4934 29.4977 38.4934C30.3257 38.4934 30.9973 37.8221 30.9973 36.994V36.4941ZM29.9976 36.994C29.9976 37.27 29.7736 37.4938 29.4977 37.4938C29.2217 37.4938 28.9977 37.27 28.9977 36.994V36.4941C28.9977 36.2181 29.2217 35.9944 29.4977 35.9944C29.7736 35.9944 29.9976 36.2181 29.9976 36.4941V36.994Z" fill="#0B3446"/>
<path d="M26.9984 34.9947C26.7225 34.9947 26.4987 35.2185 26.4987 35.4944V37.9937C26.4987 38.2697 26.7225 38.4934 26.9984 38.4934C27.2746 38.4934 27.4984 38.2697 27.4984 37.9937V35.4944C27.4984 35.2185 27.2746 34.9947 26.9984 34.9947Z" fill="#0B3446"/>
<path d="M32.9965 34.9947C32.1687 34.9956 31.4978 35.6662 31.4969 36.4941V36.994C31.4969 37.8221 32.1682 38.4934 32.9965 38.4934C33.8246 38.4934 34.4959 37.8221 34.4959 36.994V36.4941C34.495 35.6662 33.8243 34.9956 32.9965 34.9947ZM33.4962 36.994C33.4962 37.27 33.2725 37.4938 32.9965 37.4938C32.7203 37.4938 32.4966 37.27 32.4966 36.994V36.4941C32.4966 36.2181 32.7203 35.9944 32.9965 35.9944C33.2725 35.9944 33.4962 36.2181 33.4962 36.4941V36.994Z" fill="#0B3446"/>
<path d="M24.9991 39.493C24.7231 39.493 24.4993 39.7168 24.4993 39.9929V42.4922C24.4993 42.7682 24.7231 42.992 24.9991 42.992C25.2752 42.992 25.499 42.7682 25.499 42.4922V39.9929C25.499 39.7168 25.2752 39.493 24.9991 39.493Z" fill="#0B3446"/>
<path d="M27.4983 39.493C26.6704 39.4939 25.9996 40.1648 25.9987 40.9926V41.4923C25.9987 42.3206 26.67 42.992 27.4983 42.992C28.3263 42.992 28.9977 42.3206 28.9977 41.4923V40.9926C28.9968 40.1648 28.3261 39.4939 27.4983 39.493ZM27.998 41.4923C27.998 41.7685 27.7742 41.9923 27.4983 41.9923C27.2221 41.9923 26.9983 41.7685 26.9983 41.4923V40.9926C26.9983 40.7164 27.2221 40.4927 27.4983 40.4927C27.7742 40.4927 27.998 40.7164 27.998 40.9926V41.4923Z" fill="#0B3446"/>
<path d="M29.9977 39.493C29.7215 39.493 29.4977 39.7168 29.4977 39.9929V42.4922C29.4977 42.7682 29.7215 42.992 29.9977 42.992C30.2736 42.992 30.4974 42.7682 30.4974 42.4922V39.9929C30.4974 39.7168 30.2736 39.493 29.9977 39.493Z" fill="#0B3446"/>
<path d="M32.4966 39.493C31.6688 39.4939 30.9981 40.1648 30.9972 40.9926V41.4923C30.9972 42.3206 31.6685 42.992 32.4966 42.992C33.3249 42.992 33.9962 42.3206 33.9962 41.4923V40.9926C33.9953 40.1648 33.3244 39.4939 32.4966 39.493ZM32.9965 41.4923C32.9965 41.7685 32.7728 41.9923 32.4966 41.9923C32.2206 41.9923 31.9969 41.7685 31.9969 41.4923V40.9926C31.9969 40.7164 32.2206 40.4927 32.4966 40.4927C32.7728 40.4927 32.9965 40.7164 32.9965 40.9926V41.4923Z" fill="#0B3446"/>
<path d="M31.4969 30.9957V33.495C31.4969 33.7709 31.7207 33.9947 31.9968 33.9947C32.2728 33.9947 32.4966 33.7709 32.4966 33.495V30.9957C32.4966 30.7197 32.2728 30.496 31.9968 30.496C31.7207 30.496 31.4969 30.7197 31.4969 30.9957Z" fill="#0B3446"/>
<path d="M38.9947 27.9965V27.4968C38.9947 26.6685 38.3234 25.9971 37.4953 25.9971C36.667 25.9971 35.9957 26.6685 35.9957 27.4968V27.9965C35.9957 28.8248 36.667 29.4961 37.4953 29.4961C38.3234 29.4961 38.9947 28.8248 38.9947 27.9965ZM36.9953 27.9965V27.4968C36.9953 27.2206 37.2191 26.9968 37.4953 26.9968C37.7712 26.9968 37.995 27.2206 37.995 27.4968V27.9965C37.995 28.2727 37.7712 28.4964 37.4953 28.4964C37.2191 28.4964 36.9953 28.2727 36.9953 27.9965Z" fill="#0B3446"/>
<path d="M51.6044 33.5064C51.1297 32.6818 50.3306 32.094 49.4021 31.8857C48.8422 31.7436 48.2649 31.6819 47.6877 31.7029C46.8239 30.0273 45.6101 28.9963 44.2431 28.9963C43.8082 29.0016 43.3805 29.1075 42.9934 29.3057V24.4977C42.9934 24.4871 42.9879 24.4778 42.9874 24.467C42.9847 24.4228 42.976 24.3791 42.9616 24.3373C42.9568 24.3217 42.9513 24.3062 42.9451 24.2911C42.9215 24.2366 42.8883 24.1869 42.8469 24.1444L35.8492 17.1464C35.8069 17.1055 35.7575 17.0725 35.7035 17.049C35.6875 17.0423 35.6712 17.0366 35.6545 17.0316C35.614 17.0178 35.5717 17.0096 35.5289 17.0066C35.5174 17.0059 35.5071 17 35.4957 17H23.4996C22.6718 17.0009 22.0009 17.6718 22 18.4996V45.4913C22.0009 46.3191 22.6718 46.9897 23.4996 46.9907H41.494C41.9283 46.9884 42.3401 46.7985 42.6238 46.4697C43.1 46.7998 43.6636 46.9811 44.2431 46.9907C45.6114 46.9907 46.8262 45.9576 47.6899 44.279C47.751 44.2806 47.8149 44.2875 47.8753 44.2875C48.3901 44.2921 48.9036 44.2296 49.4021 44.1012C50.3306 43.893 51.1294 43.3054 51.6044 42.4808C52.2808 41.2363 52.0435 39.6168 51.1093 37.9936C52.0435 36.3706 52.2806 34.7509 51.6044 33.5064ZM47.5664 34.2411C47.2703 34.0292 46.966 33.8217 46.6456 33.6252C46.3017 33.414 45.953 33.2211 45.6027 33.0428C46.0819 32.9055 46.5715 32.8072 47.0664 32.7486C47.2685 33.2337 47.4355 33.7325 47.5664 34.2413V34.2411ZM42.7968 30.6282C42.8176 30.6142 42.8373 30.5987 42.8556 30.5817C43.2316 30.2243 43.7249 30.0161 44.2431 29.996C45.1275 29.996 45.9517 30.6801 46.604 31.8031C45.7924 31.9317 44.9966 32.1463 44.2306 32.4438C43.4711 32.1498 42.6829 31.9368 41.8788 31.8082C42.1227 31.3705 42.4323 30.9725 42.7968 30.6284V30.6282ZM42.8865 33.0403C42.5351 33.2188 42.1854 33.4133 41.8406 33.6252C41.5201 33.8217 41.2157 34.0292 40.9197 34.2411C41.051 33.7313 41.2185 33.2316 41.421 32.7456C41.9166 32.8042 42.4067 32.9028 42.8865 33.0405V33.0403ZM35.9957 18.7067L41.2869 23.9979H36.4954C36.2194 23.9977 35.9959 23.7739 35.9957 23.498V18.7067ZM41.494 45.991H23.4996C23.2237 45.9908 22.9999 45.7672 22.9997 45.4913V18.4996C22.9999 18.2237 23.2237 17.9999 23.4996 17.9997H34.996V23.498C34.9969 24.3258 35.6678 24.9967 36.4954 24.9976H41.9937V30.0241C41.5089 30.5177 41.1052 31.0849 40.7977 31.7045C40.2209 31.6832 39.6438 31.7441 39.0841 31.8857C38.1554 32.094 37.3566 32.6818 36.8816 33.5062C36.2055 34.7509 36.4428 36.3702 37.377 37.9936C36.4428 39.6166 36.2055 41.2361 36.8816 42.4808C37.3566 43.3052 38.1554 43.893 39.0841 44.1012C39.5827 44.2296 40.0959 44.2921 40.611 44.2875C40.6712 44.2875 40.735 44.2806 40.7961 44.279C41.0771 44.8401 41.4347 45.3595 41.8589 45.8217C41.7667 45.9274 41.634 45.9889 41.494 45.991ZM39.5045 39.1692C39.1665 38.8004 38.856 38.4073 38.5748 37.9936C38.856 37.5797 39.1667 37.1868 39.5045 36.818C39.4788 37.2028 39.4612 37.5934 39.4612 37.9936C39.4612 38.3938 39.4791 38.7841 39.5047 39.1692H39.5045ZM39.6852 40.7631C39.8243 41.6198 40.0477 42.4607 40.3524 43.2732C40.0117 43.2629 39.6731 43.2169 39.342 43.1354C38.6785 42.9986 38.1037 42.5874 37.76 42.0035C37.3191 41.1919 37.45 40.1028 38.0126 38.9525C38.5085 39.6104 39.0688 40.217 39.6855 40.7631H39.6852ZM39.6852 35.2239C39.0688 35.77 38.5085 36.3766 38.0126 37.0344C37.4502 35.8844 37.3191 34.7951 37.76 33.9832C38.1037 33.3995 38.6785 32.9884 39.342 32.8515C39.6733 32.7692 40.0122 32.722 40.3536 32.7111C40.0484 33.5245 39.8246 34.3663 39.6855 35.2239H39.6852ZM40.9194 41.7456C41.2157 41.9577 41.5198 42.165 41.8402 42.3618C42.1857 42.5737 42.536 42.7629 42.8879 42.9416C42.4072 43.0798 41.9159 43.1787 41.4192 43.2373C41.2173 42.7526 41.0505 42.2541 40.9197 41.7456H40.9194ZM44.2431 45.991C43.7148 45.9704 43.2128 45.7555 42.8332 45.3874C42.8131 45.3666 42.7911 45.3476 42.7675 45.3306C42.417 44.9936 42.1182 44.6065 41.8807 44.182C42.6884 44.0546 43.4803 43.842 44.2431 43.5473C45.0058 43.842 45.7977 44.0548 46.6054 44.182C45.9526 45.3062 45.1277 45.991 44.2431 45.991ZM47.0669 43.2375C46.5699 43.1789 46.0787 43.0801 45.5977 42.9421C45.9496 42.7634 46.3001 42.5739 46.6454 42.3623C46.9658 42.1655 47.2703 41.958 47.5662 41.7461C47.4353 42.2545 47.2685 42.7529 47.0669 43.2375ZM47.8641 40.2428C46.7797 41.1695 45.5583 41.9223 44.2431 42.4744C42.9279 41.9223 41.7063 41.1695 40.6222 40.2428C40.4074 38.751 40.4074 37.236 40.6222 35.7442C41.7054 34.8189 42.9252 34.0665 44.2383 33.5139C45.5561 34.0633 46.7795 34.8159 47.8641 35.7442C48.0787 37.236 48.0787 38.751 47.8641 40.2428ZM50.726 42.0037C50.3824 42.5874 49.8076 42.9986 49.144 43.1354C48.8129 43.2167 48.4743 43.2629 48.1336 43.2732C48.4382 42.4607 48.6617 41.6198 48.8006 40.7631C49.4172 40.217 49.9776 39.6104 50.4734 38.9525C51.0356 40.1028 51.1669 41.1921 50.726 42.0037ZM48.9816 36.8177C49.3195 37.1868 49.6303 37.5797 49.9112 37.9936C49.6303 38.4073 49.3195 38.8004 48.9816 39.1692C49.0072 38.7844 49.025 38.3938 49.025 37.9936C49.025 37.5932 49.007 37.2028 48.9816 36.8177ZM50.4736 37.0344C49.9778 36.3766 49.4172 35.77 48.8006 35.2239C48.6617 34.367 48.4382 33.5261 48.1334 32.7131C48.4741 32.7236 48.8127 32.7701 49.1438 32.8515C49.8076 32.9884 50.3821 33.3998 50.7258 33.9835C51.1669 34.7951 51.0356 35.8842 50.4734 37.0344H50.4736Z" fill="#0B3446"/>
<path d="M50.4911 17.4999C50.4911 17.2237 50.2673 16.9999 49.9914 16.9999C49.7152 16.9999 49.4914 17.2237 49.4914 17.4999V17.9996C49.4914 18.2758 49.7152 18.4996 49.9914 18.4996C50.2673 18.4996 50.4911 18.2758 50.4911 17.9996V17.4999Z" fill="#0B3446"/>
<path d="M49.9914 20.999C50.2673 20.999 50.4911 20.7752 50.4911 20.499V19.9993C50.4911 19.7231 50.2673 19.4993 49.9914 19.4993C49.7152 19.4993 49.4914 19.7231 49.4914 19.9993V20.499C49.4914 20.7752 49.7152 20.999 49.9914 20.999Z" fill="#0B3446"/>
<path d="M48.9917 19.4993C49.2676 19.4993 49.4914 19.2755 49.4914 18.9993C49.4914 18.7234 49.2676 18.4996 48.9917 18.4996H48.4917C48.2157 18.4996 47.9919 18.7234 47.9919 18.9993C47.9919 19.2755 48.2157 19.4993 48.4917 19.4993H48.9917Z" fill="#0B3446"/>
<path d="M50.991 19.4993H51.4907C51.7669 19.4993 51.9907 19.2755 51.9907 18.9993C51.9907 18.7234 51.7669 18.4996 51.4907 18.4996H50.991C50.7148 18.4996 50.491 18.7234 50.491 18.9993C50.491 19.2755 50.7148 19.4993 50.991 19.4993Z" fill="#0B3446"/>
<path d="M46.4924 22.4983C45.3881 22.4983 44.493 23.3934 44.493 24.4976C44.493 25.6019 45.3881 26.497 46.4924 26.497C47.5966 26.497 48.4917 25.6019 48.4917 24.4976C48.4906 23.3939 47.5962 22.4994 46.4924 22.4983ZM46.4924 25.4973C45.9403 25.4973 45.4927 25.0498 45.4927 24.4976C45.4927 23.9455 45.9403 23.498 46.4924 23.498C47.0445 23.498 47.4921 23.9455 47.4921 24.4976C47.4914 25.0495 47.0443 25.4969 46.4924 25.4973Z" fill="#0B3446"/>
</svg>
