<svg width="106" height="100" viewBox="0 0 106 100" fill="none" xmlns="http://www.w3.org/2000/svg">
<path d="M52.6379 3.77338C38.7282 7.96028 30.6459 8.53122 28.3435 8.29332C9.05087 5.6765 0 3.77338 0 37.3161C0 70.8589 27.8671 104.639 61.2124 99.168C94.5577 93.6964 112.898 60.6295 103.132 27.0868C93.3668 -6.45596 70.0251 -1.46024 52.6379 3.77338Z" fill="#464548" fill-opacity="0.4"/>
<path d="M34 73.6915V83.307C34 85.1358 36.0075 86.5953 39.967 87.6441C43.3917 88.5511 47.9268 89.0508 52.7372 89.0508C57.5477 89.0508 62.0827 88.5511 65.5074 87.6441C69.4669 86.5953 71.4744 85.1358 71.4744 83.307V73.6915H34Z" fill="#914BFF"/>
<path d="M34 63.5918V73.2067C34 75.0361 36.0075 76.4956 39.967 77.5438C43.3917 78.4508 47.9268 78.9505 52.7372 78.9505C57.5477 78.9505 62.0827 78.4508 65.5074 77.5438C69.4669 76.4956 71.4744 75.0361 71.4744 73.2067V63.5918H34Z" fill="#5E16CF"/>
<path d="M52.7372 26.1267C50.3004 26.1267 48.3176 28.1095 48.3176 30.5463C48.3176 32.9832 50.3004 34.966 52.7372 34.966C55.1741 34.966 57.1569 32.9832 57.1569 30.5463C57.1569 28.1095 55.1741 26.1267 52.7372 26.1267Z" fill="#F45A3C"/>
<path d="M52.7372 26.1267C52.1078 26.1267 51.5098 26.2597 50.9672 26.4978C52.5251 27.1821 53.6168 28.7389 53.6168 30.5463C53.6168 32.3538 52.5251 33.9105 50.9672 34.5949C51.5098 34.8329 52.1078 34.966 52.7372 34.966C55.1741 34.966 57.1569 32.9832 57.1569 30.5463C57.1569 28.1095 55.1741 26.1267 52.7372 26.1267Z" fill="#E24A2A"/>
<path d="M60.4693 31.6084C59.8828 31.6084 59.4073 31.1329 59.4073 30.5464C59.4073 26.8683 56.4152 23.8763 52.7372 23.8763C49.0596 23.8763 46.067 26.8683 46.067 30.5464C46.067 31.1329 45.5916 31.6084 45.005 31.6084C44.4185 31.6084 43.943 31.1329 43.943 30.5464C43.943 25.6969 47.8882 21.7522 52.7372 21.7522C57.5861 21.7522 61.5313 25.6974 61.5313 30.5464C61.5313 31.1329 61.0558 31.6084 60.4693 31.6084Z" fill="#D0CFD1"/>
<path d="M65.2215 31.6084C64.635 31.6084 64.1595 31.1329 64.1595 30.5464C64.1595 24.2478 59.0357 19.1241 52.7372 19.1241C46.4387 19.1241 41.3149 24.2478 41.3149 30.5464C41.3149 31.1329 40.8394 31.6084 40.2529 31.6084C39.6664 31.6084 39.1909 31.1329 39.1909 30.5464C39.1909 23.077 45.2678 17 52.7372 17C60.2066 17 66.2836 23.077 66.2836 30.5464C66.2836 31.1329 65.8081 31.6084 65.2215 31.6084Z" fill="#D0CFD1"/>
<path d="M34 53.4916V63.107C34 64.9359 36.0075 66.3953 39.967 67.4442C43.3917 68.3512 47.9268 68.8509 52.7372 68.8509C57.5477 68.8509 62.0827 68.3512 65.5074 67.4442C69.4669 66.3953 71.4744 64.9359 71.4744 63.107V53.4916H34Z" fill="#914BFF"/>
<path d="M34 43.3913V53.0067C34 54.8361 36.0075 56.295 39.967 57.3439C43.3917 58.2509 47.9268 58.7506 52.7372 58.7506C57.5477 58.7506 62.0827 58.2509 65.5074 57.3439C69.4669 56.295 71.4744 54.8361 71.4744 53.0067V43.3913H34Z" fill="#5E16CF"/>
<path d="M68.2174 73.6915V83.307C68.2174 85.1358 66.2099 86.5953 62.2504 87.6441C59.2155 88.4483 55.3071 88.931 51.109 89.0305C51.6472 89.0437 52.1903 89.0508 52.7372 89.0508C57.5477 89.0508 62.0827 88.5511 65.5074 87.6441C69.4669 86.5953 71.4744 85.1358 71.4744 83.307V73.6915H68.2174Z" fill="#4001A4"/>
<path d="M68.2174 63.5918V73.2067C68.2174 75.0361 66.2099 76.4956 62.2504 77.5438C59.2155 78.3481 55.3071 78.8307 51.109 78.9307C51.6472 78.9434 52.1903 78.9505 52.7372 78.9505C57.5477 78.9505 62.0827 78.4508 65.5074 77.5438C69.4669 76.4956 71.4744 75.0361 71.4744 73.2067V63.5918H68.2174Z" fill="#4001A4"/>
<path d="M68.2174 53.4915V63.1069C68.2174 64.9358 66.2099 66.3953 62.2504 67.4441C59.2155 68.2478 55.3071 68.731 51.109 68.8305C51.6472 68.8431 52.1903 68.8508 52.7372 68.8508C57.5477 68.8508 62.0827 68.3511 65.5074 67.4441C69.4669 66.3953 71.4744 64.9358 71.4744 63.1069V53.4915H68.2174Z" fill="#4001A4"/>
<path d="M68.2174 42.8251V53.0067C68.2174 54.8361 66.2099 56.295 62.2504 57.3439C59.2155 58.1481 55.3071 58.6307 51.109 58.7308C51.6472 58.7434 52.1903 58.7506 52.7372 58.7506C57.5477 58.7506 62.0828 58.2509 65.5074 57.3439C69.4669 56.295 71.4744 54.8361 71.4744 53.0067V42.8251H68.2174Z" fill="#4001A4"/>
<path d="M65.5074 38.5693C62.0827 37.6623 57.5477 37.1626 52.7372 37.1626C47.9268 37.1626 43.3917 37.6623 39.967 38.5693C36.0075 39.6181 34 41.0776 34 42.9065C34 44.7359 36.0075 46.1953 39.967 47.2436C43.3917 48.1512 47.9268 48.6503 52.7372 48.6503C57.5477 48.6503 62.0827 48.1512 65.5074 47.2436C69.4669 46.1953 71.4744 44.7359 71.4744 42.9065C71.4744 41.0776 69.4669 39.6181 65.5074 38.5693Z" fill="#914BFF"/>
<path d="M65.5074 38.5693C62.0828 37.6623 57.5477 37.1626 52.7372 37.1626C52.1425 37.1626 51.5521 37.1708 50.9672 37.1857C55.112 37.2929 58.9659 37.7744 61.9673 38.5693C65.9268 39.6181 67.9344 41.077 67.9344 42.9065C67.9344 44.7359 65.9268 46.1948 61.9673 47.2436C58.9659 48.0385 55.112 48.5206 50.9672 48.6272C51.5521 48.6426 52.1425 48.6503 52.7372 48.6503C57.5477 48.6503 62.0828 48.1506 65.5074 47.2436C67.6331 46.6802 69.1965 45.9991 70.1881 45.2059C71.044 44.5215 71.4745 43.7535 71.4745 42.9065C71.4745 41.0776 69.4669 39.6181 65.5074 38.5693Z" fill="#4001A4"/>
</svg>
