<svg width="121" height="96" viewBox="0 0 121 96" fill="none" xmlns="http://www.w3.org/2000/svg">
<rect width="120.847" height="96" rx="16" fill="#F9D457"/>
<rect width="120.847" height="96" rx="16" stroke="black"/>
<path d="M42 68.6915V78.307C42 80.1358 44.0075 81.5953 47.967 82.6441C51.3917 83.5511 55.9268 84.0508 60.7372 84.0508C65.5477 84.0508 70.0827 83.5511 73.5074 82.6441C77.4669 81.5953 79.4744 80.1358 79.4744 78.307V68.6915H42Z" fill="#F9E075"/>
<path d="M42 58.5918V68.2067C42 70.0361 44.0075 71.4956 47.967 72.5439C51.3917 73.4509 55.9268 73.9505 60.7372 73.9505C65.5477 73.9505 70.0827 73.4509 73.5074 72.5439C77.4669 71.4956 79.4744 70.0361 79.4744 68.2067V58.5918H42Z" fill="#F9CD45"/>
<path d="M60.7373 21.1267C58.3004 21.1267 56.3176 23.1095 56.3176 25.5464C56.3176 27.9832 58.3004 29.966 60.7373 29.966C63.1741 29.966 65.1569 27.9832 65.1569 25.5464C65.1569 23.1095 63.1741 21.1267 60.7373 21.1267Z" fill="#F45A3C"/>
<path d="M60.7372 21.1267C60.1078 21.1267 59.5098 21.2598 58.9672 21.4978C60.5251 22.1822 61.6168 23.7389 61.6168 25.5464C61.6168 27.3538 60.5251 28.9105 58.9672 29.5949C59.5098 29.833 60.1078 29.966 60.7372 29.966C63.1741 29.966 65.1569 27.9832 65.1569 25.5464C65.1569 23.1095 63.1741 21.1267 60.7372 21.1267Z" fill="#E24A2A"/>
<path d="M68.4693 26.6084C67.8828 26.6084 67.4073 26.1329 67.4073 25.5463C67.4073 21.8683 64.4152 18.8762 60.7372 18.8762C57.0596 18.8762 54.067 21.8683 54.067 25.5463C54.067 26.1329 53.5916 26.6084 53.005 26.6084C52.4185 26.6084 51.943 26.1329 51.943 25.5463C51.943 20.6969 55.8882 16.7522 60.7372 16.7522C65.5861 16.7522 69.5313 20.6974 69.5313 25.5463C69.5313 26.1329 69.0558 26.6084 68.4693 26.6084Z" fill="#D0CFD1"/>
<path d="M73.2215 26.6084C72.635 26.6084 72.1595 26.1329 72.1595 25.5464C72.1595 19.2478 67.0357 14.1241 60.7372 14.1241C54.4387 14.1241 49.3149 19.2478 49.3149 25.5464C49.3149 26.1329 48.8394 26.6084 48.2529 26.6084C47.6663 26.6084 47.1908 26.1329 47.1908 25.5464C47.1908 18.077 53.2678 12 60.7372 12C68.2066 12 74.2836 18.077 74.2836 25.5464C74.2836 26.1329 73.8081 26.6084 73.2215 26.6084Z" fill="#D0CFD1"/>
<path d="M42 48.4916V58.107C42 59.9359 44.0075 61.3953 47.967 62.4442C51.3917 63.3512 55.9268 63.8508 60.7372 63.8508C65.5477 63.8508 70.0827 63.3512 73.5074 62.4442C77.4669 61.3953 79.4744 59.9359 79.4744 58.107V48.4916H42Z" fill="#F9E075"/>
<path d="M42 38.3913V48.0067C42 49.8361 44.0075 51.295 47.967 52.3439C51.3917 53.2509 55.9268 53.7506 60.7372 53.7506C65.5477 53.7506 70.0827 53.2509 73.5074 52.3439C77.4669 51.295 79.4744 49.8361 79.4744 48.0067V38.3913H42Z" fill="#F9CD45"/>
<path d="M76.2174 68.6915V78.3069C76.2174 80.1358 74.2099 81.5953 70.2504 82.6441C67.2155 83.4483 63.3071 83.931 59.109 84.0305C59.6472 84.0436 60.1903 84.0508 60.7372 84.0508C65.5477 84.0508 70.0828 83.5511 73.5074 82.6441C77.4669 81.5953 79.4744 80.1358 79.4744 78.3069V68.6915H76.2174Z" fill="#F8C03C"/>
<path d="M76.2174 58.5918V68.2067C76.2174 70.0361 74.2099 71.4956 70.2504 72.5439C67.2155 73.3481 63.3071 73.8307 59.109 73.9308C59.6472 73.9434 60.1903 73.9506 60.7372 73.9506C65.5477 73.9506 70.0828 73.4509 73.5074 72.5439C77.4669 71.4956 79.4744 70.0361 79.4744 68.2067V58.5918H76.2174Z" fill="#F8C03C"/>
<path d="M76.2174 48.4915V58.107C76.2174 59.9358 74.2099 61.3953 70.2504 62.4441C67.2155 63.2478 63.3071 63.731 59.109 63.8305C59.6472 63.8431 60.1903 63.8508 60.7372 63.8508C65.5477 63.8508 70.0828 63.3511 73.5074 62.4441C77.4669 61.3953 79.4744 59.9358 79.4744 58.107V48.4915H76.2174Z" fill="#F8C03C"/>
<path d="M76.2175 37.8251V48.0067C76.2175 49.8361 74.2099 51.295 70.2504 52.3439C67.2155 53.1481 63.3071 53.6307 59.109 53.7308C59.6472 53.7434 60.1903 53.7506 60.7372 53.7506C65.5477 53.7506 70.0828 53.2509 73.5074 52.3439C77.4669 51.295 79.4745 49.8361 79.4745 48.0067V37.8251H76.2175Z" fill="#F8C03C"/>
<path d="M73.5074 33.5693C70.0827 32.6623 65.5477 32.1626 60.7372 32.1626C55.9268 32.1626 51.3917 32.6623 47.967 33.5693C44.0075 34.6181 42 36.0776 42 37.9065C42 39.7359 44.0075 41.1953 47.967 42.2436C51.3917 43.1512 55.9268 43.6503 60.7372 43.6503C65.5477 43.6503 70.0827 43.1512 73.5074 42.2436C77.4669 41.1953 79.4744 39.7359 79.4744 37.9065C79.4744 36.0776 77.4669 34.6181 73.5074 33.5693Z" fill="#F9E075"/>
<path d="M73.5074 33.5693C70.0828 32.6623 65.5477 32.1626 60.7372 32.1626C60.1425 32.1626 59.5521 32.1708 58.9672 32.1857C63.112 32.2929 66.9659 32.7744 69.9673 33.5693C73.9268 34.6181 75.9344 36.077 75.9344 37.9065C75.9344 39.7359 73.9268 41.1948 69.9673 42.2436C66.9659 43.0385 63.112 43.5206 58.9672 43.6272C59.5521 43.6426 60.1425 43.6503 60.7372 43.6503C65.5477 43.6503 70.0828 43.1506 73.5074 42.2436C75.6331 41.6802 77.1965 40.9991 78.1881 40.2059C79.044 39.5215 79.4745 38.7535 79.4745 37.9065C79.4745 36.0776 77.4669 34.6181 73.5074 33.5693Z" fill="#F8C03C"/>
</svg>
