<svg width="75" height="75" viewBox="0 0 75 75" fill="none" xmlns="http://www.w3.org/2000/svg">
<rect y="0.405396" width="74.2725" height="74.2725" rx="19" fill="white"/>
<path d="M29.3176 58.5097H33.4216V59.4457H30.3896V60.8297H33.1096V61.7657H30.3896V63.1737H33.5176V64.1097H29.3176V58.5097ZM38.6626 60.1257C38.4653 59.8964 38.2306 59.7177 37.9586 59.5897C37.692 59.4617 37.42 59.3977 37.1426 59.3977C36.796 59.3977 36.4786 59.4804 36.1906 59.6457C35.9026 59.8111 35.676 60.0404 35.5106 60.3337C35.3453 60.6217 35.2626 60.9391 35.2626 61.2857C35.2626 61.6324 35.3453 61.9524 35.5106 62.2457C35.676 62.5337 35.9026 62.7631 36.1906 62.9337C36.4786 63.0991 36.796 63.1817 37.1426 63.1817C37.4093 63.1817 37.676 63.1231 37.9426 63.0057C38.2146 62.8884 38.4546 62.7257 38.6626 62.5177L39.2946 63.2217C39.0013 63.5204 38.66 63.7577 38.2706 63.9337C37.8813 64.1044 37.4866 64.1897 37.0866 64.1897C36.548 64.1897 36.0546 64.0617 35.6066 63.8057C35.1586 63.5497 34.8066 63.2031 34.5506 62.7657C34.2946 62.3231 34.1666 61.8351 34.1666 61.3017C34.1666 60.7684 34.2973 60.2831 34.5586 59.8457C34.82 59.4084 35.1746 59.0644 35.6226 58.8137C36.076 58.5631 36.5773 58.4377 37.1266 58.4377C37.5266 58.4377 37.9186 58.5177 38.3026 58.6777C38.6866 58.8377 39.0146 59.0591 39.2866 59.3417L38.6626 60.1257ZM40.177 58.5097H44.281V59.4457H41.249V60.8297H43.969V61.7657H41.249V63.1737H44.377V64.1097H40.177V58.5097Z" fill="black"/>
<path d="M36.9961 39.1221C40.0108 39.1221 40.673 37.2387 40.6998 37.1587C40.7601 36.9779 40.7193 36.779 40.5929 36.6363C40.4668 36.4938 40.274 36.4297 40.0874 36.4677C39.9007 36.506 39.7487 36.6407 39.6885 36.8213C39.6843 36.8339 39.2149 38.0561 36.9961 38.0561C34.8011 38.0561 34.3253 36.8784 34.3014 36.8142C34.2063 36.5355 33.9035 36.3867 33.6249 36.4819C33.3462 36.5768 33.1974 36.8798 33.2925 37.1585C33.3194 37.2387 33.9816 39.1221 36.9961 39.1221Z" fill="#5D00EF"/>
<path d="M32.1704 38.4164C32.0762 38.1376 31.7739 37.9877 31.4948 38.0819C31.2159 38.1761 31.0663 38.4787 31.1605 38.7575C31.2015 38.8812 32.225 41.7869 36.996 41.7869C41.7672 41.7869 42.7907 38.8812 42.8317 38.7575C42.892 38.577 42.8513 38.3779 42.7251 38.2354C42.5987 38.0929 42.406 38.0287 42.2193 38.0668C42.0327 38.1049 41.8807 38.2398 41.8204 38.4203C41.8128 38.4435 41.0074 40.7209 36.996 40.7209C33.0419 40.7209 32.207 38.5189 32.1704 38.4164Z" fill="#5D00EF"/>
<path d="M30.0387 40.0167C29.9428 39.7408 29.6424 39.5934 29.3652 39.6866C29.0883 39.7798 28.938 40.0787 29.0283 40.3566C29.0842 40.5237 30.4686 44.4519 36.996 44.4519C43.5237 44.4519 44.9081 40.5237 44.9637 40.3566C45.024 40.176 44.9832 39.9769 44.8571 39.8345C44.7307 39.692 44.538 39.6275 44.3513 39.6656C44.1649 39.7039 44.0127 39.8386 43.9524 40.0194C43.9412 40.0531 42.7637 43.386 36.996 43.386C31.2864 43.386 30.0899 40.1633 30.0387 40.0167Z" fill="#5D00EF"/>
<path d="M36.996 33.2591C37.8792 33.2591 38.5951 32.5432 38.5951 31.66C38.5951 30.777 37.8792 30.0611 36.996 30.0611C36.113 30.0611 35.3971 30.777 35.3971 31.66C35.3981 32.5427 36.1134 33.2581 36.996 33.2591ZM36.996 31.1271C37.2905 31.1271 37.5291 31.3657 37.5291 31.66C37.5291 31.9545 37.2905 32.1931 36.996 32.1931C36.7017 32.1931 36.4631 31.9545 36.4631 31.66C36.4633 31.366 36.7019 31.1273 36.996 31.1271Z" fill="#5D00EF"/>
<path d="M21.6369 26.0928C22.4057 26.6359 23.3338 26.9067 24.2739 26.8618C24.7873 26.8584 25.2992 26.8069 25.803 26.7084V30.8606C25.8003 31.728 26.3976 32.4821 27.2425 32.6783C28.0875 32.8745 28.9558 32.4607 29.3357 31.6806C31.5407 31.8895 34.0223 34.0632 34.2263 34.9042C34.3697 35.503 34.9053 35.9248 35.5211 35.9241H38.4712C39.087 35.9248 39.6226 35.503 39.766 34.9042C39.9698 34.0634 42.4516 31.8895 44.6566 31.6806C45.0362 32.4607 45.9048 32.8745 46.7497 32.6783C47.5947 32.4821 48.192 31.728 48.1893 30.8606V26.7084C48.6929 26.8069 49.2048 26.8584 49.7181 26.8621C50.6577 26.9067 51.5851 26.6366 52.3534 26.0945C52.9412 25.6163 53.1493 24.8111 52.8673 24.1079C52.8626 24.0923 52.857 24.0769 52.8509 24.0616C52.6514 23.5182 52.1417 23.1505 51.5632 23.1322H48.1893V22.8655C48.1893 21.8352 47.3539 21 46.3237 21C45.2934 21 44.4582 21.8352 44.4582 22.8655V23.1322H41.0838C40.5051 23.1503 39.9954 23.5182 39.796 24.0618C39.7902 24.076 39.7853 24.0904 39.7809 24.1053C39.4969 24.8084 39.7043 25.6143 40.2921 26.0935C41.0609 26.6362 41.989 26.9067 42.9291 26.8621C43.4425 26.8584 43.9544 26.8069 44.4582 26.7084V28.4619H41.2602C40.7054 28.4444 40.1623 28.2972 39.674 28.0327C37.9898 27.1837 36.0025 27.1837 34.318 28.0327C33.83 28.2972 33.2869 28.4444 32.7321 28.4619H29.5341V26.7084C30.0379 26.8069 30.5498 26.8584 31.0634 26.8621C32.0028 26.907 32.9302 26.6366 33.6985 26.0945C34.2865 25.6165 34.4949 24.8111 34.2121 24.1079C34.2075 24.0923 34.2021 24.0769 34.1962 24.0618C33.9969 23.518 33.487 23.1498 32.908 23.132H29.5341V22.8655C29.5341 21.8352 28.6989 21 27.6686 21C26.6382 21 25.803 21.8352 25.803 22.8655V23.132H22.4291C21.8504 23.1498 21.3404 23.518 21.1411 24.0616C21.1355 24.0757 21.1304 24.0901 21.126 24.105C20.842 24.8079 21.0491 25.6138 21.6369 26.0928ZM27.6686 31.6599C27.2272 31.6594 26.8695 31.3017 26.869 30.8606V26.4483C27.1371 26.3719 27.4036 26.287 27.6686 26.194C27.9333 26.2875 28.2 26.3722 28.4681 26.4483V30.8606C28.4676 31.3017 28.1099 31.6594 27.6686 31.6599ZM46.3237 31.6599C45.8824 31.6594 45.5247 31.3017 45.5242 30.8606V26.4485C45.7916 26.3722 46.058 26.2875 46.3235 26.1943C46.589 26.2882 46.8556 26.3729 47.1233 26.4488V30.8606C47.1228 31.3017 46.7651 31.6594 46.3237 31.6599ZM45.5242 22.8655C45.5242 22.4239 45.8821 22.066 46.3237 22.066C46.7651 22.066 47.1233 22.4239 47.1233 22.8655V23.132H45.5242V22.8655ZM40.9367 25.2444C40.7271 25.0453 40.6651 24.736 40.782 24.4715C40.7869 24.4598 40.7915 24.4476 40.7954 24.4351C40.8389 24.3078 40.9504 24.216 41.0838 24.198H51.5632C51.6961 24.216 51.8074 24.3075 51.8511 24.4344C51.8555 24.4468 51.8601 24.459 51.865 24.4712C51.9821 24.7362 51.9196 25.0463 51.7091 25.2452C51.1452 25.6748 50.0204 26.0752 47.8584 25.5463C47.4007 25.4335 46.9498 25.2949 46.5079 25.1317C46.4831 25.1259 46.4579 25.122 46.4326 25.12C46.3608 25.0973 46.2837 25.0976 46.212 25.1205C46.1876 25.1222 46.1632 25.1261 46.1393 25.1317C45.6977 25.2949 45.247 25.4333 44.7898 25.546C42.6273 26.0752 41.502 25.6746 40.9367 25.2444ZM32.7321 29.5279C33.4372 29.5116 34.1291 29.333 34.754 29.0055C36.1608 28.2806 37.8314 28.2806 39.2383 29.0055C39.8631 29.333 40.5548 29.5116 41.2602 29.5279H44.4582V30.6278C41.9468 30.937 39.0592 33.2956 38.7303 34.6534C38.7015 34.7732 38.5944 34.8579 38.4712 34.8581H35.5211C35.3976 34.8579 35.2908 34.7732 35.262 34.6534C34.9331 33.2956 32.0455 30.9372 29.5341 30.6278V29.5279H32.7321ZM26.869 22.8655C26.869 22.4239 27.2269 22.066 27.6686 22.066C28.1102 22.066 28.4681 22.4239 28.4681 22.8655V23.132H26.869V22.8655ZM22.1276 24.4715C22.1322 24.4598 22.1368 24.4476 22.1407 24.4351C22.1842 24.3078 22.2959 24.216 22.4291 24.198H32.908C33.041 24.216 33.1522 24.3073 33.1959 24.4339C33.2 24.4466 33.2047 24.4593 33.2095 24.4712C33.3269 24.7362 33.2644 25.0463 33.0536 25.2449C32.4903 25.6741 31.3652 26.0745 29.2035 25.546C28.746 25.4328 28.2949 25.2945 27.8528 25.1312C27.8281 25.1256 27.803 25.1217 27.7779 25.1198C27.7059 25.0971 27.6288 25.0973 27.5568 25.1202C27.5324 25.1222 27.5083 25.1259 27.4843 25.1312C27.0425 25.2945 26.5918 25.4326 26.1346 25.5455C23.9714 26.0755 22.8466 25.6743 22.2815 25.2435C22.0722 25.0446 22.0104 24.7355 22.1276 24.4715Z" fill="#5D00EF"/>
</svg>
