<svg width="75" height="75" viewBox="0 0 75 75" fill="none" xmlns="http://www.w3.org/2000/svg">
<rect width="74.2725" height="74.2725" rx="19" fill="white"/>
<path d="M29.878 58.9924H33.982V59.9284H30.95V61.3124H33.67V62.2484H30.95V63.6564H34.078V64.5924H29.878V58.9924ZM35.167 58.9924H39.271V59.9284H36.239V61.3124H38.959V62.2484H36.239V63.6564H39.367V64.5924H35.167V58.9924ZM40.4561 58.9924H44.5601V59.9284H41.5281V61.3124H44.2481V62.2484H41.5281V63.6564H44.6561V64.5924H40.4561V58.9924Z" fill="black"/>
<path d="M48.5266 27.8223L41.1101 25.7034V22.0004H45.8157V22.853H45.1142C44.8937 22.853 44.7149 23.0317 44.7149 23.2523V24.9037C44.7149 25.1243 44.8937 25.3031 45.1142 25.3031H47.316C47.5366 25.3031 47.7154 25.1243 47.7154 24.9037V23.2524C47.7154 23.0318 47.5366 22.853 47.316 22.853H46.6144V22.0004H48.4169C48.6161 22.0004 48.7848 21.8537 48.8125 21.6565C48.8401 21.4592 48.7181 21.2718 48.5267 21.2171L40.8298 19.0181C40.8294 19.018 40.8289 19.0179 40.8285 19.0178L40.8204 19.0155C40.8172 19.0146 40.8142 19.0141 40.811 19.0133C40.8025 19.0111 40.7938 19.0089 40.7851 19.0073C40.7787 19.0061 40.7724 19.0053 40.766 19.0044C40.7597 19.0035 40.7534 19.0025 40.747 19.0019C40.7381 19.0011 40.7293 19.0008 40.7205 19.0006C40.7172 19.0004 40.714 19 40.7107 19H40.7021C40.7018 19 40.7013 19 40.701 19H34.1155C34.1148 19 34.1141 19 34.1134 19H34.1056C34.1025 19 34.0995 19.0004 34.0965 19.0005C34.0874 19.0007 34.0782 19.001 34.0691 19.0019C34.063 19.0024 34.057 19.0033 34.0508 19.0042C34.0443 19.0052 34.0377 19.006 34.031 19.0072C34.0223 19.0089 34.0139 19.011 34.0056 19.0131C34.0023 19.014 33.9991 19.0145 33.9958 19.0154L33.9875 19.0178C33.9872 19.0179 33.9869 19.0179 33.9866 19.018L26.2897 21.2171C26.0982 21.2718 25.9763 21.4592 26.0039 21.6565C26.0315 21.8537 26.2003 22.0004 26.3994 22.0004H28.2018V22.853H27.5002C27.2797 22.853 27.1009 23.0317 27.1009 23.2523V24.9037C27.1009 25.1243 27.2797 25.3031 27.5002 25.3031H29.702C29.9226 25.3031 30.1014 25.1243 30.1014 24.9037V23.2524C30.1014 23.0318 29.9226 22.853 29.702 22.853H29.0005V22.0004H33.7062V25.7033L26.2897 27.8223C26.0982 27.8771 25.9763 28.0645 26.0039 28.2617C26.0315 28.459 26.2003 28.6057 26.3994 28.6057H28.2018V29.4582H27.5002C27.2797 29.4582 27.1009 29.637 27.1009 29.8576V31.509C27.1009 31.7296 27.2797 31.9083 27.5002 31.9083H29.702C29.9226 31.9083 30.1014 31.7296 30.1014 31.509V29.8576C30.1014 29.637 29.9226 29.4582 29.702 29.4582H29.0005V28.6057H33.7062V32.5539L32.0728 38.2704C32.0728 38.2706 32.0727 38.2708 32.0726 38.2711L32.0694 38.2822C32.0694 38.2823 32.0693 38.2825 32.0693 38.2827L32.0685 38.2853C32.0684 38.2858 32.0683 38.2863 32.0681 38.2867L30.5015 43.7694H29.7019C29.4813 43.7694 29.3025 43.9482 29.3025 44.1688V45.4209H28.4865C28.2659 45.4209 28.0871 45.5996 28.0871 45.8202C28.0871 46.0409 28.2659 46.2196 28.4865 46.2196H29.702H45.1143H46.3298C46.5504 46.2196 46.7291 46.0409 46.7291 45.8202C46.7291 45.5996 46.5504 45.4209 46.3298 45.4209H45.5137V44.1688C45.5137 43.9482 45.3349 43.7694 45.1143 43.7694H44.3147L42.7482 38.2871C42.748 38.2863 42.7477 38.2854 42.7475 38.2846L42.7439 38.2719C42.7437 38.2713 42.7435 38.2706 42.7434 38.27L41.1101 32.5538V28.6057H45.8157V29.4582H45.1143C44.8937 29.4582 44.7149 29.6369 44.7149 29.8575V31.5089C44.7149 31.7295 44.8937 31.9083 45.1143 31.9083H47.3161C47.5366 31.9083 47.7154 31.7295 47.7154 31.5089V29.8576C47.7154 29.637 47.5366 29.4582 47.3161 29.4582H46.6145V28.6057H48.417C48.6161 28.6057 48.7849 28.459 48.8125 28.2617C48.84 28.0645 48.718 27.8771 48.5266 27.8223ZM46.9166 23.6518V24.5044H45.5136V23.6518H46.9166ZM41.1101 19.9289L45.5654 21.2018H41.1101V19.9289ZM29.3026 23.6518V24.5044H27.8996V23.6518H29.3026ZM29.3026 30.2569V31.1096H27.8996V30.2569H29.3026ZM34.5049 19.7987H40.3113V21.2018H34.5049V19.7987ZM40.3113 22.0004V25.2584L35.4244 22.0004H40.3113ZM34.5049 22.3473L39.3917 25.6052H34.5049V22.3473ZM34.5049 26.4039H40.3113V27.807H34.5049V26.4039ZM33.7212 37.99L37.4082 35.4091L41.0952 37.99H33.7212ZM40.6704 38.7887L37.4081 40.4199L34.1459 38.7887H40.6704ZM35.3725 33.0092H39.4438L37.4081 34.4341L35.3725 33.0092ZM40.3113 28.6057V31.8636L35.4245 28.6057H40.3113ZM34.5049 28.9525L39.3919 32.2105H34.5049V28.9525ZM29.2508 21.2017L33.7062 19.9288V21.2017H29.2508ZM29.2508 27.807L33.7062 26.534V27.807H29.2508ZM34.3356 33.2584L36.7117 34.9216L33.1475 37.4165L34.3356 33.2584ZM32.706 38.9617L36.5151 40.8663L31.4363 43.4058L32.706 38.9617ZM44.0131 44.5684H44.0132C44.0137 44.5684 44.0142 44.5683 44.0147 44.5683H44.715V45.421H44.715H30.1014V44.5683H30.8017C30.8022 44.5683 30.8027 44.5684 30.8032 44.5684C30.8038 44.5684 30.8044 44.5683 30.805 44.5683H30.8107C30.8114 44.5683 30.8122 44.5683 30.8129 44.5683H34.5742C34.7948 44.5683 34.9736 44.3896 34.9736 44.169C34.9736 43.9483 34.7948 43.7696 34.5742 43.7696H32.4945L37.4081 41.3128L42.3217 43.7696H36.3547C36.1342 43.7696 35.9554 43.9483 35.9554 44.169C35.9554 44.3896 36.1342 44.5683 36.3547 44.5683H44.0113C44.0119 44.5683 44.0125 44.5684 44.0131 44.5684ZM43.38 43.4058L38.3011 40.8663L42.1102 38.9617L43.38 43.4058ZM41.6688 37.4166L38.1045 34.9216L40.4807 33.2584L41.6688 37.4166ZM41.1101 27.807V26.534L45.5654 27.807H41.1101ZM46.9166 30.2569V31.1096H45.5136V30.2569H46.9166Z" fill="#0B3446"/>
</svg>
