<svg width="123" height="26" viewBox="0 0 123 26" fill="none" xmlns="http://www.w3.org/2000/svg">
<path d="M13 0.5H110C116.904 0.5 122.5 6.09644 122.5 13C122.5 19.9036 116.904 25.5 110 25.5H13C6.09644 25.5 0.5 19.9036 0.5 13C0.5 6.09644 6.09644 0.5 13 0.5Z" stroke="white"/>
<path d="M29.0468 15.034C29.5834 15.034 30.0221 14.8217 30.3628 14.397L31.0628 15.118C30.5074 15.7433 29.8518 16.056 29.0958 16.056C28.3444 16.056 27.7238 15.818 27.2338 15.342C26.7484 14.866 26.5058 14.2663 26.5058 13.543C26.5058 12.815 26.7531 12.2083 27.2478 11.723C27.7471 11.2377 28.3561 10.995 29.0748 10.995C29.8774 10.995 30.5494 11.3007 31.0908 11.912L30.4118 12.682C30.0664 12.2527 29.6371 12.038 29.1238 12.038C28.7131 12.038 28.3608 12.1733 28.0668 12.444C27.7774 12.71 27.6328 13.0717 27.6328 13.529C27.6328 13.9817 27.7704 14.3457 28.0458 14.621C28.3211 14.8963 28.6548 15.034 29.0468 15.034ZM32.5113 14.117C32.5113 14.425 32.5976 14.677 32.7703 14.873C32.9476 15.0643 33.1716 15.16 33.4423 15.16C33.7176 15.16 33.9416 15.0643 34.1143 14.873C34.2916 14.677 34.3803 14.425 34.3803 14.117C34.3803 13.809 34.2916 13.557 34.1143 13.361C33.9416 13.165 33.7176 13.067 33.4423 13.067C33.1716 13.067 32.9476 13.165 32.7703 13.361C32.5976 13.557 32.5113 13.809 32.5113 14.117ZM35.4373 14.117C35.4373 14.663 35.2483 15.1227 34.8703 15.496C34.4923 15.8693 34.0163 16.056 33.4423 16.056C32.873 16.056 32.3993 15.8693 32.0213 15.496C31.6433 15.1227 31.4543 14.663 31.4543 14.117C31.4543 13.571 31.6433 13.1113 32.0213 12.738C32.3993 12.36 32.873 12.171 33.4423 12.171C34.0163 12.171 34.4923 12.36 34.8703 12.738C35.2483 13.1113 35.4373 13.571 35.4373 14.117ZM37.2672 13.9V16H36.2172V12.234H37.2672V12.654C37.5845 12.332 37.9415 12.171 38.3382 12.171C38.7349 12.171 39.0662 12.311 39.3322 12.591C39.6029 12.871 39.7382 13.2443 39.7382 13.711V16H38.6882V13.872C38.6882 13.2933 38.4759 13.004 38.0512 13.004C37.8412 13.004 37.6569 13.081 37.4982 13.235C37.3442 13.3843 37.2672 13.606 37.2672 13.9ZM41.8862 12.99V14.677C41.8862 14.8217 41.9236 14.936 41.9982 15.02C42.0729 15.0993 42.1616 15.139 42.2642 15.139C42.4602 15.139 42.6259 15.0503 42.7612 14.873L43.1532 15.608C42.8266 15.9067 42.4812 16.056 42.1172 16.056C41.7579 16.056 41.4522 15.937 41.2002 15.699C40.9529 15.461 40.8292 15.1367 40.8292 14.726V12.99H40.3882V12.234H40.8292V11.107H41.8862V12.234H42.7962V12.99H41.8862ZM44.7662 16H43.7162V12.234H44.7662V16ZM43.8002 11.758C43.6836 11.6367 43.6252 11.4897 43.6252 11.317C43.6252 11.1443 43.6836 10.9997 43.8002 10.883C43.9216 10.7617 44.0686 10.701 44.2412 10.701C44.4139 10.701 44.5586 10.7617 44.6752 10.883C44.7966 10.9997 44.8572 11.1443 44.8572 11.317C44.8572 11.4897 44.7966 11.6367 44.6752 11.758C44.5586 11.8747 44.4139 11.933 44.2412 11.933C44.0686 11.933 43.9216 11.8747 43.8002 11.758ZM46.8102 13.9V16H45.7602V12.234H46.8102V12.654C47.1275 12.332 47.4845 12.171 47.8812 12.171C48.2779 12.171 48.6092 12.311 48.8752 12.591C49.1459 12.871 49.2812 13.2443 49.2812 13.711V16H48.2312V13.872C48.2312 13.2933 48.0189 13.004 47.5942 13.004C47.3842 13.004 47.1999 13.081 47.0412 13.235C46.8872 13.3843 46.8102 13.606 46.8102 13.9ZM52.6599 14.264V12.234H53.7169V16H52.6599V15.503C52.3986 15.8717 52.0602 16.056 51.6449 16.056C51.2342 16.056 50.8889 15.9277 50.6089 15.671C50.3289 15.4097 50.1889 15.0247 50.1889 14.516V12.234H51.2459V14.285C51.2459 14.8637 51.4582 15.153 51.8829 15.153C52.0929 15.153 52.2749 15.0783 52.4289 14.929C52.5829 14.775 52.6599 14.5533 52.6599 14.264ZM57.9704 15.454C57.5458 15.8553 57.0464 16.056 56.4724 16.056C55.9031 16.056 55.4318 15.881 55.0584 15.531C54.6851 15.1763 54.4984 14.7027 54.4984 14.11C54.4984 13.5173 54.6874 13.046 55.0654 12.696C55.4481 12.346 55.8984 12.171 56.4164 12.171C56.9344 12.171 57.3731 12.3273 57.7324 12.64C58.0964 12.9527 58.2784 13.382 58.2784 13.928V14.488H55.5344C55.5671 14.6933 55.6744 14.8613 55.8564 14.992C56.0384 15.1227 56.2438 15.188 56.4724 15.188C56.8411 15.188 57.1444 15.0643 57.3824 14.817L57.9704 15.454ZM57.2144 13.739C57.1911 13.515 57.1071 13.3423 56.9624 13.221C56.8178 13.0997 56.6404 13.039 56.4304 13.039C56.2251 13.039 56.0361 13.102 55.8634 13.228C55.6908 13.354 55.5904 13.5243 55.5624 13.739H57.2144ZM62.8413 16H61.7563L60.4753 12.234H61.5603L62.2953 14.509L63.0303 12.234H64.0453L64.7803 14.509L65.5153 12.234H66.6073L65.3263 16H64.2343L63.5413 13.949L62.8413 16ZM68.2477 16H67.1977V12.234H68.2477V16ZM67.2817 11.758C67.165 11.6367 67.1067 11.4897 67.1067 11.317C67.1067 11.1443 67.165 10.9997 67.2817 10.883C67.403 10.7617 67.55 10.701 67.7227 10.701C67.8954 10.701 68.04 10.7617 68.1567 10.883C68.278 10.9997 68.3387 11.1443 68.3387 11.317C68.3387 11.4897 68.278 11.6367 68.1567 11.758C68.04 11.8747 67.8954 11.933 67.7227 11.933C67.55 11.933 67.403 11.8747 67.2817 11.758ZM70.4946 12.99V14.677C70.4946 14.8217 70.532 14.936 70.6066 15.02C70.6813 15.0993 70.77 15.139 70.8726 15.139C71.0686 15.139 71.2343 15.0503 71.3696 14.873L71.7616 15.608C71.435 15.9067 71.0896 16.056 70.7256 16.056C70.3663 16.056 70.0606 15.937 69.8086 15.699C69.5613 15.461 69.4376 15.1367 69.4376 14.726V12.99H68.9966V12.234H69.4376V11.107H70.4946V12.234H71.4046V12.99H70.4946ZM73.3746 13.97V16H72.3246V10.806H73.3746V12.654C73.692 12.332 74.0466 12.171 74.4386 12.171C74.8353 12.171 75.169 12.311 75.4396 12.591C75.7103 12.871 75.8456 13.2443 75.8456 13.711V16H74.7956V13.942C74.7956 13.3633 74.5833 13.074 74.1586 13.074C73.9486 13.074 73.7643 13.151 73.6056 13.305C73.4516 13.4543 73.3746 13.676 73.3746 13.97ZM82.106 11.107V12.066H79.838V13.123H81.994V14.082H79.838V16H78.746V11.107H82.106ZM86.0236 16H85.0366V15.545C84.766 15.8857 84.43 16.056 84.0286 16.056C83.632 16.056 83.2983 15.9417 83.0276 15.713C82.757 15.4797 82.6216 15.1717 82.6216 14.789C82.6216 14.4017 82.7616 14.1123 83.0416 13.921C83.3216 13.7297 83.7043 13.634 84.1896 13.634H84.9736V13.613C84.9736 13.2117 84.7613 13.011 84.3366 13.011C84.1546 13.011 83.961 13.0483 83.7556 13.123C83.555 13.193 83.3846 13.2817 83.2446 13.389L82.7756 12.71C83.2703 12.3507 83.835 12.171 84.4696 12.171C84.927 12.171 85.3003 12.2853 85.5896 12.514C85.879 12.7427 86.0236 13.1043 86.0236 13.599V16ZM84.9666 14.565V14.383H84.3086C83.8886 14.383 83.6786 14.5137 83.6786 14.775C83.6786 14.9103 83.7276 15.0153 83.8256 15.09C83.9283 15.16 84.073 15.195 84.2596 15.195C84.4463 15.195 84.6096 15.139 84.7496 15.027C84.8943 14.9103 84.9666 14.7563 84.9666 14.565ZM88.7869 15.125C89.1369 15.125 89.4519 14.95 89.7319 14.6L90.3549 15.3C89.8696 15.804 89.3446 16.056 88.7799 16.056C88.2152 16.056 87.7369 15.8787 87.3449 15.524C86.9576 15.1647 86.7639 14.698 86.7639 14.124C86.7639 13.5453 86.9599 13.0763 87.3519 12.717C87.7486 12.353 88.2176 12.171 88.7589 12.171C89.0296 12.171 89.3026 12.227 89.5779 12.339C89.8579 12.451 90.1029 12.6167 90.3129 12.836L89.7669 13.55C89.6456 13.4053 89.4962 13.2933 89.3189 13.214C89.1462 13.1347 88.9736 13.095 88.8009 13.095C88.5256 13.095 88.2876 13.186 88.0869 13.368C87.8909 13.5453 87.7929 13.795 87.7929 14.117C87.7929 14.4343 87.8909 14.6817 88.0869 14.859C88.2876 15.0363 88.5209 15.125 88.7869 15.125ZM94.3171 15.454C93.8924 15.8553 93.3931 16.056 92.8191 16.056C92.2498 16.056 91.7784 15.881 91.4051 15.531C91.0318 15.1763 90.8451 14.7027 90.8451 14.11C90.8451 13.5173 91.0341 13.046 91.4121 12.696C91.7948 12.346 92.2451 12.171 92.7631 12.171C93.2811 12.171 93.7198 12.3273 94.0791 12.64C94.4431 12.9527 94.6251 13.382 94.6251 13.928V14.488H91.8811C91.9138 14.6933 92.0211 14.8613 92.2031 14.992C92.3851 15.1227 92.5904 15.188 92.8191 15.188C93.1878 15.188 93.4911 15.0643 93.7291 14.817L94.3171 15.454ZM93.5611 13.739C93.5378 13.515 93.4538 13.3423 93.3091 13.221C93.1644 13.0997 92.9871 13.039 92.7771 13.039C92.5718 13.039 92.3828 13.102 92.2101 13.228C92.0374 13.354 91.9371 13.5243 91.9091 13.739H93.5611ZM97.5523 12.171C98.0096 12.171 98.4086 12.3507 98.7493 12.71C99.0899 13.0647 99.2603 13.522 99.2603 14.082C99.2603 14.642 99.0853 15.111 98.7353 15.489C98.3853 15.867 97.9863 16.056 97.5383 16.056C97.0949 16.056 96.7263 15.8717 96.4323 15.503V16H95.3823V10.806H96.4323V12.654C96.7216 12.332 97.0949 12.171 97.5523 12.171ZM96.4183 14.124C96.4183 14.4273 96.5023 14.677 96.6703 14.873C96.8429 15.0643 97.0506 15.16 97.2933 15.16C97.5359 15.16 97.7483 15.0643 97.9303 14.873C98.1123 14.677 98.2033 14.4273 98.2033 14.124C98.2033 13.8207 98.1146 13.5663 97.9373 13.361C97.7599 13.1557 97.5476 13.053 97.3003 13.053C97.0529 13.053 96.8429 13.1557 96.6703 13.361C96.5023 13.5617 96.4183 13.816 96.4183 14.124ZM100.884 14.117C100.884 14.425 100.971 14.677 101.143 14.873C101.321 15.0643 101.545 15.16 101.815 15.16C102.091 15.16 102.315 15.0643 102.487 14.873C102.665 14.677 102.753 14.425 102.753 14.117C102.753 13.809 102.665 13.557 102.487 13.361C102.315 13.165 102.091 13.067 101.815 13.067C101.545 13.067 101.321 13.165 101.143 13.361C100.971 13.557 100.884 13.809 100.884 14.117ZM103.81 14.117C103.81 14.663 103.621 15.1227 103.243 15.496C102.865 15.8693 102.389 16.056 101.815 16.056C101.246 16.056 100.772 15.8693 100.394 15.496C100.016 15.1227 99.8274 14.663 99.8274 14.117C99.8274 13.571 100.016 13.1113 100.394 12.738C100.772 12.36 101.246 12.171 101.815 12.171C102.389 12.171 102.865 12.36 103.243 12.738C103.621 13.1113 103.81 13.571 103.81 14.117ZM105.43 14.117C105.43 14.425 105.517 14.677 105.689 14.873C105.867 15.0643 106.091 15.16 106.361 15.16C106.637 15.16 106.861 15.0643 107.033 14.873C107.211 14.677 107.299 14.425 107.299 14.117C107.299 13.809 107.211 13.557 107.033 13.361C106.861 13.165 106.637 13.067 106.361 13.067C106.091 13.067 105.867 13.165 105.689 13.361C105.517 13.557 105.43 13.809 105.43 14.117ZM108.356 14.117C108.356 14.663 108.167 15.1227 107.789 15.496C107.411 15.8693 106.935 16.056 106.361 16.056C105.792 16.056 105.318 15.8693 104.94 15.496C104.562 15.1227 104.373 14.663 104.373 14.117C104.373 13.571 104.562 13.1113 104.94 12.738C105.318 12.36 105.792 12.171 106.361 12.171C106.935 12.171 107.411 12.36 107.789 12.738C108.167 13.1113 108.356 13.571 108.356 14.117ZM110.186 16H109.136V10.806H110.186V13.473L111.355 12.227H112.678L111.243 13.753L112.734 16H111.488L110.529 14.558L110.186 14.915V16Z" fill="white"/>
<path d="M18.3125 9.84375V7.71875C18.3125 7.13225 18.7885 6.65625 19.375 6.65625H20.4375V4H18.3125C16.5519 4 15.125 5.42694 15.125 7.1875V9.84375H13V12.5H15.125V21H18.3125V12.5H20.4375L21.5 9.84375H18.3125Z" fill="white"/>
</svg>
