<svg width="121" height="96" viewBox="0 0 121 96" fill="none" xmlns="http://www.w3.org/2000/svg">
<rect width="120.847" height="96" rx="16" fill="#5D00EF"/>
<rect width="120.847" height="96" rx="16" stroke="black"/>
<g opacity="0.15">
<path d="M37.4935 25.0745C36.8449 25.0745 36.3206 24.5501 36.3206 23.9015V12.173C36.3206 11.5243 36.8449 11 37.4935 11C38.1422 11 38.6665 11.5243 38.6665 12.173V23.9015C38.6665 24.5501 38.1422 25.0745 37.4935 25.0745Z" fill="#656D78"/>
<path d="M43.3241 20.3838L39.8052 23.9027H37.4945H35.1134L31.6414 20.3838L19.8647 25.0756V36.8053V67.3025C19.8647 76.6617 27.1723 84.3223 36.4036 84.8619C36.7555 84.8842 37.1074 84.8971 37.4593 84.8971C37.8112 84.8971 38.1631 84.8842 38.515 84.8619C47.7345 84.3223 55.0538 76.6617 55.0538 67.3025V36.8053V25.0756L43.3241 20.3838Z" fill="#AC92EC"/>
<path d="M36.4037 84.8619C23.9351 84.3223 14 74.0471 14 61.4377H14.0117V46.1891L19.8648 36.8053V67.3025C19.8648 76.6617 27.1725 84.3223 36.4037 84.8619Z" fill="#656D78"/>
<path d="M60.9189 46.1891V61.4377C60.9189 74.0588 50.9838 84.3223 38.5151 84.8619C47.7347 84.3223 55.054 76.6617 55.054 67.3025V36.8053L60.9189 46.1891Z" fill="#656D78"/>
<path d="M36.3206 23.9015V27.4216C36.3206 28.0702 36.8449 28.5945 37.4935 28.5945C38.1422 28.5945 38.6665 28.0702 38.6665 27.4216V23.9015H36.3206Z" fill="#967ADC"/>
<path d="M37.4559 63.7918C36.8073 63.7918 36.283 63.2675 36.283 62.6189V41.4996C36.283 40.8509 36.8073 40.3266 37.4559 40.3266C38.1046 40.3266 38.6289 40.8509 38.6289 41.4996V62.6189C38.6289 63.2675 38.1046 63.7918 37.4559 63.7918Z" fill="#967ADC"/>
<path d="M37.4593 26.8351C35.8418 26.8351 34.5269 28.15 34.5269 29.7675V39.1513C34.5269 40.7688 35.8418 42.0837 37.4593 42.0837C39.0768 42.0837 40.3917 40.7688 40.3917 39.1513V29.7675C40.3917 28.1793 39.0967 26.8632 37.4593 26.8351Z" fill="#E6E9ED"/>
</g>
<g opacity="0.15">
<path d="M82.7211 25.0745C82.0724 25.0745 81.5481 24.5501 81.5481 23.9015V12.173C81.5481 11.5243 82.0724 11 82.7211 11C83.3697 11 83.894 11.5243 83.894 12.173V23.9015C83.894 24.5501 83.3697 25.0745 82.7211 25.0745Z" fill="#656D78"/>
<path d="M88.5517 20.3838L85.0328 23.9027H82.722H80.3409L76.8689 20.3838L65.0923 25.0756V36.8053V67.3025C65.0923 76.6617 72.3999 84.3223 81.6312 84.8619C81.983 84.8842 82.3349 84.8971 82.6868 84.8971C83.0387 84.8971 83.3906 84.8842 83.7425 84.8619C92.962 84.3223 100.281 76.6617 100.281 67.3025V36.8053V25.0756L88.5517 20.3838Z" fill="#AC92EC"/>
<path d="M81.6313 84.8619C69.1626 84.3223 59.2275 74.0471 59.2275 61.4377H59.2393V46.1891L65.0924 36.8053V67.3025C65.0924 76.6617 72.4 84.3223 81.6313 84.8619Z" fill="#656D78"/>
<path d="M106.146 46.1891V61.4377C106.146 74.0588 96.2113 84.3223 83.7427 84.8619C92.9622 84.3223 100.282 76.6617 100.282 67.3025V36.8053L106.146 46.1891Z" fill="#656D78"/>
<path d="M81.5481 23.9015V27.4216C81.5481 28.0702 82.0724 28.5945 82.7211 28.5945C83.3697 28.5945 83.894 28.0702 83.894 27.4216V23.9015H81.5481Z" fill="#967ADC"/>
<path d="M82.6835 63.7918C82.0348 63.7918 81.5105 63.2675 81.5105 62.6189V41.4996C81.5105 40.8509 82.0348 40.3266 82.6835 40.3266C83.3321 40.3266 83.8564 40.8509 83.8564 41.4996V62.6189C83.8564 63.2675 83.3321 63.7918 82.6835 63.7918Z" fill="#967ADC"/>
<path d="M82.6868 26.8351C81.0693 26.8351 79.7544 28.15 79.7544 29.7675V39.1513C79.7544 40.7688 81.0693 42.0837 82.6868 42.0837C84.3043 42.0837 85.6192 40.7688 85.6192 39.1513V29.7675C85.6192 28.1793 84.3243 26.8632 82.6868 26.8351Z" fill="#E6E9ED"/>
</g>
<path d="M60.0204 29.8598C59.5074 29.8598 59.0928 29.4452 59.0928 28.9322V19.6574C59.0928 19.1444 59.5074 18.7298 60.0204 18.7298C60.5333 18.7298 60.9479 19.1444 60.9479 19.6574V28.9322C60.9479 29.4452 60.5333 29.8598 60.0204 29.8598Z" fill="#656D78"/>
<path d="M64.6314 26.1504L61.8487 28.9332H60.0213H58.1384L55.3927 26.1504L46.0798 29.8608V39.1365V63.2536C46.0798 70.6547 51.8586 76.7127 59.1587 77.1394C59.437 77.157 59.7152 77.1673 59.9935 77.1673C60.2718 77.1673 60.5501 77.157 60.8283 77.1394C68.1191 76.7127 73.9072 70.6547 73.9072 63.2536V39.1365V29.8608L64.6314 26.1504Z" fill="#AC92EC"/>
<path d="M59.1586 77.1394C49.2985 76.7127 41.4419 68.5871 41.4419 58.6157H41.4512V46.5571L46.0798 39.1365V63.2536C46.0798 70.6547 51.8586 76.7127 59.1586 77.1394Z" fill="#656D78"/>
<path d="M78.5451 46.5571V58.6157C78.5451 68.5964 70.6885 76.7127 60.8284 77.1394C68.1191 76.7127 73.9072 70.6547 73.9072 63.2536V39.1365L78.5451 46.5571Z" fill="#656D78"/>
<path d="M59.0928 28.9322V31.7159C59.0928 32.2288 59.5074 32.6435 60.0204 32.6435C60.5333 32.6435 60.9479 32.2288 60.9479 31.7159V28.9322H59.0928Z" fill="#967ADC"/>
<path d="M59.9908 60.4773C59.4779 60.4773 59.0632 60.0627 59.0632 59.5497V42.8487C59.0632 42.3357 59.4779 41.9211 59.9908 41.9211C60.5038 41.9211 60.9184 42.3357 60.9184 42.8487V59.5497C60.9184 60.0627 60.5038 60.4773 59.9908 60.4773Z" fill="#967ADC"/>
<path d="M59.9935 31.2521C58.7144 31.2521 57.6746 32.2919 57.6746 33.5711V40.9917C57.6746 42.2708 58.7144 43.3106 59.9935 43.3106C61.2726 43.3106 62.3125 42.2708 62.3125 40.9917V33.5711C62.3125 32.3151 61.2884 31.2744 59.9935 31.2521Z" fill="#E6E9ED"/>
</svg>
