<svg width="75" height="75" viewBox="0 0 75 75" fill="none" xmlns="http://www.w3.org/2000/svg">
<rect width="74.2725" height="74.2725" rx="19" fill="white"/>
<path d="M26.2429 61.3257H27.1789V63.4537C26.8856 63.6724 26.5389 63.8511 26.1389 63.9897C25.7389 64.1231 25.3469 64.1897 24.9629 64.1897C24.4136 64.1897 23.9122 64.0617 23.4589 63.8057C23.0109 63.5497 22.6562 63.2031 22.3949 62.7657C22.1336 62.3231 22.0029 61.8351 22.0029 61.3017C22.0029 60.7684 22.1362 60.2857 22.4029 59.8537C22.6696 59.4164 23.0322 59.0724 23.4909 58.8217C23.9549 58.5657 24.4669 58.4377 25.0269 58.4377C25.4269 58.4377 25.8216 58.5097 26.2109 58.6537C26.6002 58.7977 26.9362 58.9951 27.2189 59.2457L26.6109 60.0377C26.3976 59.8351 26.1496 59.6777 25.8669 59.5657C25.5896 59.4537 25.3096 59.3977 25.0269 59.3977C24.6749 59.3977 24.3496 59.4831 24.0509 59.6537C23.7576 59.8191 23.5256 60.0484 23.3549 60.3417C23.1842 60.6351 23.0989 60.9551 23.0989 61.3017C23.0989 61.6537 23.1842 61.9764 23.3549 62.2697C23.5309 62.5631 23.7656 62.7951 24.0589 62.9657C24.3522 63.1364 24.6776 63.2217 25.0349 63.2217C25.2269 63.2217 25.4269 63.1924 25.6349 63.1337C25.8482 63.0697 26.0509 62.9817 26.2429 62.8697V61.3257ZM30.1635 59.7977C30.8461 59.7977 31.3581 59.9924 31.6995 60.3817C32.0461 60.7711 32.2195 61.3177 32.2195 62.0217C32.2195 62.1604 32.2168 62.2644 32.2115 62.3337H29.0515C29.1208 62.6377 29.2621 62.8777 29.4755 63.0537C29.6941 63.2244 29.9608 63.3097 30.2755 63.3097C30.4941 63.3097 30.7021 63.2697 30.8995 63.1897C31.1021 63.1044 31.2781 62.9844 31.4275 62.8297L31.9875 63.4137C31.7741 63.6484 31.5128 63.8297 31.2035 63.9577C30.8995 64.0857 30.5608 64.1497 30.1875 64.1497C29.7501 64.1497 29.3635 64.0591 29.0275 63.8777C28.6968 63.6964 28.4408 63.4431 28.2595 63.1177C28.0781 62.7871 27.9875 62.4084 27.9875 61.9817C27.9875 61.5551 28.0781 61.1764 28.2595 60.8457C28.4461 60.5151 28.7048 60.2591 29.0355 60.0777C29.3661 59.8911 29.7421 59.7977 30.1635 59.7977ZM31.2675 61.6377C31.2568 61.3231 31.1528 61.0724 30.9555 60.8857C30.7581 60.6991 30.4968 60.6057 30.1715 60.6057C29.8675 60.6057 29.6115 60.6991 29.4035 60.8857C29.2008 61.0671 29.0755 61.3177 29.0275 61.6377H31.2675ZM35.6899 59.7897C36.1805 59.7897 36.5672 59.9391 36.8499 60.2377C37.1325 60.5311 37.2739 60.9311 37.2739 61.4377V64.1097H36.2259V61.7417C36.2259 61.4431 36.1405 61.2084 35.9699 61.0377C35.7992 60.8617 35.5672 60.7737 35.2739 60.7737C34.9272 60.7791 34.6525 60.8964 34.4499 61.1257C34.2525 61.3551 34.1539 61.6484 34.1539 62.0057V64.1097H33.1139V59.8297H34.1539V60.6297C34.4472 60.0804 34.9592 59.8004 35.6899 59.7897ZM40.226 59.7977C40.9086 59.7977 41.4206 59.9924 41.762 60.3817C42.1086 60.7711 42.282 61.3177 42.282 62.0217C42.282 62.1604 42.2793 62.2644 42.274 62.3337H39.114C39.1833 62.6377 39.3246 62.8777 39.538 63.0537C39.7566 63.2244 40.0233 63.3097 40.338 63.3097C40.5566 63.3097 40.7646 63.2697 40.962 63.1897C41.1646 63.1044 41.3406 62.9844 41.49 62.8297L42.05 63.4137C41.8366 63.6484 41.5753 63.8297 41.266 63.9577C40.962 64.0857 40.6233 64.1497 40.25 64.1497C39.8126 64.1497 39.426 64.0591 39.09 63.8777C38.7593 63.6964 38.5033 63.4431 38.322 63.1177C38.1406 62.7871 38.05 62.4084 38.05 61.9817C38.05 61.5551 38.1406 61.1764 38.322 60.8457C38.5086 60.5151 38.7673 60.2591 39.098 60.0777C39.4286 59.8911 39.8046 59.7977 40.226 59.7977ZM41.33 61.6377C41.3193 61.3231 41.2153 61.0724 41.018 60.8857C40.8206 60.6991 40.5593 60.6057 40.234 60.6057C39.93 60.6057 39.674 60.6991 39.466 60.8857C39.2633 61.0671 39.138 61.3177 39.09 61.6377H41.33ZM44.2164 60.6537C44.3604 60.3764 44.555 60.1657 44.8004 60.0217C45.051 59.8724 45.3417 59.7951 45.6724 59.7897V60.7977C45.2297 60.7711 44.875 60.8751 44.6084 61.1097C44.347 61.3391 44.2164 61.6511 44.2164 62.0457V64.1097H43.1764V59.8297H44.2164V60.6537ZM48.7825 64.1097V63.5897C48.6331 63.7764 48.4411 63.9177 48.2065 64.0137C47.9718 64.1097 47.7025 64.1577 47.3985 64.1577C47.0998 64.1577 46.8358 64.1017 46.6065 63.9897C46.3825 63.8724 46.2091 63.7124 46.0865 63.5097C45.9638 63.3071 45.9025 63.0804 45.9025 62.8297C45.9025 62.4297 46.0438 62.1177 46.3265 61.8937C46.6091 61.6644 47.0091 61.5471 47.5265 61.5417H48.7745V61.4297C48.7745 61.1791 48.6918 60.9844 48.5265 60.8457C48.3611 60.7071 48.1211 60.6377 47.8065 60.6377C47.4011 60.6377 46.9771 60.7711 46.5345 61.0377L46.1585 60.3177C46.4945 60.1311 46.7985 59.9977 47.0705 59.9177C47.3478 59.8324 47.6705 59.7897 48.0385 59.7897C48.5931 59.7897 49.0225 59.9231 49.3265 60.1897C49.6358 60.4564 49.7931 60.8297 49.7985 61.3097L49.8065 64.1097H48.7825ZM47.6465 63.3577C47.9451 63.3577 48.2011 63.2884 48.4145 63.1497C48.6278 63.0057 48.7478 62.8297 48.7745 62.6217V62.2377H47.6945C47.4171 62.2377 47.2118 62.2804 47.0785 62.3657C46.9505 62.4457 46.8865 62.5791 46.8865 62.7657C46.8865 62.9471 46.9531 63.0911 47.0865 63.1977C47.2251 63.3044 47.4118 63.3577 47.6465 63.3577ZM51.0132 58.1737H52.0532V64.1097H51.0132V58.1737Z" fill="black"/>
<path d="M34.349 45.5887C34.1155 45.5885 33.9054 45.4462 33.8187 45.229L33.4615 44.3342L32.6291 44.9593C32.3765 45.1486 32.0184 45.0978 31.829 44.845C31.6396 44.5926 31.6909 44.2346 31.9433 44.0452L33.3718 42.9708C33.5141 42.8639 33.698 42.8291 33.8696 42.8773C34.041 42.925 34.1802 43.0501 34.2463 43.2154L34.8806 44.804C34.9509 44.98 34.9293 45.1796 34.8228 45.3366C34.7165 45.4935 34.5393 45.5875 34.3497 45.5875L34.349 45.5887Z" fill="#5D00EF"/>
<path d="M49.3327 46.12C49.3055 46.12 49.2783 46.1181 49.2513 46.1141C48.9389 46.0697 48.7219 45.7803 48.7663 45.4681L49.149 42.7763C49.1812 42.5509 49.3445 42.3657 49.5642 42.3054C49.7841 42.2456 50.0187 42.322 50.161 42.4999L51.7554 44.4946C51.95 44.7413 51.9092 45.099 51.6638 45.295C51.4185 45.4913 51.0607 45.4526 50.8629 45.2086L50.0945 44.2466L49.8978 45.6292C49.8576 45.9103 49.6167 46.1195 49.3327 46.12Z" fill="#5D00EF"/>
<path d="M28.0004 23.4284C27.8488 23.4284 27.7034 23.3681 27.5963 23.261L26.5049 22.1711C26.3603 22.0265 26.3038 21.8158 26.3566 21.6183C26.4097 21.4207 26.5639 21.2665 26.7615 21.2133C26.9592 21.1604 27.1698 21.2169 27.3144 21.3617L27.6521 21.6992L27.7616 21.1558C27.8235 20.8463 28.1249 20.646 28.4344 20.7081C28.7437 20.7705 28.9441 21.0714 28.8822 21.3809L28.562 22.9695C28.5204 23.176 28.3687 23.3428 28.1671 23.4037C28.1131 23.4203 28.0569 23.4286 28.0004 23.4284Z" fill="#5D00EF"/>
<path d="M21.1433 47.7634C20.5119 47.7634 20.0002 47.2517 20.0002 46.6206V44.1429C20.0002 43.8271 20.2562 43.5714 20.572 43.5714C20.8873 43.5714 21.1433 43.8271 21.1433 44.1429V46.6206L29.7146 43.5954V21.3805L28.5113 21.8074C28.3184 21.8781 28.1018 21.84 27.9449 21.7069C27.7879 21.574 27.7143 21.3669 27.7528 21.1645C27.7911 20.9626 27.9348 20.7966 28.1296 20.7301L30.0953 20.033C30.2702 19.971 30.4644 19.9976 30.6157 20.1046C30.7672 20.2119 30.8574 20.3856 30.8579 20.5712V44.0001C30.8579 44.2423 30.7051 44.458 30.4764 44.539L21.5237 47.6989C21.4017 47.7418 21.273 47.7638 21.1433 47.7634Z" fill="#5D00EF"/>
<path d="M20.5718 42.5712C20.2561 42.5712 20.0001 42.3155 20.0001 41.9999V24.4041C20.0001 23.9193 20.3063 23.4871 20.7637 23.326L26.7186 21.2266C27.0162 21.1216 27.3427 21.2775 27.4477 21.5752C27.5528 21.8728 27.3969 22.1993 27.0993 22.3043L21.1431 24.4041V41.9999C21.1431 42.3155 20.8872 42.5712 20.5718 42.5712Z" fill="#5D00EF"/>
<path d="M44.0006 48C43.6848 48 43.4291 47.7442 43.4291 47.4287V23.9999C43.4291 23.7576 43.5818 23.5416 43.8102 23.4611L52.7628 20.3009C53.1127 20.1775 53.5009 20.2313 53.8035 20.4458C54.1065 20.66 54.2865 21.0083 54.2863 21.3795V43.5959C54.2865 44.0804 53.9812 44.5123 53.5245 44.6737L51.5001 45.3902C51.2025 45.4957 50.8756 45.34 50.7704 45.0424C50.6649 44.7446 50.8208 44.4179 51.1182 44.3125L53.1433 43.5959V21.3795L44.5719 24.4042V46.6213L49.1435 45.01C49.3361 44.9419 49.5499 44.9817 49.7052 45.1146C49.8603 45.2471 49.9329 45.4526 49.8956 45.6534C49.8582 45.8539 49.7163 46.0197 49.5238 46.0877L44.1925 47.9675C44.1308 47.9893 44.0659 48.0004 44.0006 48Z" fill="#5D00EF"/>
<path d="M44.0007 47.9998C43.9541 47.9998 43.9076 47.9941 43.8624 47.9828L34.2108 45.5712C33.9096 45.4904 33.7288 45.1835 33.8046 44.8806C33.8801 44.5783 34.1844 44.3924 34.4881 44.4627L43.4292 46.6965V24.4459L39.4791 23.4569C39.2797 23.4084 39.1214 23.2569 39.0647 23.0599C39.0078 22.8626 39.061 22.6502 39.2041 22.5033C39.3472 22.3562 39.558 22.2972 39.7566 22.3484L44.1397 23.4454C44.3939 23.509 44.572 23.7375 44.572 23.9998V47.4285C44.572 47.744 44.3161 47.9998 44.0007 47.9998Z" fill="#5D00EF"/>
<path d="M32.2863 45.0741C32.2388 45.0741 32.1921 45.0684 32.1463 45.0571L30.1463 44.5543C29.8925 44.49 29.7146 44.2617 29.7146 44.0001V20.5712C29.7148 20.3952 29.7958 20.229 29.9343 20.1211C30.0731 20.0129 30.2537 19.9744 30.4246 20.017L37.8074 21.8628C38.0095 21.9082 38.1713 22.0597 38.2301 22.2585C38.2887 22.4573 38.2351 22.6722 38.0899 22.8204C37.9447 22.9681 37.7308 23.0259 37.5309 22.9713L30.8578 21.3032V43.5544L32.4257 43.9484C32.7054 44.0185 32.8892 44.2864 32.8538 44.5727C32.8185 44.8592 32.5753 45.0741 32.2867 45.0741H32.2863Z" fill="#5D00EF"/>
<path d="M20.5719 44.7142C20.326 44.7142 20.1075 44.5568 20.0295 44.3235C19.9518 44.0901 20.0322 43.8332 20.2289 43.6856L21.2032 42.9549L20.3162 42.5143C20.0341 42.3731 19.9192 42.0299 20.0604 41.7474C20.2015 41.4649 20.5449 41.3502 20.8272 41.4912L22.5415 42.3484C22.7175 42.4373 22.8353 42.6108 22.8531 42.8071C22.8709 43.0034 22.7861 43.1953 22.6288 43.3142L20.9147 44.5999C20.8159 44.6744 20.6956 44.7144 20.5719 44.7142Z" fill="#5D00EF"/>
<path d="M23.6346 36.2663C23.4718 36.2663 23.3168 36.1969 23.2082 36.0753C22.9524 35.7896 22.7026 35.5103 22.4535 35.261C22.2369 35.0369 22.2401 34.6805 22.4602 34.4599C22.6808 34.2396 23.0372 34.2367 23.2615 34.4533C23.525 34.7167 23.7895 35.0109 24.0616 35.3144C24.2114 35.4822 24.2488 35.7227 24.1568 35.9284C24.0647 36.1339 23.8602 36.2663 23.6351 36.2663H23.6346Z" fill="#5D00EF"/>
<path d="M41.3536 42.7428C40.9599 42.7405 40.5676 42.6946 40.1838 42.6061C39.9848 42.5613 39.8247 42.4136 39.764 42.2185C39.7033 42.0237 39.7512 41.8111 39.8898 41.6613C40.0283 41.511 40.2361 41.4463 40.4353 41.4911C40.7367 41.5612 41.0445 41.5976 41.3536 41.5997H41.4107C41.7625 41.5949 42.1128 41.5568 42.457 41.4857C42.7661 41.4208 43.0691 41.6188 43.1336 41.9277C43.1983 42.237 43.0003 42.5398 42.6914 42.6044C42.276 42.69 41.8533 42.7363 41.4289 42.7428H41.3536ZM38.229 41.714C38.1145 41.7142 38.0026 41.6795 37.9078 41.6146C37.2419 41.1479 36.6417 40.5934 36.1238 39.9662C35.9187 39.7257 35.9474 39.3648 36.1876 39.1595C36.4278 38.9544 36.789 38.9829 36.9941 39.2233C37.4463 39.7726 37.9704 40.2585 38.5519 40.6685C38.7614 40.8089 38.8537 41.0703 38.7792 41.3112C38.7049 41.5524 38.4812 41.7159 38.229 41.714ZM44.6204 41.6472C44.3785 41.6477 44.1626 41.4953 44.0814 41.2674C44.0004 41.0393 44.0715 40.7851 44.2593 40.6323C44.8423 40.1581 45.4069 39.6609 45.9376 39.1528C46.0851 39.0119 46.2967 38.96 46.493 39.0172C46.6888 39.0743 46.8395 39.2317 46.8879 39.4301C46.9366 39.6284 46.8753 39.8375 46.728 39.9788C46.1749 40.5078 45.5852 41.0255 44.9804 41.5185C44.8787 41.6029 44.7506 41.6489 44.6181 41.6483L44.6204 41.6472ZM27.2628 38.8759C27.236 38.8759 27.2096 38.874 27.1833 38.8701L27.069 38.8529C26.2508 38.6966 25.4905 38.3201 24.8706 37.7639C24.7003 37.6379 24.6135 37.4278 24.6455 37.2183C24.6775 37.0086 24.8227 36.8339 25.0228 36.7646C25.2233 36.6951 25.4455 36.7422 25.6004 36.8866C26.0647 37.31 26.635 37.6002 27.2506 37.7262L27.341 37.7394C27.6395 37.7796 27.8552 38.0443 27.8345 38.3448C27.814 38.6451 27.5639 38.878 27.2628 38.877V38.8759ZM29.521 38.666C29.2341 38.6652 28.9922 38.4517 28.9558 38.1673C28.9193 37.8827 29.0995 37.6153 29.3768 37.542C30.1829 37.3313 30.9199 37.1614 31.6392 37.0239C31.8409 36.9825 32.0491 37.053 32.1843 37.2081C32.3197 37.3631 32.3609 37.5789 32.2927 37.7731C32.2247 37.9671 32.0573 38.1098 31.8547 38.146C31.1633 38.2793 30.4478 38.4427 29.6662 38.6472C29.6181 38.6606 29.5687 38.6671 29.5187 38.6671L29.521 38.666ZM47.9131 38.4904C47.6885 38.4909 47.4845 38.3592 47.392 38.1548C47.2997 37.9499 47.3355 37.7101 47.4841 37.5416C47.5776 37.4353 47.6703 37.3282 47.7615 37.2198C48.1566 36.7548 48.5444 36.2965 48.8807 35.8168C49.0617 35.5582 49.4179 35.4954 49.6766 35.6764C49.935 35.8574 49.9982 36.2138 49.8172 36.4725C49.4503 36.9959 49.0446 37.474 48.6526 37.9371C48.5381 38.0723 48.4406 38.1851 48.3423 38.2965C48.2334 38.421 48.0763 38.4921 47.911 38.4919L47.9131 38.4904ZM34.5028 37.7534C34.3586 37.7733 34.2163 37.7923 34.0759 37.8107C33.7789 37.8488 33.5031 37.6517 33.4431 37.3585C33.3832 37.0655 33.5592 36.7757 33.8474 36.6941L35.0668 36.5089C35.4098 36.4484 35.7565 36.3745 36.0953 36.2804C36.2937 36.2201 36.5092 36.2718 36.6582 36.416C36.8077 36.5597 36.8669 36.7732 36.8139 36.9737C36.7606 37.1739 36.603 37.3299 36.4021 37.3809C36.1782 37.4437 35.953 37.4952 35.7283 37.5454L34.5028 37.7534ZM38.2296 36.3249C37.9932 36.3252 37.781 36.1795 37.696 35.9589C37.6108 35.7382 37.6709 35.4881 37.846 35.3297C38.3631 34.85 38.8062 34.2965 39.1605 33.6871C39.262 33.5067 39.4532 33.3954 39.6604 33.396C39.8674 33.3969 40.058 33.5095 40.1582 33.6905C40.2587 33.8717 40.2533 34.0931 40.1438 34.2689C39.7303 34.9775 39.2138 35.6208 38.6111 36.1774C38.5061 36.2714 38.3701 36.3231 38.229 36.3226L38.2296 36.3249ZM50.3033 34.6621C50.265 34.6623 50.2267 34.6583 50.189 34.6506C50.0405 34.6207 49.9099 34.5328 49.826 34.4064C49.7423 34.2802 49.7121 34.1256 49.7423 33.977C49.7831 33.7769 49.8038 33.5731 49.804 33.3688V33.2694C49.7891 32.8501 49.7069 32.4359 49.5604 32.0425C49.4847 31.8498 49.5192 31.6309 49.6508 31.4706C49.7822 31.3105 49.9902 31.2341 50.1943 31.2711C50.3983 31.308 50.5664 31.4528 50.6333 31.6489C50.8227 32.1597 50.9286 32.6981 50.9468 33.2427V33.3688C50.9464 33.6495 50.9183 33.9293 50.8629 34.2042C50.8087 34.4706 50.5749 34.6617 50.3033 34.6621ZM33.1091 34.29C32.8628 34.29 32.6443 34.1322 32.5667 33.8987C32.3421 33.2278 32.1812 32.537 32.0866 31.8358C32.0734 31.743 32.0627 31.6416 32.0546 31.5369C32.0299 31.2222 32.2649 30.947 32.5796 30.9223C32.8942 30.8976 33.1693 31.1326 33.194 31.4471C33.2003 31.5273 33.2085 31.606 33.2192 31.6815C33.3037 32.3129 33.4487 32.9346 33.6519 33.5379C33.7099 33.7125 33.6806 33.9039 33.5732 34.0531C33.4655 34.2021 33.2928 34.2902 33.1091 34.29ZM40.504 32.4376C40.469 32.4376 40.4338 32.4345 40.3993 32.4284C40.0892 32.3706 39.8845 32.0722 39.9421 31.7621C39.9743 31.5903 39.9906 31.4158 39.9908 31.2408C39.9885 30.7769 39.8759 30.3198 39.6627 29.9078C39.5579 29.7245 39.5627 29.4978 39.6753 29.3193C39.788 29.1406 39.99 29.0385 40.2009 29.054C40.4115 29.0697 40.5964 29.2002 40.6816 29.3936C41.0941 30.1859 41.2297 31.0935 41.0663 31.9718C41.0154 32.2421 40.7789 32.4378 40.504 32.4376ZM32.882 29.809C32.8174 29.8086 32.7533 29.7977 32.6924 29.7761C32.5493 29.7259 32.4321 29.6209 32.3668 29.484C32.3013 29.3471 32.2927 29.19 32.3432 29.0473C32.5313 28.4674 32.8701 27.948 33.3248 27.5426C33.5506 27.3491 33.7974 27.1808 34.06 27.0414C34.2404 26.941 34.4616 26.9462 34.6374 27.0548C34.8133 27.163 34.9169 27.3583 34.9084 27.5648C34.8996 27.7712 34.7801 27.957 34.5959 28.0505C34.4072 28.151 34.2299 28.2719 34.0677 28.4111C33.7662 28.6873 33.5431 29.0381 33.4209 29.4283C33.3405 29.6573 33.1248 29.8105 32.882 29.8105V29.809ZM38.6576 28.5431C38.544 28.5433 38.4328 28.5092 38.3387 28.4456C37.782 28.0648 37.1429 27.8212 36.4741 27.7345C36.1608 27.6964 35.9375 27.4112 35.9758 27.0979C36.0139 26.7845 36.2991 26.5614 36.6124 26.5997C37.4608 26.7087 38.2715 27.0167 38.9782 27.4987C39.1862 27.6393 39.2776 27.8994 39.204 28.1393C39.1305 28.3795 38.9087 28.5431 38.6576 28.5431Z" fill="#5D00EF"/>
<path d="M48.8576 30.4729C48.7013 30.4729 48.5516 30.4091 48.4439 30.2959C48.2015 30.0424 47.9385 29.8095 47.6577 29.5998C47.4053 29.4104 47.354 29.0522 47.5434 28.7998C47.7328 28.5474 48.0908 28.4962 48.3432 28.6855C48.6741 28.9335 48.9842 29.2081 49.2694 29.5071C49.4274 29.6727 49.4712 29.9162 49.3812 30.1266C49.2912 30.3367 49.0846 30.4729 48.8559 30.4729H48.8576Z" fill="#5D00EF"/>
<path d="M25.1431 31.4283C24.9451 31.4281 24.7616 31.3256 24.6574 31.1571C24.5534 30.9889 24.544 30.7785 24.6323 30.6015L26.9179 26.0299C27.0592 25.7476 27.4024 25.6331 27.6849 25.7741C27.9674 25.915 28.0821 26.2586 27.941 26.5407L25.6554 31.1123C25.5583 31.3063 25.3601 31.4287 25.1431 31.4283Z" fill="#5D00EF"/>
<path d="M28.0003 30.8568C27.8488 30.8568 27.7034 30.7968 27.5963 30.6894L24.1676 27.261C24.019 27.1172 23.9596 26.9048 24.0117 26.7054C24.064 26.5055 24.2201 26.3492 24.42 26.2969C24.6196 26.2446 24.8323 26.3042 24.9756 26.4528L28.4042 29.8814C28.5677 30.0449 28.6166 30.2906 28.5281 30.5042C28.4398 30.7177 28.2314 30.8568 28.0003 30.8568Z" fill="#5D00EF"/>
<path d="M38.2861 25.1426C38.2478 25.1428 38.2093 25.1391 38.1721 25.1311C37.963 25.0899 37.7945 24.9355 37.7347 24.7312L37.1176 22.5768C37.0546 22.3786 37.1042 22.1616 37.2475 22.0105C37.3907 21.8596 37.6045 21.7983 37.806 21.8506C38.0074 21.9032 38.1643 22.061 38.216 22.2627L38.5284 23.3519L39.1692 22.5517C39.2885 22.373 39.498 22.2763 39.7114 22.3014C39.9249 22.3267 40.1061 22.4697 40.1804 22.6712C40.2549 22.8727 40.2097 23.0991 40.064 23.2569L38.7325 24.9256C38.6245 25.0621 38.4602 25.1422 38.2861 25.1426Z" fill="#5D00EF"/>
</svg>
