<svg width="84" height="34" viewBox="0 0 84 34" fill="none" xmlns="http://www.w3.org/2000/svg">
<rect width="84" height="34" rx="17" fill="#5D00EF"/>
<path d="M40.1044 17.16H42.4594V20.88C41.4194 22.04 39.9794 22.62 38.1394 22.62C36.5994 22.62 35.3044 22.11 34.2544 21.09C33.2144 20.07 32.6944 18.785 32.6944 17.235C32.6944 15.675 33.2244 14.375 34.2844 13.335C35.3544 12.295 36.6394 11.775 38.1394 11.775C39.6494 11.775 40.9594 12.27 42.0694 13.26L40.8544 15.015C40.3844 14.605 39.9494 14.325 39.5494 14.175C39.1594 14.015 38.7344 13.935 38.2744 13.935C37.3844 13.935 36.6344 14.24 36.0244 14.85C35.4144 15.45 35.1094 16.245 35.1094 17.235C35.1094 18.225 35.3994 19.02 35.9794 19.62C36.5694 20.21 37.2694 20.505 38.0794 20.505C38.8894 20.505 39.5644 20.35 40.1044 20.04V17.16ZM46.1194 18.465C46.1194 19.125 46.3044 19.665 46.6744 20.085C47.0544 20.495 47.5344 20.7 48.1144 20.7C48.7044 20.7 49.1844 20.495 49.5544 20.085C49.9344 19.665 50.1244 19.125 50.1244 18.465C50.1244 17.805 49.9344 17.265 49.5544 16.845C49.1844 16.425 48.7044 16.215 48.1144 16.215C47.5344 16.215 47.0544 16.425 46.6744 16.845C46.3044 17.265 46.1194 17.805 46.1194 18.465ZM52.3894 18.465C52.3894 19.635 51.9844 20.62 51.1744 21.42C50.3644 22.22 49.3444 22.62 48.1144 22.62C46.8944 22.62 45.8794 22.22 45.0694 21.42C44.2594 20.62 43.8544 19.635 43.8544 18.465C43.8544 17.295 44.2594 16.31 45.0694 15.51C45.8794 14.7 46.8944 14.295 48.1144 14.295C49.3444 14.295 50.3644 14.7 51.1744 15.51C51.9844 16.31 52.3894 17.295 52.3894 18.465Z" fill="white"/>
</svg>
