<svg width="106" height="100" viewBox="0 0 106 100" fill="none" xmlns="http://www.w3.org/2000/svg">
<path d="M52.6379 3.77338C38.7282 7.96028 30.6459 8.53122 28.3435 8.29332C9.05087 5.6765 0 3.77338 0 37.3161C0 70.8589 27.8671 104.639 61.2124 99.168C94.5577 93.6964 112.898 60.6295 103.132 27.0868C93.3668 -6.45596 70.0251 -1.46024 52.6379 3.77338Z" fill="#464548" fill-opacity="0.4"/>
<path d="M80.7345 52.7839L56.2611 52.7828C55.1804 52.7828 54.3044 53.6586 54.3044 54.7393V62.5575C54.3044 63.638 55.1804 64.5141 56.261 64.5141H70.0429C68.5338 68.4306 65.7171 71.7105 62.1234 73.7946L68 83.9675C77.4268 78.5156 83 68.9497 83 58.2414C83 56.7166 82.8876 55.6267 82.6628 54.3994C82.492 53.4669 81.6824 52.7839 80.7345 52.7839Z" fill="#914BFF"/>
<path d="M53 76.2609C46.2553 76.2609 40.3674 72.5758 37.2051 67.1227L27.0325 72.9861C32.2093 81.9582 41.907 88 53 88C58.4418 88 63.5766 86.5348 67.9999 83.9814V83.9675L62.1233 73.7945C59.4353 75.3535 56.3247 76.2609 53 76.2609Z" fill="#914BFF"/>
<path d="M68 83.9814V83.9674L62.1234 73.7944C59.4353 75.3533 56.325 76.2608 53 76.2608V87.9999C58.4418 87.9999 63.5769 86.5348 68 83.9814Z" fill="#914BFF"/>
<path d="M34.7392 58C34.7392 54.6755 35.6464 51.5653 37.2051 48.8773L27.0326 43.014C24.4651 47.4234 23 52.5442 23 58C23 63.4558 24.4651 68.5767 27.0326 72.9861L37.2051 67.1227C35.6464 64.4348 34.7392 61.3245 34.7392 58Z" fill="#914BFF"/>
<path d="M53 39.7391C57.3981 39.7391 61.438 41.3019 64.5935 43.9015C65.372 44.5428 66.5035 44.4965 67.2165 43.7834L72.756 38.2439C73.565 37.4349 73.5074 36.1105 72.6431 35.3608C67.3562 30.7742 60.4773 28 53 28C41.907 28 32.2093 34.0418 27.0325 43.0139L37.2051 48.8773C40.3674 43.4242 46.2553 39.7391 53 39.7391Z" fill="#914BFF"/>
<path d="M64.5936 43.9015C65.3721 44.5428 66.5036 44.4965 67.2166 43.7834L72.756 38.2439C73.565 37.4349 73.5073 36.1105 72.6432 35.3608C67.3563 30.7741 60.4774 28 53 28V39.7391C57.398 39.7391 61.4381 41.3019 64.5936 43.9015Z" fill="#914BFF"/>
</svg>
