<svg width="119" height="26" viewBox="0 0 119 26" fill="none" xmlns="http://www.w3.org/2000/svg">
<path d="M13 0.5H106C112.904 0.5 118.5 6.09644 118.5 13C118.5 19.9036 112.904 25.5 106 25.5H13C6.09644 25.5 0.5 19.9036 0.5 13C0.5 6.09644 6.09644 0.5 13 0.5Z" stroke="white"/>
<path d="M34.1849 15.034C34.7216 15.034 35.1603 14.8217 35.5009 14.397L36.2009 15.118C35.6456 15.7433 34.9899 16.056 34.2339 16.056C33.4826 16.056 32.8619 15.818 32.3719 15.342C31.8866 14.866 31.6439 14.2663 31.6439 13.543C31.6439 12.815 31.8913 12.2083 32.3859 11.723C32.8853 11.2377 33.4943 10.995 34.2129 10.995C35.0156 10.995 35.6876 11.3007 36.2289 11.912L35.5499 12.682C35.2046 12.2527 34.7753 12.038 34.2619 12.038C33.8513 12.038 33.4989 12.1733 33.2049 12.444C32.9156 12.71 32.7709 13.0717 32.7709 13.529C32.7709 13.9817 32.9086 14.3457 33.1839 14.621C33.4593 14.8963 33.7929 15.034 34.1849 15.034ZM37.6495 14.117C37.6495 14.425 37.7358 14.677 37.9085 14.873C38.0858 15.0643 38.3098 15.16 38.5805 15.16C38.8558 15.16 39.0798 15.0643 39.2525 14.873C39.4298 14.677 39.5185 14.425 39.5185 14.117C39.5185 13.809 39.4298 13.557 39.2525 13.361C39.0798 13.165 38.8558 13.067 38.5805 13.067C38.3098 13.067 38.0858 13.165 37.9085 13.361C37.7358 13.557 37.6495 13.809 37.6495 14.117ZM40.5755 14.117C40.5755 14.663 40.3865 15.1227 40.0085 15.496C39.6305 15.8693 39.1545 16.056 38.5805 16.056C38.0112 16.056 37.5375 15.8693 37.1595 15.496C36.7815 15.1227 36.5925 14.663 36.5925 14.117C36.5925 13.571 36.7815 13.1113 37.1595 12.738C37.5375 12.36 38.0112 12.171 38.5805 12.171C39.1545 12.171 39.6305 12.36 40.0085 12.738C40.3865 13.1113 40.5755 13.571 40.5755 14.117ZM42.4054 13.9V16H41.3554V12.234H42.4054V12.654C42.7227 12.332 43.0797 12.171 43.4764 12.171C43.8731 12.171 44.2044 12.311 44.4704 12.591C44.7411 12.871 44.8764 13.2443 44.8764 13.711V16H43.8264V13.872C43.8264 13.2933 43.6141 13.004 43.1894 13.004C42.9794 13.004 42.7951 13.081 42.6364 13.235C42.4824 13.3843 42.4054 13.606 42.4054 13.9ZM47.0244 12.99V14.677C47.0244 14.8217 47.0617 14.936 47.1364 15.02C47.2111 15.0993 47.2997 15.139 47.4024 15.139C47.5984 15.139 47.7641 15.0503 47.8994 14.873L48.2914 15.608C47.9647 15.9067 47.6194 16.056 47.2554 16.056C46.8961 16.056 46.5904 15.937 46.3384 15.699C46.0911 15.461 45.9674 15.1367 45.9674 14.726V12.99H45.5264V12.234H45.9674V11.107H47.0244V12.234H47.9344V12.99H47.0244ZM49.9044 16H48.8544V12.234H49.9044V16ZM48.9384 11.758C48.8218 11.6367 48.7634 11.4897 48.7634 11.317C48.7634 11.1443 48.8218 10.9997 48.9384 10.883C49.0598 10.7617 49.2068 10.701 49.3794 10.701C49.5521 10.701 49.6968 10.7617 49.8134 10.883C49.9348 10.9997 49.9954 11.1443 49.9954 11.317C49.9954 11.4897 49.9348 11.6367 49.8134 11.758C49.6968 11.8747 49.5521 11.933 49.3794 11.933C49.2068 11.933 49.0598 11.8747 48.9384 11.758ZM51.9484 13.9V16H50.8984V12.234H51.9484V12.654C52.2657 12.332 52.6227 12.171 53.0194 12.171C53.416 12.171 53.7474 12.311 54.0134 12.591C54.284 12.871 54.4194 13.2443 54.4194 13.711V16H53.3694V13.872C53.3694 13.2933 53.157 13.004 52.7324 13.004C52.5224 13.004 52.338 13.081 52.1794 13.235C52.0254 13.3843 51.9484 13.606 51.9484 13.9ZM57.7981 14.264V12.234H58.8551V16H57.7981V15.503C57.5367 15.8717 57.1984 16.056 56.7831 16.056C56.3724 16.056 56.0271 15.9277 55.7471 15.671C55.4671 15.4097 55.3271 15.0247 55.3271 14.516V12.234H56.3841V14.285C56.3841 14.8637 56.5964 15.153 57.0211 15.153C57.2311 15.153 57.4131 15.0783 57.5671 14.929C57.7211 14.775 57.7981 14.5533 57.7981 14.264ZM63.1086 15.454C62.6839 15.8553 62.1846 16.056 61.6106 16.056C61.0413 16.056 60.5699 15.881 60.1966 15.531C59.8233 15.1763 59.6366 14.7027 59.6366 14.11C59.6366 13.5173 59.8256 13.046 60.2036 12.696C60.5863 12.346 61.0366 12.171 61.5546 12.171C62.0726 12.171 62.5113 12.3273 62.8706 12.64C63.2346 12.9527 63.4166 13.382 63.4166 13.928V14.488H60.6726C60.7053 14.6933 60.8126 14.8613 60.9946 14.992C61.1766 15.1227 61.3819 15.188 61.6106 15.188C61.9793 15.188 62.2826 15.0643 62.5206 14.817L63.1086 15.454ZM62.3526 13.739C62.3293 13.515 62.2453 13.3423 62.1006 13.221C61.9559 13.0997 61.7786 13.039 61.5686 13.039C61.3633 13.039 61.1743 13.102 61.0016 13.228C60.8289 13.354 60.7286 13.5243 60.7006 13.739H62.3526ZM67.9795 16H66.8945L65.6135 12.234H66.6985L67.4335 14.509L68.1685 12.234H69.1835L69.9185 14.509L70.6535 12.234H71.7455L70.4645 16H69.3725L68.6795 13.949L67.9795 16ZM73.3859 16H72.3359V12.234H73.3859V16ZM72.4199 11.758C72.3032 11.6367 72.2449 11.4897 72.2449 11.317C72.2449 11.1443 72.3032 10.9997 72.4199 10.883C72.5412 10.7617 72.6882 10.701 72.8609 10.701C73.0335 10.701 73.1782 10.7617 73.2949 10.883C73.4162 10.9997 73.4769 11.1443 73.4769 11.317C73.4769 11.4897 73.4162 11.6367 73.2949 11.758C73.1782 11.8747 73.0335 11.933 72.8609 11.933C72.6882 11.933 72.5412 11.8747 72.4199 11.758ZM75.6328 12.99V14.677C75.6328 14.8217 75.6701 14.936 75.7448 15.02C75.8195 15.0993 75.9081 15.139 76.0108 15.139C76.2068 15.139 76.3725 15.0503 76.5078 14.873L76.8998 15.608C76.5731 15.9067 76.2278 16.056 75.8638 16.056C75.5045 16.056 75.1988 15.937 74.9468 15.699C74.6995 15.461 74.5758 15.1367 74.5758 14.726V12.99H74.1348V12.234H74.5758V11.107H75.6328V12.234H76.5428V12.99H75.6328ZM78.5128 13.97V16H77.4628V10.806H78.5128V12.654C78.8302 12.332 79.1848 12.171 79.5768 12.171C79.9735 12.171 80.3072 12.311 80.5778 12.591C80.8485 12.871 80.9838 13.2443 80.9838 13.711V16H79.9338V13.942C79.9338 13.3633 79.7215 13.074 79.2968 13.074C79.0868 13.074 78.9025 13.151 78.7438 13.305C78.5898 13.4543 78.5128 13.676 78.5128 13.97ZM87.0622 13.508H88.1612V15.244C87.6759 15.7853 87.0039 16.056 86.1452 16.056C85.4266 16.056 84.8222 15.818 84.3322 15.342C83.8469 14.866 83.6042 14.2663 83.6042 13.543C83.6042 12.815 83.8516 12.2083 84.3462 11.723C84.8456 11.2377 85.4452 10.995 86.1452 10.995C86.8499 10.995 87.4612 11.226 87.9792 11.688L87.4122 12.507C87.1929 12.3157 86.9899 12.185 86.8032 12.115C86.6212 12.0403 86.4229 12.003 86.2082 12.003C85.7929 12.003 85.4429 12.1453 85.1582 12.43C84.8736 12.71 84.7312 13.081 84.7312 13.543C84.7312 14.005 84.8666 14.376 85.1372 14.656C85.4126 14.9313 85.7392 15.069 86.1172 15.069C86.4952 15.069 86.8102 14.9967 87.0622 14.852V13.508ZM89.8692 14.117C89.8692 14.425 89.9556 14.677 90.1282 14.873C90.3056 15.0643 90.5296 15.16 90.8002 15.16C91.0756 15.16 91.2996 15.0643 91.4722 14.873C91.6496 14.677 91.7382 14.425 91.7382 14.117C91.7382 13.809 91.6496 13.557 91.4722 13.361C91.2996 13.165 91.0756 13.067 90.8002 13.067C90.5296 13.067 90.3056 13.165 90.1282 13.361C89.9556 13.557 89.8692 13.809 89.8692 14.117ZM92.7952 14.117C92.7952 14.663 92.6062 15.1227 92.2282 15.496C91.8502 15.8693 91.3742 16.056 90.8002 16.056C90.2309 16.056 89.7572 15.8693 89.3792 15.496C89.0012 15.1227 88.8122 14.663 88.8122 14.117C88.8122 13.571 89.0012 13.1113 89.3792 12.738C89.7572 12.36 90.2309 12.171 90.8002 12.171C91.3742 12.171 91.8502 12.36 92.2282 12.738C92.6062 13.1113 92.7952 13.571 92.7952 14.117ZM94.4151 14.117C94.4151 14.425 94.5015 14.677 94.6741 14.873C94.8515 15.0643 95.0755 15.16 95.3461 15.16C95.6215 15.16 95.8455 15.0643 96.0181 14.873C96.1955 14.677 96.2841 14.425 96.2841 14.117C96.2841 13.809 96.1955 13.557 96.0181 13.361C95.8455 13.165 95.6215 13.067 95.3461 13.067C95.0755 13.067 94.8515 13.165 94.6741 13.361C94.5015 13.557 94.4151 13.809 94.4151 14.117ZM97.3411 14.117C97.3411 14.663 97.1521 15.1227 96.7741 15.496C96.3961 15.8693 95.9201 16.056 95.3461 16.056C94.7768 16.056 94.3031 15.8693 93.9251 15.496C93.5471 15.1227 93.3581 14.663 93.3581 14.117C93.3581 13.571 93.5471 13.1113 93.9251 12.738C94.3031 12.36 94.7768 12.171 95.3461 12.171C95.9201 12.171 96.3961 12.36 96.7741 12.738C97.1521 13.1113 97.3411 13.571 97.3411 14.117ZM100.76 14.04C100.76 13.7367 100.676 13.4987 100.508 13.326C100.34 13.1533 100.132 13.067 99.885 13.067C99.6377 13.067 99.423 13.1533 99.241 13.326C99.0637 13.4987 98.975 13.7343 98.975 14.033C98.975 14.3317 99.0614 14.5743 99.234 14.761C99.4114 14.943 99.626 15.034 99.878 15.034C100.13 15.034 100.34 14.943 100.508 14.761C100.676 14.579 100.76 14.3387 100.76 14.04ZM100.907 15.363C100.576 15.7317 100.163 15.916 99.668 15.916C99.178 15.916 98.7627 15.7503 98.422 15.419C98.086 15.083 97.918 14.6373 97.918 14.082C97.918 13.522 98.0907 13.0647 98.436 12.71C98.786 12.3507 99.185 12.171 99.633 12.171C100.081 12.171 100.452 12.3553 100.746 12.724V12.227H101.796V15.51C101.796 15.846 101.738 16.1447 101.621 16.406C101.504 16.6673 101.348 16.8727 101.152 17.022C100.765 17.33 100.307 17.484 99.78 17.484C99.5 17.484 99.213 17.4373 98.919 17.344C98.6297 17.2553 98.3754 17.127 98.156 16.959L98.562 16.168C98.9074 16.4293 99.2714 16.56 99.654 16.56C100.041 16.56 100.347 16.4643 100.571 16.273C100.795 16.0817 100.907 15.7783 100.907 15.363ZM103.84 16H102.79V10.806H103.84V16ZM108.096 15.454C107.671 15.8553 107.172 16.056 106.598 16.056C106.029 16.056 105.557 15.881 105.184 15.531C104.811 15.1763 104.624 14.7027 104.624 14.11C104.624 13.5173 104.813 13.046 105.191 12.696C105.574 12.346 106.024 12.171 106.542 12.171C107.06 12.171 107.499 12.3273 107.858 12.64C108.222 12.9527 108.404 13.382 108.404 13.928V14.488H105.66C105.693 14.6933 105.8 14.8613 105.982 14.992C106.164 15.1227 106.369 15.188 106.598 15.188C106.967 15.188 107.27 15.0643 107.508 14.817L108.096 15.454ZM107.34 13.739C107.317 13.515 107.233 13.3423 107.088 13.221C106.943 13.0997 106.766 13.039 106.556 13.039C106.351 13.039 106.162 13.102 105.989 13.228C105.816 13.354 105.716 13.5243 105.688 13.739H107.34Z" fill="white"/>
<path d="M23.4715 11.7829L17.761 11.7826C17.5088 11.7826 17.3044 11.987 17.3044 12.2391V14.0634C17.3044 14.3155 17.5088 14.5199 17.761 14.5199H20.9768C20.6246 15.4337 19.9674 16.1991 19.1289 16.6854L20.5001 19.059C22.6997 17.7869 24.0001 15.5549 24.0001 13.0563C24.0001 12.7005 23.9739 12.4462 23.9214 12.1598C23.8815 11.9422 23.6926 11.7829 23.4715 11.7829Z" fill="white"/>
<path d="M17 17.2609C15.4262 17.2609 14.0524 16.401 13.3145 15.1287L10.9409 16.4968C12.1488 18.5903 14.4116 20 17 20C18.2697 20 19.4679 19.6582 20.5 19.0624V19.0591L19.1288 16.6854C18.5016 17.0492 17.7758 17.2609 17 17.2609Z" fill="white"/>
<path d="M20.5 19.0623V19.059L19.1288 16.6853C18.5016 17.0491 17.7758 17.2608 17 17.2608V19.9999C18.2698 19.9999 19.4679 19.6581 20.5 19.0623Z" fill="white"/>
<path d="M12.7391 12.9999C12.7391 12.2242 12.9508 11.4985 13.3145 10.8713L10.9409 9.50317C10.3419 10.532 10 11.7269 10 12.9999C10 14.2729 10.3419 15.4678 10.9409 16.4967L13.3145 15.1285C12.9508 14.5014 12.7391 13.7756 12.7391 12.9999Z" fill="white"/>
<path d="M17 8.73913C18.0262 8.73913 18.9689 9.10379 19.7052 9.71035C19.8868 9.85998 20.1508 9.84918 20.3172 9.68279L21.6097 8.39025C21.7985 8.20147 21.7851 7.89246 21.5834 7.71751C20.3498 6.64731 18.7447 6 17 6C14.4116 6 12.1488 7.40976 10.9409 9.50325L13.3145 10.8714C14.0524 9.59898 15.4262 8.73913 17 8.73913Z" fill="white"/>
<path d="M19.7052 9.71035C19.8868 9.85998 20.1508 9.84918 20.3172 9.68279L21.6097 8.39025C21.7985 8.20147 21.785 7.89246 21.5834 7.71751C20.3498 6.64728 18.7447 6 17 6V8.73913C18.0262 8.73913 18.9689 9.10379 19.7052 9.71035Z" fill="white"/>
</svg>
