<svg width="121" height="96" viewBox="0 0 121 96" fill="none" xmlns="http://www.w3.org/2000/svg">
<rect width="120.847" height="96" rx="16" fill="#5D00EF"/>
<rect width="120.847" height="96" rx="16" stroke="#6F6571"/>
<path d="M65.9662 40.7638C54.3916 40.7632 45.0081 50.1467 45.0087 61.7214C45.0087 69.1888 46.6292 76.5675 49.7582 83.3476L52.1847 88.6041V95.7801H72.5168V88.6041H82.0849L84.4769 71.86H87.7828C88.6115 71.86 89.3812 71.4307 89.8174 70.7259C90.2531 70.0204 90.2928 69.1403 89.9226 68.3987L86.8689 62.2919L86.3404 58.7208C85.0912 48.4316 76.3308 40.7107 65.9662 40.7638Z" fill="#FBB540"/>
<path d="M82.256 87.408H73.7129C70.3269 87.3999 67.1401 85.8062 65.102 83.1023L61.5139 78.3183L59.6002 79.7537L63.1882 84.5377C65.4296 87.5026 68.8161 89.3866 72.5169 89.7282V88.604H82.0849L82.256 87.408Z" fill="#EA9D2D"/>
<path d="M77.8989 64.6839C77.8989 66.3354 76.5604 67.6739 74.9088 67.6739C73.2579 67.6739 71.9188 66.3354 71.9188 64.6839C71.9188 63.0324 73.2579 61.6939 74.9088 61.6939C76.5604 61.6939 77.8989 63.0324 77.8989 64.6839Z" fill="#EA9D2D"/>
<path d="M83.452 79.036H77.3009V81.428H83.1098L83.452 79.036Z" fill="#EA9D2D"/>
<path d="M60.5568 75.6156H58.1648V74.2029L56.9174 73.953C54.8121 73.5845 53.0718 72.1046 52.371 70.0858C51.6697 68.0669 52.1176 65.8268 53.5414 64.2325C54.9651 62.6388 57.1411 61.9415 59.2259 62.4116L59.5967 62.4858L59.1179 64.8311L58.7488 64.7569C56.8561 64.3791 55.0153 65.6072 54.6375 67.4999C54.2597 69.3926 55.4878 71.2333 57.3805 71.6112L59.5891 72.0538C60.1468 72.1677 60.5469 72.6583 60.5463 73.2271L60.5568 75.6156Z" fill="#EA9D2D"/>
<path d="M66.5369 63.4879H68.9289V65.8799H66.5369V63.4879Z" fill="#EA9D2D"/>
<path d="M61.7528 63.4879H64.1448V65.8799H61.7528V63.4879Z" fill="#EA9D2D"/>
<path d="M77.3009 51.5278H79.6929V53.9199H77.3009V51.5278Z" fill="#EA9D2D"/>
<path d="M72.5168 51.5278H74.9089V53.9199H72.5168V51.5278Z" fill="#EA9D2D"/>
<path d="M64.3159 45.5478C64.313 44.6695 64.2295 43.7929 64.0671 42.9298L68.9288 40.1226L64.1448 31.837L59.2819 34.6436C57.9434 33.5025 56.4064 32.6177 54.7479 32.0332V26.4117H45.1798V32.0332C43.5213 32.6189 41.9848 33.5054 40.6469 34.6477L35.784 31.837L31 40.1226L35.8617 42.9298C35.5282 44.659 35.5282 46.4366 35.8617 48.1658L31 50.9731L35.784 59.2587L40.6469 56.452C41.9848 57.5937 43.5213 58.4802 45.1798 59.0665V64.6839H54.7479V59.0625C56.407 58.4767 57.944 57.5908 59.2819 56.4479L64.1448 59.2552L68.9288 50.9696L64.0671 48.1623C64.2295 47.3004 64.313 46.425 64.3159 45.5478Z" fill="#4799CF"/>
<path d="M55.9439 35.9798V38.0862C54.2515 36.7185 52.1398 35.9745 49.9639 35.9798C46.1113 35.9798 42.6348 38.2906 41.1428 41.8424C39.6507 45.3942 40.4344 49.4944 43.1312 52.2456L44.8376 50.5713C42.2704 47.948 42.0958 43.8105 44.4335 40.981C46.7712 38.151 50.8673 37.5413 53.9274 39.5678H52.3559V41.9598H57.1399C57.8004 41.9598 58.3359 41.4243 58.3359 40.7638V35.9798H55.9439Z" fill="#277BAA"/>
<path d="M49.9638 47.3418C48.9728 47.3418 48.1698 46.5389 48.1698 45.5478C48.1698 44.5568 48.9728 43.7538 49.9638 43.7538C50.9548 43.7538 51.7578 44.5568 51.7578 45.5478C51.7578 46.5389 50.9548 47.3418 49.9638 47.3418Z" fill="#277BAA"/>
</svg>
