<svg width="23" height="36" viewBox="0 0 23 36" fill="none" xmlns="http://www.w3.org/2000/svg">
<path d="M11.7571 21.0389C11.4461 21.0389 11.1948 20.7875 11.1948 20.4765V18.7889C11.1948 18.478 11.4461 18.2266 11.7571 18.2266C12.0681 18.2266 12.3194 18.478 12.3194 18.7889V20.4765C12.3194 20.7875 12.0681 21.0389 11.7571 21.0389Z" fill="#EDAB37"/>
<path d="M11.7588 35.6587C16.1068 35.6587 19.6316 32.1339 19.6316 27.7858C19.6316 23.4378 16.1068 19.913 11.7588 19.913C7.41076 19.913 3.88599 23.4378 3.88599 27.7858C3.88599 32.1339 7.41076 35.6587 11.7588 35.6587Z" fill="#FFCE54"/>
<path d="M17.9445 0.231049H17.9333H11.7587H5.57916L8.66586 9.4979L11.7587 18.7884L17.3822 17.1013L23 15.4143L17.9445 0.231049Z" fill="#ED5565"/>
<path d="M8.66587 9.4979L5.57917 0.231049H5.56737L0.511902 15.4143L6.12971 17.1013L11.7531 18.7884H11.7588L8.66587 9.4979Z" fill="#DA4453"/>
<path d="M12.3532 0.231049H11.7588H11.1666L16.8401 17.2639L17.3822 17.1013L17.9187 16.9405L12.3532 0.231049Z" fill="#DA4453"/>
<path d="M8.6659 9.4979L8.36955 8.60771L5.59326 16.9405L6.12974 17.1013L6.67184 17.2639L8.9617 10.3881L8.6659 9.4979Z" fill="#D3374E"/>
<path d="M9.51113 30.5998C9.20016 30.5998 8.94879 30.3485 8.94879 30.0375V28.9117C8.94879 28.6007 9.20016 28.3493 9.51113 28.3493C9.82211 28.3493 10.0735 28.6007 10.0735 28.9117V30.0375C10.0735 30.3485 9.82211 30.5998 9.51113 30.5998Z" fill="#FFCE54"/>
<path d="M10.0734 30.0369H8.94876C8.63778 30.0369 8.38641 29.7855 8.38641 29.4746C8.38641 29.1636 8.63778 28.9122 8.94876 28.9122H10.0734C10.3844 28.9122 10.6358 29.1636 10.6358 29.4746C10.6358 29.7855 10.3844 30.0369 10.0734 30.0369Z" fill="#FFCE54"/>
<path d="M14.0357 30.0262C13.7248 30.0262 13.4706 29.7749 13.4706 29.4639C13.4706 29.1529 13.7191 28.9015 14.0295 28.9015H14.0357C14.3461 28.9015 14.5981 29.1529 14.5981 29.4639C14.5981 29.7749 14.3456 30.0262 14.0357 30.0262Z" fill="#FFCE54"/>
</svg>
