<svg width="121" height="96" viewBox="0 0 121 96" fill="none" xmlns="http://www.w3.org/2000/svg">
<rect width="120.847" height="96" rx="16" fill="#473F48"/>
<rect width="120.847" height="96" rx="16" stroke="black"/>
<path d="M73.9355 53.841V42.159C73.9355 39.0791 75.1591 36.1252 77.3369 33.9474L84.1875 27.0968L80.9032 23.8125L74.0525 30.6632C71.8746 32.8411 68.9208 34.0647 65.8408 34.0647H54.1588C51.0789 34.0647 48.1251 32.8411 45.9472 30.6632L39.0968 23.8125L35.8125 27.0968L42.6632 33.9475C44.841 36.1254 46.0646 39.0791 46.0646 42.1592V53.8412C46.0646 56.9211 44.841 59.8748 42.6632 62.0527L35.7127 69.003L38.997 72.2873L45.9473 65.3368C48.1252 63.159 51.079 61.9355 54.159 61.9355H65.841C68.9209 61.9355 71.8748 63.159 74.0526 65.3368L81.003 72.2873L84.2873 69.003L77.3369 62.0525C75.1589 59.8747 73.9355 56.921 73.9355 53.841Z" fill="#EDEBED"/>
<path d="M42.1703 26.886L39.0968 23.8125L35.8125 27.0968L38.886 30.1703C40.3896 29.5813 41.5812 28.3896 42.1703 26.886Z" fill="#DBD9DC"/>
<path d="M48.868 12.6805C47.9618 11.7732 46.4899 11.7732 45.5837 12.6805L24.6805 33.5837C23.7732 34.491 23.7732 35.9607 24.6805 36.868C25.1336 37.3216 25.7284 37.5484 26.3226 37.5484C26.9167 37.5484 27.5117 37.3216 27.9646 36.868L48.868 15.9648C49.7751 15.0575 49.7751 13.5877 48.868 12.6805Z" fill="#6F6571"/>
<path d="M36.7745 28.2583C38.6985 28.2583 40.2583 26.6985 40.2583 24.7744C40.2583 22.8503 38.6985 21.2906 36.7745 21.2906C34.8504 21.2906 33.2906 22.8503 33.2906 24.7744C33.2906 26.6985 34.8504 28.2583 36.7745 28.2583Z" fill="#AEA8AF"/>
<path d="M38.5162 26.5162C36.5922 26.5162 35.0323 24.9564 35.0323 23.0324C35.0323 22.5217 35.1482 22.0405 35.3455 21.6036C34.1359 22.1499 33.2904 23.3607 33.2904 24.7743C33.2904 26.6983 34.8502 28.2581 36.7743 28.2581C38.1878 28.2581 39.3986 27.4127 39.9449 26.203C39.508 26.4003 39.0266 26.5162 38.5162 26.5162Z" fill="#9C969E"/>
<path d="M81.1141 30.1703L84.1875 27.0968L80.9033 23.8125L77.8298 26.886C78.4188 28.3896 79.6105 29.5813 81.1141 30.1703Z" fill="#DBD9DC"/>
<path d="M95.3195 36.868C96.2268 35.9618 96.2268 34.4899 95.3195 33.5837L74.4163 12.6805C73.509 11.7732 72.0393 11.7732 71.132 12.6805C70.6784 13.1336 70.4515 13.7285 70.4515 14.3226C70.4515 14.9167 70.6784 15.5117 71.132 15.9647L92.0352 36.8679C92.9425 37.7752 94.4123 37.7752 95.3195 36.868Z" fill="#6F6571"/>
<path d="M83.2256 28.2583C85.1497 28.2583 86.7094 26.6985 86.7094 24.7744C86.7094 22.8503 85.1497 21.2906 83.2256 21.2906C81.3015 21.2906 79.7418 22.8503 79.7418 24.7744C79.7418 26.6985 81.3015 28.2583 83.2256 28.2583Z" fill="#AEA8AF"/>
<path d="M84.9677 26.5162C83.0437 26.5162 81.4839 24.9564 81.4839 23.0324C81.4839 22.5217 81.5998 22.0405 81.7971 21.6036C80.5874 22.1499 79.742 23.3607 79.742 24.7743C79.742 26.6983 81.3018 28.2581 83.2258 28.2581C84.6394 28.2581 85.8501 27.4127 86.3965 26.203C85.9595 26.4003 85.4783 26.5162 84.9677 26.5162Z" fill="#9C969E"/>
<path d="M77.8298 69.114L80.9033 72.1875L84.1875 68.9032L81.1141 65.8297C79.6105 66.4188 78.4188 67.6104 77.8298 69.114Z" fill="#DBD9DC"/>
<path d="M71.132 83.3195C72.0382 84.2268 73.5101 84.2268 74.4163 83.3195L95.3195 62.4163C96.2268 61.509 96.2268 60.0393 95.3195 59.132C94.8664 58.6784 94.2716 58.4515 93.6774 58.4515C93.0831 58.4515 92.4883 58.6784 92.0353 59.132L71.132 80.0352C70.2248 80.9425 70.2248 82.4123 71.132 83.3195Z" fill="#6F6571"/>
<path d="M83.2256 74.7095C85.1497 74.7095 86.7094 73.1497 86.7094 71.2256C86.7094 69.3016 85.1497 67.7418 83.2256 67.7418C81.3015 67.7418 79.7418 69.3016 79.7418 71.2256C79.7418 73.1497 81.3015 74.7095 83.2256 74.7095Z" fill="#AEA8AF"/>
<path d="M84.9677 72.9677C83.0437 72.9677 81.4839 71.4079 81.4839 69.4838C81.4839 68.9732 81.5998 68.492 81.7971 68.0551C80.5874 68.6014 79.742 69.8122 79.742 71.2258C79.742 73.1498 81.3018 74.7096 83.2258 74.7096C84.6394 74.7096 85.8501 73.8642 86.3965 72.6545C85.9595 72.8518 85.4783 72.9677 84.9677 72.9677Z" fill="#9C969E"/>
<path d="M38.886 65.8297L35.8125 68.9032L39.0968 72.1875L42.1703 69.114C41.5812 67.6104 40.3896 66.4188 38.886 65.8297Z" fill="#DBD9DC"/>
<path d="M24.6805 59.132C23.7732 60.0382 23.7732 61.5101 24.6805 62.4163L45.5837 83.3195C46.491 84.2268 47.9607 84.2268 48.868 83.3195C49.3216 82.8664 49.5484 82.2716 49.5484 81.6774C49.5484 81.0832 49.3216 80.4883 48.868 80.0354L27.9648 59.132C27.0575 58.2249 25.5877 58.2249 24.6805 59.132Z" fill="#6F6571"/>
<path d="M36.7745 74.7095C38.6985 74.7095 40.2583 73.1497 40.2583 71.2256C40.2583 69.3016 38.6985 67.7418 36.7745 67.7418C34.8504 67.7418 33.2906 69.3016 33.2906 71.2256C33.2906 73.1497 34.8504 74.7095 36.7745 74.7095Z" fill="#AEA8AF"/>
<path d="M38.5162 72.9677C36.5922 72.9677 35.0323 71.4079 35.0323 69.4838C35.0323 68.9732 35.1482 68.492 35.3455 68.0551C34.1359 68.6014 33.2904 69.8122 33.2904 71.2258C33.2904 73.1498 34.8502 74.7096 36.7743 74.7096C38.1878 74.7096 39.3986 73.8642 39.9449 72.6545C39.508 72.8518 39.0266 72.9677 38.5162 72.9677Z" fill="#9C969E"/>
<path d="M69.2849 33.5388C68.1794 33.8822 67.02 34.0645 65.8411 34.0645H54.1591C52.9801 34.0645 51.8208 33.8822 50.7154 33.5388C50.7453 35.1162 52.0284 36.3872 53.6131 36.3872H66.3873C67.9719 36.3871 69.2549 35.1162 69.2849 33.5388Z" fill="#DBD9DC"/>
<path d="M66.3871 59.613H53.6129C52.0282 59.613 50.7451 60.8838 50.7152 62.4613C51.8206 62.1179 52.9801 61.9357 54.1589 61.9357H65.8409C67.0199 61.9357 68.1792 62.1179 69.2847 62.4613C69.2549 60.8836 67.9718 59.613 66.3871 59.613Z" fill="#DBD9DC"/>
<path d="M74.4612 57.2848C74.1178 56.1793 73.9356 55.0199 73.9356 53.841V42.159C73.9356 40.98 74.1178 39.8207 74.4612 38.7152C72.8839 38.7452 71.6129 40.0283 71.6129 41.613V54.3872C71.613 55.9718 72.8839 57.2548 74.4612 57.2848Z" fill="#DBD9DC"/>
<path d="M48.3871 54.3871V41.6128C48.3871 40.0281 47.1163 38.7451 45.5388 38.7151C45.8822 39.8206 46.0644 40.98 46.0644 42.1589V53.8409C46.0644 55.0199 45.8822 56.1792 45.5388 57.2846C47.1165 57.2548 48.3871 55.9718 48.3871 54.3871Z" fill="#DBD9DC"/>
<path d="M61.5446 55.4076C61.269 55.4076 60.9935 55.3105 60.7723 55.1133C60.33 54.7203 59.6677 54.7209 59.2277 55.1127C58.7491 55.5379 58.0153 55.4972 57.5878 55.018C57.1615 54.5395 57.2045 53.8052 57.683 53.3788C59.0031 52.2016 60.9969 52.2022 62.3169 53.3793C62.7966 53.8063 62.8386 54.5406 62.411 55.0192C62.1819 55.2767 61.8633 55.4076 61.5446 55.4076Z" fill="#00C8B4"/>
<path d="M67.6867 45.5162C67.4666 45.5162 67.2433 45.4537 67.046 45.3228C62.7739 42.4905 57.2488 42.486 52.9721 45.3103C52.438 45.6635 51.7167 45.5167 51.3628 44.9808C51.0101 44.4456 51.1575 43.7254 51.6928 43.372C56.7508 40.0333 63.2808 40.0401 68.3296 43.3868C68.8637 43.7412 69.0101 44.4619 68.6563 44.9961C68.4318 45.3336 68.0633 45.5162 67.6867 45.5162Z" fill="#99E9DF"/>
<path d="M55.3775 50.4545C55.0089 50.4545 54.6471 50.2798 54.4216 49.9544C54.0563 49.4277 54.188 48.7041 54.7153 48.3389C57.8726 46.1519 62.1174 46.149 65.2747 48.3316C65.802 48.6963 65.9348 49.4198 65.5696 49.9471C65.2055 50.4745 64.482 50.6048 63.9547 50.2426C61.5867 48.6061 58.4056 48.6078 56.0378 50.2476C55.8357 50.3876 55.6055 50.4545 55.3775 50.4545Z" fill="#4BD7C8"/>
</svg>
