<svg width="106" height="100" viewBox="0 0 106 100" fill="none" xmlns="http://www.w3.org/2000/svg">
<path d="M52.6379 3.77338C38.7282 7.96028 30.6459 8.53122 28.3435 8.29332C9.05087 5.6765 0 3.77338 0 37.3161C0 70.8589 27.8671 104.639 61.2124 99.168C94.5577 93.6964 112.898 60.6295 103.132 27.0868C93.3668 -6.45596 70.0251 -1.46024 52.6379 3.77338Z" fill="#464548" fill-opacity="0.4"/>
<path d="M75.9064 75.0241L78.0242 72.9056L90.004 84.8854L87.8862 87.0039L75.9064 75.0241Z" fill="#C7463B"/>
<path d="M16.0015 15.1178L18.12 13L30.0998 24.9798L27.9813 27.0976L16.0015 15.1178Z" fill="#C7463B"/>
<path d="M75.9071 24.9929L87.8869 13.0124L90.0047 15.1309L78.0249 27.1107L75.9071 24.9929Z" fill="#C7463B"/>
<path d="M16 84.8986L27.9798 72.9188L30.0976 75.0366L18.1178 87.0164L16 84.8986Z" fill="#C7463B"/>
<path d="M87.4548 50.0082C87.4548 69.0324 72.0328 84.4543 53.0086 84.4543C33.9851 84.4543 18.5625 69.0324 18.5625 50.0082C18.5625 30.984 33.9851 15.562 53.0086 15.562C72.0328 15.562 87.4548 30.984 87.4548 50.0082Z" fill="#C7463B"/>
<path d="M81.4648 50.0086C81.4648 65.7237 68.7252 78.4641 53.0093 78.4641C37.2941 78.4641 24.5538 65.7237 24.5538 50.0086C24.5538 34.2926 37.2941 21.553 53.0093 21.553C68.7252 21.553 81.4648 34.2926 81.4648 50.0086Z" fill="#99362E"/>
<path d="M56.3045 78.2579C57.016 78.1833 57.7276 78.0707 58.4201 77.9398C58.57 77.9208 58.7192 77.8835 58.8691 77.8652C59.6742 77.6963 60.4603 77.4908 61.2282 77.2473C61.4527 77.1719 61.6772 77.0973 61.9017 77.0228C62.4823 76.8355 63.063 76.6103 63.6429 76.3858C63.8674 76.2922 64.0926 76.2176 64.3171 76.124C65.0286 75.8242 65.7212 75.4871 66.3947 75.1317C66.6199 75.0008 66.8444 74.8699 67.0689 74.7382C67.5369 74.4764 68.0049 74.1956 68.4539 73.8958C68.7165 73.7276 68.9783 73.5594 69.2408 73.3722C69.7644 72.9978 70.2704 72.6234 70.7758 72.23C71.0749 71.9864 71.3557 71.7429 71.6555 71.4811C72.0109 71.163 72.367 70.8449 72.7224 70.5078C72.985 70.2453 73.2658 69.9835 73.5276 69.7027C73.8274 69.3845 74.1265 69.0664 74.4073 68.7476C74.7817 68.3176 75.1561 67.8679 75.5122 67.3999C75.7931 67.0445 76.0549 66.6883 76.3167 66.3329C76.5602 65.9958 76.7847 65.6404 77.0099 65.3033C77.2154 64.9852 77.4026 64.6671 77.5898 64.3299C77.796 63.9738 78.0015 63.6184 78.2077 63.263L72.4789 58.9945L70.9812 50.0086L69.4836 38.0273L53.0093 27.5437L36.5351 38.0273L35.0374 50.0086L33.5398 58.9945L27.849 63.263C28.4479 64.4045 29.1404 65.4905 29.8892 66.5391C30.4889 67.3626 31.1251 68.1677 31.8176 68.9348C31.9302 69.0664 32.0421 69.1783 32.1547 69.3092C32.7354 69.9462 33.3526 70.5451 33.9895 71.1257C34.1394 71.2566 34.2703 71.3875 34.4012 71.5001C34.7566 71.7992 35.1128 72.0991 35.4682 72.3799C35.7307 72.5854 36.0115 72.7916 36.2733 72.9788C36.7786 73.3342 37.2839 73.6903 37.79 74.0084C38.1454 74.2329 38.5008 74.4391 38.8569 74.6446C39.156 74.8136 39.4368 74.9818 39.7556 75.1507C40.3546 75.4688 40.9725 75.7679 41.5897 76.0304C41.8522 76.1423 42.114 76.2549 42.3765 76.3675C43.0501 76.6483 43.7426 76.8911 44.4358 77.1164C44.585 77.1537 44.7349 77.1909 44.8658 77.2473C45.5401 77.4527 46.2326 77.6217 46.9251 77.7716C47.1123 77.8089 47.2995 77.8462 47.4867 77.8835C48.2736 78.0334 49.078 78.1643 49.8831 78.2579C50.052 78.2769 50.2393 78.2952 50.4074 78.3142C51.2689 78.3888 52.1296 78.4451 53.0093 78.4451C53.8898 78.4451 54.7505 78.3888 55.5929 78.3142C55.8365 78.3142 56.061 78.2769 56.3045 78.2579Z" fill="#D9D9D9"/>
<path d="M40.3012 50.0086L53.0093 37.3004L65.7175 50.0086L53.0093 62.7167L40.3012 50.0086Z" fill="#676C70"/>
<path d="M41.8098 51.5055L53.0225 40.2935L64.2345 51.5055L53.0225 62.7182L41.8098 51.5055Z" fill="#797E83"/>
<path d="M46.536 49.9256L47.4829 47.0842L51.976 48.5817L51.0291 51.423L46.536 49.9256Z" fill="#F55648"/>
<path d="M54.0434 48.624L58.5365 47.1281L59.4826 49.9694L54.9888 51.4654L54.0434 48.624Z" fill="#F55648"/>
<path d="M54.507 78.4641H51.5117V62.7196C51.5117 62.3269 51.6616 61.9335 51.9424 61.6527L64.6542 48.9416L66.7691 51.0564L54.507 63.3375V78.4641Z" fill="#CDCDCD"/>
</svg>
