<svg width="121" height="96" viewBox="0 0 121 96" fill="none" xmlns="http://www.w3.org/2000/svg">
<rect width="120.847" height="96" rx="16" fill="#FDBD40"/>
<rect width="120.847" height="96" rx="16" stroke="#6F6571"/>
<path d="M44.3157 90.3147C43.598 90.3147 43.017 89.7332 43.017 89.0159V75.2172C43.017 74.4999 43.5978 73.9185 44.3157 73.9185C45.0337 73.9185 45.6145 74.4999 45.6145 75.2172V89.0159C45.6143 89.7332 45.0335 90.3147 44.3157 90.3147Z" fill="#CCF3FF"/>
<path d="M44.3157 71.321C43.598 71.321 43.017 70.7396 43.017 70.0223V67.4249C43.017 66.7076 43.5978 66.1261 44.3157 66.1261C45.0337 66.1261 45.6145 66.7076 45.6145 67.4249V70.0223C45.6143 70.7396 45.0335 71.321 44.3157 71.321Z" fill="#E5F9FF"/>
<path d="M52.5417 90.3147C51.8239 90.3147 51.243 89.7332 51.243 89.0159V79.5191C51.243 78.8018 51.8238 78.2204 52.5417 78.2204C53.2595 78.2204 53.8404 78.8018 53.8404 79.5191V89.0159C53.8404 89.7332 53.2595 90.3147 52.5417 90.3147Z" fill="#CCF3FF"/>
<path d="M52.5417 75.6231C51.8239 75.6231 51.243 75.0417 51.243 74.3244V71.7269C51.243 71.0097 51.8238 70.4282 52.5417 70.4282C53.2595 70.4282 53.8404 71.0097 53.8404 71.7269V74.3244C53.8404 75.0415 53.2595 75.6231 52.5417 75.6231Z" fill="#E5F9FF"/>
<path d="M60.7664 90.314C60.0486 90.314 59.4677 89.7326 59.4677 89.0153V83.8204C59.4677 83.1031 60.0484 82.5217 60.7664 82.5217C61.4841 82.5217 62.0651 83.1031 62.0651 83.8204V89.0153C62.0651 89.7326 61.4841 90.314 60.7664 90.314Z" fill="#CCF3FF"/>
<path d="M60.7664 79.925C60.0486 79.925 59.4677 79.3436 59.4677 78.6263V76.0282C59.4677 75.311 60.0484 74.7295 60.7664 74.7295C61.4841 74.7295 62.0651 75.311 62.0651 76.0282V78.6263C62.0651 79.3435 61.4841 79.925 60.7664 79.925Z" fill="#E5F9FF"/>
<path d="M85.4419 69.5353C84.7241 69.5353 84.1432 70.1167 84.1432 70.834V90.314H86.7406V70.834C86.7406 70.1169 86.1597 69.5353 85.4419 69.5353Z" fill="#CCF3FF"/>
<path d="M85.4419 66.9379C84.7241 66.9379 84.1432 66.3564 84.1432 65.6391V63.0417C84.1432 62.3244 84.724 61.743 85.4419 61.743C86.1597 61.743 86.7406 62.3244 86.7406 63.0417V65.6391C86.7406 66.3564 86.1597 66.9379 85.4419 66.9379Z" fill="#E5F9FF"/>
<path d="M77.2171 90.3147C76.4993 90.3147 75.9183 89.7332 75.9183 89.0159V75.2172C75.9183 74.4999 76.4991 73.9185 77.2171 73.9185C77.9348 73.9185 78.5158 74.4999 78.5158 75.2172V89.0159C78.5158 89.7332 77.935 90.3147 77.2171 90.3147Z" fill="#CCF3FF"/>
<path d="M77.2171 71.321C76.4993 71.321 75.9183 70.7396 75.9183 70.0223V67.4249C75.9183 66.7076 76.4991 66.1261 77.2171 66.1261C77.9348 66.1261 78.5158 66.7076 78.5158 67.4249V70.0223C78.5158 70.7396 77.935 71.321 77.2171 71.321Z" fill="#E5F9FF"/>
<path d="M68.9911 90.3147C68.2733 90.3147 67.6924 89.7332 67.6924 89.0159V79.5191C67.6924 78.8018 68.2732 78.2204 68.9911 78.2204C69.7089 78.2204 70.2898 78.8018 70.2898 79.5191V89.0159C70.2898 89.7332 69.709 90.3147 68.9911 90.3147Z" fill="#CCF3FF"/>
<path d="M68.9911 75.6231C68.2733 75.6231 67.6924 75.0417 67.6924 74.3244V71.727C67.6924 71.0097 68.2732 70.4282 68.9911 70.4282C69.7089 70.4282 70.2898 71.0097 70.2898 71.727V74.3244C70.2898 75.0415 69.709 75.6231 68.9911 75.6231Z" fill="#E5F9FF"/>
<path d="M60.7664 18.1926L39.9871 30.2227V54.3015L60.7664 66.3318L81.5458 54.3016V30.2227L60.7664 18.1926ZM58.8146 14.8208H58.8273H58.8146Z" fill="#E5F9FF"/>
<path d="M85.386 55.0188L62.0649 41.5165V14.9895C62.0649 14.2722 61.4841 13.6908 60.7662 13.6908C60.0485 13.6908 59.4675 14.2722 59.4675 14.9895V41.5165L36.1465 55.0188C35.5251 55.3776 35.3131 56.1723 35.6733 56.793C36.0322 57.4127 36.8275 57.6257 37.4476 57.2662L60.7664 43.7654L84.0848 57.2662C84.289 57.3848 84.5135 57.4412 84.7341 57.4412C85.1818 57.4412 85.618 57.2091 85.8591 56.793C86.2193 56.1723 86.0075 55.3776 85.386 55.0188Z" fill="#CCF3FF"/>
<path d="M87.0995 89.7336C86.8795 89.2936 86.4299 89.0156 85.9379 89.0156H35.5948C35.1028 89.0156 34.6532 89.2936 34.4333 89.7336L32.1947 94.2105H89.3379L87.0995 89.7336Z" fill="#DBD9DC"/>
<path d="M84.1482 25.7274L63.3688 13.6973C61.7631 12.7676 59.7695 12.7676 58.1638 13.6973L37.3846 25.7267C35.7853 26.6519 34.7923 28.3749 34.7923 30.2227V54.3015C34.7923 56.1494 35.7853 57.8723 37.3846 58.7968L58.1639 70.8269C58.9668 71.2923 59.866 71.5246 60.7664 71.5246C61.6667 71.5246 62.5661 71.2925 63.3688 70.8269L84.1482 58.7974C85.7474 57.8723 86.7405 56.1492 86.7405 54.3015V30.2227C86.7406 28.3749 85.7474 26.6519 84.1482 25.7274ZM59.4651 15.9445C59.8671 15.7125 60.3161 15.5958 60.7664 15.5958C61.2166 15.5958 61.6656 15.7125 62.0677 15.9445L82.847 27.9753C82.8477 27.9756 82.8483 27.9764 82.849 27.9767L62.0677 40.008C61.2635 40.4721 60.2692 40.4721 59.4652 40.008L38.6833 27.9766C38.6843 27.9761 38.6848 27.9753 38.6857 27.9746L59.4651 15.9445ZM38.6857 56.5489C37.8867 56.0866 37.3896 55.2255 37.3896 54.3015V30.2283L58.1638 42.2554C58.577 42.495 59.0163 42.6704 59.4675 42.7864V68.5806C59.4667 68.5802 59.4657 68.5802 59.4649 68.5797L38.6857 56.5489ZM82.847 56.5495L62.0677 68.5797C62.0669 68.5802 62.0659 68.5802 62.0651 68.5806V42.7866C62.5165 42.6705 62.9556 42.4952 63.3688 42.2556L84.143 30.2283V54.3015C84.1432 55.2255 83.646 56.0866 82.847 56.5495Z" fill="#59D8FF"/>
<path d="M55.0755 89.0156H35.5948C35.1028 89.0156 34.6532 89.2936 34.4333 89.7336L32.1947 94.2105H51.6753L53.9139 89.7336C54.1339 89.2936 54.5835 89.0156 55.0755 89.0156Z" fill="#C9C6CA"/>
<path d="M93.2341 95.5096H28.2987C27.581 95.5096 27 94.9281 27 94.2108C27 93.4935 27.5808 92.9121 28.2987 92.9121H93.2342C93.952 92.9121 94.533 93.4935 94.533 94.2108C94.5328 94.9281 93.952 95.5096 93.2341 95.5096Z" fill="#EDEBED"/>
<path d="M50.3768 94.2108C50.3768 93.4935 50.9576 92.9121 51.6755 92.9121H28.2987C27.581 92.9121 27 93.4935 27 94.2108C27 94.9281 27.5808 95.5096 28.2987 95.5096H51.6755C50.9576 95.5096 50.3768 94.9281 50.3768 94.2108Z" fill="#DBD9DC"/>
</svg>
