<svg width="106" height="100" viewBox="0 0 106 100" fill="none" xmlns="http://www.w3.org/2000/svg">
<path d="M52.6379 3.77338C38.7282 7.96028 30.6459 8.53122 28.3435 8.29332C9.05087 5.6765 0 3.77338 0 37.3161C0 70.8589 27.8671 104.639 61.2124 99.168C94.5577 93.6964 112.898 60.6295 103.132 27.0868C93.3668 -6.45596 70.0251 -1.46024 52.6379 3.77338Z" fill="#464548" fill-opacity="0.4"/>
<g opacity="0.2">
<path d="M43.2211 11.557C27.6264 11.557 14.9844 22.3059 14.9844 36.3711C14.9844 42.9793 17.7777 52.0226 22.3551 59.7566C25.1109 64.4126 31.1196 72.9594 31.1196 78.2985H55.3225C55.3225 72.9594 61.3312 64.4126 64.087 59.7566C68.6646 52.0226 71.4578 42.9793 71.4578 36.3711C71.4579 22.3059 58.8159 11.557 43.2211 11.557Z" fill="#FFD700"/>
<path d="M45.6466 14.6376C44.6647 14.6429 43.6836 14.7 42.7078 14.8086C56.2825 16.1547 66.8241 26.0021 66.8241 38.6274C66.8241 44.1046 64.8285 51.3085 61.4734 57.9651C62.1166 56.9303 62.7144 55.9775 63.1928 55.1691C67.0422 48.6655 69.3909 41.0609 69.3909 35.5041C69.3911 23.6764 58.7601 14.6376 45.6466 14.6376Z" fill="#FFE67D"/>
<path d="M53.8023 82.0588H32.6403C31.2225 82.0588 30.0733 80.9096 30.0733 79.4918V79.4018C30.0887 78.0657 31.1845 76.9951 32.5206 77.0107C32.5606 77.0112 32.6005 77.0126 32.6403 77.015H53.8021C55.1359 76.9333 56.2831 77.9484 56.3648 79.2821C56.3672 79.3221 56.3686 79.3619 56.3691 79.4018V79.4918C56.3693 80.9096 55.2199 82.0588 53.8023 82.0588Z" fill="#606EEF"/>
<path d="M32.3116 82.0591H54.1309C55.5487 82.0591 56.6979 83.2083 56.6979 84.6261V84.7159C56.6979 86.1337 55.5487 87.2829 54.1309 87.2829H32.3116C30.8938 87.2829 29.7446 86.1337 29.7446 84.7159V84.6261C29.7446 83.2083 30.894 82.0591 32.3116 82.0591Z" fill="#5358A1"/>
<path d="M43.2213 29.5259C45.3478 29.5259 47.0718 27.802 47.0718 25.6754C47.0718 23.5489 45.3478 21.825 43.2213 21.825C41.0947 21.825 39.3708 23.5489 39.3708 25.6754C39.3708 27.802 41.0947 29.5259 43.2213 29.5259Z" fill="#F4393D"/>
<path d="M75.3084 35.9433H80.4424V38.5103H75.3084V35.9433Z" fill="#FFD700"/>
<path d="M5.99998 35.9433H11.1339V38.5103H5.99998V35.9433Z" fill="#FFD700"/>
<path d="M68.2077 62.5203L70.0225 60.7051L73.6531 64.3349L71.8382 66.1501L68.2077 62.5203Z" fill="#FFD700"/>
<path d="M15.9945 11.815L17.8095 10L21.4394 13.6299L19.6243 15.4449L15.9945 11.815Z" fill="#FFD700"/>
<path d="M66.0716 14.2846L69.7018 10.6544L71.5168 12.4694L67.8866 16.0996L66.0716 14.2846Z" fill="#FFD700"/>
<path d="M13.0145 64.556L16.6446 60.9258L18.4597 62.7408L14.8295 66.371L13.0145 64.556Z" fill="#FFD700"/>
<path d="M40.6543 34.6599H45.7883L47.0718 60.3296H39.3708L40.6543 34.6599Z" fill="#F4393D"/>
</g>
<g opacity="0.2">
<path d="M67.2211 14.557C51.6264 14.557 38.9844 25.3059 38.9844 39.3711C38.9844 45.9793 41.7777 55.0226 46.3551 62.7566C49.1109 67.4126 55.1196 75.9594 55.1196 81.2985H79.3225C79.3225 75.9594 85.3312 67.4126 88.087 62.7566C92.6646 55.0226 95.4578 45.9793 95.4578 39.3711C95.4579 25.3059 82.8159 14.557 67.2211 14.557Z" fill="#FFD700"/>
<path d="M69.6466 17.6376C68.6647 17.6429 67.6836 17.7 66.7078 17.8086C80.2825 19.1547 90.8241 29.0021 90.8241 41.6274C90.8241 47.1046 88.8285 54.3085 85.4734 60.9651C86.1166 59.9303 86.7144 58.9775 87.1928 58.1691C91.0422 51.6655 93.3909 44.0609 93.3909 38.5041C93.3911 26.6764 82.7601 17.6376 69.6466 17.6376Z" fill="#FFE67D"/>
<path d="M77.8023 85.0588H56.6403C55.2225 85.0588 54.0733 83.9096 54.0733 82.4918V82.4018C54.0887 81.0657 55.1845 79.9951 56.5206 80.0107C56.5606 80.0112 56.6005 80.0126 56.6403 80.015H77.8022C79.1359 79.9333 80.2831 80.9484 80.3648 82.2821C80.3672 82.3221 80.3686 82.3619 80.3691 82.4018V82.4918C80.3693 83.9096 79.2199 85.0588 77.8023 85.0588Z" fill="#606EEF"/>
<path d="M56.3116 85.0591H78.1309C79.5487 85.0591 80.6979 86.2083 80.6979 87.6261V87.7159C80.6979 89.1337 79.5487 90.2829 78.1309 90.2829H56.3116C54.8938 90.2829 53.7446 89.1337 53.7446 87.7159V87.6261C53.7446 86.2083 54.894 85.0591 56.3116 85.0591Z" fill="#5358A1"/>
<path d="M67.2213 32.5259C69.3478 32.5259 71.0718 30.802 71.0718 28.6754C71.0718 26.5489 69.3478 24.825 67.2213 24.825C65.0947 24.825 63.3708 26.5489 63.3708 28.6754C63.3708 30.802 65.0947 32.5259 67.2213 32.5259Z" fill="#F4393D"/>
<path d="M99.3084 38.9433H104.442V41.5103H99.3084V38.9433Z" fill="#FFD700"/>
<path d="M30 38.9433H35.1339V41.5103H30V38.9433Z" fill="#FFD700"/>
<path d="M92.2077 65.5203L94.0225 63.7051L97.6531 67.3349L95.8382 69.1501L92.2077 65.5203Z" fill="#FFD700"/>
<path d="M39.9945 14.815L41.8095 13L45.4394 16.6299L43.6243 18.4449L39.9945 14.815Z" fill="#FFD700"/>
<path d="M90.0716 17.2846L93.7018 13.6544L95.5168 15.4694L91.8866 19.0996L90.0716 17.2846Z" fill="#FFD700"/>
<path d="M37.0145 67.556L40.6446 63.9258L42.4597 65.7408L38.8295 69.371L37.0145 67.556Z" fill="#FFD700"/>
<path d="M64.6543 37.6599H69.7883L71.0718 63.3296H63.3708L64.6543 37.6599Z" fill="#F4393D"/>
</g>
<path d="M53.2212 22.1805C41.3972 22.1805 31.812 30.3304 31.812 40.9946C31.812 46.005 33.9299 52.8616 37.4005 58.7255C39.49 62.2557 44.0457 68.7359 44.0457 72.7841H62.3965C62.3965 68.7359 66.9522 62.2557 69.0417 58.7255C72.5124 52.8616 74.6302 46.005 74.6302 40.9946C74.6303 30.3304 65.0451 22.1805 53.2212 22.1805Z" fill="#FFD700"/>
<path d="M55.0601 24.5162C54.3157 24.5202 53.5718 24.5635 52.832 24.6459C63.1243 25.6665 71.117 33.1328 71.117 42.7054C71.117 46.8582 69.6039 52.3202 67.0601 57.3673C67.5478 56.5827 68.001 55.8602 68.3637 55.2473C71.2823 50.3162 73.0632 44.5505 73.0632 40.3372C73.0633 31.3695 65.0029 24.5162 55.0601 24.5162Z" fill="#FFE67D"/>
<path d="M61.2438 75.6351H45.1987C44.1238 75.6351 43.2524 74.7638 43.2524 73.6889V73.6206C43.2641 72.6076 44.0949 71.7958 45.108 71.8076C45.1383 71.808 45.1686 71.8091 45.1987 71.8109H61.2437C62.2549 71.749 63.1248 72.5186 63.1867 73.5299C63.1885 73.5602 63.1896 73.5903 63.19 73.6206V73.6889C63.1901 74.7638 62.3187 75.6351 61.2438 75.6351Z" fill="#606EEF"/>
<path d="M44.9495 75.6354H61.493C62.5679 75.6354 63.4392 76.5067 63.4392 77.5817V77.6498C63.4392 78.7248 62.5679 79.5961 61.493 79.5961H44.9495C43.8745 79.5961 43.0032 78.7248 43.0032 77.6498V77.5817C43.0032 76.5067 43.8747 75.6354 44.9495 75.6354Z" fill="#5358A1"/>
<path d="M53.2213 35.8046C54.8336 35.8046 56.1407 34.4975 56.1407 32.8851C56.1407 31.2728 54.8336 29.9657 53.2213 29.9657C51.6089 29.9657 50.3018 31.2728 50.3018 32.8851C50.3018 34.4975 51.6089 35.8046 53.2213 35.8046Z" fill="#F4393D"/>
<path d="M77.5498 40.6703H81.4424V42.6166H77.5498V40.6703Z" fill="#FFD700"/>
<path d="M25 40.6703H28.8926V42.6166H25V40.6703Z" fill="#FFD700"/>
<path d="M72.166 60.821L73.542 59.4447L76.2947 62.1969L74.9187 63.5731L72.166 60.821Z" fill="#FFD700"/>
<path d="M32.5778 22.3761L33.954 21L36.7062 23.7522L35.33 25.1283L32.5778 22.3761Z" fill="#FFD700"/>
<path d="M70.5464 24.2486L73.2989 21.4962L74.675 22.8723L71.9226 25.6248L70.5464 24.2486Z" fill="#FFD700"/>
<path d="M30.3184 62.3645L33.0708 59.6121L34.4469 60.9882L31.6945 63.7407L30.3184 62.3645Z" fill="#FFD700"/>
<path d="M51.275 39.6971H55.1676L56.1407 59.16H50.3018L51.275 39.6971Z" fill="#F4393D"/>
</svg>
