<svg width="121" height="96" viewBox="0 0 121 96" fill="none" xmlns="http://www.w3.org/2000/svg">
<rect width="120.847" height="96" rx="16" fill="#FF6243"/>
<rect width="120.847" height="96" rx="16" stroke="#6F6571"/>
<path d="M60.2212 20.1805C48.3972 20.1805 38.812 28.3304 38.812 38.9946C38.812 44.005 40.9299 50.8616 44.4005 56.7255C46.49 60.2557 51.0457 66.7359 51.0457 70.7841H69.3965C69.3965 66.7359 73.9522 60.2557 76.0417 56.7255C79.5124 50.8616 81.6302 44.005 81.6302 38.9946C81.6303 28.3304 72.0451 20.1805 60.2212 20.1805Z" fill="#FFD700"/>
<path d="M62.0601 22.5162C61.3157 22.5202 60.5718 22.5635 59.832 22.6459C70.1243 23.6665 78.117 31.1328 78.117 40.7054C78.117 44.8582 76.6039 50.3202 74.0601 55.3673C74.5478 54.5827 75.001 53.8602 75.3637 53.2473C78.2823 48.3162 80.0632 42.5505 80.0632 38.3372C80.0633 29.3695 72.0029 22.5162 62.0601 22.5162Z" fill="#FFE67D"/>
<path d="M68.2438 73.6351H52.1987C51.1238 73.6351 50.2524 72.7638 50.2524 71.6889V71.6206C50.2641 70.6076 51.0949 69.7958 52.108 69.8076C52.1383 69.808 52.1686 69.8091 52.1987 69.8109H68.2437C69.2549 69.749 70.1248 70.5186 70.1867 71.5299C70.1885 71.5602 70.1896 71.5903 70.19 71.6206V71.6889C70.1901 72.7638 69.3187 73.6351 68.2438 73.6351Z" fill="#606EEF"/>
<path d="M51.9495 73.6354H68.493C69.5679 73.6354 70.4392 74.5067 70.4392 75.5817V75.6498C70.4392 76.7248 69.5679 77.5961 68.493 77.5961H51.9495C50.8745 77.5961 50.0032 76.7248 50.0032 75.6498V75.5817C50.0032 74.5067 50.8747 73.6354 51.9495 73.6354Z" fill="#5358A1"/>
<path d="M60.2213 33.8046C61.8336 33.8046 63.1407 32.4975 63.1407 30.8851C63.1407 29.2728 61.8336 27.9657 60.2213 27.9657C58.6089 27.9657 57.3018 29.2728 57.3018 30.8851C57.3018 32.4975 58.6089 33.8046 60.2213 33.8046Z" fill="#F4393D"/>
<path d="M84.5498 38.6703H88.4424V40.6166H84.5498V38.6703Z" fill="#FFD700"/>
<path d="M32 38.6703H35.8926V40.6166H32V38.6703Z" fill="#FFD700"/>
<path d="M79.166 58.821L80.542 57.4447L83.2947 60.1969L81.9187 61.5731L79.166 58.821Z" fill="#FFD700"/>
<path d="M39.5778 20.3761L40.954 19L43.7062 21.7522L42.33 23.1283L39.5778 20.3761Z" fill="#FFD700"/>
<path d="M77.5464 22.2486L80.2989 19.4962L81.675 20.8723L78.9226 23.6248L77.5464 22.2486Z" fill="#FFD700"/>
<path d="M37.3184 60.3645L40.0708 57.6121L41.4469 58.9882L38.6945 61.7406L37.3184 60.3645Z" fill="#FFD700"/>
<path d="M58.275 37.6972H62.1676L63.1407 57.16H57.3018L58.275 37.6972Z" fill="#F4393D"/>
</svg>
