<svg width="121" height="96" viewBox="0 0 121 96" fill="none" xmlns="http://www.w3.org/2000/svg">
<rect width="120.847" height="96" rx="16" fill="#DD7118"/>
<rect width="120.847" height="96" rx="16" stroke="#6F6571"/>
<path d="M63.1918 73.3289L69.0528 74.0486C70.0848 74.1749 71.1167 73.8198 71.8516 73.0849C72.5668 72.3696 72.9227 71.3719 72.8232 70.3654C72.7237 69.3596 72.1783 68.4512 71.3374 67.8898L68.4523 65.9669L63.1918 73.3289Z" fill="#C7C7C7"/>
<path d="M60.0373 61.755L59.505 66.5456C59.192 69.3538 60.664 72.0595 63.1918 73.3231L68.4494 65.961L68.607 63.2422L61.5869 59.5648L60.0373 61.755Z" fill="#E6E6E6"/>
<path d="M48.4684 52.2957L58.985 41.7799L64.2425 47.0375L53.7267 57.554L48.4684 52.2957Z" fill="#CDCDCD"/>
<path d="M61.0574 36.5216C61.0574 46.3781 53.0672 54.3683 43.2108 54.3683C33.3543 54.3683 25.3641 46.3781 25.3641 36.5216C25.3641 26.6652 33.3543 18.675 43.2108 18.675C53.0672 18.675 61.0574 26.6652 61.0574 36.5216Z" fill="#FECE2F"/>
<path d="M53.7267 57.554L64.2433 47.0375L77.9137 60.71L70.5531 68.0713L53.7267 57.554Z" fill="#EBEBEB"/>
<path d="M73.7075 56.5025L70.553 59.6585C69.3918 60.8204 67.5074 60.8204 66.3462 59.6585L64.2432 57.554L69.4986 52.2965L73.7075 56.5025Z" fill="#CDCDCD"/>
<path d="M61.6145 49.6677C63.0668 48.2153 65.4211 48.2153 66.8728 49.6677L69.5023 52.2965L64.244 57.5548L61.6145 54.926C60.1628 53.4736 60.1628 51.1193 61.6145 49.6677Z" fill="#E4E4E2"/>
<path d="M63.1924 37.5746C65.5155 35.2515 69.2822 35.2515 71.6052 37.5746L81.0696 47.0397L72.6568 55.4525L63.1924 45.9881C60.8694 43.6644 60.8694 39.8977 63.1924 37.5746Z" fill="#6CBAE5"/>
<path d="M64.2432 47.0375L72.656 38.6246L76.8621 42.8314L68.4492 51.2442L64.2432 47.0375Z" fill="#DC4D41"/>
<path d="M81.6244 69.6181C80.6404 70.605 79.1837 70.9507 77.8613 70.5106L70.553 68.0742L77.9136 60.7129L81.6317 64.4215C83.0623 65.8594 83.0593 68.1846 81.6244 69.6181Z" fill="#CDCDCD"/>
<path d="M23.2299 18.6452L25.3322 16.5415L28.4881 19.6953L26.3851 21.799L23.2299 18.6452Z" fill="#FEF291"/>
<path d="M17 35.0344H20.9025V38.0088H17V35.0344Z" fill="#FEF291"/>
<path d="M23.2292 54.4002L26.3852 51.2443L28.4882 53.3473L25.3322 56.5033L23.2292 54.4002Z" fill="#FEF291"/>
<path d="M41.7236 58.83H44.698V63.2916H41.7236V58.83Z" fill="#FEF291"/>
<path d="M57.9333 19.696L61.0886 16.5415L63.1916 18.6445L60.0371 21.7998L57.9333 19.696Z" fill="#FEF291"/>
<path d="M41.7236 10H44.698V14.2133H41.7236V10Z" fill="#FEF291"/>
<path d="M95.5475 65.3903L95.7915 68.067L93.1148 67.823C87.3721 67.3037 81.9933 64.7883 77.9136 60.7144C75.0096 57.8104 75.0096 53.1018 77.9136 50.1978C80.8176 47.2938 85.5254 47.2938 88.4294 50.1978C92.5062 54.2731 95.0254 59.6491 95.5475 65.3903Z" fill="#FF9136"/>
<path d="M80.0181 56.5047L82.1212 54.4009L84.2242 56.5047L82.1212 58.6077L80.0181 56.5047Z" fill="#FD7422"/>
<path d="M86.3271 58.6063L88.4302 56.5033L90.5339 58.6063L88.4302 60.7093L86.3271 58.6063Z" fill="#FD7422"/>
<path d="M90.5339 75.4312L92.637 73.3274L96.8445 77.5335L94.7414 79.6372L90.5339 75.4312Z" fill="#FD7422"/>
<path d="M97.8945 74.3797L99.9975 72.2766L104.204 76.4827L102.101 78.5864L97.8945 74.3797Z" fill="#FD7422"/>
<path d="M98.946 67.0176L101.05 64.9146L105.256 69.1221L103.152 71.2251L98.946 67.0176Z" fill="#FD7422"/>
<path d="M95.7929 82.794L97.8967 80.6909L102.103 84.897L99.9997 87L95.7929 82.794Z" fill="#FD7422"/>
<path d="M52.3811 39.3842L56.1137 31.9292C56.3998 31.3563 56.2873 30.6649 55.8341 30.2125L52.6738 27.058C52.0936 26.4778 51.1517 26.4778 50.5715 27.058L47.8526 29.7797H44.2624C43.4411 29.7797 42.7752 30.4456 42.7752 31.2669V36.0859H37.9519C37.1306 36.0859 36.4647 36.7518 36.4647 37.5731V41.1648L33.7458 43.8829C33.1656 44.4639 33.1656 45.4057 33.7458 45.9859L36.9004 49.1405C37.3528 49.5936 38.0441 49.7062 38.6171 49.42L46.072 45.6933L52.262 51.8833C53.1313 51.3735 53.9555 50.7904 54.7252 50.1397L47.4169 42.8314C46.9638 42.3797 46.2725 42.2672 45.7002 42.554L38.2453 46.288L36.9062 44.9424L39.0107 42.8314C39.2902 42.5533 39.4464 42.1749 39.4464 41.7806V39.0603H44.2697C45.091 39.0603 45.7569 38.3944 45.7569 37.5731V32.7542H48.4757C48.87 32.7542 49.2484 32.5973 49.5272 32.3185L51.6302 30.2154L52.9773 31.5545L49.2491 39.0095C48.963 39.5817 49.0748 40.2731 49.5272 40.7262L56.8355 48.0338C57.4855 47.264 58.0686 46.4391 58.5784 45.5698L52.3811 39.3842Z" fill="#E8BC2B"/>
</svg>
