<svg width="121" height="96" viewBox="0 0 121 96" fill="none" xmlns="http://www.w3.org/2000/svg">
<rect width="120.847" height="96" rx="16" fill="#F4393D"/>
<rect width="120.847" height="96" rx="16" stroke="#6F6571"/>
<path d="M65.3171 66.8049C64.6265 66.8068 63.9877 66.4389 63.6424 65.8415L58.0858 56.117C56.5109 53.3566 55.6829 50.233 55.6829 47.0549V45.6098C55.6829 42.4175 58.2712 39.8293 61.4634 39.8293C64.6557 39.8293 67.2439 42.4175 67.2439 45.6098C67.2458 47.8452 67.767 50.0486 68.7643 52.0488L72.8315 60.1626C73.3076 61.1157 72.9209 62.2729 71.9688 62.749C71.0157 63.2241 69.8585 62.8383 69.3824 61.8853L65.3171 53.7715C64.0535 51.236 63.394 48.4426 63.3902 45.6098C63.3902 44.5457 62.5275 43.6829 61.4634 43.6829C60.3993 43.6829 59.5366 44.5457 59.5366 45.6098V47.0549C59.5385 49.5603 60.1914 52.0216 61.4324 54.1977L66.9899 63.9146C67.5167 64.8386 67.1959 66.0146 66.273 66.5424C65.9832 66.7127 65.6529 66.803 65.3171 66.8049Z" fill="#FAB7B1"/>
<path d="M59.5366 70.6585C58.8357 70.6585 58.1903 70.2784 57.8506 69.666L53.5689 61.9586C53.2104 61.3556 53.2076 60.6048 53.5632 59.9989C53.9189 59.393 54.5756 59.0289 55.2774 59.0477C55.9793 59.0665 56.6153 59.4654 56.9371 60.0901L61.2188 67.7975C61.7344 68.727 61.3985 69.8993 60.469 70.4158C60.1848 70.5757 59.8631 70.6595 59.5366 70.6585Z" fill="#FAB7B1"/>
<path d="M51.2761 55.2439C50.4688 55.2448 49.7463 54.7415 49.4668 53.9841C48.4799 51.3018 47.9747 48.4671 47.9756 45.6098C47.9747 40.6403 50.7068 36.0725 55.0864 33.7232C59.4651 31.374 64.7817 31.6224 68.9223 34.3705C69.8086 34.9595 70.0495 36.1553 69.4605 37.0416C68.8715 37.9288 67.6757 38.1696 66.7895 37.5807C63.8315 35.619 60.0343 35.4412 56.9069 37.1197C53.7806 38.7981 51.8293 42.06 51.8293 45.6098C51.8283 48.0126 52.2526 50.3958 53.0834 52.65C53.3017 53.2418 53.217 53.9013 52.8567 54.4188C52.4963 54.9353 51.9064 55.2439 51.2761 55.2439Z" fill="#FAB7B1"/>
<path d="M76.878 59.0976C76.0896 59.0976 75.3802 58.6178 75.0876 57.8858L71.949 50.0411C71.3845 48.6318 71.0957 47.1274 71.0976 45.6098C71.0994 43.9191 70.6554 42.2576 69.8105 40.7927C69.3316 39.8773 69.66 38.7483 70.5538 38.2318C71.4475 37.7143 72.5897 37.9947 73.1439 38.8659C74.3293 40.916 74.9522 43.2417 74.9512 45.6098C74.9503 46.6381 75.1469 47.657 75.5289 48.612L78.6685 56.4557C79.0636 57.4446 78.5819 58.566 77.5931 58.9612C77.3654 59.0515 77.1227 59.0985 76.878 59.0976Z" fill="#F99794"/>
<path d="M53.7561 74.5122C53.0787 74.5131 52.4511 74.1575 52.103 73.578L44.5077 60.9162C43.6581 59.5031 42.928 58.0203 42.3259 56.4849C41.9373 55.4942 42.4247 54.3755 43.4154 53.987C44.4061 53.5974 45.5247 54.0857 45.9142 55.0764C46.4364 56.4115 47.0714 57.7014 47.8119 58.9301L55.4054 71.5909C55.7638 72.1865 55.7742 72.9278 55.4326 73.5328C55.0911 74.1378 54.4504 74.5113 53.7561 74.5122Z" fill="#FAB7B1"/>
<path d="M42.4633 51.3903C41.5027 51.3903 40.6898 50.6837 40.5552 49.7335C40.3643 48.3674 40.2683 46.989 40.2683 45.6098C40.2975 37.496 44.9283 30.1029 52.215 26.5343C53.1728 26.0696 54.3253 26.4694 54.7901 27.4272C55.2539 28.385 54.8541 29.5375 53.8972 30.0023C47.8985 32.8812 44.0937 38.9562 44.122 45.6098C44.122 46.8084 44.2057 48.0061 44.3722 49.1934C44.5209 50.2481 43.787 51.2228 42.7323 51.3705C42.643 51.3837 42.5536 51.3903 42.4633 51.3903Z" fill="#FAB7B1"/>
<path d="M67.2439 29.1508C67.0482 29.1508 66.8535 29.1207 66.6662 29.0624C64.4242 28.3634 62.0655 28.1225 59.7294 28.3549C58.6701 28.4612 57.7255 27.6897 57.6192 26.6303C57.5128 25.5719 58.2853 24.6273 59.3437 24.521C62.1991 24.2397 65.0819 24.5342 67.8216 25.3856C68.7295 25.6707 69.293 26.5758 69.1491 27.5166C69.0042 28.4565 68.1951 29.1508 67.2439 29.1508Z" fill="#FAB7B1"/>
<path d="M82.6585 55.2439C81.8297 55.243 81.0939 54.7123 80.8314 53.9258L79.5143 49.9743C79.0448 48.5668 78.8049 47.0935 78.8049 45.6098C78.8199 40.947 76.942 36.478 73.6021 33.2237C73.0865 32.7476 72.8701 32.0279 73.0385 31.3467C73.2069 30.6646 73.7338 30.1283 74.4121 29.9467C75.0905 29.7652 75.814 29.9674 76.3004 30.4745C80.3817 34.4496 82.6764 39.9111 82.6585 45.6098C82.6585 46.6795 82.8317 47.7417 83.1713 48.7559L84.4856 52.7084C84.6804 53.2954 84.5826 53.9408 84.2203 54.4433C83.8591 54.9457 83.2776 55.243 82.6585 55.2439Z" fill="#FAB7B1"/>
<path d="M47.9756 80.2927C47.3161 80.2937 46.7017 79.9568 46.347 79.4008L41.4434 71.6935C40.8723 70.794 41.1376 69.602 42.0371 69.03C42.9365 68.4589 44.1285 68.7242 44.6996 69.6237L49.6042 77.331C49.9815 77.9246 50.0059 78.6773 49.6672 79.2945C49.3276 79.9107 48.6794 80.2937 47.9756 80.2927Z" fill="#FAB7B1"/>
<path d="M40.2683 68.1654C39.5956 68.1654 38.9709 67.8154 38.6209 67.2405C37.1786 64.8706 35.9772 62.3623 35.0354 59.7524C34.6732 58.7514 35.1916 57.6468 36.1917 57.2855C37.1927 56.9233 38.2973 57.4417 38.6595 58.4428C39.5157 60.8099 40.6051 63.0867 41.912 65.2384C42.2732 65.833 42.2855 66.5753 41.9449 67.1822C41.6043 67.7881 40.9636 68.1635 40.2683 68.1654Z" fill="#FAB7B1"/>
<path d="M34.9103 53.3171C33.9544 53.3171 33.1434 52.6162 33.0041 51.6716C32.7096 49.6648 32.561 47.6382 32.561 45.6098C32.5488 39.7023 34.358 33.935 37.7422 29.0925C38.3509 28.2194 39.5523 28.0058 40.4254 28.6145C41.2985 29.2233 41.513 30.4238 40.9043 31.2969C37.9717 35.493 36.4043 40.4907 36.4146 45.6098C36.4146 47.45 36.5492 49.2884 36.8173 51.1089C36.9726 52.1617 36.2444 53.1412 35.1916 53.2955C35.0984 53.3105 35.0043 53.3171 34.9103 53.3171Z" fill="#FAB7B1"/>
<path d="M47.5636 24.4147C46.6989 24.4137 45.9406 23.837 45.7092 23.0034C45.4768 22.1708 45.8287 21.2855 46.5691 20.8386C53.5444 16.6895 61.932 15.6273 69.7221 17.906C70.3948 18.0913 70.9151 18.6267 71.0807 19.3041C71.2472 19.9824 71.0336 20.6974 70.5228 21.1726C70.0119 21.6486 69.2846 21.8114 68.6194 21.5978C61.868 19.6268 54.601 20.546 48.5533 24.1371C48.2551 24.3187 47.9126 24.4147 47.5636 24.4147Z" fill="#FAB7B1"/>
<path d="M85.8452 35.9757C85.1048 35.9738 84.4302 35.5466 84.1112 34.8777C82.842 32.2086 81.1109 29.785 78.9978 27.7189C78.2367 26.9738 78.2235 25.7535 78.9686 24.9924C79.7138 24.2322 80.934 24.219 81.6952 24.9641C84.1319 27.3463 86.1284 30.1415 87.5914 33.22C87.8755 33.8164 87.8341 34.5164 87.4822 35.0753C87.1304 35.6341 86.5169 35.9738 85.8574 35.9757H85.8452Z" fill="#FAB7B1"/>
<path d="M90.3659 51.3903C89.632 51.394 88.9593 50.981 88.6319 50.3243L86.7051 46.4707C86.5752 46.2025 86.5094 45.908 86.5122 45.6098C86.5113 43.8043 86.3174 42.0036 85.9345 40.2395C85.7614 39.5574 85.975 38.8358 86.4896 38.3569C87.0052 37.8771 87.74 37.7171 88.408 37.9382C89.076 38.1593 89.5699 38.7266 89.6969 39.4191C90.1099 41.3017 90.3339 43.2201 90.3659 45.1469L92.0998 48.6016C92.399 49.201 92.3661 49.9122 92.0123 50.4814C91.6586 51.0497 91.0357 51.394 90.3659 51.3903Z" fill="#FAB7B1"/>
<path d="M100 20.561H96.1463V12.8537H88.439V9H98.0732C99.1372 9 100 9.86275 100 10.9268V20.561Z" fill="#FBB540"/>
<path d="M88.439 87.9485L88.439 84.0949L96.1463 84.0949L96.1463 76.3875L100 76.3875L100 86.0217C100 87.0858 99.1373 87.9485 98.0732 87.9485L88.439 87.9485Z" fill="#FBB540"/>
<path d="M24.8537 20.561H21V10.9268C21 9.86275 21.8627 9 22.9268 9H32.561V12.8537H24.8537V20.561Z" fill="#FBB540"/>
<path d="M32.561 87.9485H22.9268C21.8627 87.9485 21 87.0858 21 86.0217V76.3875H24.8537V84.0949H32.561V87.9485Z" fill="#FBB540"/>
</svg>
