<svg width="75" height="75" viewBox="0 0 75 75" fill="none" xmlns="http://www.w3.org/2000/svg">
<rect y="0.727539" width="74.2725" height="74.2725" rx="19" fill="white"/>
<path d="M34.1756 59.9924H35.2476V65.5924H34.1756V59.9924ZM35.9969 59.9924H40.5649V60.9444H38.8209V65.5924H37.7409V60.9444H35.9969V59.9924Z" fill="black"/>
<path d="M47.0606 32.0635C47.3978 31.2415 47.5688 30.3709 47.5688 29.4693C47.5688 29.4693 47.5679 26.5131 47.5669 26.5007C47.5477 25.6545 47.3254 24.823 46.9201 24.0886C46.2648 22.901 44.8825 20.6352 42.989 18.8037C41.0657 16.9433 39.1214 16 37.2105 16C35.3549 16 33.4656 16.891 31.5949 18.6484C31.4062 18.8256 31.397 19.1222 31.5742 19.3108C31.7514 19.4995 32.0479 19.5087 32.2366 19.3315C33.9278 17.7428 35.6013 16.9373 37.2105 16.9373C38.8699 16.9373 40.5948 17.7918 42.3374 19.4774C44.1429 21.2238 45.4695 23.3998 46.0995 24.5414C46.4476 25.1721 46.6315 25.891 46.6315 26.6204V28.1612C46.3334 27.9523 45.9911 27.6927 45.6219 27.4125C44.6359 26.6644 43.4001 25.7273 41.9899 24.9714C41.9827 24.9672 41.9755 24.9632 41.9681 24.9595C40.5354 24.1945 38.9236 23.6182 37.2104 23.6182C33.7999 23.6182 30.7904 25.9016 28.799 27.4126C28.4297 27.6927 28.0875 27.9524 27.7893 28.1613V26.6204C27.7893 25.8911 27.9733 25.1721 28.3213 24.5415C28.8324 23.6153 29.6781 22.2261 30.804 20.8671C30.9691 20.6678 30.9414 20.3724 30.7421 20.2072C30.5429 20.0421 30.2474 20.0698 30.0822 20.2691C28.9098 21.6843 28.0313 23.1273 27.5007 24.0887C27.0955 24.8231 26.8732 25.6546 26.854 26.5008C26.853 26.5132 26.8521 29.4695 26.8521 29.4695C26.8521 30.371 27.0231 31.2416 27.3603 32.0636C25.9765 32.6353 25 33.9987 25 35.5865V46.2377C25 46.4965 25.2098 46.7063 25.4686 46.7063C25.7274 46.7063 25.9373 46.4965 25.9373 46.2377V35.5864C25.9373 34.0022 27.226 32.7134 28.8102 32.7134H32.452C32.8067 33.3609 33.4947 33.801 34.2837 33.801H40.1372C40.9261 33.801 41.6141 33.3609 41.9689 32.7134H45.6107C47.1949 32.7134 48.4837 34.0022 48.4837 35.5864V39.1027C48.4837 39.3615 48.6935 39.5713 48.9523 39.5713C49.2111 39.5713 49.4209 39.3615 49.4209 39.1027V35.5864C49.4209 33.9986 48.4444 32.6351 47.0606 32.0635ZM42.2243 26.1842C42.4407 26.3138 42.6525 26.4465 42.8591 26.5812C42.6882 26.7129 42.477 26.7865 42.2517 26.7865C42.2425 26.7865 42.2335 26.7858 42.2243 26.7856V26.1842ZM41.287 25.6636V27.0232H38.4769C38.2532 26.544 37.7706 26.2199 37.2104 26.2199C36.6502 26.2199 36.1677 26.544 35.9439 27.0232H33.1338V25.6636C34.3935 25.0212 35.7764 24.5554 37.2103 24.5554C38.6443 24.5554 40.0274 25.0212 41.287 25.6636ZM36.75 27.5777C36.7718 27.3379 36.9698 27.1572 37.2105 27.1572C37.4512 27.1572 37.6492 27.3379 37.6709 27.5777L37.9398 30.5362H36.481L36.75 27.5777ZM32.1966 26.7857C32.1875 26.786 32.1784 26.7866 32.1692 26.7866C31.9468 26.7866 31.7346 26.7124 31.5627 26.5806C31.7691 26.4462 31.9805 26.3136 32.1966 26.1842V26.7857ZM28.8103 31.7761C28.6278 31.7761 28.4485 31.7898 28.2728 31.8147C27.9522 31.0746 27.7893 30.2869 27.7893 29.4693V29.2776C28.2205 29.0278 28.7388 28.6346 29.3655 28.1592C29.7873 27.8391 30.2576 27.4825 30.7675 27.1216C31.1297 27.5028 31.634 27.7238 32.1691 27.7238C32.1783 27.7238 32.1874 27.723 32.1966 27.7229V31.7139C32.1966 31.7347 32.1976 31.7554 32.1981 31.7761H28.8103ZM40.1372 32.8638H34.2837C33.6497 32.8638 33.1339 32.348 33.1339 31.7139V27.9605H35.7741L35.5383 30.5537C35.517 30.7891 35.5961 31.0243 35.7555 31.1988C35.9149 31.3734 36.142 31.4735 36.3784 31.4735H38.0425C38.2789 31.4735 38.5059 31.3733 38.6653 31.1988C38.8248 31.0243 38.9039 30.7891 38.8825 30.5536L38.6468 27.9605H41.287V31.7139C41.287 32.3479 40.7712 32.8638 40.1372 32.8638ZM42.2227 31.7761C42.2234 31.7554 42.2243 31.7347 42.2243 31.7139V27.7228C42.2335 27.723 42.2425 27.7238 42.2517 27.7238C42.7845 27.7238 43.2911 27.4996 43.6527 27.1211C44.1629 27.4822 44.6334 27.8389 45.0554 28.1592C45.682 28.6346 46.2004 29.0278 46.6316 29.2776V29.4693C46.6316 30.2869 46.4688 31.0745 46.1482 31.8147C45.9725 31.7898 45.7932 31.7761 45.6107 31.7761H42.2227Z" fill="#0B3446"/>
<path d="M48.9522 40.7913C48.6934 40.7913 48.4836 41.0011 48.4836 41.2599V46.2377C48.4836 46.4965 48.6934 46.7063 48.9522 46.7063C49.211 46.7063 49.4208 46.4965 49.4208 46.2377V41.2599C49.4208 41.0011 49.2111 40.7913 48.9522 40.7913Z" fill="#0B3446"/>
<path d="M44.8665 35.6203H34.2275C33.9687 35.6203 33.7589 35.8301 33.7589 36.0889C33.7589 36.3477 33.9687 36.5576 34.2275 36.5576H44.8665C44.9628 36.5576 45.041 36.6359 45.041 36.732V46.8799C45.041 46.9761 44.9627 47.0543 44.8665 47.0543H29.5822C29.4859 47.0543 29.4077 46.9761 29.4077 46.8799V36.732C29.4077 36.6358 29.486 36.5576 29.5822 36.5576H32.0705C32.3293 36.5576 32.5391 36.3477 32.5391 36.0889C32.5391 35.8301 32.3293 35.6203 32.0705 35.6203H29.5822C28.9691 35.6203 28.4705 36.119 28.4705 36.732V46.8799C28.4705 47.4929 28.9691 47.9916 29.5822 47.9916H44.8665C45.4796 47.9916 45.9782 47.4929 45.9782 46.8799V36.732C45.9783 36.119 45.4796 35.6203 44.8665 35.6203Z" fill="#0B3446"/>
<path d="M36.3856 44.3803H38.0349C38.3768 44.3803 38.6548 44.1022 38.6548 43.7604V43.3157H39.0384C39.4714 43.3157 39.8237 42.9634 39.8237 42.5304V41.4515C39.8237 40.0104 38.6513 38.838 37.2103 38.838C35.7692 38.838 34.5968 40.0104 34.5968 41.4515V42.5304C34.5968 42.9634 34.9491 43.3157 35.3821 43.3157H35.7657V43.7604C35.7657 44.1022 36.0438 44.3803 36.3856 44.3803ZM35.5341 42.3784V41.4515C35.5341 40.5272 36.286 39.7753 37.2103 39.7753C38.1345 39.7753 38.8864 40.5272 38.8864 41.4515V42.3784H38.3375C37.9957 42.3784 37.7176 42.6565 37.7176 42.9984V43.4431H36.7029V42.9984C36.7029 42.6565 36.4248 42.3784 36.083 42.3784H35.5341Z" fill="#0B3446"/>
</svg>
