<svg width="75" height="75" viewBox="0 0 75 75" fill="none" xmlns="http://www.w3.org/2000/svg">
<rect width="74.2725" height="74.2725" rx="19" fill="white"/>
<path d="M34.1756 58.9924H35.2476V64.5924H34.1756V58.9924ZM35.9969 58.9924H40.5649V59.9444H38.8209V64.5924H37.7409V59.9444H35.9969V58.9924Z" fill="black"/>
<path d="M47.0606 31.0635C47.3978 30.2415 47.5688 29.3709 47.5688 28.4693C47.5688 28.4693 47.5679 25.5131 47.5669 25.5007C47.5477 24.6545 47.3254 23.823 46.9201 23.0886C46.2648 21.901 44.8825 19.6352 42.989 17.8037C41.0657 15.9433 39.1214 15 37.2105 15C35.3549 15 33.4656 15.891 31.5949 17.6484C31.4062 17.8256 31.397 18.1222 31.5742 18.3108C31.7514 18.4995 32.0479 18.5087 32.2366 18.3315C33.9278 16.7428 35.6013 15.9373 37.2105 15.9373C38.8699 15.9373 40.5948 16.7918 42.3374 18.4774C44.1429 20.2238 45.4695 22.3998 46.0995 23.5414C46.4476 24.1721 46.6315 24.891 46.6315 25.6204V27.1612C46.3334 26.9523 45.9911 26.6927 45.6219 26.4125C44.6359 25.6644 43.4001 24.7273 41.9899 23.9714C41.9827 23.9672 41.9755 23.9632 41.9681 23.9595C40.5354 23.1945 38.9236 22.6182 37.2104 22.6182C33.7999 22.6182 30.7904 24.9016 28.799 26.4126C28.4297 26.6927 28.0875 26.9524 27.7893 27.1613V25.6204C27.7893 24.8911 27.9733 24.1721 28.3213 23.5415C28.8324 22.6153 29.6781 21.2261 30.804 19.8671C30.9691 19.6678 30.9414 19.3724 30.7421 19.2072C30.5429 19.0421 30.2474 19.0698 30.0822 19.2691C28.9098 20.6843 28.0313 22.1273 27.5007 23.0887C27.0955 23.8231 26.8732 24.6546 26.854 25.5008C26.853 25.5132 26.8521 28.4695 26.8521 28.4695C26.8521 29.371 27.0231 30.2416 27.3603 31.0636C25.9765 31.6353 25 32.9987 25 34.5865V45.2377C25 45.4965 25.2098 45.7063 25.4686 45.7063C25.7274 45.7063 25.9373 45.4965 25.9373 45.2377V34.5864C25.9373 33.0022 27.226 31.7134 28.8102 31.7134H32.452C32.8067 32.3609 33.4947 32.801 34.2837 32.801H40.1372C40.9261 32.801 41.6141 32.3609 41.9689 31.7134H45.6107C47.1949 31.7134 48.4837 33.0022 48.4837 34.5864V38.1027C48.4837 38.3615 48.6935 38.5713 48.9523 38.5713C49.2111 38.5713 49.4209 38.3615 49.4209 38.1027V34.5864C49.4209 32.9986 48.4444 31.6351 47.0606 31.0635ZM42.2243 25.1842C42.4407 25.3138 42.6525 25.4465 42.8591 25.5812C42.6882 25.7129 42.477 25.7865 42.2517 25.7865C42.2425 25.7865 42.2335 25.7858 42.2243 25.7856V25.1842ZM41.287 24.6636V26.0232H38.4769C38.2532 25.544 37.7706 25.2199 37.2104 25.2199C36.6502 25.2199 36.1677 25.544 35.9439 26.0232H33.1338V24.6636C34.3935 24.0212 35.7764 23.5554 37.2103 23.5554C38.6443 23.5554 40.0274 24.0212 41.287 24.6636ZM36.75 26.5777C36.7718 26.3379 36.9698 26.1572 37.2105 26.1572C37.4512 26.1572 37.6492 26.3379 37.6709 26.5777L37.9398 29.5362H36.481L36.75 26.5777ZM32.1966 25.7857C32.1875 25.786 32.1784 25.7866 32.1692 25.7866C31.9468 25.7866 31.7346 25.7124 31.5627 25.5806C31.7691 25.4462 31.9805 25.3136 32.1966 25.1842V25.7857ZM28.8103 30.7761C28.6278 30.7761 28.4485 30.7898 28.2728 30.8147C27.9522 30.0746 27.7893 29.2869 27.7893 28.4693V28.2776C28.2205 28.0278 28.7388 27.6346 29.3655 27.1592C29.7873 26.8391 30.2576 26.4825 30.7675 26.1216C31.1297 26.5028 31.634 26.7238 32.1691 26.7238C32.1783 26.7238 32.1874 26.723 32.1966 26.7229V30.7139C32.1966 30.7347 32.1976 30.7554 32.1981 30.7761H28.8103ZM40.1372 31.8638H34.2837C33.6497 31.8638 33.1339 31.348 33.1339 30.7139V26.9605H35.7741L35.5383 29.5537C35.517 29.7891 35.5961 30.0243 35.7555 30.1988C35.9149 30.3734 36.142 30.4735 36.3784 30.4735H38.0425C38.2789 30.4735 38.5059 30.3733 38.6653 30.1988C38.8248 30.0243 38.9039 29.7891 38.8825 29.5536L38.6468 26.9605H41.287V30.7139C41.287 31.3479 40.7712 31.8638 40.1372 31.8638ZM42.2227 30.7761C42.2234 30.7554 42.2243 30.7347 42.2243 30.7139V26.7228C42.2335 26.723 42.2425 26.7238 42.2517 26.7238C42.7845 26.7238 43.2911 26.4996 43.6527 26.1211C44.1629 26.4822 44.6334 26.8389 45.0554 27.1592C45.682 27.6346 46.2004 28.0278 46.6316 28.2776V28.4693C46.6316 29.2869 46.4688 30.0745 46.1482 30.8147C45.9725 30.7898 45.7932 30.7761 45.6107 30.7761H42.2227Z" fill="#5D00EF"/>
<path d="M48.9521 39.7913C48.6933 39.7913 48.4835 40.0011 48.4835 40.2599V45.2377C48.4835 45.4965 48.6933 45.7063 48.9521 45.7063C49.211 45.7063 49.4208 45.4965 49.4208 45.2377V40.2599C49.4208 40.0011 49.211 39.7913 48.9521 39.7913Z" fill="#5D00EF"/>
<path d="M44.8665 34.6203H34.2275C33.9687 34.6203 33.7589 34.8301 33.7589 35.0889C33.7589 35.3477 33.9687 35.5576 34.2275 35.5576H44.8665C44.9628 35.5576 45.041 35.6359 45.041 35.732V45.8799C45.041 45.9761 44.9627 46.0543 44.8665 46.0543H29.5822C29.4859 46.0543 29.4077 45.9761 29.4077 45.8799V35.732C29.4077 35.6358 29.486 35.5576 29.5822 35.5576H32.0705C32.3293 35.5576 32.5391 35.3477 32.5391 35.0889C32.5391 34.8301 32.3293 34.6203 32.0705 34.6203H29.5822C28.9691 34.6203 28.4705 35.119 28.4705 35.732V45.8799C28.4705 46.4929 28.9691 46.9916 29.5822 46.9916H44.8665C45.4796 46.9916 45.9782 46.4929 45.9782 45.8799V35.732C45.9783 35.119 45.4796 34.6203 44.8665 34.6203Z" fill="#5D00EF"/>
<path d="M36.3856 43.3803H38.0349C38.3768 43.3803 38.6548 43.1022 38.6548 42.7604V42.3157H39.0384C39.4714 42.3157 39.8237 41.9634 39.8237 41.5304V40.4515C39.8237 39.0104 38.6513 37.838 37.2103 37.838C35.7692 37.838 34.5968 39.0104 34.5968 40.4515V41.5304C34.5968 41.9634 34.9491 42.3157 35.3821 42.3157H35.7657V42.7604C35.7657 43.1022 36.0438 43.3803 36.3856 43.3803ZM35.5341 41.3784V40.4515C35.5341 39.5272 36.286 38.7753 37.2103 38.7753C38.1345 38.7753 38.8864 39.5272 38.8864 40.4515V41.3784H38.3375C37.9957 41.3784 37.7176 41.6565 37.7176 41.9984V42.4431H36.7029V41.9984C36.7029 41.6565 36.4248 41.3784 36.083 41.3784H35.5341Z" fill="#5D00EF"/>
</svg>
