<svg width="121" height="96" viewBox="0 0 121 96" fill="none" xmlns="http://www.w3.org/2000/svg">
<rect width="120.847" height="96" rx="16" fill="#005A9D"/>
<rect width="120.847" height="96" rx="16" stroke="#6F6571"/>
<path d="M73.3234 24.7966H47.2217L49.8319 6.52542H70.7132L73.3234 24.7966Z" fill="#394D5C"/>
<path d="M56.3573 0H64.1878V18.2712H56.3573V0Z" fill="#7D8D9C"/>
<path d="M44.6115 24.7966H75.9335V30.0169H44.6115V24.7966Z" fill="#7D8D9C"/>
<path d="M47.2217 30.017H73.3234C73.3234 32.8999 70.9859 35.2373 68.103 35.2373H52.442C49.5585 35.2373 47.2217 32.8999 47.2217 30.017Z" fill="#FDBD40"/>
<path d="M43.3064 77C43.2102 77 43.1153 76.9891 43.0216 76.9688C42.3181 76.812 41.8752 76.1148 42.0313 75.412L49.8618 40.1747C50.0288 39.4826 50.7189 39.0525 51.4135 39.2067C52.1081 39.3615 52.551 40.0434 52.4089 40.7405L44.5784 75.9778C44.4458 76.5749 43.9176 76.9993 43.3064 77Z" fill="#FDBD40"/>
<path d="M77.2387 77C76.6275 76.9993 76.0986 76.5749 75.9661 75.9778L68.1356 40.7405C67.9941 40.0434 68.4363 39.3615 69.1309 39.2067C69.8255 39.0525 70.5157 39.4826 70.6833 40.1747L78.5138 75.412C78.6699 76.1148 78.2264 76.812 77.5229 76.9688C77.4292 76.9891 77.3342 77 77.2387 77Z" fill="#FDBD40"/>
<path d="M53.7471 52.2034H56.3573V54.8136H53.7471V52.2034Z" fill="#FDBD40"/>
<path d="M53.7471 57.4237H56.3573V60.0339H53.7471V57.4237Z" fill="#FDBD40"/>
<path d="M51.137 54.8136H53.7471V57.4237H51.137V54.8136Z" fill="#FDBD40"/>
<path d="M56.3573 54.8136H58.9674V57.4237H56.3573V54.8136Z" fill="#FDBD40"/>
<path d="M65.4929 62.6441H68.103V65.2542H65.4929V62.6441Z" fill="#FDBD40"/>
<path d="M65.4929 67.8644H68.103V70.4746H65.4929V67.8644Z" fill="#FDBD40"/>
<path d="M62.8827 65.2542H65.4929V67.8644H62.8827V65.2542Z" fill="#FDBD40"/>
<path d="M68.103 65.2542H70.7132V67.8644H68.103V65.2542Z" fill="#FDBD40"/>
</svg>
