<svg width="121" height="96" viewBox="0 0 121 96" fill="none" xmlns="http://www.w3.org/2000/svg">
<rect width="120.847" height="96" rx="16" fill="#59D8FF"/>
<rect width="120.847" height="96" rx="16" stroke="#6F6571"/>
<path d="M72.5628 76.0286C73.6306 76.0286 74.4963 75.1629 74.4963 74.0951C74.4963 73.0272 73.6306 72.1615 72.5628 72.1615C71.4949 72.1615 70.6292 73.0272 70.6292 74.0951C70.6292 75.1629 71.4949 76.0286 72.5628 76.0286Z" fill="#66CEDB"/>
<path d="M40.6655 48.9642C40.6655 50.0324 41.5307 50.8977 42.599 50.8977C43.1327 50.8977 43.6161 50.6811 43.966 50.3312C44.316 49.9812 44.5326 49.4978 44.5326 48.9642C44.5326 47.8959 43.6673 47.0306 42.599 47.0306C41.5307 47.0306 40.6655 47.8959 40.6655 48.9642Z" fill="#66CEDB"/>
<path d="M41.6333 23.8337C42.7016 23.8337 43.5668 22.9684 43.5668 21.9001C43.5668 20.8318 42.7016 19.9666 41.6333 19.9666C40.565 19.9666 39.6997 20.8318 39.6997 21.9001C39.6997 22.4338 39.9163 22.9172 40.2663 23.2671C40.6162 23.6171 41.0996 23.8337 41.6333 23.8337Z" fill="#66CEDB"/>
<path d="M37.7662 39.2988C38.834 39.2988 39.6997 38.4331 39.6997 37.3653C39.6997 36.2974 38.834 35.4317 37.7662 35.4317C36.6983 35.4317 35.8326 36.2974 35.8326 37.3653C35.8326 38.4331 36.6983 39.2988 37.7662 39.2988Z" fill="#66CEDB"/>
<path d="M41.6325 32.5328C42.7007 32.5328 43.566 31.6676 43.566 30.5993C43.566 30.0656 43.3494 29.5822 42.9995 29.2323C42.6495 28.8823 42.1661 28.6657 41.6325 28.6657C40.5642 28.6657 39.6989 29.531 39.6989 30.5993C39.6989 31.6676 40.5642 32.5328 41.6325 32.5328Z" fill="#66CEDB"/>
<path d="M53.2313 39.2988C54.2992 39.2988 55.1649 38.4331 55.1649 37.3653C55.1649 36.2974 54.2992 35.4317 53.2313 35.4317C52.1635 35.4317 51.2978 36.2974 51.2978 37.3653C51.2978 38.4331 52.1635 39.2988 53.2313 39.2988Z" fill="#66CEDB"/>
<path d="M50.3316 32.5328C51.3995 32.5328 52.2652 31.6671 52.2652 30.5993C52.2652 29.5314 51.3995 28.6657 50.3316 28.6657C49.2637 28.6657 48.3981 29.5314 48.3981 30.5993C48.3981 31.6671 49.2637 32.5328 50.3316 32.5328Z" fill="#66CEDB"/>
<path d="M59.9973 45.0983C61.0652 45.0983 61.9309 44.2326 61.9309 43.1647C61.9309 42.0968 61.0652 41.2312 59.9973 41.2312C58.9295 41.2312 58.0638 42.0968 58.0638 43.1647C58.0638 44.2326 58.9295 45.0983 59.9973 45.0983Z" fill="#66CEDB"/>
<path d="M54.1979 23.8337C55.2658 23.8337 56.1314 22.968 56.1314 21.9001C56.1314 20.8323 55.2658 19.9666 54.1979 19.9666C53.13 19.9666 52.2643 20.8323 52.2643 21.9001C52.2643 22.968 53.13 23.8337 54.1979 23.8337Z" fill="#66CEDB"/>
<path d="M62.897 23.8337C63.9649 23.8337 64.8306 22.968 64.8306 21.9001C64.8306 20.8323 63.9649 19.9666 62.897 19.9666C61.8292 19.9666 60.9635 20.8323 60.9635 21.9001C60.9635 22.968 61.8292 23.8337 62.897 23.8337Z" fill="#66CEDB"/>
<path d="M71.5962 23.8337C72.6641 23.8337 73.5297 22.968 73.5297 21.9001C73.5297 20.8323 72.6641 19.9666 71.5962 19.9666C70.5283 19.9666 69.6627 20.8323 69.6627 21.9001C69.6627 22.968 70.5283 23.8337 71.5962 23.8337Z" fill="#66CEDB"/>
<path d="M86.0948 37.3657C87.1627 37.3657 88.0283 36.5 88.0283 35.4321C88.0283 34.3643 87.1627 33.4986 86.0948 33.4986C85.0269 33.4986 84.1613 34.3643 84.1613 35.4321C84.1613 36.5 85.0269 37.3657 86.0948 37.3657Z" fill="#66CEDB"/>
<path d="M80.2953 32.5328C81.3632 32.5328 82.2289 31.6671 82.2289 30.5993C82.2289 29.5314 81.3632 28.6657 80.2953 28.6657C79.2275 28.6657 78.3618 29.5314 78.3618 30.5993C78.3618 31.6671 79.2275 32.5328 80.2953 32.5328Z" fill="#66CEDB"/>
<path d="M65.7968 50.8977C66.8646 50.8977 67.7303 50.032 67.7303 48.9642C67.7303 47.8963 66.8646 47.0306 65.7968 47.0306C64.7289 47.0306 63.8632 47.8963 63.8632 48.9642C63.8632 50.032 64.7289 50.8977 65.7968 50.8977Z" fill="#66CEDB"/>
<path d="M72.5628 56.6971C73.6306 56.6971 74.4963 55.8314 74.4963 54.7636C74.4963 53.6957 73.6306 52.83 72.5628 52.83C71.4949 52.83 70.6292 53.6957 70.6292 54.7636C70.6292 55.8314 71.4949 56.6971 72.5628 56.6971Z" fill="#66CEDB"/>
<path d="M57.0976 56.6971C58.1655 56.6971 59.0312 55.8314 59.0312 54.7636C59.0312 53.6957 58.1655 52.83 57.0976 52.83C56.0298 52.83 55.1641 53.6957 55.1641 54.7636C55.1641 55.8314 56.0298 56.6971 57.0976 56.6971Z" fill="#66CEDB"/>
<path d="M76.9952 45.664C76.6452 46.0139 76.4286 46.4973 76.4286 47.031C76.4286 48.0993 77.2939 48.9645 78.3622 48.9645C79.4305 48.9645 80.2957 48.0993 80.2957 47.031C80.2957 45.9627 79.4305 45.0974 78.3622 45.0974C77.8285 45.0974 77.3451 45.314 76.9952 45.664Z" fill="#66CEDB"/>
<path d="M86.0948 43.1643C85.5611 43.1643 85.0778 43.3809 84.7278 43.7309C84.3778 44.0808 84.1613 44.5642 84.1613 45.0979C84.1613 46.1662 85.0265 47.0314 86.0948 47.0314C87.1631 47.0314 88.0283 46.1662 88.0283 45.0979C88.0283 44.0296 87.1631 43.1643 86.0948 43.1643Z" fill="#66CEDB"/>
<path d="M78.3622 62.4966C79.4301 62.4966 80.2957 61.6309 80.2957 60.563C80.2957 59.4951 79.4301 58.6295 78.3622 58.6295C77.2943 58.6295 76.4286 59.4951 76.4286 60.563C76.4286 61.6309 77.2943 62.4966 78.3622 62.4966Z" fill="#66CEDB"/>
<path d="M78.3622 70.2291C79.4301 70.2291 80.2957 69.3634 80.2957 68.2956C80.2957 67.2277 79.4301 66.362 78.3622 66.362C77.2943 66.362 76.4286 67.2277 76.4286 68.2956C76.4286 69.3634 77.2943 70.2291 78.3622 70.2291Z" fill="#66CEDB"/>
<path d="M67.7299 43.1651C68.7978 43.1651 69.6635 42.2994 69.6635 41.2316C69.6635 40.1637 68.7978 39.298 67.7299 39.298C66.662 39.298 65.7964 40.1637 65.7964 41.2316C65.7964 42.2994 66.662 43.1651 67.7299 43.1651Z" fill="#66CEDB"/>
<path d="M53.2309 34.4652C51.9724 34.4652 50.9092 35.2761 50.5091 36.3983H40.4876C40.0875 35.2761 39.0242 34.4652 37.7658 34.4652C36.167 34.4652 34.866 35.7662 34.866 37.3649C34.866 38.9636 36.167 40.2646 37.7658 40.2646C39.0242 40.2646 40.0875 39.4537 40.4876 38.3315H50.51C50.9102 39.4537 51.9734 40.2646 53.2319 40.2646C54.8306 40.2646 56.1316 38.9636 56.1316 37.3649C56.1316 35.7662 54.8296 34.4652 53.2309 34.4652ZM37.7658 38.3315C37.2332 38.3315 36.7992 37.8984 36.7992 37.3649C36.7992 36.8313 37.2332 36.3983 37.7658 36.3983C38.2983 36.3983 38.7323 36.8313 38.7323 37.3649C38.7323 37.8984 38.2983 38.3315 37.7658 38.3315ZM53.2309 38.3315C52.6983 38.3315 52.2643 37.8984 52.2643 37.3649C52.2643 36.8313 52.6983 36.3983 53.2309 36.3983C53.7635 36.3983 54.1975 36.8313 54.1975 37.3649C54.1975 37.8984 53.7635 38.3315 53.2309 38.3315Z" fill="#010133"/>
<path d="M57.0972 43.1643C57.0972 44.763 58.3982 46.064 59.997 46.064C61.5957 46.064 62.8967 44.763 62.8967 43.1643C62.8967 41.9058 62.0857 40.8426 60.9635 40.4424V34.4651C60.9635 34.208 60.862 33.9625 60.6803 33.7818L56.814 29.9155C56.6333 29.7338 56.3868 29.6323 56.1307 29.6323H53.0531C52.6529 28.5101 51.5897 27.6991 50.3312 27.6991C48.7325 27.6991 47.4315 29.0001 47.4315 30.5989C47.4315 32.1976 48.7325 33.4986 50.3312 33.4986C51.5897 33.4986 52.6529 32.6876 53.0531 31.5654H55.7305L59.0304 34.8653V40.4424C57.9082 40.8426 57.0972 41.9058 57.0972 43.1643ZM50.3312 31.5654C49.7987 31.5654 49.3647 31.1324 49.3647 30.5989C49.3647 30.0653 49.7987 29.6323 50.3312 29.6323C50.8638 29.6323 51.2978 30.0653 51.2978 30.5989C51.2978 31.1324 50.8638 31.5654 50.3312 31.5654ZM59.997 44.1309C59.4644 44.1309 59.0304 43.6978 59.0304 43.1643C59.0304 42.6308 59.4644 42.1977 59.997 42.1977C60.5295 42.1977 60.9635 42.6308 60.9635 43.1643C60.9635 43.6978 60.5295 44.1309 59.997 44.1309Z" fill="#010133"/>
<path d="M62.8967 19C61.298 19 59.9969 20.301 59.9969 21.8997C59.9969 23.4984 61.298 24.7994 62.8967 24.7994C63.3432 24.7994 63.7608 24.6902 64.1387 24.5085L73.529 33.8987V43.1643C73.529 43.4214 73.6305 43.6669 73.8122 43.8477L75.753 45.7886C75.5713 46.1665 75.4621 46.584 75.4621 47.0306C75.4621 48.6293 76.7631 49.9303 78.3618 49.9303C79.9605 49.9303 81.2615 48.6293 81.2615 47.0306C81.2615 45.4319 79.9605 44.1309 78.3618 44.1309C77.9153 44.1309 77.4977 44.2401 77.1198 44.4218L75.4621 42.7642V33.4986C75.4621 33.2415 75.3606 32.996 75.1789 32.8152L65.5054 23.1418C65.6872 22.7638 65.7964 22.3463 65.7964 21.8997C65.7964 20.301 64.4954 19 62.8967 19ZM79.3284 47.0306C79.3284 47.5641 78.8944 47.9972 78.3618 47.9972C77.8292 47.9972 77.3953 47.5641 77.3953 47.0306C77.3953 46.4971 77.8292 46.064 78.3618 46.064C78.8944 46.064 79.3284 46.4971 79.3284 47.0306ZM62.8967 22.8663C62.3641 22.8663 61.9301 22.4333 61.9301 21.8997C61.9301 21.3662 62.3641 20.9331 62.8967 20.9331C63.4292 20.9331 63.8632 21.3662 63.8632 21.8997C63.8632 22.4333 63.4292 22.8663 62.8967 22.8663Z" fill="#010133"/>
<path d="M87.061 32.7099V28.6657C87.061 28.4086 86.9595 28.1631 86.7778 27.9824L80.0118 21.2164C79.831 21.0346 79.5845 20.9331 79.3284 20.9331H74.3177C73.9175 19.811 72.8543 19 71.5958 19C69.9971 19 68.6961 20.301 68.6961 21.8997C68.6961 23.4984 69.9971 24.7994 71.5958 24.7994C72.8543 24.7994 73.9175 23.9885 74.3177 22.8663H78.9282L85.1278 29.0659V32.7099C84.0056 33.11 83.1947 34.1733 83.1947 35.4317C83.1947 37.0304 84.4957 38.3314 86.0944 38.3314C87.6931 38.3314 88.9941 37.0304 88.9941 35.4317C88.9941 34.1733 88.1832 33.11 87.061 32.7099ZM71.5958 22.8663C71.0632 22.8663 70.6292 22.4333 70.6292 21.8997C70.6292 21.3662 71.0632 20.9331 71.5958 20.9331C72.1284 20.9331 72.5624 21.3662 72.5624 21.8997C72.5624 22.4333 72.1284 22.8663 71.5958 22.8663ZM86.0944 36.3983C85.5618 36.3983 85.1278 35.9653 85.1278 35.4317C85.1278 34.8982 85.5618 34.4652 86.0944 34.4652C86.627 34.4652 87.061 34.8982 87.061 35.4317C87.061 35.9653 86.627 36.3983 86.0944 36.3983Z" fill="#010133"/>
<path d="M75.4621 54.7632C75.4621 53.1645 74.1611 51.8635 72.5624 51.8635C71.3039 51.8635 70.2407 52.6744 69.8405 53.7966H59.8191C59.4189 52.6744 58.3557 51.8635 57.0972 51.8635C55.8387 51.8635 54.7755 52.6744 54.3753 53.7966H48.7982L45.2074 50.2058C45.3891 49.8279 45.4983 49.4103 45.4983 48.9638C45.4983 47.3651 44.1973 46.0641 42.5986 46.0641C40.9999 46.0641 39.6989 47.3651 39.6989 48.9638C39.6989 50.5625 40.9999 51.8635 42.5986 51.8635C43.0452 51.8635 43.4627 51.7543 43.8407 51.5726L47.7147 55.4466C47.8954 55.6283 48.1419 55.7298 48.3981 55.7298H54.3753C54.7755 56.852 55.8387 57.6629 57.0972 57.6629C58.3557 57.6629 59.4189 56.852 59.8191 55.7298H69.8415C70.1334 56.5485 70.7781 57.1932 71.5968 57.4851V71.3738C70.4746 71.7739 69.6636 72.8371 69.6636 74.0956C69.6636 75.6943 70.9646 76.9953 72.5633 76.9953C74.1621 76.9953 75.4631 75.6943 75.4631 74.0956C75.4631 72.8371 74.6521 71.7739 73.5299 71.3738V57.4851C74.6511 57.0849 75.4621 56.0217 75.4621 54.7632ZM41.6321 48.9638C41.6321 48.4302 42.066 47.9972 42.5986 47.9972C43.1312 47.9972 43.5652 48.4302 43.5652 48.9638C43.5652 49.4973 43.1312 49.9303 42.5986 49.9303C42.066 49.9303 41.6321 49.4973 41.6321 48.9638ZM72.5624 53.7966C73.095 53.7966 73.5289 54.2297 73.5289 54.7632C73.5289 55.2968 73.095 55.7298 72.5624 55.7298C72.0298 55.7298 71.5958 55.2968 71.5958 54.7632C71.5958 54.2297 72.0298 53.7966 72.5624 53.7966ZM57.0972 55.7298C56.5646 55.7298 56.1306 55.2968 56.1306 54.7632C56.1306 54.2297 56.5646 53.7966 57.0972 53.7966C57.6298 53.7966 58.0638 54.2297 58.0638 54.7632C58.0638 55.2968 57.6298 55.7298 57.0972 55.7298ZM72.5624 75.0612C72.0298 75.0612 71.5958 74.6282 71.5958 74.0947C71.5958 73.5611 72.0298 73.1281 72.5624 73.1281C73.095 73.1281 73.5289 73.5611 73.5289 74.0947C73.5289 74.6282 73.095 75.0612 72.5624 75.0612Z" fill="#010133"/>
<path d="M64.8298 41.2312C64.8298 42.8299 66.1308 44.1309 67.7295 44.1309C69.3282 44.1309 70.6292 42.8299 70.6292 41.2312C70.6292 39.9727 69.8183 38.9095 68.6961 38.5093V35.4317C68.6961 35.1746 68.5946 34.9291 68.4129 34.7484L56.8063 23.1418C56.988 22.7638 57.0972 22.3463 57.0972 21.8997C57.0972 20.301 55.7962 19 54.1975 19C52.939 19 51.8758 19.811 51.4756 20.9331H47.4315C46.898 20.9331 46.4649 21.3652 46.4649 21.8997V24.3993L42.8741 27.9901C42.4962 27.8084 42.0786 27.6992 41.6321 27.6992C40.0334 27.6992 38.7323 29.0002 38.7323 30.5989C38.7323 32.1976 40.0334 33.4986 41.6321 33.4986C43.2308 33.4986 44.5318 32.1976 44.5318 30.5989C44.5318 30.1523 44.4226 29.7348 44.2408 29.3568L48.1149 25.4828C48.2966 25.3021 48.3981 25.0565 48.3981 24.7994V22.8663H51.4756C51.8758 23.9885 52.939 24.7994 54.1975 24.7994C54.6441 24.7994 55.0616 24.6902 55.4396 24.5085L66.7629 35.8319V38.5093C65.6408 38.9095 64.8298 39.9727 64.8298 41.2312ZM41.6321 31.5654C41.0995 31.5654 40.6655 31.1324 40.6655 30.5989C40.6655 30.0653 41.0995 29.6323 41.6321 29.6323C42.1646 29.6323 42.5986 30.0653 42.5986 30.5989C42.5986 31.1324 42.1646 31.5654 41.6321 31.5654ZM54.1975 22.8663C53.6649 22.8663 53.2309 22.4333 53.2309 21.8997C53.2309 21.3662 53.6649 20.9331 54.1975 20.9331C54.7301 20.9331 55.1641 21.3662 55.1641 21.8997C55.1641 22.4333 54.7301 22.8663 54.1975 22.8663ZM67.7295 42.1977C67.1969 42.1977 66.7629 41.7647 66.7629 41.2312C66.7629 40.6976 67.1969 40.2646 67.7295 40.2646C68.2621 40.2646 68.6961 40.6976 68.6961 41.2312C68.6961 41.7647 68.2621 42.1977 67.7295 42.1977Z" fill="#010133"/>
<path d="M34.1829 43.8477C34.3637 44.0294 34.6101 44.1309 34.8663 44.1309H45.0984L50.6147 49.6471C50.7954 49.8288 51.0419 49.9303 51.298 49.9303H63.0747C63.4749 51.0525 64.5381 51.8635 65.7966 51.8635C67.3953 51.8635 68.6963 50.5625 68.6963 48.9637C68.6963 47.365 67.3953 46.064 65.7966 46.064C64.5381 46.064 63.4749 46.875 63.0747 47.9972H51.6982L46.182 42.4809C46.0012 42.2992 45.7547 42.1977 45.4986 42.1977H35.2665L32.9331 39.8644V31.9656L40.3903 24.5085C40.7682 24.6902 41.1857 24.7994 41.6323 24.7994C43.231 24.7994 44.532 23.4984 44.532 21.8997C44.532 20.301 43.231 19 41.6323 19C40.0336 19 38.7326 20.301 38.7326 21.8997C38.7326 22.3463 38.8418 22.7638 39.0235 23.1418L31.2832 30.8821C31.1015 31.0628 31 31.3083 31 31.5654V40.2646C31 40.5217 31.1015 40.7672 31.2832 40.948L34.1829 43.8477ZM65.7966 47.9972C66.3292 47.9972 66.7632 48.4302 66.7632 48.9637C66.7632 49.4973 66.3292 49.9303 65.7966 49.9303C65.264 49.9303 64.83 49.4973 64.83 48.9637C64.83 48.4302 65.264 47.9972 65.7966 47.9972ZM41.6323 20.9331C42.1649 20.9331 42.5989 21.3662 42.5989 21.8997C42.5989 22.4333 42.1649 22.8663 41.6323 22.8663C41.0997 22.8663 40.6657 22.4333 40.6657 21.8997C40.6657 21.3662 41.0997 20.9331 41.6323 20.9331Z" fill="#010133"/>
<path d="M86.7778 49.6471C86.9595 49.4664 87.061 49.2208 87.061 48.9637V47.8193C88.1832 47.4192 88.9941 46.3559 88.9941 45.0974C88.9941 43.4987 87.6931 42.1977 86.0944 42.1977C85.6479 42.1977 85.2303 42.307 84.8524 42.4887L81.2615 38.8979V33.3207C82.3837 32.9206 83.1947 31.8573 83.1947 30.5989C83.1947 29.0001 81.8937 27.6991 80.295 27.6991C78.6963 27.6991 77.3953 29.0001 77.3953 30.5989C77.3953 31.8573 78.2062 32.9206 79.3284 33.3207V39.298C79.3284 39.5551 79.4299 39.8006 79.6116 39.9814L83.4856 43.8554C83.3039 44.2333 83.1947 44.6509 83.1947 45.0974C83.1947 46.3559 84.0056 47.4192 85.1278 47.8193V48.5636L77.6785 56.0129C77.4967 56.1937 77.3953 56.4392 77.3953 56.6963V57.8407C76.2731 58.2409 75.4621 59.3041 75.4621 60.5626C75.4621 61.8211 76.2731 62.8843 77.3953 63.2845V65.5743C76.2731 65.9744 75.4621 67.0377 75.4621 68.2962C75.4621 69.8949 76.7631 71.1959 78.3618 71.1959C79.9605 71.1959 81.2615 69.8949 81.2615 68.2962C81.2615 67.0377 80.4506 65.9744 79.3284 65.5743V63.2845C80.4506 62.8843 81.2615 61.8211 81.2615 60.5626C81.2615 59.3041 80.4506 58.2409 79.3284 57.8407V57.0965L86.7778 49.6471ZM80.295 29.6323C80.8276 29.6323 81.2615 30.0653 81.2615 30.5989C81.2615 31.1324 80.8276 31.5654 80.295 31.5654C79.7624 31.5654 79.3284 31.1324 79.3284 30.5989C79.3284 30.0653 79.7624 29.6323 80.295 29.6323ZM87.061 45.0974C87.061 45.631 86.627 46.064 86.0944 46.064C85.5618 46.064 85.1278 45.631 85.1278 45.0974C85.1278 44.5639 85.5618 44.1309 86.0944 44.1309C86.627 44.1309 87.061 44.5639 87.061 45.0974ZM78.3618 69.2618C77.8292 69.2618 77.3953 68.8287 77.3953 68.2952C77.3953 67.7616 77.8292 67.3286 78.3618 67.3286C78.8944 67.3286 79.3284 67.7616 79.3284 68.2952C79.3284 68.8287 78.8944 69.2618 78.3618 69.2618ZM78.3618 61.5292C77.8292 61.5292 77.3953 61.0962 77.3953 60.5626C77.3953 60.0291 77.8292 59.596 78.3618 59.596C78.8944 59.596 79.3284 60.0291 79.3284 60.5626C79.3284 61.0962 78.8944 61.5292 78.3618 61.5292Z" fill="#010133"/>
</svg>
