<svg width="151" height="55" viewBox="0 0 151 55" fill="none" xmlns="http://www.w3.org/2000/svg">
<path d="M41.47 6.3H45.628V21H41.47V6.3ZM62.5722 6.3V21H59.1492L52.6602 13.167V21H48.5862V6.3H52.0092L58.4982 14.133V6.3H62.5722ZM80.3741 6.3L74.0741 21H69.9791L63.7001 6.3H68.1941L72.1841 15.876L76.2581 6.3H80.3741ZM93.0366 17.787V21H81.2346V6.3H92.7636V9.513H85.3506V11.991H91.8816V15.099H85.3506V17.787H93.0366ZM109.33 6.3V21H105.907L99.418 13.167V21H95.344V6.3H98.767L105.256 14.133V6.3H109.33ZM115.392 9.597H110.877V6.3H124.044V9.597H119.55V21H115.392V9.597ZM132.801 21.294C131.247 21.294 129.847 20.965 128.601 20.307C127.369 19.649 126.396 18.739 125.682 17.577C124.982 16.415 124.632 15.106 124.632 13.65C124.632 12.194 124.982 10.885 125.682 9.723C126.396 8.561 127.369 7.651 128.601 6.993C129.847 6.335 131.247 6.006 132.801 6.006C134.355 6.006 135.748 6.335 136.98 6.993C138.226 7.651 139.199 8.561 139.899 9.723C140.613 10.885 140.97 12.194 140.97 13.65C140.97 15.106 140.613 16.415 139.899 17.577C139.199 18.739 138.226 19.649 136.98 20.307C135.748 20.965 134.355 21.294 132.801 21.294ZM132.801 17.85C133.543 17.85 134.215 17.675 134.817 17.325C135.419 16.975 135.895 16.485 136.245 15.855C136.595 15.211 136.77 14.476 136.77 13.65C136.77 12.824 136.595 12.096 136.245 11.466C135.895 10.822 135.419 10.325 134.817 9.975C134.215 9.625 133.543 9.45 132.801 9.45C132.059 9.45 131.387 9.625 130.785 9.975C130.183 10.325 129.707 10.822 129.357 11.466C129.007 12.096 128.832 12.824 128.832 13.65C128.832 14.476 129.007 15.211 129.357 15.855C129.707 16.485 130.183 16.975 130.785 17.325C131.387 17.675 132.059 17.85 132.801 17.85Z" fill="white"/>
<path d="M52.075 39.703V43H40.63V40.396L46.132 35.251C46.664 34.747 47.021 34.32 47.203 33.97C47.385 33.606 47.476 33.242 47.476 32.878C47.476 32.402 47.315 32.031 46.993 31.765C46.671 31.499 46.202 31.366 45.586 31.366C45.04 31.366 44.536 31.492 44.074 31.744C43.626 31.982 43.255 32.332 42.961 32.794L39.874 31.072C40.448 30.12 41.253 29.371 42.289 28.825C43.325 28.279 44.55 28.006 45.964 28.006C47.084 28.006 48.071 28.188 48.925 28.552C49.793 28.916 50.465 29.441 50.941 30.127C51.431 30.799 51.676 31.583 51.676 32.479C51.676 33.277 51.501 34.033 51.151 34.747C50.815 35.447 50.157 36.245 49.177 37.141L46.405 39.703H52.075ZM75.3763 28.3V43H71.2183V31.513H68.4883V28.3H75.3763ZM82.963 28.006C85.077 28.006 86.743 28.629 87.961 29.875C89.179 31.121 89.788 32.913 89.788 35.251C89.788 36.931 89.459 38.38 88.801 39.598C88.157 40.802 87.24 41.719 86.05 42.349C84.874 42.979 83.509 43.294 81.955 43.294C81.129 43.294 80.338 43.196 79.582 43C78.826 42.818 78.182 42.559 77.65 42.223L79.162 39.241C79.876 39.745 80.779 39.997 81.871 39.997C82.921 39.997 83.768 39.71 84.412 39.136C85.07 38.548 85.455 37.701 85.567 36.595C84.727 37.309 83.628 37.666 82.27 37.666C81.346 37.666 80.499 37.477 79.729 37.099C78.959 36.707 78.343 36.161 77.881 35.461C77.433 34.747 77.209 33.935 77.209 33.025C77.209 32.031 77.461 31.156 77.965 30.4C78.483 29.63 79.176 29.042 80.044 28.636C80.926 28.216 81.899 28.006 82.963 28.006ZM83.257 34.684C83.859 34.684 84.349 34.516 84.727 34.18C85.105 33.83 85.294 33.375 85.294 32.815C85.294 32.269 85.105 31.828 84.727 31.492C84.363 31.142 83.866 30.967 83.236 30.967C82.648 30.967 82.165 31.135 81.787 31.471C81.423 31.807 81.241 32.262 81.241 32.836C81.241 33.396 81.423 33.844 81.787 34.18C82.165 34.516 82.655 34.684 83.257 34.684Z" fill="white"/>
<path d="M59.7113 37.666L58.1573 39.325V43H54.0413V28.3H58.1573V34.411L63.8483 28.3H68.4263L62.4203 34.81L68.7413 43H63.9113L59.7113 37.666Z" fill="#B484FF"/>
<path d="M41.176 51.046L40.756 52H40L41.848 47.806H42.604L44.452 52H43.696L43.276 51.046H41.176ZM42.988 50.392L42.226 48.664L41.464 50.392H42.988ZM45.8775 51.04C46.0695 51.264 46.3295 51.376 46.6575 51.376C46.9855 51.376 47.2455 51.264 47.4375 51.04C47.6295 50.816 47.7255 50.512 47.7255 50.128V47.806H48.4335V50.158C48.4335 50.762 48.2675 51.228 47.9355 51.556C47.6035 51.88 47.1775 52.042 46.6575 52.042C46.1375 52.042 45.7115 51.88 45.3795 51.556C45.0475 51.228 44.8815 50.762 44.8815 50.158V47.806H45.5895V50.128C45.5895 50.512 45.6855 50.816 45.8775 51.04ZM52.445 49.96H53.153V51.394C52.757 51.83 52.191 52.048 51.455 52.048C50.835 52.048 50.315 51.844 49.895 51.436C49.479 51.028 49.271 50.512 49.271 49.888C49.271 49.264 49.483 48.744 49.907 48.328C50.335 47.912 50.851 47.704 51.455 47.704C52.059 47.704 52.561 47.88 52.961 48.232L52.583 48.772C52.419 48.632 52.253 48.536 52.085 48.484C51.921 48.428 51.729 48.4 51.509 48.4C51.085 48.4 50.729 48.538 50.441 48.814C50.153 49.086 50.009 49.446 50.009 49.894C50.009 50.338 50.149 50.696 50.429 50.968C50.709 51.236 51.047 51.37 51.443 51.37C51.843 51.37 52.177 51.284 52.445 51.112V49.96ZM55.6085 48.436V47.806H58.0625V48.358L57.0485 49.492C57.4325 49.504 57.7325 49.626 57.9485 49.858C58.1645 50.086 58.2725 50.36 58.2725 50.68C58.2725 51.108 58.1265 51.444 57.8345 51.688C57.5465 51.932 57.1745 52.054 56.7185 52.054C56.2625 52.054 55.8165 51.908 55.3805 51.616L55.6805 51.046C56.0245 51.286 56.3845 51.406 56.7605 51.406C57.0045 51.406 57.2045 51.35 57.3605 51.238C57.5205 51.122 57.6005 50.958 57.6005 50.746C57.6005 50.53 57.5125 50.358 57.3365 50.23C57.1605 50.102 56.9165 50.038 56.6045 50.038C56.4485 50.038 56.2985 50.06 56.1545 50.104V49.564L57.1265 48.436H55.6085ZM59.8992 48.742C59.7352 49.03 59.6532 49.408 59.6532 49.876C59.6532 50.344 59.7352 50.722 59.8992 51.01C60.0672 51.298 60.3272 51.442 60.6792 51.442C61.0312 51.442 61.2872 51.3 61.4472 51.016C61.6112 50.728 61.6932 50.348 61.6932 49.876C61.6932 49.404 61.6112 49.026 61.4472 48.742C61.2872 48.454 61.0312 48.31 60.6792 48.31C60.3272 48.31 60.0672 48.454 59.8992 48.742ZM59.3952 51.46C59.1112 51.064 58.9692 50.536 58.9692 49.876C58.9692 49.216 59.1112 48.69 59.3952 48.298C59.6792 47.902 60.1072 47.704 60.6792 47.704C61.2512 47.704 61.6792 47.902 61.9632 48.298C62.2472 48.69 62.3892 49.216 62.3892 49.876C62.3892 50.536 62.2472 51.064 61.9632 51.46C61.6792 51.852 61.2512 52.048 60.6792 52.048C60.1072 52.048 59.6792 51.852 59.3952 51.46ZM64.8246 50.524V49.894H66.8166V50.524H64.8246ZM70.7406 48.358C70.5366 48.358 70.3686 48.4 70.2366 48.484C70.1046 48.568 70.0386 48.696 70.0386 48.868C70.0386 49.036 70.1046 49.166 70.2366 49.258C70.3686 49.346 70.6486 49.442 71.0766 49.546C71.5086 49.65 71.8326 49.796 72.0486 49.984C72.2686 50.172 72.3786 50.45 72.3786 50.818C72.3786 51.182 72.2406 51.478 71.9646 51.706C71.6886 51.934 71.3266 52.048 70.8786 52.048C70.2226 52.048 69.6406 51.822 69.1326 51.37L69.5766 50.836C70.0006 51.204 70.4406 51.388 70.8966 51.388C71.1246 51.388 71.3046 51.34 71.4366 51.244C71.5726 51.144 71.6406 51.014 71.6406 50.854C71.6406 50.69 71.5766 50.564 71.4486 50.476C71.3246 50.384 71.1086 50.302 70.8006 50.23C70.4926 50.154 70.2586 50.086 70.0986 50.026C69.9386 49.962 69.7966 49.88 69.6726 49.78C69.4246 49.592 69.3006 49.304 69.3006 48.916C69.3006 48.528 69.4406 48.23 69.7206 48.022C70.0046 47.81 70.3546 47.704 70.7706 47.704C71.0386 47.704 71.3046 47.748 71.5686 47.836C71.8326 47.924 72.0606 48.048 72.2526 48.208L71.8746 48.742C71.7506 48.63 71.5826 48.538 71.3706 48.466C71.1586 48.394 70.9486 48.358 70.7406 48.358ZM76.1999 47.806V48.472H73.9619V49.582H75.9719V50.212H73.9619V51.334H76.2719V52H73.2539V47.806H76.1999ZM78.6197 47.806C79.2557 47.806 79.7197 47.928 80.0117 48.172C80.3037 48.416 80.4497 48.792 80.4497 49.3C80.4497 49.808 80.2997 50.18 79.9997 50.416C79.7037 50.652 79.2477 50.77 78.6317 50.77H77.8877V52H77.1797V47.806H78.6197ZM78.7097 50.128C79.1017 50.128 79.3677 50.054 79.5077 49.906C79.6517 49.754 79.7237 49.534 79.7237 49.246C79.7237 48.954 79.6337 48.748 79.4537 48.628C79.2737 48.508 78.9917 48.448 78.6077 48.448H77.8877V50.128H78.7097ZM82.8652 48.454V52H82.1572V48.454H80.8852V47.806H84.1372V48.454H82.8652ZM86.1408 47.806H87.6648V52H86.9928V48.436H86.1408V47.806Z" fill="white"/>
<path d="M28.0486 6L22.3611 11.6875H17.5H12.6389L6.95139 6H0V6.34028V11.6875H6.80556L12.4931 17.375H17.5H22.5069L28.1944 11.6875H35V6.34028V6H28.0486Z" fill="white"/>
<path d="M28.0486 17.375L22.3611 23.0625H17.5H12.6389L6.95139 17.375H0V17.7153V23.0625H6.80556L12.4931 28.75H17.5H22.5069L28.1944 23.0625H35V17.7153V17.375H28.0486Z" fill="white"/>
<path d="M28.0486 28.7501L22.3611 34.4376H17.5H12.6389L6.95139 28.7501H0V29.0904V34.4376H6.80556L12.4931 40.1251H17.5H22.5069L28.1944 34.4376H35V29.0904V28.7501H28.0486Z" fill="white"/>
<path d="M28.0486 40.125L22.3611 45.8125H17.5H12.6389L6.95139 40.125H0V40.4653V45.8125H6.80556L12.4931 51.5H17.5H22.5069L28.1944 45.8125H35V40.4653V40.125H28.0486Z" fill="white"/>
</svg>
