<svg width="75" height="75" viewBox="0 0 75 75" fill="none" xmlns="http://www.w3.org/2000/svg">
<rect y="0.727539" width="74.2725" height="74.2725" rx="19" fill="white"/>
<path d="M32.2448 59.9924H33.4688L35.3248 63.6004L37.1648 59.9924H38.3888V65.5924H37.4048V61.5764L35.6608 65.0164H34.9728L33.2208 61.5764V65.5924H32.2448V59.9924ZM39.7682 59.9924H43.8722V60.9284H40.8402V62.3124H43.5602V63.2484H40.8402V64.6564H43.9682V65.5924H39.7682V59.9924Z" fill="black"/>
<path d="M51.9196 39.4325H48.118V39.4006C48.118 38.1434 47.0952 37.1206 45.838 37.1206H45.8176L45.6294 28.8102H46.1281L46.2273 30.0549C46.2611 30.4782 46.6201 30.8097 47.0447 30.8097H48.8602C49.3123 30.8097 49.6801 30.4419 49.6801 29.9897V21.8768C49.6801 20.842 48.8382 20 47.8033 20H40.7471C39.7123 20 38.8704 20.842 38.8704 21.8768V26.0609C38.8704 26.3197 39.0801 26.5296 39.339 26.5296C39.5979 26.5296 39.8076 26.3197 39.8076 26.0609V22.7646H48.7428V29.8724H47.153L47.0588 28.6918C47.0221 28.2326 46.6327 27.873 46.1722 27.873H42.3783C41.9178 27.873 41.5283 28.2326 41.4917 28.6918L41.3975 29.8724H39.8076V27.9354C39.8076 27.6766 39.5979 27.4668 39.339 27.4668C39.0801 27.4668 38.8704 27.6766 38.8704 27.9354V29.9897C38.8704 30.4419 39.2382 30.8097 39.6904 30.8097H41.5058C41.9304 30.8097 42.2894 30.4782 42.3232 30.0549L42.4225 28.8102H42.7962L42.6079 37.1229C41.399 37.1778 40.4325 38.1785 40.4325 39.4006V39.4325H33.5593V39.4006C33.5593 38.1434 32.5365 37.1206 31.2792 37.1206H31.2588L31.2204 35.4229C31.2145 35.1641 30.9984 34.9593 30.7413 34.965C30.4825 34.9709 30.2775 35.1854 30.2834 35.4441L30.3322 37.5998C30.338 37.8544 30.546 38.0578 30.8007 38.0578H31.2792C32.0197 38.0578 32.622 38.6602 32.622 39.4006V39.4325H30.3774C29.7546 39.4325 29.2479 39.9392 29.2479 40.5621V41.1147C29.2479 41.7376 29.7545 42.2443 30.3774 42.2443H32.622V42.5261C32.622 43.2665 32.0197 43.8689 31.2792 43.8689H28.1538C27.4133 43.8689 26.811 43.2665 26.811 42.5261V39.4006C26.811 38.6602 27.4134 38.0578 28.1538 38.0578H28.5073C28.762 38.0578 28.9701 37.8544 28.9758 37.5998L29.1749 28.8102H30.1331L30.2409 33.5696C30.2467 33.8247 30.4553 34.0276 30.7092 34.0276C30.7129 34.0276 30.7165 34.0276 30.72 34.0275C30.9788 34.0216 31.1838 33.8071 31.1779 33.5484L31.0706 28.8102H31.5693L31.6686 30.055C31.7024 30.4782 32.0614 30.8097 32.486 30.8097H34.3014C34.7536 30.8097 35.1214 30.4419 35.1214 29.9897V21.8768C35.1214 20.842 34.2794 20 33.2446 20H26.1885C25.1536 20 24.3116 20.842 24.3116 21.8768V29.9897C24.3116 30.4419 24.6795 30.8097 25.1316 30.8097H26.9471C27.3716 30.8097 27.7307 30.4782 27.7645 30.0549L27.8637 28.8102H28.2374L28.0492 37.1229C26.8403 37.1778 25.8737 38.1785 25.8737 39.4006V39.4325H22.175C21.5271 39.4325 21 39.9596 21 40.6075V41.0692C21 41.7171 21.5271 42.2442 22.175 42.2442H25.8737V42.5261C25.8737 43.7833 26.8966 44.8061 28.1538 44.8061H31.2792C32.5365 44.8061 33.5593 43.7833 33.5593 42.5261V42.2442H40.4325V42.5261C40.4325 43.7833 41.4553 44.8061 42.7125 44.8061H45.838C47.0952 44.8061 48.118 43.7833 48.118 42.5261V42.2442H51.9196C52.5108 42.2442 52.9917 41.7633 52.9917 41.1721V40.5046C52.9917 39.9134 52.5108 39.4325 51.9196 39.4325ZM39.8101 21.8273C39.8361 21.3323 40.2458 20.9373 40.7471 20.9373H47.8033C48.3046 20.9373 48.7143 21.3323 48.7403 21.8273H39.8101ZM26.1885 20.9373H33.2446C33.746 20.9373 34.1557 21.3323 34.1817 21.8273H25.2514C25.2774 21.3323 25.6871 20.9373 26.1885 20.9373ZM27.8196 27.873C27.359 27.873 26.9695 28.2326 26.9329 28.6918L26.8388 29.8724H25.2489V22.7646H34.1841V29.8724H32.5942L32.5001 28.6918C32.4635 28.2326 32.074 27.873 31.6134 27.873H27.8196ZM25.8737 41.307H22.175C22.0439 41.307 21.9373 41.2003 21.9373 41.0692V40.6075C21.9373 40.4764 22.0439 40.3697 22.175 40.3697H25.8737V41.307ZM40.4325 41.3069H30.3774V41.307C30.2714 41.307 30.1851 41.2207 30.1851 41.1147V40.562C30.1851 40.456 30.2714 40.3697 30.3774 40.3697H40.4325V41.3069ZM47.1807 42.5261C47.1807 43.2665 46.5783 43.8688 45.838 43.8688H42.7125C41.9721 43.8688 41.3697 43.2665 41.3697 42.5261V39.4006C41.3697 38.6602 41.9721 38.0578 42.7125 38.0578H43.066C43.3207 38.0578 43.5288 37.8544 43.5345 37.5998L43.7336 28.8102H44.6919L44.8909 37.5998C44.8967 37.8544 45.1048 38.0578 45.3595 38.0578H45.838C46.5784 38.0578 47.1807 38.6602 47.1807 39.4006V39.4325H44.8163C44.2251 39.4325 43.7441 39.9134 43.7441 40.5046V41.1722C43.7441 41.7633 44.2251 42.2443 44.8163 42.2443H47.1807V42.5261ZM52.0545 41.1721C52.0545 41.2464 51.9939 41.307 51.9196 41.307H44.8163C44.7419 41.307 44.6814 41.2465 44.6814 41.1721V40.5046C44.6814 40.4302 44.7419 40.3697 44.8163 40.3697H51.9196C51.9939 40.3697 52.0545 40.4302 52.0545 40.5046V41.1721Z" fill="#5D00EF"/>
<path d="M29.6541 23.5616C28.9823 23.5616 28.4357 24.1082 28.4357 24.78C28.4357 25.4518 28.9823 25.9985 29.6541 25.9985C30.3259 25.9985 30.8725 25.4518 30.8725 24.78C30.8725 24.1082 30.3259 23.5616 29.6541 23.5616ZM29.6541 25.0612C29.4991 25.0612 29.3729 24.935 29.3729 24.78C29.3729 24.625 29.4991 24.4988 29.6541 24.4988C29.8091 24.4988 29.9353 24.625 29.9353 24.78C29.9353 24.935 29.8091 25.0612 29.6541 25.0612Z" fill="#5D00EF"/>
<path d="M44.2129 23.5616C43.5411 23.5616 42.9945 24.1082 42.9945 24.78C42.9945 25.4518 43.5411 25.9985 44.2129 25.9985C44.8848 25.9985 45.4314 25.4518 45.4314 24.78C45.4314 24.1082 44.8848 23.5616 44.2129 23.5616ZM44.2129 25.0612C44.0579 25.0612 43.9318 24.935 43.9318 24.78C43.9318 24.625 44.0579 24.4988 44.2129 24.4988C44.368 24.4988 44.4941 24.625 44.4941 24.78C44.4941 24.935 44.368 25.0612 44.2129 25.0612Z" fill="#5D00EF"/>
<path d="M28.7358 42.1193C28.5703 42.1193 28.4355 41.9846 28.4355 41.819V39.8578C28.4355 39.6922 28.5703 39.5575 28.7358 39.5575C28.9947 39.5575 29.2045 39.3477 29.2045 39.0889C29.2045 38.8301 28.9947 38.6202 28.7358 38.6202C28.0535 38.6202 27.4983 39.1754 27.4983 39.8578V41.819C27.4983 42.5014 28.0535 43.0566 28.7358 43.0566C28.9947 43.0566 29.2045 42.8468 29.2045 42.588C29.2045 42.3292 28.9947 42.1193 28.7358 42.1193Z" fill="#5D00EF"/>
<path d="M43.3571 42.1193C43.1915 42.1193 43.0568 41.9846 43.0568 41.819V39.8578C43.0568 39.6922 43.1915 39.5575 43.3571 39.5575C43.616 39.5575 43.8258 39.3477 43.8258 39.0889C43.8258 38.8301 43.616 38.6202 43.3571 38.6202C42.6747 38.6202 42.1195 39.1754 42.1195 39.8578V41.819C42.1195 42.5014 42.6747 43.0566 43.3571 43.0566C43.616 43.0566 43.8258 42.8468 43.8258 42.588C43.8258 42.3292 43.6159 42.1193 43.3571 42.1193Z" fill="#5D00EF"/>
</svg>
