<svg width="121" height="96" viewBox="0 0 121 96" fill="none" xmlns="http://www.w3.org/2000/svg">
<rect width="120.847" height="96" rx="16" fill="#00C8B4"/>
<rect width="120.847" height="96" rx="16" stroke="#6F6571"/>
<g opacity="0.15">
<path d="M8.44455 74.0071L6.36755 71.9301L18.2955 60.0022C19.3884 58.9086 20.9016 58.2811 22.4493 58.2811H30.9061V61.2186H22.4493C21.6762 61.2186 20.9188 61.532 20.3723 62.0792L8.44455 74.0071Z" fill="#DBD9DC"/>
<path d="M77.5506 37.7188H69.0937V34.7813H77.5506C78.3237 34.7813 79.081 34.4679 79.6276 33.9206L91.5555 21.9927L93.6325 24.0697L81.7046 35.9976C80.6113 37.0912 79.0981 37.7188 77.5506 37.7188Z" fill="#DBD9DC"/>
<path d="M39.7186 28.9063H36.7811V20.4501C36.7811 19.6662 36.4756 18.9283 35.9205 18.3726L23.9926 6.44466L26.0695 4.36767L37.9975 16.2956C39.1076 17.4065 39.7186 18.8817 39.7186 20.4501V28.9063Z" fill="#DBD9DC"/>
<path d="M73.9303 91.6322L62.0024 79.7043C60.8922 78.5933 60.2812 77.1182 60.2812 75.5497V67.0937H63.2187V75.5499C63.2187 76.3338 63.5242 77.0717 64.0794 77.6274L76.0073 89.5553L73.9303 91.6322Z" fill="#DBD9DC"/>
<path d="M63.2188 8.34375H60.2812V28.9062H63.2188V8.34375Z" fill="#C9C6CA"/>
<path d="M39.7188 67.0938H36.7812V87.6562H39.7188V67.0938Z" fill="#C9C6CA"/>
<path d="M30.9062 34.7812H10.3438V37.7188H30.9062V34.7812Z" fill="#C9C6CA"/>
<path d="M89.6562 58.2812H69.0938V61.2188H89.6562V58.2812Z" fill="#C9C6CA"/>
<path d="M54.4062 77.375V18.625C54.4062 17.8139 55.0639 17.1562 55.875 17.1562C56.6861 17.1562 57.3438 17.8139 57.3438 18.625V77.375C57.3438 78.1861 56.6861 78.8438 55.875 78.8438C55.0639 78.8438 54.4062 78.1861 54.4062 77.375Z" fill="#DBD9DC"/>
<path d="M42.6562 77.375V18.625C42.6562 17.8139 43.3139 17.1562 44.125 17.1562C44.9361 17.1562 45.5938 17.8139 45.5938 18.625V77.375C45.5938 78.1861 44.9361 78.8438 44.125 78.8438C43.3139 78.8438 42.6562 78.1861 42.6562 77.375Z" fill="#DBD9DC"/>
<path d="M48.5312 93.5312V2.46875C48.5312 1.6569 49.1889 1 50 1C50.8111 1 51.4688 1.6569 51.4688 2.46875V93.5312C51.4688 94.3431 50.8111 95 50 95C49.1889 95 48.5312 94.3431 48.5312 93.5312Z" fill="#C9C6CA"/>
<path d="M79.375 43.5938H20.625C19.8139 43.5938 19.1562 42.9361 19.1562 42.125C19.1562 41.3139 19.8139 40.6562 20.625 40.6562H79.375C80.1861 40.6562 80.8438 41.3139 80.8438 42.125C80.8438 42.9361 80.1861 43.5938 79.375 43.5938Z" fill="#DBD9DC"/>
<path d="M79.375 55.3438H20.625C19.8139 55.3438 19.1562 54.6861 19.1562 53.875C19.1562 53.0639 19.8139 52.4062 20.625 52.4062H79.375C80.1861 52.4062 80.8438 53.0639 80.8438 53.875C80.8438 54.6861 80.1861 55.3438 79.375 55.3438Z" fill="#DBD9DC"/>
<path d="M95.5312 49.4688H4.46875C3.6569 49.4688 3 48.8111 3 48C3 47.1889 3.6569 46.5312 4.46875 46.5312H95.5312C96.3431 46.5312 97 47.1889 97 48C97 48.8111 96.3431 49.4688 95.5312 49.4688Z" fill="#C9C6CA"/>
<path d="M66.1562 70.0312H33.8438C30.5991 70.0312 27.9688 67.4009 27.9688 64.1562V31.8438C27.9688 28.5991 30.5991 25.9688 33.8438 25.9688H66.1562C69.4009 25.9688 72.0312 28.5991 72.0312 31.8438V64.1562C72.0312 67.4009 69.4009 70.0312 66.1562 70.0312Z" fill="#4BD7C8"/>
<path d="M66.1562 67.0938H33.8438C32.2213 67.0938 30.9062 65.7787 30.9062 64.1562V31.8438C30.9062 30.2213 32.2213 28.9062 33.8438 28.9062H66.1562C67.7787 28.9062 69.0938 30.2213 69.0938 31.8438V64.1562C69.0938 65.7787 67.7787 67.0938 66.1562 67.0938Z" fill="#99E9DF"/>
<path d="M64.6875 44.3281C64.6875 41.3737 62.5356 38.8958 59.5961 38.0518C59.6758 37.7035 59.7305 37.349 59.7305 36.9844C59.7305 34.1501 57.2189 31.8438 54.1309 31.8438C52.4972 31.8438 51.0241 32.4893 50 33.5176C48.9759 32.4891 47.5028 31.8438 45.8691 31.8438C42.7811 31.8438 40.2695 34.1502 40.2695 36.9844C40.2695 37.338 40.3083 37.6857 40.3828 38.0243C37.4468 38.8699 35.3125 41.3763 35.3125 44.3281C35.3125 45.7673 35.8295 47.1176 36.7589 48.2451C35.8528 49.4397 35.3125 50.8709 35.3125 52.4062C35.3125 54.759 36.5635 56.9541 38.6223 58.3271C38.6501 61.5448 41.5172 64.1562 45.043 64.1562C47.0487 64.1562 48.8206 63.2941 50 61.9731C51.1794 63.2939 52.9513 64.1562 54.957 64.1562C58.3394 64.1562 61.0903 61.7464 61.3354 58.7098C63.3967 57.5072 64.6875 55.4086 64.6875 53.1406C64.6875 51.4991 64.0005 49.9314 62.8158 48.7344C64.0005 47.5373 64.6875 45.9696 64.6875 44.3281ZM59.686 50.0331C60.9784 50.7152 61.75 51.8769 61.75 53.1406C61.75 54.0448 61.3408 54.9062 60.6523 55.5699C59.9086 54.2635 58.6423 53.2249 57.0498 52.7246C56.271 52.4786 55.4491 52.9119 55.2082 53.6855C54.9658 54.4594 55.396 55.2841 56.1691 55.5272C57.5303 55.9546 58.4453 57.0611 58.4453 58.2811C58.4453 59.9011 56.8805 61.2186 54.957 61.2186C53.0335 61.2186 51.4688 59.9011 51.4688 58.2811V49.4686C51.4688 47.8485 53.0335 46.5311 54.957 46.5311C55.7689 46.5311 56.4258 45.8734 56.4258 45.0623C56.4258 44.2512 55.7689 43.5936 54.957 43.5936C53.6699 43.5936 52.4752 43.9494 51.4688 44.5477V42.9512C51.4688 42.1401 50.8119 41.4824 50 41.4824C49.1881 41.4824 48.5312 42.1401 48.5312 42.9512V50.4277C48.0985 50.171 47.639 49.9454 47.1356 49.7873C46.3568 49.5427 45.5348 49.9751 45.2939 50.7482C45.0516 51.5221 45.4818 52.3468 46.2549 52.5898C47.616 53.0173 48.5311 54.1238 48.5311 55.3438V58.2812C48.5311 59.9013 46.9663 61.2188 45.0428 61.2188C43.1193 61.2188 41.5545 59.9013 41.5545 58.2812C41.5545 57.5898 41.8486 56.9171 42.3821 56.3873C42.9573 55.8158 42.9601 54.8855 42.3878 54.3098C41.8156 53.7346 40.886 53.7311 40.3108 54.3033C40.0061 54.6066 39.7496 54.94 39.5234 55.2885C38.722 54.4946 38.25 53.4746 38.25 52.4062C38.25 50.4146 39.8177 48.6641 42.0625 48.1485C42.8529 47.9671 43.3477 47.179 43.1655 46.3886C42.9834 45.5975 42.193 45.1071 41.4056 45.2856C40.5056 45.4921 39.674 45.8318 38.9326 46.277C38.492 45.6963 38.25 45.0261 38.25 44.3281C38.25 42.3229 40.1491 40.6878 42.4971 40.657C42.7996 40.6698 43.1053 40.5924 43.3734 40.4154C43.9945 40.0065 44.2111 39.1961 43.8783 38.5306C43.8195 38.4137 43.7462 38.3068 43.6631 38.2123C43.4494 37.9497 43.207 37.5322 43.207 36.9844C43.207 35.7695 44.4019 34.7812 45.8691 34.7812C47.3364 34.7812 48.5312 35.7695 48.5312 36.9844C48.5312 37.7955 49.1881 38.4531 50 38.4531C50.8119 38.4531 51.4688 37.7955 51.4688 36.9844C51.4688 35.7695 52.6636 34.7812 54.1309 34.7812C55.5981 34.7812 56.793 35.7695 56.793 36.9844C56.793 37.3046 56.7078 37.5748 56.5965 37.801C55.8353 37.8812 55.09 38.0323 54.3892 38.3277C53.642 38.6426 53.2918 39.5038 53.606 40.2518C53.9216 40.9998 54.785 41.3504 55.5308 41.0343C56.126 40.7833 56.7671 40.6562 57.4355 40.6562C59.8151 40.6562 61.75 42.3036 61.75 44.3281C61.75 45.5918 60.9784 46.7536 59.686 47.4356C59.2041 47.6895 58.9028 48.19 58.9028 48.7344C58.9028 49.2787 59.2041 49.7792 59.686 50.0331Z" fill="#CCF4EF"/>
<path d="M10.3438 39.1875C11.9661 39.1875 13.2812 37.8723 13.2812 36.25C13.2812 34.6277 11.9661 33.3125 10.3438 33.3125C8.72141 33.3125 7.40625 34.6277 7.40625 36.25C7.40625 37.8723 8.72141 39.1875 10.3438 39.1875Z" fill="#4BD7C8"/>
<path d="M89.6562 62.6875C91.2786 62.6875 92.5938 61.3723 92.5938 59.75C92.5938 58.1277 91.2786 56.8125 89.6562 56.8125C88.0339 56.8125 86.7188 58.1277 86.7188 59.75C86.7188 61.3723 88.0339 62.6875 89.6562 62.6875Z" fill="#4BD7C8"/>
<path d="M7.40625 75.9062C9.02859 75.9062 10.3438 74.5911 10.3438 72.9688C10.3438 71.3464 9.02859 70.0312 7.40625 70.0312C5.78391 70.0312 4.46875 71.3464 4.46875 72.9688C4.46875 74.5911 5.78391 75.9062 7.40625 75.9062Z" fill="#99E9DF"/>
<path d="M92.5938 25.9688C94.2161 25.9688 95.5312 24.6536 95.5312 23.0312C95.5312 21.4089 94.2161 20.0938 92.5938 20.0938C90.9714 20.0938 89.6562 21.4089 89.6562 23.0312C89.6562 24.6536 90.9714 25.9688 92.5938 25.9688Z" fill="#99E9DF"/>
<path d="M61.75 11.2812C63.3723 11.2812 64.6875 9.96609 64.6875 8.34375C64.6875 6.72141 63.3723 5.40625 61.75 5.40625C60.1277 5.40625 58.8125 6.72141 58.8125 8.34375C58.8125 9.96609 60.1277 11.2812 61.75 11.2812Z" fill="#4BD7C8"/>
<path d="M38.25 90.5938C39.8723 90.5938 41.1875 89.2786 41.1875 87.6562C41.1875 86.0339 39.8723 84.7188 38.25 84.7188C36.6277 84.7188 35.3125 86.0339 35.3125 87.6562C35.3125 89.2786 36.6277 90.5938 38.25 90.5938Z" fill="#4BD7C8"/>
<path d="M25.0312 8.34375C26.6536 8.34375 27.9688 7.02859 27.9688 5.40625C27.9688 3.78391 26.6536 2.46875 25.0312 2.46875C23.4089 2.46875 22.0938 3.78391 22.0938 5.40625C22.0938 7.02859 23.4089 8.34375 25.0312 8.34375Z" fill="#99E9DF"/>
<path d="M74.9688 93.5312C76.5911 93.5312 77.9062 92.2161 77.9062 90.5938C77.9062 88.9714 76.5911 87.6562 74.9688 87.6562C73.3464 87.6562 72.0312 88.9714 72.0312 90.5938C72.0312 92.2161 73.3464 93.5312 74.9688 93.5312Z" fill="#99E9DF"/>
</g>
<g opacity="0.15">
<path d="M31.4445 74.0071L29.3676 71.9301L41.2955 60.0022C42.3884 58.9086 43.9016 58.2811 45.4493 58.2811H53.9061V61.2186H45.4493C44.6762 61.2186 43.9188 61.532 43.3723 62.0792L31.4445 74.0071Z" fill="#DBD9DC"/>
<path d="M100.551 37.7188H92.0937V34.7813H100.551C101.324 34.7813 102.081 34.4679 102.628 33.9206L114.555 21.9927L116.632 24.0697L104.705 35.9976C103.611 37.0912 102.098 37.7188 100.551 37.7188Z" fill="#DBD9DC"/>
<path d="M62.7186 28.9063H59.7811V20.4501C59.7811 19.6662 59.4756 18.9283 58.9205 18.3726L46.9926 6.44466L49.0695 4.36767L60.9975 16.2956C62.1076 17.4065 62.7186 18.8817 62.7186 20.4501V28.9063Z" fill="#DBD9DC"/>
<path d="M96.9303 91.6322L85.0024 79.7043C83.8922 78.5933 83.2812 77.1182 83.2812 75.5497V67.0937H86.2187V75.5499C86.2187 76.3338 86.5242 77.0717 87.0794 77.6274L99.0073 89.5553L96.9303 91.6322Z" fill="#DBD9DC"/>
<path d="M86.2188 8.34375H83.2812V28.9062H86.2188V8.34375Z" fill="#C9C6CA"/>
<path d="M62.7188 67.0938H59.7812V87.6562H62.7188V67.0938Z" fill="#C9C6CA"/>
<path d="M53.9062 34.7812H33.3438V37.7188H53.9062V34.7812Z" fill="#C9C6CA"/>
<path d="M112.656 58.2812H92.0938V61.2188H112.656V58.2812Z" fill="#C9C6CA"/>
<path d="M77.4062 77.375V18.625C77.4062 17.8139 78.0639 17.1562 78.875 17.1562C79.6861 17.1562 80.3438 17.8139 80.3438 18.625V77.375C80.3438 78.1861 79.6861 78.8438 78.875 78.8438C78.0639 78.8438 77.4062 78.1861 77.4062 77.375Z" fill="#DBD9DC"/>
<path d="M65.6562 77.375V18.625C65.6562 17.8139 66.3139 17.1562 67.125 17.1562C67.9361 17.1562 68.5938 17.8139 68.5938 18.625V77.375C68.5938 78.1861 67.9361 78.8438 67.125 78.8438C66.3139 78.8438 65.6562 78.1861 65.6562 77.375Z" fill="#DBD9DC"/>
<path d="M71.5312 93.5312V2.46875C71.5312 1.6569 72.1889 1 73 1C73.8111 1 74.4688 1.6569 74.4688 2.46875V93.5312C74.4688 94.3431 73.8111 95 73 95C72.1889 95 71.5312 94.3431 71.5312 93.5312Z" fill="#C9C6CA"/>
<path d="M102.375 43.5938H43.625C42.8139 43.5938 42.1562 42.9361 42.1562 42.125C42.1562 41.3139 42.8139 40.6562 43.625 40.6562H102.375C103.186 40.6562 103.844 41.3139 103.844 42.125C103.844 42.9361 103.186 43.5938 102.375 43.5938Z" fill="#DBD9DC"/>
<path d="M102.375 55.3438H43.625C42.8139 55.3438 42.1562 54.6861 42.1562 53.875C42.1562 53.0639 42.8139 52.4062 43.625 52.4062H102.375C103.186 52.4062 103.844 53.0639 103.844 53.875C103.844 54.6861 103.186 55.3438 102.375 55.3438Z" fill="#DBD9DC"/>
<path d="M118.531 49.4688H27.4688C26.6569 49.4688 26 48.8111 26 48C26 47.1889 26.6569 46.5312 27.4688 46.5312H118.531C119.343 46.5312 120 47.1889 120 48C120 48.8111 119.343 49.4688 118.531 49.4688Z" fill="#C9C6CA"/>
<path d="M89.1562 70.0312H56.8438C53.5991 70.0312 50.9688 67.4009 50.9688 64.1562V31.8438C50.9688 28.5991 53.5991 25.9688 56.8438 25.9688H89.1562C92.4009 25.9688 95.0312 28.5991 95.0312 31.8438V64.1562C95.0312 67.4009 92.4009 70.0312 89.1562 70.0312Z" fill="#4BD7C8"/>
<path d="M89.1562 67.0938H56.8438C55.2213 67.0938 53.9062 65.7787 53.9062 64.1562V31.8438C53.9062 30.2213 55.2213 28.9062 56.8438 28.9062H89.1562C90.7787 28.9062 92.0938 30.2213 92.0938 31.8438V64.1562C92.0938 65.7787 90.7787 67.0938 89.1562 67.0938Z" fill="#99E9DF"/>
<path d="M87.6875 44.3281C87.6875 41.3737 85.5356 38.8958 82.5961 38.0518C82.6758 37.7035 82.7305 37.349 82.7305 36.9844C82.7305 34.1501 80.2189 31.8438 77.1309 31.8438C75.4972 31.8438 74.0241 32.4893 73 33.5176C71.9759 32.4891 70.5028 31.8438 68.8691 31.8438C65.7811 31.8438 63.2695 34.1502 63.2695 36.9844C63.2695 37.338 63.3083 37.6857 63.3828 38.0243C60.4468 38.8699 58.3125 41.3763 58.3125 44.3281C58.3125 45.7673 58.8295 47.1176 59.7589 48.2451C58.8528 49.4397 58.3125 50.8709 58.3125 52.4062C58.3125 54.759 59.5635 56.9541 61.6223 58.3271C61.6501 61.5448 64.5172 64.1562 68.043 64.1562C70.0487 64.1562 71.8206 63.2941 73 61.9731C74.1794 63.2939 75.9513 64.1562 77.957 64.1562C81.3394 64.1562 84.0903 61.7464 84.3354 58.7098C86.3967 57.5072 87.6875 55.4086 87.6875 53.1406C87.6875 51.4991 87.0005 49.9314 85.8158 48.7344C87.0005 47.5373 87.6875 45.9696 87.6875 44.3281ZM82.686 50.0331C83.9784 50.7152 84.75 51.8769 84.75 53.1406C84.75 54.0448 84.3408 54.9062 83.6523 55.5699C82.9086 54.2635 81.6423 53.2249 80.0498 52.7246C79.271 52.4786 78.4491 52.9119 78.2082 53.6855C77.9658 54.4594 78.396 55.2841 79.1691 55.5272C80.5303 55.9546 81.4453 57.0611 81.4453 58.2811C81.4453 59.9011 79.8805 61.2186 77.957 61.2186C76.0335 61.2186 74.4688 59.9011 74.4688 58.2811V49.4686C74.4688 47.8485 76.0335 46.5311 77.957 46.5311C78.7689 46.5311 79.4258 45.8734 79.4258 45.0623C79.4258 44.2512 78.7689 43.5936 77.957 43.5936C76.6699 43.5936 75.4752 43.9494 74.4688 44.5477V42.9512C74.4688 42.1401 73.8119 41.4824 73 41.4824C72.1881 41.4824 71.5312 42.1401 71.5312 42.9512V50.4277C71.0985 50.171 70.639 49.9454 70.1356 49.7873C69.3568 49.5427 68.5348 49.9751 68.2939 50.7482C68.0516 51.5221 68.4818 52.3468 69.2549 52.5898C70.616 53.0173 71.5311 54.1238 71.5311 55.3438V58.2812C71.5311 59.9013 69.9663 61.2188 68.0428 61.2188C66.1193 61.2188 64.5545 59.9013 64.5545 58.2812C64.5545 57.5898 64.8486 56.9171 65.3821 56.3873C65.9573 55.8158 65.9601 54.8855 65.3878 54.3098C64.8156 53.7346 63.886 53.7311 63.3108 54.3033C63.0061 54.6066 62.7496 54.94 62.5234 55.2885C61.722 54.4946 61.25 53.4746 61.25 52.4062C61.25 50.4146 62.8177 48.6641 65.0625 48.1485C65.8529 47.9671 66.3477 47.179 66.1655 46.3886C65.9834 45.5975 65.193 45.1071 64.4056 45.2856C63.5056 45.4921 62.674 45.8318 61.9326 46.277C61.492 45.6963 61.25 45.0261 61.25 44.3281C61.25 42.3229 63.1491 40.6878 65.4971 40.657C65.7996 40.6698 66.1053 40.5924 66.3734 40.4154C66.9945 40.0065 67.2111 39.1961 66.8783 38.5306C66.8195 38.4137 66.7462 38.3068 66.6631 38.2123C66.4494 37.9497 66.207 37.5322 66.207 36.9844C66.207 35.7695 67.4019 34.7812 68.8691 34.7812C70.3364 34.7812 71.5312 35.7695 71.5312 36.9844C71.5312 37.7955 72.1881 38.4531 73 38.4531C73.8119 38.4531 74.4688 37.7955 74.4688 36.9844C74.4688 35.7695 75.6636 34.7812 77.1309 34.7812C78.5981 34.7812 79.793 35.7695 79.793 36.9844C79.793 37.3046 79.7078 37.5748 79.5965 37.801C78.8353 37.8812 78.09 38.0323 77.3892 38.3277C76.642 38.6426 76.2918 39.5038 76.606 40.2518C76.9216 40.9998 77.785 41.3504 78.5308 41.0343C79.126 40.7833 79.7671 40.6562 80.4355 40.6562C82.8151 40.6562 84.75 42.3036 84.75 44.3281C84.75 45.5918 83.9784 46.7536 82.686 47.4356C82.2041 47.6895 81.9028 48.19 81.9028 48.7344C81.9028 49.2787 82.2041 49.7792 82.686 50.0331Z" fill="#CCF4EF"/>
<path d="M33.3438 39.1875C34.9661 39.1875 36.2812 37.8723 36.2812 36.25C36.2812 34.6277 34.9661 33.3125 33.3438 33.3125C31.7214 33.3125 30.4062 34.6277 30.4062 36.25C30.4062 37.8723 31.7214 39.1875 33.3438 39.1875Z" fill="#4BD7C8"/>
<path d="M112.656 62.6875C114.279 62.6875 115.594 61.3723 115.594 59.75C115.594 58.1277 114.279 56.8125 112.656 56.8125C111.034 56.8125 109.719 58.1277 109.719 59.75C109.719 61.3723 111.034 62.6875 112.656 62.6875Z" fill="#4BD7C8"/>
<path d="M30.4062 75.9062C32.0286 75.9062 33.3438 74.5911 33.3438 72.9688C33.3438 71.3464 32.0286 70.0312 30.4062 70.0312C28.7839 70.0312 27.4688 71.3464 27.4688 72.9688C27.4688 74.5911 28.7839 75.9062 30.4062 75.9062Z" fill="#99E9DF"/>
<path d="M115.594 25.9688C117.216 25.9688 118.531 24.6536 118.531 23.0312C118.531 21.4089 117.216 20.0938 115.594 20.0938C113.971 20.0938 112.656 21.4089 112.656 23.0312C112.656 24.6536 113.971 25.9688 115.594 25.9688Z" fill="#99E9DF"/>
<path d="M84.75 11.2812C86.3723 11.2812 87.6875 9.96609 87.6875 8.34375C87.6875 6.72141 86.3723 5.40625 84.75 5.40625C83.1277 5.40625 81.8125 6.72141 81.8125 8.34375C81.8125 9.96609 83.1277 11.2812 84.75 11.2812Z" fill="#4BD7C8"/>
<path d="M61.25 90.5938C62.8723 90.5938 64.1875 89.2786 64.1875 87.6562C64.1875 86.0339 62.8723 84.7188 61.25 84.7188C59.6277 84.7188 58.3125 86.0339 58.3125 87.6562C58.3125 89.2786 59.6277 90.5938 61.25 90.5938Z" fill="#4BD7C8"/>
<path d="M48.0312 8.34375C49.6536 8.34375 50.9688 7.02859 50.9688 5.40625C50.9688 3.78391 49.6536 2.46875 48.0312 2.46875C46.4089 2.46875 45.0938 3.78391 45.0938 5.40625C45.0938 7.02859 46.4089 8.34375 48.0312 8.34375Z" fill="#99E9DF"/>
<path d="M97.9688 93.5312C99.5911 93.5312 100.906 92.2161 100.906 90.5938C100.906 88.9714 99.5911 87.6562 97.9688 87.6562C96.3464 87.6562 95.0312 88.9714 95.0312 90.5938C95.0312 92.2161 96.3464 93.5312 97.9688 93.5312Z" fill="#99E9DF"/>
</g>
<path d="M29.9387 66.8137L28.4362 65.3112L37.0649 56.6825C37.8555 55.8913 38.9501 55.4374 40.0697 55.4374H46.1875V57.5624H40.0697C39.5105 57.5624 38.9626 57.7891 38.5672 58.185L29.9387 66.8137Z" fill="#DBD9DC"/>
<path d="M79.9302 40.5625H73.8125V38.4375H79.9302C80.4895 38.4375 81.0374 38.2108 81.4328 37.8149L90.0614 29.1862L91.564 30.6887L82.9353 39.3174C82.1444 40.1085 81.0497 40.5625 79.9302 40.5625Z" fill="#DBD9DC"/>
<path d="M52.5625 34.1875H50.4375V28.0703C50.4375 27.5032 50.2165 26.9694 49.8149 26.5674L41.1862 17.9387L42.6887 16.4362L51.3174 25.0649C52.1205 25.8685 52.5625 26.9357 52.5625 28.0703V34.1875Z" fill="#DBD9DC"/>
<path d="M77.3113 79.5637L68.6826 70.935C67.8795 70.1313 67.4375 69.0642 67.4375 67.9296V61.8125H69.5625V67.9297C69.5625 68.4968 69.7835 69.0306 70.1851 69.4326L78.8138 78.0613L77.3113 79.5637Z" fill="#DBD9DC"/>
<path d="M69.5625 19.3125H67.4375V34.1875H69.5625V19.3125Z" fill="#C9C6CA"/>
<path d="M52.5625 61.8125H50.4375V76.6875H52.5625V61.8125Z" fill="#C9C6CA"/>
<path d="M46.1875 38.4375H31.3125V40.5625H46.1875V38.4375Z" fill="#C9C6CA"/>
<path d="M88.6875 55.4375H73.8125V57.5625H88.6875V55.4375Z" fill="#C9C6CA"/>
<path d="M63.1875 69.25V26.75C63.1875 26.1632 63.6632 25.6875 64.25 25.6875C64.8368 25.6875 65.3125 26.1632 65.3125 26.75V69.25C65.3125 69.8368 64.8368 70.3125 64.25 70.3125C63.6632 70.3125 63.1875 69.8368 63.1875 69.25Z" fill="#DBD9DC"/>
<path d="M54.6875 69.25V26.75C54.6875 26.1632 55.1632 25.6875 55.75 25.6875C56.3368 25.6875 56.8125 26.1632 56.8125 26.75V69.25C56.8125 69.8368 56.3368 70.3125 55.75 70.3125C55.1632 70.3125 54.6875 69.8368 54.6875 69.25Z" fill="#DBD9DC"/>
<path d="M58.9375 80.9375V15.0625C58.9375 14.4752 59.4132 14 60 14C60.5868 14 61.0625 14.4752 61.0625 15.0625V80.9375C61.0625 81.5248 60.5868 82 60 82C59.4132 82 58.9375 81.5248 58.9375 80.9375Z" fill="#C9C6CA"/>
<path d="M81.25 44.8125H38.75C38.1632 44.8125 37.6875 44.3368 37.6875 43.75C37.6875 43.1632 38.1632 42.6875 38.75 42.6875H81.25C81.8368 42.6875 82.3125 43.1632 82.3125 43.75C82.3125 44.3368 81.8368 44.8125 81.25 44.8125Z" fill="#DBD9DC"/>
<path d="M81.25 53.3125H38.75C38.1632 53.3125 37.6875 52.8368 37.6875 52.25C37.6875 51.6632 38.1632 51.1875 38.75 51.1875H81.25C81.8368 51.1875 82.3125 51.6632 82.3125 52.25C82.3125 52.8368 81.8368 53.3125 81.25 53.3125Z" fill="#DBD9DC"/>
<path d="M92.9375 49.0625H27.0625C26.4752 49.0625 26 48.5868 26 48C26 47.4132 26.4752 46.9375 27.0625 46.9375H92.9375C93.5248 46.9375 94 47.4132 94 48C94 48.5868 93.5248 49.0625 92.9375 49.0625Z" fill="#C9C6CA"/>
<path d="M71.6875 63.9375H48.3125C45.9653 63.9375 44.0625 62.0347 44.0625 59.6875V36.3125C44.0625 33.9653 45.9653 32.0625 48.3125 32.0625H71.6875C74.0347 32.0625 75.9375 33.9653 75.9375 36.3125V59.6875C75.9375 62.0347 74.0347 63.9375 71.6875 63.9375Z" fill="#4BD7C8"/>
<path d="M71.6875 61.8125H48.3125C47.1388 61.8125 46.1875 60.8612 46.1875 59.6875V36.3125C46.1875 35.1388 47.1388 34.1875 48.3125 34.1875H71.6875C72.8612 34.1875 73.8125 35.1388 73.8125 36.3125V59.6875C73.8125 60.8612 72.8612 61.8125 71.6875 61.8125Z" fill="#99E9DF"/>
<path d="M70.625 45.3438C70.625 43.2065 69.0683 41.414 66.9418 40.8034C66.9995 40.5515 67.0391 40.295 67.0391 40.0312C67.0391 37.9809 65.2222 36.3125 62.9883 36.3125C61.8065 36.3125 60.7408 36.7795 60 37.5234C59.2592 36.7793 58.1935 36.3125 57.0117 36.3125C54.7778 36.3125 52.9609 37.981 52.9609 40.0312C52.9609 40.287 52.989 40.5386 53.0429 40.7835C50.9189 41.3952 49.375 43.2084 49.375 45.3438C49.375 46.3849 49.749 47.3617 50.4213 48.1773C49.7659 49.0415 49.375 50.0768 49.375 51.1875C49.375 52.8895 50.28 54.4774 51.7693 55.4707C51.7894 57.7984 53.8635 59.6875 56.4141 59.6875C57.865 59.6875 59.1468 59.0638 60 58.1082C60.8532 59.0637 62.135 59.6875 63.5859 59.6875C66.0327 59.6875 68.0228 57.9442 68.2001 55.7475C69.6912 54.8776 70.625 53.3594 70.625 51.7188C70.625 50.5313 70.128 49.3972 69.271 48.5312C70.128 47.6653 70.625 46.5312 70.625 45.3438ZM67.0069 49.4708C67.9418 49.9642 68.5 50.8046 68.5 51.7188C68.5 52.3729 68.204 52.996 67.7059 53.4761C67.1679 52.531 66.2519 51.7797 65.0999 51.4178C64.5365 51.2398 63.9419 51.5533 63.7676 52.1129C63.5923 52.6727 63.9035 53.2693 64.4628 53.4452C65.4474 53.7544 66.1094 54.5548 66.1094 55.4374C66.1094 56.6093 64.9774 57.5624 63.5859 57.5624C62.1945 57.5624 61.0625 56.6093 61.0625 55.4374V49.0624C61.0625 47.8904 62.1945 46.9374 63.5859 46.9374C64.1732 46.9374 64.6484 46.4616 64.6484 45.8749C64.6484 45.2881 64.1732 44.8124 63.5859 44.8124C62.6548 44.8124 61.7906 45.0698 61.0625 45.5026V44.3477C61.0625 43.7609 60.5873 43.2852 60 43.2852C59.4127 43.2852 58.9375 43.7609 58.9375 44.3477V49.7562C58.6245 49.5705 58.292 49.4073 57.9279 49.2929C57.3645 49.116 56.7699 49.4288 56.5956 49.9881C56.4203 50.5479 56.7315 51.1445 57.2908 51.3203C58.2754 51.6295 58.9374 52.43 58.9374 53.3125V55.4375C58.9374 56.6094 57.8054 57.5625 56.4139 57.5625C55.0225 57.5625 53.8905 56.6094 53.8905 55.4375C53.8905 54.9373 54.1033 54.4507 54.4892 54.0674C54.9053 53.654 54.9073 52.981 54.4933 52.5645C54.0794 52.1484 53.4069 52.1459 52.9908 52.5599C52.7704 52.7793 52.5848 53.0204 52.4212 53.2725C51.8415 52.6982 51.5 51.9603 51.5 51.1875C51.5 49.7467 52.6341 48.4804 54.258 48.1074C54.8297 47.9762 55.1877 47.4061 55.0559 46.8343C54.9242 46.262 54.3524 45.9073 53.7828 46.0364C53.1317 46.1858 52.5301 46.4315 51.9938 46.7536C51.675 46.3335 51.5 45.8487 51.5 45.3438C51.5 43.8932 52.8738 42.7103 54.5724 42.688C54.7912 42.6973 55.0124 42.6413 55.2063 42.5133C55.6556 42.2175 55.8123 41.6312 55.5715 41.1498C55.529 41.0652 55.476 40.9879 55.4158 40.9195C55.2612 40.7296 55.0859 40.4276 55.0859 40.0312C55.0859 39.1524 55.9503 38.4375 57.0117 38.4375C58.0732 38.4375 58.9375 39.1524 58.9375 40.0312C58.9375 40.618 59.4127 41.0938 60 41.0938C60.5873 41.0938 61.0625 40.618 61.0625 40.0312C61.0625 39.1524 61.9268 38.4375 62.9883 38.4375C64.0497 38.4375 64.9141 39.1524 64.9141 40.0312C64.9141 40.2629 64.8524 40.4584 64.772 40.622C64.2213 40.68 63.6821 40.7893 63.1751 41.003C62.6346 41.2308 62.3813 41.8538 62.6086 42.3949C62.8369 42.936 63.4615 43.1897 64.001 42.961C64.4316 42.7794 64.8953 42.6875 65.3789 42.6875C67.1003 42.6875 68.5 43.8792 68.5 45.3438C68.5 46.2579 67.9418 47.0983 67.0069 47.5917C66.6583 47.7754 66.4403 48.1375 66.4403 48.5312C66.4403 48.925 66.6583 49.2871 67.0069 49.4708Z" fill="#CCF4EF"/>
<path d="M31.3125 41.625C32.4861 41.625 33.4375 40.6736 33.4375 39.5C33.4375 38.3264 32.4861 37.375 31.3125 37.375C30.1389 37.375 29.1875 38.3264 29.1875 39.5C29.1875 40.6736 30.1389 41.625 31.3125 41.625Z" fill="#4BD7C8"/>
<path d="M88.6875 58.625C89.8611 58.625 90.8125 57.6736 90.8125 56.5C90.8125 55.3264 89.8611 54.375 88.6875 54.375C87.5139 54.375 86.5625 55.3264 86.5625 56.5C86.5625 57.6736 87.5139 58.625 88.6875 58.625Z" fill="#4BD7C8"/>
<path d="M29.1875 68.1875C30.3611 68.1875 31.3125 67.2361 31.3125 66.0625C31.3125 64.8889 30.3611 63.9375 29.1875 63.9375C28.0139 63.9375 27.0625 64.8889 27.0625 66.0625C27.0625 67.2361 28.0139 68.1875 29.1875 68.1875Z" fill="#99E9DF"/>
<path d="M90.8125 32.0625C91.9861 32.0625 92.9375 31.1111 92.9375 29.9375C92.9375 28.7639 91.9861 27.8125 90.8125 27.8125C89.6389 27.8125 88.6875 28.7639 88.6875 29.9375C88.6875 31.1111 89.6389 32.0625 90.8125 32.0625Z" fill="#99E9DF"/>
<path d="M68.5 21.4375C69.6736 21.4375 70.625 20.4861 70.625 19.3125C70.625 18.1389 69.6736 17.1875 68.5 17.1875C67.3264 17.1875 66.375 18.1389 66.375 19.3125C66.375 20.4861 67.3264 21.4375 68.5 21.4375Z" fill="#4BD7C8"/>
<path d="M51.5 78.8125C52.6736 78.8125 53.625 77.8611 53.625 76.6875C53.625 75.5139 52.6736 74.5625 51.5 74.5625C50.3264 74.5625 49.375 75.5139 49.375 76.6875C49.375 77.8611 50.3264 78.8125 51.5 78.8125Z" fill="#4BD7C8"/>
<path d="M41.9375 19.3125C43.1111 19.3125 44.0625 18.3611 44.0625 17.1875C44.0625 16.0139 43.1111 15.0625 41.9375 15.0625C40.7639 15.0625 39.8125 16.0139 39.8125 17.1875C39.8125 18.3611 40.7639 19.3125 41.9375 19.3125Z" fill="#99E9DF"/>
<path d="M78.0625 80.9375C79.2361 80.9375 80.1875 79.9861 80.1875 78.8125C80.1875 77.6389 79.2361 76.6875 78.0625 76.6875C76.8889 76.6875 75.9375 77.6389 75.9375 78.8125C75.9375 79.9861 76.8889 80.9375 78.0625 80.9375Z" fill="#99E9DF"/>
</svg>
