<svg width="107" height="100" viewBox="0 0 107 100" fill="none" xmlns="http://www.w3.org/2000/svg">
<path d="M53.2639 3.99888C39.3542 8.18577 31.2719 8.75671 28.9695 8.51882C9.67684 5.902 0.625977 3.99887 0.625977 37.5416C0.625977 71.0844 28.4931 104.865 61.8384 99.3935C95.1837 93.9219 113.524 60.855 103.758 27.3123C93.9928 -6.23047 70.6511 -1.23474 53.2639 3.99888Z" fill="#5D00EF" fill-opacity="0.5"/>
<path d="M59.0718 66.455C58.5491 66.4564 58.0655 66.1779 57.8041 65.7257L53.598 58.3646C52.4058 56.2751 51.7791 53.9107 51.7791 51.5049V50.411C51.7791 47.9946 53.7383 46.0354 56.1547 46.0354C58.5711 46.0354 60.5303 47.9946 60.5303 50.411C60.5318 52.1032 60.9263 53.7711 61.6812 55.2852L64.76 61.427C65.1203 62.1484 64.8276 63.0244 64.1069 63.3848C63.3855 63.7444 62.5095 63.4524 62.1491 62.731L59.0718 56.5892C58.1153 54.6699 57.6161 52.5554 57.6133 50.411C57.6133 49.6056 56.9602 48.9525 56.1547 48.9525C55.3492 48.9525 54.6962 49.6056 54.6962 50.411V51.5049C54.6976 53.4015 55.1919 55.2645 56.1312 56.9118L60.338 64.2672C60.7369 64.9665 60.494 65.8567 59.7954 66.2563C59.576 66.3852 59.326 66.4535 59.0718 66.455Z" fill="white"/>
<path d="M54.6962 69.3719C54.1656 69.3719 53.677 69.0842 53.42 68.6206L50.1788 62.7864C49.9075 62.3299 49.9054 61.7616 50.1746 61.3029C50.4438 60.8443 50.9409 60.5687 51.4721 60.5829C52.0034 60.5972 52.4849 60.8991 52.7284 61.372L55.9695 67.2062C56.3598 67.9098 56.1056 68.7972 55.4019 69.1882C55.1869 69.3092 54.9433 69.3726 54.6962 69.3719Z" fill="white"/>
<path d="M48.4433 57.7036C47.8323 57.7043 47.2853 57.3233 47.0738 56.75C46.3267 54.7196 45.9443 52.5738 45.945 50.4109C45.9443 46.6492 48.0124 43.1915 51.3276 41.4132C54.6421 39.6349 58.6666 39.8229 61.8009 41.9032C62.4718 42.349 62.6541 43.2542 62.2083 43.9251C61.7625 44.5967 60.8573 44.779 60.1864 44.3332C57.9473 42.8483 55.073 42.7137 52.7057 43.9842C50.3391 45.2547 48.8621 47.7238 48.8621 50.4109C48.8614 52.2298 49.1826 54.0337 49.8114 55.7401C49.9766 56.1881 49.9125 56.6873 49.6398 57.079C49.367 57.47 48.9205 57.7036 48.4433 57.7036Z" fill="white"/>
<path d="M67.8231 60.6207C67.2262 60.6207 66.6893 60.2575 66.4678 59.7034L64.092 53.7653C63.6646 52.6984 63.446 51.5596 63.4474 50.4109C63.4489 49.1311 63.1127 47.8734 62.4732 46.7646C62.1107 46.0716 62.3592 45.217 63.0358 44.826C63.7124 44.4343 64.5769 44.6465 64.9964 45.306C65.8938 46.8578 66.3652 48.6183 66.3645 50.4109C66.3638 51.1893 66.5126 51.9606 66.8018 52.6835L69.1783 58.6209C69.4774 59.3694 69.1128 60.2183 68.3643 60.5174C68.192 60.5858 68.0082 60.6214 67.8231 60.6207Z" fill="white"/>
<path d="M50.3206 72.289C49.8078 72.2897 49.3328 72.0205 49.0693 71.5818L43.3199 61.9973C42.6768 60.9276 42.1241 59.8052 41.6683 58.643C41.3742 57.893 41.7431 57.0463 42.493 56.7521C43.243 56.4573 44.0898 56.8269 44.3846 57.5768C44.7799 58.5874 45.2606 59.5638 45.8211 60.4939L51.569 70.0777C51.8404 70.5285 51.8482 71.0897 51.5897 71.5476C51.3312 72.0056 50.8462 72.2883 50.3206 72.289Z" fill="white"/>
<path d="M41.7723 54.7865C41.0452 54.7865 40.4298 54.2516 40.328 53.5323C40.1834 52.4982 40.1108 51.4549 40.1108 50.4108C40.1329 44.269 43.6382 38.6727 49.154 35.9714C49.879 35.6196 50.7514 35.9223 51.1033 36.6473C51.4544 37.3723 51.1517 38.2447 50.4274 38.5965C45.8866 40.7758 43.0065 45.3743 43.0279 50.4108C43.0279 51.3181 43.0913 52.2247 43.2173 53.1235C43.3298 53.9219 42.7743 54.6597 41.976 54.7715C41.9083 54.7815 41.8407 54.7865 41.7723 54.7865Z" fill="white"/>
<path d="M60.5303 37.952C60.3822 37.952 60.2347 37.9292 60.093 37.885C58.3959 37.3559 56.6105 37.1736 54.8421 37.3495C54.0402 37.43 53.3252 36.846 53.2447 36.0441C53.1642 35.2429 53.7489 34.5278 54.5501 34.4474C56.7116 34.2344 58.8937 34.4573 60.9676 35.1018C61.6548 35.3176 62.0814 36.0027 61.9725 36.7149C61.8628 37.4264 61.2503 37.952 60.5303 37.952Z" fill="white"/>
<path d="M72.1987 57.7036C71.5713 57.7029 71.0143 57.3012 70.8156 56.7058L69.8186 53.7147C69.4632 52.6493 69.2816 51.534 69.2816 50.4109C69.293 46.8813 67.8715 43.4985 65.3433 41.0351C64.953 40.6747 64.7892 40.1299 64.9167 39.6143C65.0442 39.098 65.443 38.692 65.9565 38.5546C66.4699 38.4171 67.0176 38.5702 67.3858 38.9541C70.4752 41.963 72.2122 46.0972 72.1987 50.4109C72.1987 51.2206 72.3297 52.0247 72.5868 52.7924L73.5817 55.7843C73.7292 56.2287 73.6551 56.7172 73.3809 57.0975C73.1074 57.4778 72.6673 57.7029 72.1987 57.7036Z" fill="white"/>
<path d="M45.9449 76.6646C45.4457 76.6653 44.9807 76.4103 44.7122 75.9894L41.0003 70.1553C40.568 69.4744 40.7688 68.5721 41.4497 68.1391C42.1305 67.7068 43.0328 67.9076 43.4651 68.5885L47.1777 74.4226C47.4633 74.872 47.4818 75.4417 47.2254 75.9089C46.9683 76.3754 46.4777 76.6653 45.9449 76.6646V76.6646Z" fill="white"/>
<path d="M40.1108 67.4846C39.6016 67.4846 39.1287 67.2197 38.8638 66.7846C37.772 64.9906 36.8626 63.0919 36.1497 61.1164C35.8755 60.3586 36.2679 59.5225 37.0249 59.249C37.7827 58.9748 38.6188 59.3672 38.893 60.125C39.5411 61.9168 40.3658 63.6403 41.355 65.2691C41.6285 65.7192 41.6377 66.2811 41.3799 66.7404C41.1221 67.1991 40.6371 67.4832 40.1108 67.4846Z" fill="white"/>
<path d="M36.0549 56.245C35.3313 56.245 34.7174 55.7144 34.612 54.9994C34.3891 53.4803 34.2766 51.9463 34.2766 50.4109C34.2673 45.9391 35.6368 41.5734 38.1985 37.9079C38.6593 37.247 39.5688 37.0853 40.2297 37.5461C40.8906 38.0069 41.0529 38.9156 40.5922 39.5765C38.3723 42.7528 37.1858 46.5359 37.1936 50.4109C37.1936 51.8039 37.2955 53.1955 37.4985 54.5735C37.616 55.3705 37.0647 56.1118 36.2678 56.2286C36.1973 56.24 36.1261 56.245 36.0549 56.245Z" fill="white"/>
<path d="M45.6331 34.3671C44.9786 34.3664 44.4046 33.9299 44.2294 33.2989C44.0535 32.6686 44.3198 31.9984 44.8803 31.6602C50.1604 28.5195 56.5094 27.7154 62.4063 29.4403C62.9155 29.5806 63.3093 29.9858 63.4347 30.4986C63.5607 31.0121 63.399 31.5533 63.0123 31.913C62.6256 32.2733 62.0751 32.3965 61.5716 32.2349C56.461 30.7429 50.9602 31.4387 46.3823 34.157C46.1565 34.2945 45.8973 34.3671 45.6331 34.3671Z" fill="white"/>
<path d="M74.6107 43.1182C74.0503 43.1168 73.5396 42.7935 73.2982 42.2871C72.3375 40.2667 71.0271 38.4321 69.4275 36.8682C68.8514 36.3041 68.8414 35.3804 69.4054 34.8043C69.9695 34.2288 70.8932 34.2189 71.4693 34.7829C73.3139 36.5861 74.8251 38.702 75.9325 41.0323C76.1476 41.4838 76.1163 42.0136 75.8499 42.4367C75.5836 42.8597 75.1192 43.1168 74.62 43.1182H74.6107Z" fill="white"/>
<path d="M78.0328 54.7866C77.4773 54.7895 76.9681 54.4768 76.7203 53.9797L75.2618 51.0626C75.1635 50.8597 75.1136 50.6367 75.1158 50.411C75.115 49.0443 74.9683 47.6812 74.6785 46.3459C74.5474 45.8295 74.7091 45.2833 75.0987 44.9208C75.4889 44.5576 76.0452 44.4365 76.5508 44.6039C77.0564 44.7713 77.4303 45.2007 77.5265 45.7249C77.8391 47.1499 78.0086 48.6021 78.0328 50.0606L79.3454 52.6757C79.5719 53.1294 79.5469 53.6678 79.2791 54.0986C79.0114 54.5288 78.5399 54.7895 78.0328 54.7866V54.7866Z" fill="white"/>
<path d="M85.3255 31.4499H82.4084V25.6157H76.5743V22.6986H83.867C84.6724 22.6986 85.3255 23.3517 85.3255 24.1572V31.4499Z" fill="#FFF500"/>
<path d="M76.5743 82.4599L76.5743 79.5428L82.4085 79.5428L82.4085 73.7086L85.3256 73.7086L85.3256 81.0013C85.3256 81.8068 84.6725 82.4599 83.867 82.4599L76.5743 82.4599Z" fill="#FFF500"/>
<path d="M28.4425 31.4499H25.5254V24.1572C25.5254 23.3517 26.1785 22.6986 26.9839 22.6986H34.2766V25.6157H28.4425V31.4499Z" fill="#FFF500"/>
<path d="M34.2767 82.4599H26.984C26.1785 82.4599 25.5255 81.8068 25.5255 81.0013V73.7086H28.4425V79.5428H34.2767V82.4599Z" fill="#FFF500"/>
</svg>
