<svg width="16" height="16" viewBox="0 0 16 16" fill="none" xmlns="http://www.w3.org/2000/svg">
<path d="M2.70001 11.1C4.38399 10.4105 6.18072 10.0376 8 10C9.81816 10.0474 11.6131 10.4199 13.3 11.1C15.2 11.8 16 12.8 16 14V16H0V14C0 12.8 0.900012 11.9 2.70001 11.1ZM10.8 6.8C10.1551 7.41424 9.31792 7.78703 8.42993 7.85542C7.54194 7.92381 6.6576 7.68361 5.92624 7.17537C5.19488 6.66712 4.66135 5.92197 4.41583 5.06587C4.17031 4.20976 4.22784 3.29518 4.57867 2.47658C4.92951 1.65797 5.55214 0.985515 6.3414 0.572889C7.13066 0.160262 8.03816 0.0327159 8.91058 0.211805C9.78301 0.390893 10.5669 0.865669 11.1298 1.55586C11.6926 2.24605 12 3.1094 12 4.00001C12.0147 4.52579 11.915 5.04848 11.7078 5.53193C11.5006 6.01539 11.1909 6.44805 10.8 6.8Z" fill="#7B7B7B"/>
</svg>
