<svg width="121" height="97" viewBox="0 0 121 97" fill="none" xmlns="http://www.w3.org/2000/svg">
<rect width="120.847" height="96" rx="16" fill="#FFA900"/>
<rect width="120.847" height="96" rx="16" stroke="#6F6571"/>
<path d="M31.3345 14.5267H25.2989C24.8824 14.5267 24.5444 14.1887 24.5444 13.7722C24.5444 13.3558 24.8824 13.0178 25.2989 13.0178H31.3345C31.7509 13.0178 32.0889 13.3558 32.0889 13.7722C32.0889 14.1887 31.7524 14.5267 31.3345 14.5267Z" fill="#263238"/>
<path d="M28.3167 17.5445C27.9002 17.5445 27.5622 17.2065 27.5622 16.79V10.7544C27.5622 10.338 27.9002 10 28.3167 10C28.7331 10 29.0711 10.338 29.0711 10.7544V16.79C29.0711 17.2065 28.7346 17.5445 28.3167 17.5445Z" fill="#263238"/>
<path d="M23.79 22.0711H17.7544C17.338 22.0711 17 21.7332 17 21.3167C17 20.9002 17.338 20.5623 17.7544 20.5623H23.79C24.2065 20.5623 24.5445 20.9002 24.5445 21.3167C24.5445 21.7332 24.208 22.0711 23.79 22.0711Z" fill="#263238"/>
<path d="M20.7722 25.0889C20.3558 25.0889 20.0178 24.7509 20.0178 24.3344V18.2989C20.0178 17.8824 20.3558 17.5444 20.7722 17.5444C21.1887 17.5444 21.5267 17.8824 21.5267 18.2989V24.3344C21.5267 24.7509 21.1902 25.0889 20.7722 25.0889Z" fill="#263238"/>
<path d="M45.6689 96.0068C45.4486 96.0068 45.2374 95.9102 45.094 95.7412L41.3218 91.3081C41.189 91.1511 41.1257 90.9489 41.1453 90.7437L43.4086 68.0168C43.4463 67.6306 43.7722 67.3378 44.16 67.3378H47.1778C47.5656 67.3378 47.89 67.6306 47.9292 68.0168L50.1926 90.7437C50.2137 90.9489 50.1488 91.1527 50.016 91.3081L46.2438 95.7412C46.1005 95.9102 45.8907 96.0068 45.6689 96.0068ZM42.6798 90.5747L45.6689 94.0874L48.658 90.5747L46.4943 68.8467H44.842L42.6798 90.5747Z" fill="#263238"/>
<path d="M18.5089 96.0068C18.0924 96.0068 17.7545 95.6688 17.7545 95.2523V75.5537C17.7545 70.7177 20.6259 66.3631 25.0711 64.4574L35.5926 59.9488C35.9713 59.7843 36.4179 59.9624 36.5824 60.3456C36.7469 60.7289 36.5688 61.1725 36.1856 61.337L25.6641 65.8455C21.7772 67.5129 19.2633 71.3243 19.2633 75.5537V95.2523C19.2633 95.6688 18.9269 96.0068 18.5089 96.0068Z" fill="#263238"/>
<path d="M72.8289 96.0068C72.4125 96.0068 72.0745 95.6688 72.0745 95.2523V75.5538C72.0745 71.3228 69.5607 67.5114 65.6723 65.8456L55.1508 61.337C54.7675 61.1725 54.5895 60.7289 54.7539 60.3457C54.9184 59.9624 55.3635 59.7859 55.7438 59.9488L66.2653 64.4574C70.712 66.3631 73.5834 70.7178 73.5834 75.5538V95.2523C73.5834 95.6688 73.2469 96.0068 72.8289 96.0068Z" fill="#263238"/>
<path d="M35.8898 68.8467C35.7676 68.8467 35.6454 68.8165 35.5352 68.7577C35.2893 68.6264 35.1353 68.3699 35.1353 68.0923V60.6429C35.1353 60.3411 35.3149 60.068 35.5925 59.9488L39.3376 58.3448C39.6711 58.2045 40.0604 58.3177 40.2626 58.621L43.2803 63.1476C43.5112 63.4932 43.4176 63.9609 43.0721 64.1918L36.3093 68.7185C36.1825 68.8045 36.0362 68.8467 35.8898 68.8467ZM36.6442 61.1423V66.6799L41.607 63.3589L39.3542 59.9805L36.6442 61.1423Z" fill="#263238"/>
<path d="M55.448 68.8468C55.3017 68.8468 55.1553 68.8045 55.0286 68.7185L48.2672 64.1918C47.9217 63.961 47.8281 63.4932 48.059 63.1477L51.0768 58.621C51.279 58.3192 51.6713 58.2045 52.0017 58.3449L55.7453 59.9488C56.0229 60.068 56.2025 60.3411 56.2025 60.6429V68.0923C56.2025 68.3715 56.0486 68.6265 55.8026 68.7577C55.6925 68.8166 55.5703 68.8468 55.448 68.8468ZM49.7324 63.3574L54.6936 66.6785V61.1409L51.9836 59.9775L49.7324 63.3574Z" fill="#263238"/>
<path d="M47.1778 68.8467H44.16C42.9122 68.8467 41.8967 67.8312 41.8967 66.5834V65.0745C41.8967 63.8266 42.9122 62.8112 44.16 62.8112H47.1778C48.4257 62.8112 49.4412 63.8266 49.4412 65.0745V66.5834C49.4412 67.8312 48.4272 68.8467 47.1778 68.8467ZM44.16 64.32C43.7436 64.32 43.4056 64.6595 43.4056 65.0745V66.5834C43.4056 66.9983 43.7436 67.3378 44.16 67.3378H47.1778C47.5943 67.3378 47.9323 66.9983 47.9323 66.5834V65.0745C47.9323 64.6595 47.5943 64.32 47.1778 64.32H44.16Z" fill="#263238"/>
<path d="M43.0193 64.8708C43.0057 64.8708 42.9906 64.8708 42.9771 64.8693C42.7402 64.8557 42.5244 64.732 42.3916 64.5343L39.0057 59.4569C38.9242 59.3332 38.8789 59.1883 38.8789 59.0389V56.3938C38.8789 55.9774 39.2169 55.6394 39.6334 55.6394C40.0498 55.6394 40.3878 55.9774 40.3878 56.3938V58.8111L43.2034 63.0345C43.5021 62.8896 43.8281 62.8112 44.16 62.8112H47.1778C47.5113 62.8112 47.8372 62.8896 48.1344 63.033L50.95 58.8111V56.3938C50.95 55.9774 51.288 55.6394 51.7045 55.6394C52.1209 55.6394 52.4589 55.9774 52.4589 56.3938V59.0389C52.4589 59.1883 52.4152 59.3332 52.3322 59.4569L48.9462 64.5343C48.815 64.732 48.5977 64.8557 48.3608 64.8693C48.1254 64.8859 47.893 64.7833 47.7406 64.6007C47.6531 64.4966 47.4615 64.32 47.1778 64.32H44.16C43.8764 64.32 43.6847 64.4966 43.5957 64.6037C43.4524 64.7742 43.2411 64.8708 43.0193 64.8708Z" fill="#263238"/>
<path d="M60.0049 50.7371H31.336C30.5031 50.7371 29.8271 50.0611 29.8271 49.2282V37.157H61.5138V49.2282C61.5138 50.0611 60.8378 50.7371 60.0049 50.7371Z" fill="#4DB6AC"/>
<path d="M60.0049 51.4915H31.336C30.0881 51.4915 29.0726 50.476 29.0726 49.2282V37.157C29.0726 36.7406 29.4106 36.4026 29.8271 36.4026H61.5138C61.9302 36.4026 62.2682 36.7406 62.2682 37.157V49.2282C62.2682 50.476 61.2527 51.4915 60.0049 51.4915ZM30.5815 37.9115V49.2282C30.5815 49.6431 30.9195 49.9826 31.336 49.9826H60.0049C60.4213 49.9826 60.7593 49.6431 60.7593 49.2282V37.9115H30.5815Z" fill="#263238"/>
<path d="M60.0049 50.7371H31.336C30.5031 50.7371 29.8271 50.0611 29.8271 49.2282V37.157H61.5138V49.2282C61.5138 50.0611 60.8378 50.7371 60.0049 50.7371Z" fill="#FFD700"/>
<path d="M60.0049 51.4915H31.336C30.0881 51.4915 29.0726 50.476 29.0726 49.2282V37.157C29.0726 36.7406 29.4106 36.4026 29.8271 36.4026H61.5138C61.9302 36.4026 62.2682 36.7406 62.2682 37.157V49.2282C62.2682 50.476 61.2527 51.4915 60.0049 51.4915ZM30.5815 37.9115V49.2282C30.5815 49.6431 30.9195 49.9826 31.336 49.9826H60.0049C60.4213 49.9826 60.7593 49.6431 60.7593 49.2282V37.9115H30.5815Z" fill="#263238"/>
<path d="M45.6689 58.2845C41.6673 58.2845 37.7593 56.8828 34.6676 54.3373C34.3462 54.0732 34.2994 53.5979 34.565 53.2765C34.8306 52.9551 35.3059 52.9068 35.6273 53.1739C38.4504 55.4976 42.0159 56.7771 45.6689 56.7771C49.3219 56.7771 52.889 55.4976 55.7106 53.1739C56.0335 52.9068 56.5073 52.9551 56.7729 53.2765C57.0369 53.5979 56.9916 54.0732 56.6702 54.3373C53.5785 56.8828 49.672 58.2845 45.6689 58.2845Z" fill="#263238"/>
<path d="M62.2667 37.157H29.0711C28.2382 37.157 27.5622 36.4811 27.5622 35.6482V34.1393C27.5622 33.3064 28.2382 32.6304 29.0711 32.6304H62.2667C63.0996 32.6304 63.7756 33.3064 63.7756 34.1393V35.6482C63.7756 36.4811 63.1011 37.157 62.2667 37.157Z" fill="#FFD700"/>
<path d="M62.2667 37.9115H29.0711C27.8233 37.9115 26.8078 36.896 26.8078 35.6481V34.1393C26.8078 32.8914 27.8233 31.8759 29.0711 31.8759H62.2667C63.5146 31.8759 64.53 32.8914 64.53 34.1393V35.6481C64.53 36.896 63.5161 37.9115 62.2667 37.9115ZM29.0711 33.3848C28.6547 33.3848 28.3167 33.7243 28.3167 34.1393V35.6481C28.3167 36.0631 28.6547 36.4026 29.0711 36.4026H62.2667C62.6832 36.4026 63.0212 36.0631 63.0212 35.6481V34.1393C63.0212 33.7243 62.6832 33.3848 62.2667 33.3848H29.0711Z" fill="#263238"/>
<path d="M61.9634 32.6304C60.5632 25.7453 54.4763 20.5623 47.1778 20.5623H44.16C36.8615 20.5623 30.7747 25.7438 29.3744 32.6289H61.9634V32.6304Z" fill="#FFD700"/>
<path d="M61.9634 33.3848H29.3759C29.1496 33.3848 28.9353 33.2837 28.792 33.1072C28.6486 32.9321 28.5913 32.7013 28.6366 32.4795C30.1289 25.1372 36.6578 19.8078 44.16 19.8078H47.1778C54.6815 19.8078 61.209 25.1372 62.7028 32.4795C62.7481 32.7013 62.6907 32.9321 62.5474 33.1072C62.404 33.2837 62.1898 33.3848 61.9634 33.3848ZM30.3295 31.8759H61.0098C59.3289 25.7045 53.654 21.3167 47.1778 21.3167H44.16C37.6839 21.3167 32.0104 25.7045 30.3295 31.8759Z" fill="#263238"/>
<path d="M56.9856 46.2133H48.6882L45.6689 43.1956L42.6527 46.2133H34.3522V37.16H56.9856V46.2133Z" fill="#FFD740"/>
<path d="M56.9856 46.9678H48.6867C48.486 46.9678 48.2944 46.8878 48.1526 46.7475L45.6689 44.2624L43.1853 46.746C43.045 46.8878 42.8533 46.9678 42.6526 46.9678H34.3522C33.9358 46.9678 33.5978 46.6298 33.5978 46.2134V37.16C33.5978 36.7436 33.9358 36.4056 34.3522 36.4056H56.9856C57.4021 36.4056 57.74 36.7436 57.74 37.16V46.2134C57.74 46.6298 57.4036 46.9678 56.9856 46.9678ZM49.0005 45.4589H56.2312V37.9145H35.1067V45.4589H42.3388L45.1348 42.6614C45.4169 42.3778 45.9179 42.3778 46.2016 42.6614L49.0005 45.4589Z" fill="#263238"/>
<path d="M29.8256 46.577C29.4996 46.577 29.2039 46.3643 29.1043 46.0444C29.044 45.8482 28.9866 45.6521 28.9308 45.4559C26.5 45.382 24.5444 43.3812 24.5444 40.9323C24.5444 38.4365 26.5754 36.4056 29.0711 36.4056H29.8256C30.242 36.4056 30.58 36.7436 30.58 37.16V45.8226C30.58 46.1953 30.3069 46.5136 29.9372 46.568C29.901 46.574 29.8633 46.577 29.8256 46.577ZM29.0711 37.9145C27.4068 37.9145 26.0533 39.2679 26.0533 40.9323C26.0533 42.5966 27.4068 43.95 29.0711 43.95V37.9145Z" fill="#263238"/>
<path d="M61.5138 46.568C61.4761 46.568 61.4383 46.5649 61.4006 46.5589C61.0309 46.5031 60.7593 46.1862 60.7593 45.8135V37.16C60.7593 36.7436 61.0973 36.4056 61.5138 36.4056H62.2682C64.7639 36.4056 66.7949 38.4365 66.7949 40.9323C66.7949 43.3812 64.8394 45.3835 62.407 45.4574C62.3527 45.6521 62.2954 45.8452 62.235 46.0368C62.1354 46.3567 61.8397 46.568 61.5138 46.568ZM62.2682 37.9145V43.95C63.9325 43.95 65.286 42.5966 65.286 40.9323C65.286 39.2679 63.9325 37.9145 62.2682 37.9145Z" fill="#263238"/>
<path d="M27.5622 95.2523H32.0889V62.2725L27.5622 64.213V95.2523Z" fill="#FFD740"/>
<path d="M59.2489 95.2523H63.7756V64.213L59.2489 62.2725V95.2523Z" fill="#FFD740"/>
<path d="M32.0889 96.0068C31.6724 96.0068 31.3345 95.6688 31.3345 95.2523V63.4162L28.3167 64.7094V95.2523C28.3167 95.6688 27.9787 96.0068 27.5622 96.0068C27.1458 96.0068 26.8078 95.6688 26.8078 95.2523V64.2129C26.8078 63.9112 26.9873 63.638 27.265 63.5188L31.7917 61.5784C32.024 61.4818 32.2926 61.5045 32.5038 61.6433C32.7166 61.7806 32.8433 62.019 32.8433 62.2725V95.2523C32.8433 95.6688 32.5069 96.0068 32.0889 96.0068Z" fill="#263238"/>
<path d="M63.7756 96.0068C63.3592 96.0068 63.0212 95.6688 63.0212 95.2523V64.7109L60.0034 63.4177V95.2523C60.0034 95.6688 59.6654 96.0068 59.2489 96.0068C58.8325 96.0068 58.4945 95.6688 58.4945 95.2523V62.2725C58.4945 62.019 58.6212 61.7821 58.834 61.6433C59.0452 61.503 59.3138 61.4803 59.5462 61.5784L64.0729 63.5188C64.3505 63.638 64.5301 63.9111 64.5301 64.2129V95.2523C64.5301 95.6688 64.1936 96.0068 63.7756 96.0068Z" fill="#263238"/>
<path d="M83.3912 26.5978C82.9747 26.5978 82.6367 26.2598 82.6367 25.8433V23.58H79.6189V25.8433C79.6189 26.2598 79.2809 26.5978 78.8645 26.5978C78.448 26.5978 78.11 26.2598 78.11 25.8433V22.8256C78.11 22.4091 78.448 22.0711 78.8645 22.0711H83.3912C83.8076 22.0711 84.1456 22.4091 84.1456 22.8256V25.8433C84.1456 26.2598 83.8091 26.5978 83.3912 26.5978Z" fill="#263238"/>
<path d="M77.3556 52.2489V80.6206C77.3556 81.3041 77.5412 81.9756 77.8928 82.5626L79.0803 84.5407C79.4333 85.1277 79.6189 85.7976 79.6189 86.4827V90.7257H84.9V85.437L86.4919 84.3762C86.9114 84.0971 87.1634 83.6263 87.1634 83.1208V52.2489C87.1634 51.416 86.4874 50.7401 85.6545 50.7401H78.8645C78.0316 50.7401 77.3556 51.416 77.3556 52.2489Z" fill="#FFD700"/>
<path d="M84.9001 91.4801H79.619C79.2025 91.4801 78.8645 91.1421 78.8645 90.7256V86.4826C78.8645 85.9364 78.7152 85.3993 78.4345 84.9315L77.247 82.9518C76.8245 82.2487 76.6012 81.4429 76.6012 80.6221V52.2489C76.6012 51.0011 77.6167 49.9856 78.8645 49.9856H85.6545C86.9024 49.9856 87.9179 51.0011 87.9179 52.2489V83.1223C87.9179 83.8813 87.5407 84.5845 86.9099 85.0054L85.6545 85.8429V90.7256C85.6545 91.1421 85.3181 91.4801 84.9001 91.4801ZM80.3734 89.9712H84.1456V85.4385C84.1456 85.1865 84.2709 84.9511 84.4821 84.8108L86.074 83.75C86.2853 83.6097 86.4105 83.3758 86.4105 83.1223V52.2489C86.4105 51.834 86.0725 51.4945 85.656 51.4945H78.866C78.4496 51.4945 78.1116 51.834 78.1116 52.2489V80.6206C78.1116 81.1683 78.261 81.7055 78.5416 82.1732L79.7291 84.1529C80.1516 84.8561 80.3749 85.6603 80.3749 86.4811V89.9712H80.3734Z" fill="#263238"/>
<path d="M95.4623 70.7706C95.0458 70.7706 94.7079 70.4326 94.7079 70.0161V66.4461L89.7934 63.4962C89.4358 63.2804 89.3211 62.8187 89.5354 62.4611C89.7496 62.105 90.2129 61.9858 90.5705 62.2016L95.8516 65.3718C96.0779 65.5091 96.2167 65.7535 96.2167 66.0191V70.0161C96.2167 70.4341 95.8803 70.7706 95.4623 70.7706Z" fill="#263238"/>
<path d="M99.2345 83.2189C99.1214 83.2189 99.0067 83.1933 98.898 83.139L89.8447 78.6123C89.472 78.4252 89.3211 77.9725 89.5067 77.5998C89.6938 77.2271 90.145 77.0732 90.5192 77.2618L98.898 81.4505L101.241 76.7654L89.8447 71.0678C89.472 70.8807 89.3211 70.4281 89.5067 70.0554C89.6938 69.6842 90.145 69.5288 90.5192 69.7174L102.59 75.7529C102.963 75.94 103.114 76.3927 102.928 76.7654L99.9105 82.801C99.7777 83.0665 99.5122 83.2189 99.2345 83.2189Z" fill="#263238"/>
<path d="M90.1827 63.5656C89.9051 63.5656 89.6395 63.4117 89.5067 63.1492C89.3196 62.7765 89.472 62.3238 89.8447 62.1367L101.241 56.4392L98.8981 51.7541L90.5192 55.9427C90.145 56.1313 89.6938 55.9774 89.5067 55.6047C89.3196 55.232 89.472 54.7794 89.8447 54.5923L98.8981 50.0656C99.2723 49.8785 99.7234 50.0324 99.9105 50.4036L102.928 56.4392C103.115 56.8119 102.963 57.2645 102.59 57.4516L90.5192 63.4872C90.4105 63.54 90.2959 63.5656 90.1827 63.5656Z" fill="#263238"/>
<path d="M84.9001 34.1423H77.3556C76.9392 34.1423 76.6012 33.8043 76.6012 33.3878V28.8611C76.6012 28.4447 76.9392 28.1067 77.3556 28.1067H84.9001C85.3165 28.1067 85.6545 28.4447 85.6545 28.8611V33.3878C85.6545 33.8043 85.3181 34.1423 84.9001 34.1423ZM78.1101 32.6334H84.1456V29.6156H78.1101V32.6334Z" fill="#263238"/>
<path d="M78.8645 48.4767C78.448 48.4767 78.11 48.1387 78.11 47.7222V36.4056C78.11 35.9891 78.448 35.6511 78.8645 35.6511C79.2809 35.6511 79.6189 35.9891 79.6189 36.4056V47.7222C79.6189 48.1387 79.2825 48.4767 78.8645 48.4767Z" fill="#263238"/>
<path d="M83.3912 48.4767C82.9747 48.4767 82.6367 48.1387 82.6367 47.7222V36.4056C82.6367 35.9891 82.9747 35.6511 83.3912 35.6511C83.8076 35.6511 84.1456 35.9891 84.1456 36.4056V47.7222C84.1456 48.1387 83.8092 48.4767 83.3912 48.4767Z" fill="#263238"/>
<path d="M79.6189 96.0068C79.2025 96.0068 78.8645 95.6688 78.8645 95.2523V90.7256C78.8645 90.3092 79.2025 89.9712 79.6189 89.9712H84.9001C85.3165 89.9712 85.6545 90.3092 85.6545 90.7256V95.2463C85.6545 95.6627 85.3165 96.0007 84.9001 96.0007C84.4836 96.0007 84.1456 95.6627 84.1456 95.2463V91.4801H80.3734V95.2523C80.3734 95.6688 80.0369 96.0068 79.6189 96.0068Z" fill="#263238"/>
</svg>
