<svg width="98" height="34" viewBox="0 0 98 34" fill="none" xmlns="http://www.w3.org/2000/svg">
<rect width="98" height="34" rx="17" fill="#5D00EF"/>
<path d="M26.127 15.495C26.127 17.175 25.462 18.26 24.132 18.75L26.787 22.5H23.907L21.582 19.155H19.962V22.5H17.622V12.015H21.597C23.227 12.015 24.387 12.29 25.077 12.84C25.777 13.39 26.127 14.275 26.127 15.495ZM21.672 17.13C22.472 17.13 23.017 17 23.307 16.74C23.597 16.48 23.742 16.07 23.742 15.51C23.742 14.94 23.592 14.55 23.292 14.34C22.992 14.13 22.467 14.025 21.717 14.025H19.962V17.13H21.672ZM35.2855 21.33C34.3755 22.19 33.3055 22.62 32.0755 22.62C30.8555 22.62 29.8455 22.245 29.0455 21.495C28.2455 20.735 27.8455 19.72 27.8455 18.45C27.8455 17.18 28.2505 16.17 29.0605 15.42C29.8805 14.67 30.8455 14.295 31.9555 14.295C33.0655 14.295 34.0055 14.63 34.7755 15.3C35.5555 15.97 35.9455 16.89 35.9455 18.06V19.26H30.0655C30.1355 19.7 30.3655 20.06 30.7555 20.34C31.1455 20.62 31.5855 20.76 32.0755 20.76C32.8655 20.76 33.5155 20.495 34.0255 19.965L35.2855 21.33ZM33.6655 17.655C33.6155 17.175 33.4355 16.805 33.1255 16.545C32.8155 16.285 32.4355 16.155 31.9855 16.155C31.5455 16.155 31.1405 16.29 30.7705 16.56C30.4005 16.83 30.1855 17.195 30.1255 17.655H33.6655ZM43.2229 18.3C43.2229 17.65 43.0429 17.14 42.6829 16.77C42.3229 16.4 41.8779 16.215 41.3479 16.215C40.8179 16.215 40.3579 16.4 39.9679 16.77C39.5879 17.14 39.3979 17.645 39.3979 18.285C39.3979 18.925 39.5829 19.445 39.9529 19.845C40.3329 20.235 40.7929 20.43 41.3329 20.43C41.8729 20.43 42.3229 20.235 42.6829 19.845C43.0429 19.455 43.2229 18.94 43.2229 18.3ZM43.5379 21.135C42.8279 21.925 41.9429 22.32 40.8829 22.32C39.8329 22.32 38.9429 21.965 38.2129 21.255C37.4929 20.535 37.1329 19.58 37.1329 18.39C37.1329 17.19 37.5029 16.21 38.2429 15.45C38.9929 14.68 39.8479 14.295 40.8079 14.295C41.7679 14.295 42.5629 14.69 43.1929 15.48V14.415H45.4429V21.45C45.4429 22.17 45.3179 22.81 45.0679 23.37C44.8179 23.93 44.4829 24.37 44.0629 24.69C43.2329 25.35 42.2529 25.68 41.1229 25.68C40.5229 25.68 39.9079 25.58 39.2779 25.38C38.6579 25.19 38.1129 24.915 37.6429 24.555L38.5129 22.86C39.2529 23.42 40.0329 23.7 40.8529 23.7C41.6829 23.7 42.3379 23.495 42.8179 23.085C43.2979 22.675 43.5379 22.025 43.5379 21.135ZM49.8228 22.5H47.5728V14.43H49.8228V22.5ZM47.7528 13.41C47.5028 13.15 47.3778 12.835 47.3778 12.465C47.3778 12.095 47.5028 11.785 47.7528 11.535C48.0128 11.275 48.3278 11.145 48.6978 11.145C49.0678 11.145 49.3778 11.275 49.6278 11.535C49.8878 11.785 50.0178 12.095 50.0178 12.465C50.0178 12.835 49.8878 13.15 49.6278 13.41C49.3778 13.66 49.0678 13.785 48.6978 13.785C48.3278 13.785 48.0128 13.66 47.7528 13.41ZM58.0277 19.995C58.0277 20.785 57.7327 21.42 57.1427 21.9C56.5627 22.38 55.8227 22.62 54.9227 22.62C54.3227 22.62 53.6977 22.515 53.0477 22.305C52.3977 22.085 51.8127 21.765 51.2927 21.345L52.2827 19.935C53.1227 20.585 54.0177 20.91 54.9677 20.91C55.2577 20.91 55.4877 20.855 55.6577 20.745C55.8277 20.625 55.9127 20.47 55.9127 20.28C55.9127 20.09 55.7927 19.915 55.5527 19.755C55.3227 19.595 54.9827 19.445 54.5327 19.305C54.0927 19.165 53.7527 19.045 53.5127 18.945C53.2827 18.845 53.0177 18.7 52.7177 18.51C52.1077 18.13 51.8027 17.57 51.8027 16.83C51.8027 16.08 52.1027 15.47 52.7027 15C53.3027 14.53 54.0777 14.295 55.0277 14.295C55.9777 14.295 56.9277 14.615 57.8777 15.255L57.0377 16.755C56.3377 16.275 55.6377 16.035 54.9377 16.035C54.2477 16.035 53.9027 16.225 53.9027 16.605C53.9027 16.815 54.0127 16.98 54.2327 17.1C54.4527 17.22 54.8177 17.36 55.3277 17.52C55.8377 17.68 56.1977 17.805 56.4077 17.895C56.6277 17.975 56.8877 18.105 57.1877 18.285C57.7477 18.625 58.0277 19.195 58.0277 19.995ZM62.3721 16.05V19.665C62.3721 19.975 62.4521 20.22 62.6121 20.4C62.7721 20.57 62.9621 20.655 63.1821 20.655C63.6021 20.655 63.9571 20.465 64.2471 20.085L65.0871 21.66C64.3871 22.3 63.6471 22.62 62.8671 22.62C62.0971 22.62 61.4421 22.365 60.9021 21.855C60.3721 21.345 60.1071 20.65 60.1071 19.77V16.05H59.1621V14.43H60.1071V12.015H62.3721V14.43H64.3221V16.05H62.3721ZM73.2835 21.33C72.3735 22.19 71.3035 22.62 70.0735 22.62C68.8535 22.62 67.8435 22.245 67.0435 21.495C66.2435 20.735 65.8435 19.72 65.8435 18.45C65.8435 17.18 66.2485 16.17 67.0585 15.42C67.8785 14.67 68.8435 14.295 69.9535 14.295C71.0635 14.295 72.0035 14.63 72.7735 15.3C73.5535 15.97 73.9435 16.89 73.9435 18.06V19.26H68.0635C68.1335 19.7 68.3635 20.06 68.7535 20.34C69.1435 20.62 69.5835 20.76 70.0735 20.76C70.8635 20.76 71.5135 20.495 72.0235 19.965L73.2835 21.33ZM71.6635 17.655C71.6135 17.175 71.4335 16.805 71.1235 16.545C70.8135 16.285 70.4335 16.155 69.9835 16.155C69.5435 16.155 69.1385 16.29 68.7685 16.56C68.3985 16.83 68.1835 17.195 68.1235 17.655H71.6635ZM79.811 16.41C79.141 16.41 78.641 16.65 78.311 17.13C77.981 17.6 77.816 18.225 77.816 19.005V22.5H75.566V14.43H77.816V15.495C78.106 15.165 78.466 14.885 78.896 14.655C79.336 14.425 79.781 14.305 80.231 14.295L80.246 16.41H79.811Z" fill="white"/>
</svg>
