<svg width="121" height="96" viewBox="0 0 121 96" fill="none" xmlns="http://www.w3.org/2000/svg">
<rect width="120.847" height="96" rx="16" fill="#0038FF"/>
<rect width="120.847" height="96" rx="16" stroke="#2E3453"/>
<g opacity="0.15">
<path d="M58.226 58.8712H15.1221V75.0345H58.226V58.8712Z" fill="#C9C6CA"/>
<path d="M58.226 60.2185H15.1221V62.9126H58.226V60.2185Z" fill="#B7B2B8"/>
<path d="M46.103 37.3201H27.2449V45.4021H46.103V37.3201Z" fill="#867E88"/>
<path d="M46.1039 45.4014H31.2869V42.7073C31.2869 41.9634 31.89 41.3603 32.634 41.3603H46.1039V45.4014Z" fill="#9C969E"/>
<path d="M59.5738 60.2182H13.7759L15.9071 47.4309C16.2319 45.4824 17.9177 44.0542 19.8932 44.0542H53.4565C55.432 44.0542 57.1177 45.4823 57.4425 47.4309L59.5738 60.2182Z" fill="#DBD9DC"/>
<path d="M50.1451 73.6888H23.2046V79.0767H50.1451V73.6888Z" fill="#9C969E"/>
<path d="M43.4099 75.0352V73.6881H29.9399V75.0352C29.9399 75.7791 29.3368 76.3822 28.5929 76.3822H23.205V79.0762H50.1448V76.3822H44.7569C44.0129 76.3822 43.4099 75.7791 43.4099 75.0352Z" fill="#867E88"/>
<path d="M21.8579 89.8521H8.38796C6.90007 89.8521 5.69391 88.6459 5.69391 87.1581V65.6063H24.552V87.1582C24.552 88.6459 23.3458 89.8521 21.8579 89.8521Z" fill="#867E88"/>
<path d="M9.7358 84.4642V65.6063H5.69489V87.1582C5.69489 88.6461 6.90105 89.8523 8.38894 89.8523H21.8589C23.3468 89.8523 24.5529 88.6461 24.5529 87.1582H12.4299C10.942 87.1581 9.7358 85.9519 9.7358 84.4642Z" fill="#6F6571"/>
<path d="M24.5519 81.7696H5.69385V84.4637H24.5519V81.7696Z" fill="#6F6571"/>
<path d="M24.5519 76.3818H5.69385V79.0759H24.5519V76.3818Z" fill="#6F6571"/>
<path d="M24.5519 70.9941H5.69385V73.6881H24.5519V70.9941Z" fill="#6F6571"/>
<path d="M9.73476 81.7696H5.69385V84.4637H9.73476V81.7696Z" fill="#5D5360"/>
<path d="M9.73476 76.3818H5.69385V79.0759H9.73476V76.3818Z" fill="#5D5360"/>
<path d="M9.73482 70.9941H5.69391V73.6881H9.73482V70.9941Z" fill="#5D5360"/>
<path d="M64.9617 89.8521H51.4918C50.0039 89.8521 48.7977 88.6459 48.7977 87.1581V65.6063H67.6556V87.1582C67.6556 88.6459 66.4496 89.8521 64.9617 89.8521Z" fill="#867E88"/>
<path d="M52.8389 84.4642V65.6063H48.7979V87.1582C48.7979 88.6461 50.004 89.8523 51.4919 89.8523H64.9618C66.4497 89.8523 67.6559 88.6461 67.6559 87.1582H55.533C54.0451 87.1581 52.8389 85.9519 52.8389 84.4642Z" fill="#6F6571"/>
<path d="M67.6558 81.7696H48.7977V84.4637H67.6558V81.7696Z" fill="#6F6571"/>
<path d="M67.6558 76.3818H48.7977V79.0759H67.6558V76.3818Z" fill="#6F6571"/>
<path d="M67.6558 70.9941H48.7977V73.6881H67.6558V70.9941Z" fill="#6F6571"/>
<path d="M52.8386 81.7696H48.7977V84.4637H52.8386V81.7696Z" fill="#5D5360"/>
<path d="M52.8386 76.3818H48.7977V79.0759H52.8386V76.3818Z" fill="#5D5360"/>
<path d="M52.8388 70.9941H48.7979V73.6881H52.8388V70.9941Z" fill="#5D5360"/>
<path d="M52.8388 38.6663H20.5108C19.0229 38.6663 17.8168 37.4601 17.8168 35.9722V30.5843C17.8168 29.0964 19.0229 27.8902 20.5108 27.8902H52.8386C54.3265 27.8902 55.5327 29.0964 55.5327 30.5843V35.9722C55.5327 37.4603 54.3265 38.6663 52.8388 38.6663Z" fill="#EDEBED"/>
<path d="M38.5795 21.9446C38.2348 21.9446 37.8902 21.813 37.6271 21.55C37.1009 21.0252 36.2486 21.0252 35.7224 21.55C35.1962 22.0762 34.3439 22.0762 33.8177 21.55C33.2915 21.0238 33.2915 20.1715 33.8177 19.6453C35.3936 18.0694 37.956 18.0694 39.5319 19.6453C40.0581 20.1715 40.0581 21.0238 39.5319 21.55C39.2688 21.8132 38.9242 21.9446 38.5795 21.9446Z" fill="#4BD7C8"/>
<path d="M48.1044 12.4196C47.7597 12.4196 47.4152 12.288 47.152 12.025C41.3746 6.24896 31.9746 6.24896 26.1973 12.025C25.6712 12.5512 24.8188 12.5512 24.2926 12.025C23.7665 11.4988 23.7665 10.6465 24.2926 10.1203C31.1198 3.29322 42.2297 3.29322 49.0569 10.1203C49.583 10.6465 49.583 11.4988 49.0569 12.025C48.7937 12.2882 48.4491 12.4196 48.1044 12.4196Z" fill="#CCF4EF"/>
<path d="M43.3427 17.1821C42.998 17.1821 42.6535 17.0505 42.3903 16.7875C39.2385 13.6371 34.1111 13.6371 30.9593 16.7875C30.4331 17.3137 29.5808 17.3137 29.0546 16.7875C28.5284 16.2613 28.5284 15.4084 29.0546 14.8828C33.2561 10.6813 40.0937 10.6813 44.2952 14.8828C44.8214 15.4084 44.8214 16.2613 44.2952 16.7875C44.032 17.0507 43.6875 17.1821 43.3427 17.1821Z" fill="#99E9DF"/>
<path d="M25.6066 71.977L4.05485 67.1877C3.43851 67.0508 3 66.504 3 65.8728V58.8713C3 58.1274 3.60308 57.5243 4.34703 57.5243H25.899C26.6429 57.5243 27.246 58.1274 27.246 58.8713V70.6621C27.2458 71.5237 26.4478 72.1639 25.6066 71.977Z" fill="#EDEBED"/>
<path d="M47.7431 71.977L69.295 67.1877C69.9113 67.0508 70.3498 66.504 70.3498 65.8728V58.8713C70.3498 58.1274 69.7468 57.5243 69.0028 57.5243H47.4507C46.7068 57.5243 46.1037 58.1274 46.1037 58.8713V70.6621C46.1039 71.5237 46.9018 72.1639 47.7431 71.977Z" fill="#EDEBED"/>
<path d="M38.6955 81.7701H34.6546C33.5388 81.7701 32.6341 80.8656 32.6341 79.7496V73.0146C32.6341 71.8988 33.5386 70.9941 34.6546 70.9941H38.6955C39.8114 70.9941 40.7161 71.8986 40.7161 73.0146V79.7496C40.7159 80.8656 39.8114 81.7701 38.6955 81.7701Z" fill="#DBD9DC"/>
<path d="M27.2451 34.6255C30.2207 34.6255 32.633 32.2133 32.633 29.2376C32.633 26.2619 30.2207 23.8496 27.2451 23.8496C24.2694 23.8496 21.8571 26.2619 21.8571 29.2376C21.8571 32.2133 24.2694 34.6255 27.2451 34.6255Z" fill="#DBD9DC"/>
<path d="M38.0218 34.6254H35.3277C34.5831 34.6254 33.9807 34.0223 33.9807 33.2783C33.9807 32.5344 34.5831 31.9313 35.3277 31.9313H38.0218C38.7664 31.9313 39.3688 32.5344 39.3688 33.2783C39.3688 34.0223 38.7662 34.6254 38.0218 34.6254Z" fill="#59D8FF"/>
<path d="M50.1448 34.6254H43.4098C42.6652 34.6254 42.0628 34.0223 42.0628 33.2783C42.0628 32.5344 42.6652 31.9313 43.4098 31.9313H50.1448C50.8894 31.9313 51.4918 32.5344 51.4918 33.2783C51.4918 34.0223 50.8894 34.6254 50.1448 34.6254Z" fill="#99E7FF"/>
<path d="M29.9398 49.4423L30.7767 52.7897C31.0765 53.9889 32.1541 54.8303 33.3903 54.8303H39.9595C41.1956 54.8303 42.2732 53.9889 42.573 52.7897L43.4099 49.4423H29.9398Z" fill="#C9C6CA"/>
<path d="M27.245 31.9316C28.7328 31.9316 29.939 30.7255 29.939 29.2376C29.939 27.7497 28.7328 26.5435 27.245 26.5435C25.7571 26.5435 24.5509 27.7497 24.5509 29.2376C24.5509 30.7255 25.7571 31.9316 27.245 31.9316Z" fill="#59D8FF"/>
<path d="M10.2053 65.2941C8.35645 64.8832 7.04092 63.2434 7.04092 61.3493V57.5243H4.34703C3.60308 57.5243 3 58.1274 3 58.8713V65.8728C3 66.5042 3.43851 67.0508 4.05485 67.1877L25.6068 71.977C26.448 72.1639 27.246 71.5237 27.246 70.6621V69.0809L10.2053 65.2941Z" fill="#DBD9DC"/>
<path d="M19.8932 44.0544C17.9179 44.0544 16.232 45.4824 15.9072 47.4311L15.5719 49.4425H57.7778L57.4424 47.4311C57.1178 45.4826 55.4318 44.0544 53.4565 44.0544H19.8932Z" fill="#EDEBED"/>
<path d="M38.6954 79.0762H34.6545C33.5386 79.0762 32.6339 78.1717 32.6339 77.0557V79.7497C32.6339 80.8656 33.5384 81.7703 34.6545 81.7703H38.6954C39.8112 81.7703 40.7159 80.8657 40.7159 79.7497V77.0557C40.7157 78.1715 39.8112 79.0762 38.6954 79.0762Z" fill="#C9C6CA"/>
<path d="M55.0624 67.2074C52.5387 67.7682 50.1448 65.8478 50.1448 63.2626V57.5241H47.4507C46.7068 57.5241 46.1037 58.1272 46.1037 58.8712V70.662C46.1037 71.5237 46.9017 72.1638 47.7429 71.9768L69.2948 67.1875C69.9112 67.0506 70.3497 66.5039 70.3497 65.8726V63.8102L55.0624 67.2074Z" fill="#DBD9DC"/>
</g>
<g opacity="0.15">
<path d="M107.226 58.8712H64.1221V75.0345H107.226V58.8712Z" fill="#C9C6CA"/>
<path d="M107.226 60.2185H64.1221V62.9126H107.226V60.2185Z" fill="#B7B2B8"/>
<path d="M95.103 37.3201H76.2449V45.4021H95.103V37.3201Z" fill="#867E88"/>
<path d="M95.1039 45.4014H80.2869V42.7073C80.2869 41.9634 80.89 41.3603 81.634 41.3603H95.1039V45.4014Z" fill="#9C969E"/>
<path d="M108.574 60.2182H62.7759L64.9071 47.4309C65.2319 45.4824 66.9177 44.0542 68.8932 44.0542H102.456C104.432 44.0542 106.118 45.4823 106.443 47.4309L108.574 60.2182Z" fill="#DBD9DC"/>
<path d="M99.1451 73.6888H72.2046V79.0767H99.1451V73.6888Z" fill="#9C969E"/>
<path d="M92.4099 75.0352V73.6881H78.9399V75.0352C78.9399 75.7791 78.3368 76.3822 77.5929 76.3822H72.205V79.0762H99.1448V76.3822H93.7569C93.0129 76.3822 92.4099 75.7791 92.4099 75.0352Z" fill="#867E88"/>
<path d="M70.8579 89.8521H57.388C55.9001 89.8521 54.6939 88.6459 54.6939 87.1581V65.6063H73.552V87.1582C73.552 88.6459 72.3458 89.8521 70.8579 89.8521Z" fill="#867E88"/>
<path d="M58.7358 84.4642V65.6063H54.6949V87.1582C54.6949 88.6461 55.901 89.8523 57.3889 89.8523H70.8589C72.3468 89.8523 73.5529 88.6461 73.5529 87.1582H61.4299C59.942 87.1581 58.7358 85.9519 58.7358 84.4642Z" fill="#6F6571"/>
<path d="M73.5519 81.7696H54.6938V84.4637H73.5519V81.7696Z" fill="#6F6571"/>
<path d="M73.5519 76.3818H54.6938V79.0759H73.5519V76.3818Z" fill="#6F6571"/>
<path d="M73.5519 70.9941H54.6938V73.6881H73.5519V70.9941Z" fill="#6F6571"/>
<path d="M58.7348 81.7696H54.6938V84.4637H58.7348V81.7696Z" fill="#5D5360"/>
<path d="M58.7348 76.3818H54.6938V79.0759H58.7348V76.3818Z" fill="#5D5360"/>
<path d="M58.7348 70.9941H54.6939V73.6881H58.7348V70.9941Z" fill="#5D5360"/>
<path d="M113.962 89.8521H100.492C99.0039 89.8521 97.7977 88.6459 97.7977 87.1581V65.6063H116.656V87.1582C116.656 88.6459 115.45 89.8521 113.962 89.8521Z" fill="#867E88"/>
<path d="M101.839 84.4642V65.6063H97.7979V87.1582C97.7979 88.6461 99.004 89.8523 100.492 89.8523H113.962C115.45 89.8523 116.656 88.6461 116.656 87.1582H104.533C103.045 87.1581 101.839 85.9519 101.839 84.4642Z" fill="#6F6571"/>
<path d="M116.656 81.7696H97.7977V84.4637H116.656V81.7696Z" fill="#6F6571"/>
<path d="M116.656 76.3818H97.7977V79.0759H116.656V76.3818Z" fill="#6F6571"/>
<path d="M116.656 70.9941H97.7977V73.6881H116.656V70.9941Z" fill="#6F6571"/>
<path d="M101.839 81.7696H97.7977V84.4637H101.839V81.7696Z" fill="#5D5360"/>
<path d="M101.839 76.3818H97.7977V79.0759H101.839V76.3818Z" fill="#5D5360"/>
<path d="M101.839 70.9941H97.7979V73.6881H101.839V70.9941Z" fill="#5D5360"/>
<path d="M101.839 38.6663H69.5108C68.0229 38.6663 66.8168 37.4601 66.8168 35.9722V30.5843C66.8168 29.0964 68.0229 27.8902 69.5108 27.8902H101.839C103.327 27.8902 104.533 29.0964 104.533 30.5843V35.9722C104.533 37.4603 103.327 38.6663 101.839 38.6663Z" fill="#EDEBED"/>
<path d="M87.5795 21.9446C87.2348 21.9446 86.8902 21.813 86.6271 21.55C86.1009 21.0252 85.2486 21.0252 84.7224 21.55C84.1962 22.0762 83.3439 22.0762 82.8177 21.55C82.2915 21.0238 82.2915 20.1715 82.8177 19.6453C84.3936 18.0694 86.956 18.0694 88.5319 19.6453C89.0581 20.1715 89.0581 21.0238 88.5319 21.55C88.2688 21.8132 87.9242 21.9446 87.5795 21.9446Z" fill="#4BD7C8"/>
<path d="M97.1044 12.4196C96.7597 12.4196 96.4152 12.288 96.152 12.025C90.3746 6.24896 80.9746 6.24896 75.1973 12.025C74.6712 12.5512 73.8188 12.5512 73.2926 12.025C72.7665 11.4988 72.7665 10.6465 73.2926 10.1203C80.1198 3.29322 91.2297 3.29322 98.0569 10.1203C98.583 10.6465 98.583 11.4988 98.0569 12.025C97.7937 12.2882 97.4491 12.4196 97.1044 12.4196Z" fill="#CCF4EF"/>
<path d="M92.3427 17.1821C91.998 17.1821 91.6535 17.0505 91.3903 16.7875C88.2385 13.6371 83.1111 13.6371 79.9593 16.7875C79.4331 17.3137 78.5808 17.3137 78.0546 16.7875C77.5284 16.2613 77.5284 15.4084 78.0546 14.8828C82.2561 10.6813 89.0937 10.6813 93.2952 14.8828C93.8214 15.4084 93.8214 16.2613 93.2952 16.7875C93.032 17.0507 92.6875 17.1821 92.3427 17.1821Z" fill="#99E9DF"/>
<path d="M74.6066 71.977L53.0549 67.1877C52.4385 67.0508 52 66.504 52 65.8728V58.8713C52 58.1274 52.6031 57.5243 53.347 57.5243H74.899C75.6429 57.5243 76.246 58.1274 76.246 58.8713V70.6621C76.2458 71.5237 75.4478 72.1639 74.6066 71.977Z" fill="#EDEBED"/>
<path d="M96.7431 71.977L118.295 67.1877C118.911 67.0508 119.35 66.504 119.35 65.8728V58.8713C119.35 58.1274 118.747 57.5243 118.003 57.5243H96.4507C95.7068 57.5243 95.1037 58.1274 95.1037 58.8713V70.6621C95.1039 71.5237 95.9018 72.1639 96.7431 71.977Z" fill="#EDEBED"/>
<path d="M87.6955 81.7701H83.6546C82.5388 81.7701 81.6341 80.8656 81.6341 79.7496V73.0146C81.6341 71.8988 82.5386 70.9941 83.6546 70.9941H87.6955C88.8114 70.9941 89.7161 71.8986 89.7161 73.0146V79.7496C89.7159 80.8656 88.8114 81.7701 87.6955 81.7701Z" fill="#DBD9DC"/>
<path d="M76.2451 34.6255C79.2207 34.6255 81.633 32.2133 81.633 29.2376C81.633 26.2619 79.2207 23.8496 76.2451 23.8496C73.2694 23.8496 70.8571 26.2619 70.8571 29.2376C70.8571 32.2133 73.2694 34.6255 76.2451 34.6255Z" fill="#DBD9DC"/>
<path d="M87.0218 34.6254H84.3277C83.5831 34.6254 82.9807 34.0223 82.9807 33.2783C82.9807 32.5344 83.5831 31.9313 84.3277 31.9313H87.0218C87.7664 31.9313 88.3688 32.5344 88.3688 33.2783C88.3688 34.0223 87.7662 34.6254 87.0218 34.6254Z" fill="#59D8FF"/>
<path d="M99.1448 34.6254H92.4098C91.6652 34.6254 91.0628 34.0223 91.0628 33.2783C91.0628 32.5344 91.6652 31.9313 92.4098 31.9313H99.1448C99.8894 31.9313 100.492 32.5344 100.492 33.2783C100.492 34.0223 99.8894 34.6254 99.1448 34.6254Z" fill="#99E7FF"/>
<path d="M78.9398 49.4423L79.7767 52.7897C80.0765 53.9889 81.1541 54.8303 82.3903 54.8303H88.9595C90.1956 54.8303 91.2732 53.9889 91.573 52.7897L92.4099 49.4423H78.9398Z" fill="#C9C6CA"/>
<path d="M76.245 31.9316C77.7328 31.9316 78.939 30.7255 78.939 29.2376C78.939 27.7497 77.7328 26.5435 76.245 26.5435C74.7571 26.5435 73.5509 27.7497 73.5509 29.2376C73.5509 30.7255 74.7571 31.9316 76.245 31.9316Z" fill="#59D8FF"/>
<path d="M59.2053 65.2941C57.3565 64.8832 56.0409 63.2434 56.0409 61.3493V57.5243H53.347C52.6031 57.5243 52 58.1274 52 58.8713V65.8728C52 66.5042 52.4385 67.0508 53.0549 67.1877L74.6068 71.977C75.448 72.1639 76.246 71.5237 76.246 70.6621V69.0809L59.2053 65.2941Z" fill="#DBD9DC"/>
<path d="M68.8932 44.0544C66.9179 44.0544 65.232 45.4824 64.9072 47.4311L64.5719 49.4425H106.778L106.442 47.4311C106.118 45.4826 104.432 44.0544 102.457 44.0544H68.8932Z" fill="#EDEBED"/>
<path d="M87.6954 79.0762H83.6545C82.5386 79.0762 81.6339 78.1717 81.6339 77.0557V79.7497C81.6339 80.8656 82.5384 81.7703 83.6545 81.7703H87.6954C88.8112 81.7703 89.7159 80.8657 89.7159 79.7497V77.0557C89.7157 78.1715 88.8112 79.0762 87.6954 79.0762Z" fill="#C9C6CA"/>
<path d="M104.062 67.2074C101.539 67.7682 99.1448 65.8478 99.1448 63.2626V57.5241H96.4507C95.7068 57.5241 95.1037 58.1272 95.1037 58.8712V70.662C95.1037 71.5237 95.9017 72.1638 96.7429 71.9768L118.295 67.1875C118.911 67.0506 119.35 66.5039 119.35 65.8726V63.8102L104.062 67.2074Z" fill="#DBD9DC"/>
</g>
<path d="M80.0192 58.7921H40.9792V73.4315H80.0192V58.7921Z" fill="#C9C6CA"/>
<path d="M80.0192 60.0124H40.9792V62.4525H80.0192V60.0124Z" fill="#B7B2B8"/>
<path d="M69.0392 39.2729H51.9591V46.5929H69.0392V39.2729Z" fill="#867E88"/>
<path d="M69.04 46.5923H55.62V44.1522C55.62 43.4784 56.1662 42.9322 56.84 42.9322H69.04V46.5923Z" fill="#9C969E"/>
<path d="M81.2399 60.0121H39.7599L41.6902 48.4304C41.9844 46.6657 43.5112 45.3721 45.3004 45.3721H75.6993C77.4886 45.3721 79.0154 46.6655 79.3096 48.4304L81.2399 60.0121Z" fill="#DBD9DC"/>
<path d="M72.7002 72.2127H48.2997V77.0927H72.7002V72.2127Z" fill="#9C969E"/>
<path d="M66.5999 73.4321V72.2121H54.3999V73.4321C54.3999 74.1059 53.8537 74.6522 53.1799 74.6522H48.2999V77.0922H72.6999V74.6522H67.8199C67.1461 74.6522 66.5999 74.1059 66.5999 73.4321Z" fill="#867E88"/>
<path d="M47.0799 86.8521H34.8799C33.5323 86.8521 32.4399 85.7597 32.4399 84.4121V64.8922H49.52V84.4122C49.52 85.7597 48.4275 86.8521 47.0799 86.8521Z" fill="#867E88"/>
<path d="M36.1008 81.9722V64.8922H32.4409V84.4122C32.4409 85.7598 33.5333 86.8523 34.8809 86.8523H47.0809C48.4285 86.8523 49.5209 85.7598 49.5209 84.4122H38.5408C37.1932 84.4121 36.1008 83.3196 36.1008 81.9722Z" fill="#6F6571"/>
<path d="M49.52 79.5317H32.4399V81.9717H49.52V79.5317Z" fill="#6F6571"/>
<path d="M49.52 74.6519H32.4399V77.0919H49.52V74.6519Z" fill="#6F6571"/>
<path d="M49.52 69.772H32.4399V72.2121H49.52V69.772Z" fill="#6F6571"/>
<path d="M36.0998 79.5317H32.4399V81.9717H36.0998V79.5317Z" fill="#5D5360"/>
<path d="M36.0998 74.6519H32.4399V77.0919H36.0998V74.6519Z" fill="#5D5360"/>
<path d="M36.0998 69.772H32.4399V72.2121H36.0998V69.772Z" fill="#5D5360"/>
<path d="M86.1199 86.8521H73.9199C72.5723 86.8521 71.4799 85.7597 71.4799 84.4121V64.8922H88.5598V84.4122C88.5598 85.7597 87.4675 86.8521 86.1199 86.8521Z" fill="#867E88"/>
<path d="M75.1401 81.9722V64.8922H71.48V84.4122C71.48 85.7598 72.5724 86.8523 73.92 86.8523H86.12C87.4676 86.8523 88.5601 85.7598 88.5601 84.4122H77.5801C76.2325 84.4121 75.1401 83.3196 75.1401 81.9722Z" fill="#6F6571"/>
<path d="M88.5599 79.5317H71.4798V81.9717H88.5599V79.5317Z" fill="#6F6571"/>
<path d="M88.5599 74.6519H71.4798V77.0919H88.5599V74.6519Z" fill="#6F6571"/>
<path d="M88.5599 69.772H71.4798V72.2121H88.5599V69.772Z" fill="#6F6571"/>
<path d="M75.1397 79.5317H71.4798V81.9717H75.1397V79.5317Z" fill="#5D5360"/>
<path d="M75.1397 74.6519H71.4798V77.0919H75.1397V74.6519Z" fill="#5D5360"/>
<path d="M75.1399 69.772H71.48V72.2121H75.1399V69.772Z" fill="#5D5360"/>
<path d="M75.14 40.4922H45.8599C44.5123 40.4922 43.4199 39.3997 43.4199 38.0521V33.1721C43.4199 31.8245 44.5123 30.7321 45.8599 30.7321H75.1398C76.4874 30.7321 77.5799 31.8245 77.5799 33.1721V38.0521C77.5799 39.3999 76.4874 40.4922 75.14 40.4922Z" fill="#EDEBED"/>
<path d="M62.2251 25.347C61.9128 25.347 61.6008 25.2279 61.3624 24.9897C60.8858 24.5143 60.1139 24.5143 59.6373 24.9897C59.1607 25.4662 58.3888 25.4662 57.9122 24.9897C57.4356 24.5131 57.4356 23.7411 57.9122 23.2645C59.3395 21.8372 61.6604 21.8372 63.0877 23.2645C63.5643 23.7411 63.5643 24.5131 63.0877 24.9897C62.8493 25.228 62.5373 25.347 62.2251 25.347Z" fill="#4BD7C8"/>
<path d="M70.852 16.7201C70.5398 16.7201 70.2277 16.6009 69.9894 16.3627C64.7567 11.1312 56.2429 11.1312 51.0103 16.3627C50.5338 16.8393 49.7618 16.8393 49.2852 16.3627C48.8087 15.8861 48.8087 15.1142 49.2852 14.6376C55.4687 8.45414 65.5312 8.45414 71.7146 14.6376C72.1912 15.1142 72.1912 15.8861 71.7146 16.3627C71.4763 16.6011 71.1642 16.7201 70.852 16.7201Z" fill="#CCF4EF"/>
<path d="M66.5391 21.0336C66.2269 21.0336 65.9148 20.9144 65.6765 20.6762C62.8218 17.8227 58.1778 17.8227 55.3232 20.6762C54.8466 21.1528 54.0747 21.1528 53.5981 20.6762C53.1215 20.1996 53.1215 19.427 53.5981 18.9511C57.4035 15.1457 63.5964 15.1457 67.4017 18.9511C67.8783 19.427 67.8783 20.1996 67.4017 20.6762C67.1634 20.9145 66.8513 21.0336 66.5391 21.0336Z" fill="#99E9DF"/>
<path d="M50.4752 70.6623L30.9554 66.3245C30.3972 66.2005 30 65.7053 30 65.1336V58.7923C30 58.1185 30.5462 57.5722 31.22 57.5722H50.74C51.4138 57.5722 51.96 58.1185 51.96 58.7923V69.4714C51.9599 70.2518 51.2371 70.8316 50.4752 70.6623Z" fill="#EDEBED"/>
<path d="M70.5246 70.6623L90.0446 66.3245C90.6028 66.2005 91 65.7053 91 65.1336V58.7923C91 58.1185 90.4538 57.5722 89.78 57.5722H70.2598C69.586 57.5722 69.0398 58.1185 69.0398 58.7923V69.4714C69.0399 70.2518 69.7627 70.8316 70.5246 70.6623Z" fill="#EDEBED"/>
<path d="M62.33 79.5321H58.6701C57.6594 79.5321 56.84 78.7129 56.84 77.7021V71.6021C56.84 70.5915 57.6593 69.7721 58.6701 69.7721H62.33C63.3406 69.7721 64.16 70.5913 64.16 71.6021V77.7021C64.1599 78.7129 63.3406 79.5321 62.33 79.5321Z" fill="#DBD9DC"/>
<path d="M51.9591 36.8324C54.6542 36.8324 56.8391 34.6475 56.8391 31.9524C56.8391 29.2573 54.6542 27.0725 51.9591 27.0725C49.264 27.0725 47.0792 29.2573 47.0792 31.9524C47.0792 34.6475 49.264 36.8324 51.9591 36.8324Z" fill="#DBD9DC"/>
<path d="M61.72 36.8322H59.2799C58.6055 36.8322 58.0599 36.286 58.0599 35.6122C58.0599 34.9384 58.6055 34.3922 59.2799 34.3922H61.72C62.3944 34.3922 62.94 34.9384 62.94 35.6122C62.94 36.286 62.3942 36.8322 61.72 36.8322Z" fill="#59D8FF"/>
<path d="M72.6999 36.8322H66.5999C65.9255 36.8322 65.3799 36.286 65.3799 35.6122C65.3799 34.9384 65.9255 34.3922 66.5999 34.3922H72.6999C73.3743 34.3922 73.9199 34.9384 73.9199 35.6122C73.9199 36.286 73.3743 36.8322 72.6999 36.8322Z" fill="#99E7FF"/>
<path d="M54.3999 50.2522L55.1579 53.284C55.4295 54.3701 56.4054 55.1322 57.525 55.1322H63.4749C64.5945 55.1322 65.5705 54.3701 65.842 53.284L66.6 50.2522H54.3999Z" fill="#C9C6CA"/>
<path d="M51.9592 34.3925C53.3068 34.3925 54.3992 33.3 54.3992 31.9524C54.3992 30.6048 53.3068 29.5124 51.9592 29.5124C50.6116 29.5124 49.5191 30.6048 49.5191 31.9524C49.5191 33.3 50.6116 34.3925 51.9592 34.3925Z" fill="#59D8FF"/>
<path d="M36.526 64.6095C34.8514 64.2374 33.6599 62.7521 33.6599 61.0366V57.5722H31.22C30.5462 57.5722 30 58.1185 30 58.7923V65.1336C30 65.7055 30.3972 66.2005 30.9554 66.3245L50.4754 70.6623C51.2373 70.8316 51.96 70.2518 51.96 69.4714V68.0393L36.526 64.6095Z" fill="#DBD9DC"/>
<path d="M45.3004 45.3723C43.5114 45.3723 41.9844 46.6657 41.6902 48.4306L41.3865 50.2524H79.6132L79.3094 48.4306C79.0154 46.6658 77.4884 45.3723 75.6993 45.3723H45.3004Z" fill="#EDEBED"/>
<path d="M62.33 77.0922H58.6701C57.6594 77.0922 56.84 76.273 56.84 75.2622V77.7022C56.84 78.7129 57.6593 79.5323 58.6701 79.5323H62.33C63.3406 79.5323 64.16 78.713 64.16 77.7022V75.2622C64.1599 76.2728 63.3406 77.0922 62.33 77.0922Z" fill="#C9C6CA"/>
<path d="M77.1538 66.3424C74.8681 66.8503 72.6999 65.1109 72.6999 62.7695V57.5721H70.2598C69.586 57.5721 69.0398 58.1183 69.0398 58.7921V69.4712C69.0398 70.2518 69.7625 70.8315 70.5244 70.6622L90.0444 66.3244C90.6027 66.2004 90.9998 65.7052 90.9998 65.1335V63.2654L77.1538 66.3424Z" fill="#DBD9DC"/>
</svg>
