<svg width="121" height="96" viewBox="0 0 121 96" fill="none" xmlns="http://www.w3.org/2000/svg">
<rect width="120.847" height="96" rx="16" fill="#5D00EF"/>
<rect width="120.847" height="96" rx="16" stroke="black"/>
<g opacity="0.15">
<path d="M110.841 95.9582H113.743C114.544 95.9582 115.194 95.3086 115.194 94.5072V58.2337H109.39V94.5072C109.39 95.3086 110.04 95.9582 110.841 95.9582Z" fill="#9C969E"/>
<path d="M110.841 95.9582H113.743C114.544 95.9582 115.194 95.3086 115.194 94.5072V90.1545H109.39V94.5072C109.39 95.3086 110.04 95.9582 110.841 95.9582Z" fill="#AEA8AF"/>
<path d="M115.194 63.433L109.39 65.8512V58.2337H115.194V63.433Z" fill="#867E88"/>
<path d="M52.804 95.9582H49.9021C49.1008 95.9582 48.4512 95.3086 48.4512 94.5072V58.2337H54.2549V94.5072C54.2549 95.3086 53.6053 95.9582 52.804 95.9582Z" fill="#9C969E"/>
<path d="M52.804 95.9582H49.9021C49.1008 95.9582 48.4512 95.3086 48.4512 94.5072V90.1545H54.2549V94.5072C54.2549 95.3086 53.6053 95.9582 52.804 95.9582Z" fill="#AEA8AF"/>
<path d="M48.4512 63.433L54.2549 65.8512V58.2337H48.4512V63.433Z" fill="#867E88"/>
<path d="M97.7829 95.9582H65.8622C65.0608 95.9582 64.4113 95.3086 64.4113 94.5072V88.7035H99.2339V94.5072C99.2339 95.3086 98.5843 95.9582 97.7829 95.9582Z" fill="#C9C6CA"/>
<path d="M99.2327 88.7035H64.4108V93.0563H99.2327V88.7035Z" fill="#B7B2B8"/>
<path d="M99.2338 90.1545H64.4113C62.0073 90.1545 60.0585 88.2056 60.0585 85.8017V62.5867H103.587V85.8017C103.587 88.2056 101.638 90.1545 99.2338 90.1545Z" fill="#DBD9DC"/>
<path d="M103.587 62.5867H60.0585V68.2695L67.9418 71.5542C68.5286 71.7988 68.8854 72.3956 68.8232 73.0283C68.7855 73.412 68.7644 73.8003 68.7644 74.1941C68.7644 81.406 74.6108 87.2524 81.8227 87.2524C89.0347 87.2524 94.8811 81.406 94.8811 74.1941C94.8811 73.8003 94.8598 73.4119 94.8222 73.0283C94.76 72.3956 95.1167 71.7986 95.7037 71.5542L103.587 68.2695V62.5867H103.587Z" fill="#C9C6CA"/>
<path d="M84.7234 37.9211H78.92V56.7842H84.7234V37.9211Z" fill="#867E88"/>
<path d="M84.7245 56.7828H81.8226V45.1752C81.8226 44.3738 82.4722 43.7242 83.2735 43.7242H84.7245V56.7828Z" fill="#9C969E"/>
<path d="M114.859 60.4287L81.8226 74.1943L48.7858 60.4287C47.7044 59.9782 47 58.9216 47 57.75V56.7828C47 55.1801 48.2993 53.8809 49.9019 53.8809H113.743C115.346 53.8809 116.645 55.1802 116.645 56.7828V57.75C116.645 58.9216 115.941 59.9782 114.859 60.4287Z" fill="#EDEBED"/>
<path d="M81.8225 84.3507C87.4318 84.3507 91.979 79.8035 91.979 74.1942C91.979 68.585 87.4318 64.0378 81.8225 64.0378C76.2132 64.0378 71.666 68.585 71.666 74.1942C71.666 79.8035 76.2132 84.3507 81.8225 84.3507Z" fill="#DBD9DC"/>
<path d="M113.743 27.7641H49.902C48.2992 27.7641 47.0001 26.4648 47.0001 24.8622V21.9604C47.0001 20.3576 48.2994 19.0585 49.902 19.0585H113.743C115.346 19.0585 116.645 20.3578 116.645 21.9604V24.8622C116.645 26.4648 115.346 27.7641 113.743 27.7641Z" fill="#9C969E"/>
<path d="M94.8811 40.8226H68.7641C59.1481 40.8226 51.3528 33.0273 51.3528 23.4113C51.353 13.7953 59.1483 6 68.7641 6H94.881C104.497 6 112.292 13.7953 112.292 23.4113C112.292 33.0272 104.497 40.8226 94.8811 40.8226Z" fill="#EDEBED"/>
<path d="M94.8811 35.0187C101.548 35.0187 106.901 29.399 106.464 22.6386C106.064 16.4691 100.666 11.8037 94.4834 11.8037H91.1293C90.7445 11.8037 90.3753 11.9566 90.1034 12.2287L88.4764 13.8557C87.9322 14.3999 87.1941 14.7056 86.4244 14.7056H77.2209C76.4513 14.7056 75.7132 14.3999 75.1689 13.8557L73.5419 12.2287C73.2698 11.9566 72.9008 11.8037 72.516 11.8037H69.1619C62.9796 11.8037 57.5812 16.4691 57.1817 22.6386C56.7438 29.399 62.0977 35.0187 68.7641 35.0187H94.8811Z" fill="#99E7FF"/>
<path d="M67.3131 29.215C64.9092 29.215 62.9604 27.2661 62.9604 24.8622V21.9603C62.9604 19.5564 64.9092 17.6076 67.3131 17.6076C69.7171 17.6076 71.6659 19.5564 71.6659 21.9603V24.8622C71.6661 27.2661 69.7172 29.215 67.3131 29.215Z" fill="#CCF3FF"/>
<path d="M96.3321 29.215C93.9282 29.215 91.9793 27.2661 91.9793 24.8622V21.9603C91.9793 19.5564 93.9282 17.6076 96.3321 17.6076C98.736 17.6076 100.685 19.5564 100.685 21.9603V24.8622C100.685 27.2661 98.736 29.215 96.3321 29.215Z" fill="#CCF3FF"/>
<path d="M67.3131 26.3132C66.3113 26.3132 65.4994 25.5013 65.4994 24.4994V22.323C65.4994 21.3212 66.3113 20.5093 67.3131 20.5093C68.3149 20.5093 69.1269 21.3212 69.1269 22.323V24.4994C69.1269 25.5013 68.3149 26.3132 67.3131 26.3132Z" fill="white"/>
<path d="M96.3319 26.3132C95.3301 26.3132 94.5182 25.5013 94.5182 24.4994V22.323C94.5182 21.3212 95.3301 20.5093 96.3319 20.5093C97.3337 20.5093 98.1456 21.3212 98.1456 22.323V24.4994C98.1455 25.5013 97.3336 26.3132 96.3319 26.3132Z" fill="white"/>
<path d="M81.8226 79.9976C85.0277 79.9976 87.6259 77.3993 87.6259 74.1942C87.6259 70.9891 85.0277 68.3909 81.8226 68.3909C78.6175 68.3909 76.0192 70.9891 76.0192 74.1942C76.0192 77.3993 78.6175 79.9976 81.8226 79.9976Z" fill="#4BD7C8"/>
<path d="M94.4833 14.7056C99.2826 14.7056 103.273 18.2725 103.568 22.8261C103.726 25.2676 102.897 27.5893 101.234 29.3631C99.5699 31.1389 97.3135 32.1169 94.8811 32.1169H68.7641C66.3317 32.1169 64.0754 31.1389 62.411 29.3631C60.7482 27.5891 59.9196 25.2676 60.0775 22.8261C60.3723 18.2725 64.3628 14.7056 69.1619 14.7056H71.9149L73.1171 15.9077C74.2132 17.0037 75.6707 17.6074 77.2209 17.6074H86.4245C87.9747 17.6074 89.4322 17.0037 90.5284 15.9075L91.7305 14.7056H94.4833ZM94.4833 11.8037H91.1292C90.7445 11.8037 90.3753 11.9566 90.1033 12.2287L88.4764 13.8557C87.9322 14.3999 87.1941 14.7056 86.4245 14.7056H77.2209C76.4511 14.7056 75.7132 14.3999 75.1689 13.8557L73.5419 12.2287C73.2697 11.9566 72.9008 11.8037 72.516 11.8037H69.1619C62.9794 11.8037 57.5812 16.4691 57.1818 22.6386C56.744 29.399 62.0979 35.0187 68.7641 35.0187H94.8811C101.548 35.0187 106.901 29.399 106.463 22.6386C106.064 16.4691 100.666 11.8037 94.4833 11.8037Z" fill="#59D8FF"/>
<path d="M81.8226 77.0963C83.4253 77.0963 84.7246 75.797 84.7246 74.1942C84.7246 72.5915 83.4253 71.2922 81.8226 71.2922C80.2198 71.2922 78.9206 72.5915 78.9206 74.1942C78.9206 75.797 80.2198 77.0963 81.8226 77.0963Z" fill="#99E9DF"/>
</g>
<g opacity="0.15">
<path d="M67.8413 95.9582H70.7431C71.5445 95.9582 72.1941 95.3086 72.1941 94.5072V58.2337H66.3904V94.5072C66.3904 95.3086 67.0399 95.9582 67.8413 95.9582Z" fill="#9C969E"/>
<path d="M67.8413 95.9582H70.7431C71.5445 95.9582 72.1941 95.3086 72.1941 94.5072V90.1545H66.3904V94.5072C66.3904 95.3086 67.0399 95.9582 67.8413 95.9582Z" fill="#AEA8AF"/>
<path d="M72.1941 63.433L66.3904 65.8512V58.2337H72.1941V63.433Z" fill="#867E88"/>
<path d="M9.80398 95.9582H6.90213C6.10076 95.9582 5.4512 95.3086 5.4512 94.5072V58.2337H11.2549V94.5072C11.2549 95.3086 10.6053 95.9582 9.80398 95.9582Z" fill="#9C969E"/>
<path d="M9.80398 95.9582H6.90213C6.10076 95.9582 5.4512 95.3086 5.4512 94.5072V90.1545H11.2549V94.5072C11.2549 95.3086 10.6053 95.9582 9.80398 95.9582Z" fill="#AEA8AF"/>
<path d="M5.4512 63.433L11.2549 65.8512V58.2337H5.4512V63.433Z" fill="#867E88"/>
<path d="M54.7829 95.9582H22.8622C22.0608 95.9582 21.4113 95.3086 21.4113 94.5072V88.7035H56.2339V94.5072C56.2339 95.3086 55.5843 95.9582 54.7829 95.9582Z" fill="#C9C6CA"/>
<path d="M56.2327 88.7035H21.4108V93.0563H56.2327V88.7035Z" fill="#B7B2B8"/>
<path d="M56.2338 90.1545H21.4113C19.0073 90.1545 17.0585 88.2056 17.0585 85.8017V62.5867H60.5866V85.8017C60.5866 88.2056 58.6378 90.1545 56.2338 90.1545Z" fill="#DBD9DC"/>
<path d="M60.5866 62.5867H17.0585V68.2695L24.9418 71.5542C25.5286 71.7988 25.8854 72.3956 25.8232 73.0283C25.7855 73.412 25.7644 73.8003 25.7644 74.1941C25.7644 81.406 31.6108 87.2524 38.8227 87.2524C46.0347 87.2524 51.8811 81.406 51.8811 74.1941C51.8811 73.8003 51.8598 73.4119 51.8222 73.0283C51.76 72.3956 52.1167 71.7986 52.7037 71.5542L60.587 68.2695V62.5867H60.5866Z" fill="#C9C6CA"/>
<path d="M41.7234 37.9211H35.92V56.7842H41.7234V37.9211Z" fill="#867E88"/>
<path d="M41.7245 56.7828H38.8226V45.1752C38.8226 44.3738 39.4722 43.7242 40.2735 43.7242H41.7245V56.7828Z" fill="#9C969E"/>
<path d="M71.8594 60.4287L38.8226 74.1943L5.78581 60.4287C4.70438 59.9782 4 58.9216 4 57.75V56.7828C4 55.1801 5.2993 53.8809 6.90185 53.8809H70.7431C72.3459 53.8809 73.645 55.1802 73.645 56.7828V57.75C73.6452 58.9216 72.9406 59.9782 71.8594 60.4287Z" fill="#EDEBED"/>
<path d="M38.8225 84.3507C44.4318 84.3507 48.979 79.8035 48.979 74.1942C48.979 68.585 44.4318 64.0378 38.8225 64.0378C33.2132 64.0378 28.666 68.585 28.666 74.1942C28.666 79.8035 33.2132 84.3507 38.8225 84.3507Z" fill="#DBD9DC"/>
<path d="M70.7431 27.7641H6.90198C5.29924 27.7641 4.00012 26.4648 4.00012 24.8622V21.9604C4.00012 20.3576 5.29942 19.0585 6.90198 19.0585H70.7433C72.346 19.0585 73.6451 20.3578 73.6451 21.9604V24.8622C73.6451 26.4648 72.3458 27.7641 70.7431 27.7641Z" fill="#9C969E"/>
<path d="M51.8811 40.8226H25.7641C16.1481 40.8226 8.35281 33.0273 8.35281 23.4113C8.35299 13.7953 16.1483 6 25.7641 6H51.881C61.497 6 69.2923 13.7953 69.2923 23.4113C69.2923 33.0272 61.497 40.8226 51.8811 40.8226Z" fill="#EDEBED"/>
<path d="M51.8811 35.0187C58.5475 35.0187 63.9013 29.399 63.4636 22.6386C63.0641 16.4691 57.6659 11.8037 51.4834 11.8037H48.1293C47.7445 11.8037 47.3753 11.9566 47.1034 12.2287L45.4764 13.8557C44.9322 14.3999 44.1941 14.7056 43.4244 14.7056H34.2209C33.4513 14.7056 32.7132 14.3999 32.1689 13.8557L30.5419 12.2287C30.2698 11.9566 29.9008 11.8037 29.516 11.8037H26.1619C19.9796 11.8037 14.5812 16.4691 14.1817 22.6386C13.7438 29.399 19.0977 35.0187 25.7641 35.0187H51.8811Z" fill="#99E7FF"/>
<path d="M24.3131 29.215C21.9092 29.215 19.9604 27.2661 19.9604 24.8622V21.9603C19.9604 19.5564 21.9092 17.6076 24.3131 17.6076C26.7171 17.6076 28.6659 19.5564 28.6659 21.9603V24.8622C28.6661 27.2661 26.7172 29.215 24.3131 29.215Z" fill="#CCF3FF"/>
<path d="M53.3321 29.215C50.9282 29.215 48.9793 27.2661 48.9793 24.8622V21.9603C48.9793 19.5564 50.9282 17.6076 53.3321 17.6076C55.736 17.6076 57.6849 19.5564 57.6849 21.9603V24.8622C57.6849 27.2661 55.736 29.215 53.3321 29.215Z" fill="#CCF3FF"/>
<path d="M24.3131 26.3132C23.3113 26.3132 22.4994 25.5013 22.4994 24.4994V22.323C22.4994 21.3212 23.3113 20.5093 24.3131 20.5093C25.3149 20.5093 26.1269 21.3212 26.1269 22.323V24.4994C26.1269 25.5013 25.3149 26.3132 24.3131 26.3132Z" fill="white"/>
<path d="M53.3319 26.3132C52.3301 26.3132 51.5182 25.5013 51.5182 24.4994V22.323C51.5182 21.3212 52.3301 20.5093 53.3319 20.5093C54.3337 20.5093 55.1456 21.3212 55.1456 22.323V24.4994C55.1455 25.5013 54.3336 26.3132 53.3319 26.3132Z" fill="white"/>
<path d="M38.8226 79.9976C42.0277 79.9976 44.6259 77.3993 44.6259 74.1942C44.6259 70.9891 42.0277 68.3909 38.8226 68.3909C35.6175 68.3909 33.0192 70.9891 33.0192 74.1942C33.0192 77.3993 35.6175 79.9976 38.8226 79.9976Z" fill="#4BD7C8"/>
<path d="M51.4833 14.7056C56.2826 14.7056 60.2729 18.2725 60.5677 22.8261C60.7258 25.2676 59.8971 27.5893 58.2343 29.3631C56.5699 31.1389 54.3135 32.1169 51.8811 32.1169H25.7641C23.3317 32.1169 21.0754 31.1389 19.411 29.3631C17.7482 27.5891 16.9196 25.2676 17.0775 22.8261C17.3723 18.2725 21.3628 14.7056 26.1619 14.7056H28.9149L30.1171 15.9077C31.2132 17.0037 32.6707 17.6074 34.2209 17.6074H43.4245C44.9747 17.6074 46.4322 17.0037 47.5284 15.9075L48.7305 14.7056H51.4833ZM51.4833 11.8037H48.1292C47.7445 11.8037 47.3753 11.9566 47.1033 12.2287L45.4764 13.8557C44.9322 14.3999 44.1941 14.7056 43.4245 14.7056H34.2209C33.4511 14.7056 32.7132 14.3999 32.1689 13.8557L30.5419 12.2287C30.2697 11.9566 29.9008 11.8037 29.516 11.8037H26.1619C19.9794 11.8037 14.5812 16.4691 14.1818 22.6386C13.744 29.399 19.0979 35.0187 25.7641 35.0187H51.8811C58.5475 35.0187 63.9013 29.399 63.4634 22.6386C63.0641 16.4691 57.6657 11.8037 51.4833 11.8037Z" fill="#59D8FF"/>
<path d="M38.8226 77.0963C40.4253 77.0963 41.7246 75.797 41.7246 74.1942C41.7246 72.5915 40.4253 71.2922 38.8226 71.2922C37.2198 71.2922 35.9206 72.5915 35.9206 74.1942C35.9206 75.797 37.2198 77.0963 38.8226 77.0963Z" fill="#99E9DF"/>
</g>
<path d="M86.7498 95.9582H89.3748C90.0997 95.9582 90.6873 95.3706 90.6873 94.6457V61.8332H85.4373V94.6457C85.4373 95.3706 86.0249 95.9582 86.7498 95.9582Z" fill="#9C969E"/>
<path d="M86.7498 95.9582H89.3748C90.0997 95.9582 90.6873 95.3706 90.6873 94.6457V90.7082H85.4373V94.6457C85.4373 95.3706 86.0249 95.9582 86.7498 95.9582Z" fill="#AEA8AF"/>
<path d="M90.6873 66.5364L85.4373 68.7238V61.8332H90.6873V66.5364Z" fill="#867E88"/>
<path d="M34.2501 95.9582H31.6252C30.9003 95.9582 30.3127 95.3706 30.3127 94.6457V61.8332H35.5626V94.6457C35.5626 95.3706 34.975 95.9582 34.2501 95.9582Z" fill="#9C969E"/>
<path d="M34.2501 95.9582H31.6252C30.9003 95.9582 30.3127 95.3706 30.3127 94.6457V90.7082H35.5626V94.6457C35.5626 95.3706 34.975 95.9582 34.2501 95.9582Z" fill="#AEA8AF"/>
<path d="M30.3127 66.5364L35.5626 68.7238V61.8332H30.3127V66.5364Z" fill="#867E88"/>
<path d="M74.9375 95.9582H46.0625C45.3376 95.9582 44.75 95.3706 44.75 94.6457V89.3957H76.25V94.6457C76.25 95.3706 75.6624 95.9582 74.9375 95.9582Z" fill="#C9C6CA"/>
<path d="M76.2489 89.3957H44.7495V93.3332H76.2489V89.3957Z" fill="#B7B2B8"/>
<path d="M76.25 90.7082H44.75C42.5754 90.7082 40.8125 88.9453 40.8125 86.7708V65.7708H80.1874V86.7708C80.1874 88.9453 78.4245 90.7082 76.25 90.7082Z" fill="#DBD9DC"/>
<path d="M80.1874 65.7708H40.8125V70.9114L47.9436 73.8827C48.4744 74.1039 48.7972 74.6438 48.741 75.2162C48.7068 75.5633 48.6877 75.9145 48.6877 76.2707C48.6877 82.7945 53.9763 88.0831 60.5001 88.0831C67.0239 88.0831 72.3125 82.7945 72.3125 76.2707C72.3125 75.9145 72.2933 75.5631 72.2593 75.2162C72.203 74.6438 72.5256 74.1038 73.0566 73.8827L80.1877 70.9114V65.7708H80.1874Z" fill="#C9C6CA"/>
<path d="M63.124 43.4587H57.8744V60.522H63.124V43.4587Z" fill="#867E88"/>
<path d="M63.125 60.5207H60.5V50.0206C60.5 49.2957 61.0876 48.7081 61.8125 48.7081H63.125V60.5207Z" fill="#9C969E"/>
<path d="M90.3846 63.8188L60.5 76.2709L30.6154 63.8188C29.6372 63.4112 29 62.4554 29 61.3956V60.5207C29 59.0709 30.1753 57.8957 31.625 57.8957H89.3749C90.8247 57.8957 91.9998 59.0711 91.9998 60.5207V61.3956C92 62.4554 91.3627 63.4112 90.3846 63.8188Z" fill="#EDEBED"/>
<path d="M60.4999 85.4583C65.574 85.4583 69.6873 81.3449 69.6873 76.2709C69.6873 71.1968 65.574 67.0835 60.4999 67.0835C55.4259 67.0835 51.3125 71.1968 51.3125 76.2709C51.3125 81.3449 55.4259 85.4583 60.4999 85.4583Z" fill="#DBD9DC"/>
<path d="M89.3748 34.2708H31.6251C30.1753 34.2708 29.0001 33.0955 29.0001 31.6458V29.0208C29.0001 27.571 30.1754 26.3959 31.6251 26.3959H89.375C90.8248 26.3959 92 27.5712 92 29.0208V31.6458C92 33.0955 90.8246 34.2708 89.3748 34.2708Z" fill="#9C969E"/>
<path d="M72.3126 46.0833H48.6875C39.989 46.0833 32.9375 39.0319 32.9375 30.3333C32.9377 21.6348 39.9891 14.5833 48.6875 14.5833H72.3124C81.0109 14.5833 88.0624 21.6348 88.0624 30.3333C88.0624 39.0317 81.0109 46.0833 72.3126 46.0833Z" fill="#EDEBED"/>
<path d="M72.3125 40.8333C78.3429 40.8333 83.1858 35.7497 82.7899 29.6344C82.4285 24.0535 77.5453 19.8333 71.9527 19.8333H68.9186C68.5706 19.8333 68.2367 19.9716 67.9906 20.2178L66.5189 21.6895C66.0267 22.1817 65.359 22.4583 64.6627 22.4583H56.3373C55.6412 22.4583 54.9735 22.1817 54.4811 21.6895L53.0094 20.2178C52.7632 19.9716 52.4294 19.8333 52.0814 19.8333H49.0473C43.4549 19.8333 38.5716 24.0535 38.2101 29.6344C37.8141 35.7497 42.6572 40.8333 48.6875 40.8333H72.3125Z" fill="#99E7FF"/>
<path d="M47.375 35.5833C45.2004 35.5833 43.4375 33.8204 43.4375 31.6458V29.0208C43.4375 26.8463 45.2004 25.0834 47.375 25.0834C49.5495 25.0834 51.3124 26.8463 51.3124 29.0208V31.6458C51.3126 33.8204 49.5497 35.5833 47.375 35.5833Z" fill="#CCF3FF"/>
<path d="M73.6251 35.5833C71.4505 35.5833 69.6876 33.8204 69.6876 31.6458V29.0208C69.6876 26.8463 71.4505 25.0834 73.6251 25.0834C75.7996 25.0834 77.5625 26.8463 77.5625 29.0208V31.6458C77.5625 33.8204 75.7996 35.5833 73.6251 35.5833Z" fill="#CCF3FF"/>
<path d="M47.3749 32.9583C46.4687 32.9583 45.7343 32.2239 45.7343 31.3176V29.3489C45.7343 28.4427 46.4687 27.7082 47.3749 27.7082C48.2812 27.7082 49.0156 28.4427 49.0156 29.3489V31.3176C49.0156 32.2239 48.2812 32.9583 47.3749 32.9583Z" fill="white"/>
<path d="M73.625 32.9583C72.7187 32.9583 71.9843 32.2239 71.9843 31.3176V29.3489C71.9843 28.4427 72.7187 27.7082 73.625 27.7082C74.5312 27.7082 75.2657 28.4427 75.2657 29.3489V31.3176C75.2655 32.2239 74.5311 32.9583 73.625 32.9583Z" fill="white"/>
<path d="M60.5 81.5205C63.3993 81.5205 65.7497 79.1701 65.7497 76.2708C65.7497 73.3716 63.3993 71.0212 60.5 71.0212C57.6007 71.0212 55.2504 73.3716 55.2504 76.2708C55.2504 79.1701 57.6007 81.5205 60.5 81.5205Z" fill="#4BD7C8"/>
<path d="M71.9527 22.4583C76.294 22.4583 79.9036 25.6848 80.1703 29.8039C80.3133 32.0125 79.5636 34.1127 78.0595 35.7173C76.5539 37.3236 74.5128 38.2083 72.3125 38.2083H48.6874C46.4871 38.2083 44.4461 37.3236 42.9405 35.7173C41.4363 34.1125 40.6868 32.0125 40.8297 29.8039C41.0964 25.6848 44.7061 22.4583 49.0473 22.4583H51.5376L52.6251 23.5457C53.6167 24.5372 54.935 25.0833 56.3373 25.0833H64.6628C66.0651 25.0833 67.3835 24.5372 68.3751 23.5456L69.4625 22.4583H71.9527ZM71.9527 19.8333H68.9186C68.5705 19.8333 68.2366 19.9716 67.9906 20.2178L66.5189 21.6895C66.0266 22.1817 65.3589 22.4583 64.6628 22.4583H56.3373C55.641 22.4583 54.9735 22.1817 54.4811 21.6895L53.0094 20.2178C52.7632 19.9716 52.4294 19.8333 52.0813 19.8333H49.0473C43.4547 19.8333 38.5715 24.0535 38.2103 29.6344C37.8142 35.7497 42.6573 40.8333 48.6874 40.8333H72.3125C78.3428 40.8333 83.1857 35.7497 82.7897 29.6344C82.4284 24.0535 77.5451 19.8333 71.9527 19.8333Z" fill="#59D8FF"/>
<path d="M60.5 78.896C61.9498 78.896 63.1251 77.7207 63.1251 76.2709C63.1251 74.821 61.9498 73.6457 60.5 73.6457C59.0502 73.6457 57.8748 74.821 57.8748 76.2709C57.8748 77.7207 59.0502 78.896 60.5 78.896Z" fill="#99E9DF"/>
</svg>
