<svg width="121" height="96" viewBox="0 0 121 96" fill="none" xmlns="http://www.w3.org/2000/svg">
<rect width="120.847" height="96" rx="16" fill="#6616E3"/>
<rect width="120.847" height="96" rx="16" stroke="#6F6571"/>
<g opacity="0.15">
<path d="M37.0313 96.0001H30.9063C30.0606 96.0001 29.3751 95.3145 29.3751 94.4688V79.1562H38.5625V94.4688C38.5625 95.3145 37.877 96.0001 37.0313 96.0001Z" fill="#867E88"/>
<path d="M35.5 83.75H38.5625V79.1562H29.3751V94.4688C29.3751 95.3145 30.0606 96.0001 30.9063 96.0001H33.9688V85.2814C33.9688 84.4357 34.6543 83.75 35.5 83.75Z" fill="#6F6571"/>
<path d="M58.4688 30.1562H55.4063V40.5905L51.0757 51.8091L53.9318 52.9127L58.3657 41.4268L58.4688 40.8751V30.1562Z" fill="#867E88"/>
<path d="M56.937 43.9375C58.6283 43.9375 59.9994 42.5664 59.9994 40.875C59.9994 39.1837 58.6283 37.8126 56.937 37.8126C55.2456 37.8126 53.8745 39.1837 53.8745 40.875C53.8745 42.5664 55.2456 43.9375 56.937 43.9375Z" fill="#C9C6CA"/>
<path d="M56.9375 31.6875C55.2461 31.6875 53.875 30.3163 53.875 28.625V27.0938C53.875 25.4023 55.2462 24.0313 56.9375 24.0313C58.6289 24.0313 60 25.4025 60 27.0938V28.625C60 30.3164 58.6289 31.6875 56.9375 31.6875Z" fill="#EDEBED"/>
<path d="M58.4687 42.4063C56.7775 42.4063 55.4063 41.0351 55.4063 39.3438C55.4063 38.8951 55.5081 38.4719 55.6816 38.0879C54.6182 38.5682 53.875 39.6325 53.875 40.875C53.875 42.5663 55.2462 43.9375 56.9375 43.9375C58.18 43.9375 59.2446 43.1943 59.7246 42.1309C59.3406 42.3043 58.9175 42.4063 58.4687 42.4063Z" fill="#B7B2B8"/>
<path d="M56.9375 28.625V27.0938C56.9375 25.963 57.5572 24.9866 58.4687 24.4561C58.0167 24.193 57.4982 24.0313 56.9375 24.0313C55.2462 24.0313 53.875 25.4023 53.875 27.0938V28.625C53.875 30.3163 55.2462 31.6875 56.9375 31.6875C57.4982 31.6875 58.0169 31.5258 58.4687 31.2627C57.5572 30.7324 56.9375 29.7557 56.9375 28.625Z" fill="#DBD9DC"/>
<path d="M47.7503 11.7811H44.6878V34.7497H47.7503V11.7811Z" fill="#867E88"/>
<path d="M46.2194 25.5619C47.9108 25.5619 49.2819 24.1907 49.2819 22.4994C49.2819 20.808 47.9108 19.4369 46.2194 19.4369C44.5281 19.4369 43.1569 20.808 43.1569 22.4994C43.1569 24.1907 44.5281 25.5619 46.2194 25.5619Z" fill="#C9C6CA"/>
<path d="M46.2187 13.3125C44.5272 13.3125 43.1562 11.9413 43.1562 10.25V8.71862C43.1562 7.02718 44.5274 5.65614 46.2187 5.65614C47.9101 5.65614 49.2811 7.02736 49.2811 8.71862V10.2499C49.2813 11.9413 47.9101 13.3125 46.2187 13.3125Z" fill="#EDEBED"/>
<path d="M47.7501 24.0312C46.0589 24.0312 44.6876 22.66 44.6876 20.9687C44.6876 20.52 44.7894 20.0969 44.963 19.7129C43.8996 20.1931 43.1564 21.2574 43.1564 22.5C43.1564 24.1912 44.5276 25.5625 46.2189 25.5625C47.4614 25.5625 48.5259 24.8193 49.006 23.7559C48.622 23.9294 48.1989 24.0312 47.7501 24.0312Z" fill="#B7B2B8"/>
<path d="M46.2187 10.2499V8.71862C46.2187 7.5879 46.8384 6.61145 47.7499 6.08095C47.2978 5.81783 46.7794 5.65614 46.2187 5.65614C44.5274 5.65614 43.1562 7.02718 43.1562 8.71862V10.2499C43.1562 11.9411 44.5274 13.3123 46.2187 13.3123C46.7794 13.3123 47.298 13.1507 47.7499 12.8875C46.8385 12.3572 46.2187 11.3806 46.2187 10.2499Z" fill="#DBD9DC"/>
<path d="M37.0309 7.18703H33.9685V30.1556H37.0309V7.18703Z" fill="#867E88"/>
<path d="M35.5 20.969C37.1913 20.969 38.5625 19.5978 38.5625 17.9065C38.5625 16.2151 37.1913 14.844 35.5 14.844C33.8086 14.844 32.4375 16.2151 32.4375 17.9065C32.4375 19.5978 33.8086 20.969 35.5 20.969Z" fill="#C9C6CA"/>
<path d="M35.5 8.71864C33.8085 8.71864 32.4375 7.34742 32.4375 5.65616V4.12492C32.4375 2.43366 33.8085 1.06244 35.5 1.06244C37.1914 1.06244 38.5625 2.43366 38.5625 4.12492V5.65616C38.5625 7.34761 37.1914 8.71864 35.5 8.71864Z" fill="#EDEBED"/>
<path d="M37.0312 19.4375C35.34 19.4375 33.9687 18.0663 33.9687 16.375C33.9687 15.9263 34.0705 15.5032 34.2441 15.1191C33.1807 15.5994 32.4375 16.6637 32.4375 17.9063C32.4375 19.5975 33.8087 20.9687 35.5 20.9687C36.7425 20.9687 37.807 20.2256 38.2871 19.1621C37.9031 19.3355 37.4799 19.4375 37.0312 19.4375Z" fill="#B7B2B8"/>
<path d="M35.5 5.65616V4.12492C35.5 2.9942 36.1197 2.01775 37.0312 1.48725C36.5793 1.22413 36.0607 1.06244 35.5 1.06244C33.8087 1.06244 32.4375 2.43347 32.4375 4.12492V5.65616C32.4375 7.34742 33.8087 8.71864 35.5 8.71864C36.0607 8.71864 36.5793 8.55695 37.0312 8.29383C36.1197 7.76351 35.5 6.78688 35.5 5.65616Z" fill="#DBD9DC"/>
<path d="M26.3134 11.7811H23.2509V34.7497H26.3134V11.7811Z" fill="#867E88"/>
<path d="M24.7806 25.5619C26.4719 25.5619 27.843 24.1907 27.843 22.4994C27.843 20.808 26.4719 19.4369 24.7806 19.4369C23.0892 19.4369 21.7181 20.808 21.7181 22.4994C21.7181 24.1907 23.0892 25.5619 24.7806 25.5619Z" fill="#C9C6CA"/>
<path d="M24.7814 13.3125C23.0899 13.3125 21.7189 11.9413 21.7189 10.25V8.71862C21.7189 7.02718 23.0901 5.65614 24.7814 5.65614C26.4728 5.65614 27.8439 7.02736 27.8439 8.71862V10.2499C27.8439 11.9413 26.4726 13.3125 24.7814 13.3125Z" fill="#EDEBED"/>
<path d="M26.3126 24.0312C24.6214 24.0312 23.2501 22.66 23.2501 20.9687C23.2501 20.52 23.3519 20.0969 23.5255 19.7129C22.4621 20.1931 21.7189 21.2574 21.7189 22.5C21.7189 24.1912 23.0901 25.5625 24.7814 25.5625C26.0239 25.5625 27.0884 24.8193 27.5685 23.7559C27.1845 23.9294 26.7614 24.0312 26.3126 24.0312Z" fill="#B7B2B8"/>
<path d="M24.7814 10.2499V8.71862C24.7814 7.5879 25.4011 6.61145 26.3126 6.08095C25.8606 5.81783 25.3421 5.65614 24.7814 5.65614C23.0901 5.65614 21.7189 7.02718 21.7189 8.71862V10.2499C21.7189 11.9411 23.0901 13.3123 24.7814 13.3123C25.3421 13.3123 25.8607 13.1507 26.3126 12.8875C25.4011 12.3572 24.7814 11.3806 24.7814 10.2499Z" fill="#DBD9DC"/>
<path d="M15.5939 16.3748H12.5314V39.3434H15.5939V16.3748Z" fill="#867E88"/>
<path d="M46.2187 31.6874C44.5274 31.6874 43.1562 33.0587 43.1562 34.7499V48.5313H49.2811V34.7499C49.2813 33.0587 47.9101 31.6874 46.2187 31.6874Z" fill="#C9C6CA"/>
<path d="M47.7501 32.1122C47.2981 31.8491 46.7796 31.6874 46.2189 31.6874C44.5276 31.6874 43.1564 33.0587 43.1564 34.7499V48.5313H46.2189V34.7499C46.2187 33.6194 46.8386 32.6427 47.7501 32.1122Z" fill="#B7B2B8"/>
<path d="M24.7814 31.6874C23.0901 31.6874 21.7189 33.0587 21.7189 34.7499V47H27.8439V34.7499C27.8439 33.0587 26.4726 31.6874 24.7814 31.6874Z" fill="#C9C6CA"/>
<path d="M26.3126 32.1122C25.8606 31.8491 25.3421 31.6874 24.7814 31.6874C23.0901 31.6874 21.7189 33.0587 21.7189 34.7499V47H24.7814V34.7499C24.7814 33.6194 25.4011 32.6427 26.3126 32.1122Z" fill="#B7B2B8"/>
<path d="M35.5 27.0937C33.8087 27.0937 32.4375 28.4649 32.4375 30.1562V42.4063H38.5625V30.1562C38.5625 28.4649 37.1912 27.0937 35.5 27.0937Z" fill="#C9C6CA"/>
<path d="M37.0312 27.5185C36.5792 27.2554 36.0607 27.0937 35.5 27.0937C33.8087 27.0937 32.4375 28.4649 32.4375 30.1562V42.4063H35.5V30.1562C35.5 29.0255 36.1197 28.049 37.0312 27.5185Z" fill="#B7B2B8"/>
<path d="M14.0625 36.2811C12.3712 36.2811 11 37.6524 11 39.3436V46.8882C11 48.97 11.5286 51.0139 12.5396 52.8338L17.125 48.5312V39.3438C17.125 37.6524 15.7539 36.2811 14.0625 36.2811Z" fill="#C9C6CA"/>
<path d="M14.0625 46.8882V39.3436C14.0625 38.2129 14.6822 37.2365 15.5937 36.706C15.1417 36.4428 14.6232 36.2811 14.0625 36.2811C12.3712 36.2811 11 37.6524 11 39.3436V46.8882C11 48.97 11.5286 51.0139 12.5396 52.8338L14.7235 50.7845C14.3022 49.5314 14.0625 48.2212 14.0625 46.8882Z" fill="#B7B2B8"/>
<path d="M54.1715 50.0132L38.1732 40.8713C36.4914 39.9103 34.454 39.8014 32.6793 40.5778L13.991 48.7539C12.434 49.4352 11.7014 51.3145 12.5223 52.8027C12.528 52.8131 12.5338 52.8235 12.5395 52.8338L17.8853 62.4561C18.391 63.3662 18.6561 64.3899 18.6561 65.4309V71.5C18.6561 73.1915 20.0274 74.5625 21.7186 74.5625H46.2186C47.9101 74.5625 49.2811 73.1913 49.2811 71.5V65.6002C49.2811 64.4522 49.6038 63.3276 50.2121 62.3541L55.249 54.2952C56.1706 52.8209 55.6811 50.8758 54.1715 50.0132Z" fill="#EDEBED"/>
<path d="M28.2243 68.4375C25.6873 68.4375 23.6306 66.3808 23.6306 63.8438V62.337C23.6306 61.296 23.3652 60.2723 22.8597 59.3624L17.5138 49.74C17.508 49.7296 17.5021 49.7192 17.4965 49.7088C17.0634 48.9236 17.0721 48.0333 17.3968 47.2638L13.9078 48.7902C12.3497 49.4719 11.7155 51.3459 12.5395 52.8338L17.8853 62.456C18.391 63.3661 18.6562 64.3898 18.6562 65.431V71.5002C18.6562 73.1916 20.0274 74.5626 21.7186 74.5626H46.2187C47.9101 74.5626 49.2811 73.1914 49.2811 71.5002V71.4688V68.4377H28.2243V68.4375Z" fill="#DBD9DC"/>
<path d="M14.0631 30.1567C15.7544 30.1567 17.1256 28.7856 17.1256 27.0942C17.1256 25.4029 15.7544 24.0317 14.0631 24.0317C12.3717 24.0317 11.0006 25.4029 11.0006 27.0942C11.0006 28.7856 12.3717 30.1567 14.0631 30.1567Z" fill="#C9C6CA"/>
<path d="M14.0625 17.9063C12.371 17.9063 11 16.5351 11 14.8438V13.3126C11 11.6211 12.3712 10.2501 14.0625 10.2501C15.7539 10.2501 17.125 11.6213 17.125 13.3126V14.8438C17.125 16.5351 15.7539 17.9063 14.0625 17.9063Z" fill="#EDEBED"/>
<path d="M23.2499 74.5625L24.2013 78.3678C24.5421 79.7311 25.767 80.6877 27.1723 80.6877H40.7651C42.1704 80.6877 43.3952 79.7313 43.7362 78.3678L44.6876 74.5625H23.2499Z" fill="#B7B2B8"/>
<path d="M15.5937 28.6249C13.9025 28.6249 12.5312 27.2537 12.5312 25.5624C12.5312 25.1137 12.633 24.6906 12.8066 24.3066C11.7432 24.7868 11 25.8512 11 27.0937C11 28.7849 12.3712 30.1562 14.0625 30.1562C15.305 30.1562 16.3695 29.413 16.8496 28.3496C16.4656 28.5231 16.0426 28.6249 15.5937 28.6249Z" fill="#B7B2B8"/>
<path d="M14.0625 14.8438V13.3126C14.0625 12.1818 14.6822 11.2054 15.5937 10.6749C15.1417 10.4118 14.6232 10.2501 14.0625 10.2501C12.3712 10.2501 11 11.6211 11 13.3126V14.8438C11 16.5351 12.3712 17.9063 14.0625 17.9063C14.6232 17.9063 15.1418 17.7446 15.5937 17.4815C14.6822 16.951 14.0625 15.9743 14.0625 14.8438Z" fill="#DBD9DC"/>
<path d="M29.8049 77.625H43.9219L44.6875 74.5625H23.2499L24.2014 78.3678C24.5422 79.7311 25.7671 80.6875 27.1724 80.6875H28.6095L28.3195 79.5276C28.0778 78.5612 28.8088 77.625 29.8049 77.625Z" fill="#9C969E"/>
<path d="M38.5629 86.8122H29.3755V89.8746H38.5629V86.8122Z" fill="#9C969E"/>
<path d="M33.9691 86.8123H29.3754V89.8748H33.9691V86.8123Z" fill="#867E88"/>
</g>
<g opacity="0.15">
<path d="M89.0313 96.0001H82.9063C82.0606 96.0001 81.3751 95.3145 81.3751 94.4688V79.1562H90.5625V94.4688C90.5625 95.3145 89.877 96.0001 89.0313 96.0001Z" fill="#867E88"/>
<path d="M87.5 83.75H90.5625V79.1562H81.3751V94.4688C81.3751 95.3145 82.0606 96.0001 82.9063 96.0001H85.9688V85.2814C85.9688 84.4357 86.6543 83.75 87.5 83.75Z" fill="#6F6571"/>
<path d="M110.469 30.1562H107.406V40.5905L103.076 51.8091L105.932 52.9127L110.366 41.4268L110.469 40.8751V30.1562Z" fill="#867E88"/>
<path d="M108.937 43.9375C110.628 43.9375 111.999 42.5664 111.999 40.875C111.999 39.1837 110.628 37.8126 108.937 37.8126C107.246 37.8126 105.874 39.1837 105.874 40.875C105.874 42.5664 107.246 43.9375 108.937 43.9375Z" fill="#C9C6CA"/>
<path d="M108.937 31.6875C107.246 31.6875 105.875 30.3163 105.875 28.625V27.0938C105.875 25.4023 107.246 24.0313 108.937 24.0313C110.629 24.0313 112 25.4025 112 27.0938V28.625C112 30.3164 110.629 31.6875 108.937 31.6875Z" fill="#EDEBED"/>
<path d="M110.469 42.4063C108.777 42.4063 107.406 41.0351 107.406 39.3438C107.406 38.8951 107.508 38.4719 107.682 38.0879C106.618 38.5682 105.875 39.6325 105.875 40.875C105.875 42.5663 107.246 43.9375 108.937 43.9375C110.18 43.9375 111.245 43.1943 111.725 42.1309C111.341 42.3043 110.917 42.4063 110.469 42.4063Z" fill="#B7B2B8"/>
<path d="M108.937 28.625V27.0938C108.937 25.963 109.557 24.9866 110.469 24.4561C110.017 24.193 109.498 24.0313 108.937 24.0313C107.246 24.0313 105.875 25.4023 105.875 27.0938V28.625C105.875 30.3163 107.246 31.6875 108.937 31.6875C109.498 31.6875 110.017 31.5258 110.469 31.2627C109.557 30.7324 108.937 29.7557 108.937 28.625Z" fill="#DBD9DC"/>
<path d="M99.7503 11.7811H96.6878V34.7497H99.7503V11.7811Z" fill="#867E88"/>
<path d="M98.2194 25.5619C99.9108 25.5619 101.282 24.1907 101.282 22.4994C101.282 20.808 99.9108 19.4369 98.2194 19.4369C96.5281 19.4369 95.1569 20.808 95.1569 22.4994C95.1569 24.1907 96.5281 25.5619 98.2194 25.5619Z" fill="#C9C6CA"/>
<path d="M98.2187 13.3125C96.5272 13.3125 95.1562 11.9413 95.1562 10.25V8.71862C95.1562 7.02718 96.5274 5.65614 98.2187 5.65614C99.9101 5.65614 101.281 7.02736 101.281 8.71862V10.2499C101.281 11.9413 99.9101 13.3125 98.2187 13.3125Z" fill="#EDEBED"/>
<path d="M99.7501 24.0312C98.0589 24.0312 96.6876 22.66 96.6876 20.9687C96.6876 20.52 96.7894 20.0969 96.963 19.7129C95.8996 20.1931 95.1564 21.2574 95.1564 22.5C95.1564 24.1912 96.5276 25.5625 98.2189 25.5625C99.4614 25.5625 100.526 24.8193 101.006 23.7559C100.622 23.9294 100.199 24.0312 99.7501 24.0312Z" fill="#B7B2B8"/>
<path d="M98.2187 10.2499V8.71862C98.2187 7.5879 98.8384 6.61145 99.7499 6.08095C99.2978 5.81783 98.7794 5.65614 98.2187 5.65614C96.5274 5.65614 95.1562 7.02718 95.1562 8.71862V10.2499C95.1562 11.9411 96.5274 13.3123 98.2187 13.3123C98.7794 13.3123 99.298 13.1507 99.7499 12.8875C98.8385 12.3572 98.2187 11.3806 98.2187 10.2499Z" fill="#DBD9DC"/>
<path d="M89.0309 7.18703H85.9685V30.1556H89.0309V7.18703Z" fill="#867E88"/>
<path d="M87.5 20.969C89.1913 20.969 90.5625 19.5978 90.5625 17.9065C90.5625 16.2151 89.1913 14.844 87.5 14.844C85.8086 14.844 84.4375 16.2151 84.4375 17.9065C84.4375 19.5978 85.8086 20.969 87.5 20.969Z" fill="#C9C6CA"/>
<path d="M87.5 8.71864C85.8085 8.71864 84.4375 7.34742 84.4375 5.65616V4.12492C84.4375 2.43366 85.8085 1.06244 87.5 1.06244C89.1914 1.06244 90.5625 2.43366 90.5625 4.12492V5.65616C90.5625 7.34761 89.1914 8.71864 87.5 8.71864Z" fill="#EDEBED"/>
<path d="M89.0312 19.4375C87.34 19.4375 85.9687 18.0663 85.9687 16.375C85.9687 15.9263 86.0705 15.5032 86.2441 15.1191C85.1807 15.5994 84.4375 16.6637 84.4375 17.9063C84.4375 19.5975 85.8087 20.9687 87.5 20.9687C88.7425 20.9687 89.807 20.2256 90.2871 19.1621C89.9031 19.3355 89.4799 19.4375 89.0312 19.4375Z" fill="#B7B2B8"/>
<path d="M87.5 5.65616V4.12492C87.5 2.9942 88.1197 2.01775 89.0312 1.48725C88.5793 1.22413 88.0607 1.06244 87.5 1.06244C85.8087 1.06244 84.4375 2.43347 84.4375 4.12492V5.65616C84.4375 7.34742 85.8087 8.71864 87.5 8.71864C88.0607 8.71864 88.5793 8.55695 89.0312 8.29383C88.1197 7.76351 87.5 6.78688 87.5 5.65616Z" fill="#DBD9DC"/>
<path d="M78.3134 11.7811H75.2509V34.7497H78.3134V11.7811Z" fill="#867E88"/>
<path d="M76.7806 25.5619C78.4719 25.5619 79.843 24.1907 79.843 22.4994C79.843 20.808 78.4719 19.4369 76.7806 19.4369C75.0892 19.4369 73.7181 20.808 73.7181 22.4994C73.7181 24.1907 75.0892 25.5619 76.7806 25.5619Z" fill="#C9C6CA"/>
<path d="M76.7814 13.3125C75.0899 13.3125 73.7189 11.9413 73.7189 10.25V8.71862C73.7189 7.02718 75.0901 5.65614 76.7814 5.65614C78.4728 5.65614 79.8439 7.02736 79.8439 8.71862V10.2499C79.8439 11.9413 78.4726 13.3125 76.7814 13.3125Z" fill="#EDEBED"/>
<path d="M78.3126 24.0312C76.6214 24.0312 75.2501 22.66 75.2501 20.9687C75.2501 20.52 75.3519 20.0969 75.5255 19.7129C74.4621 20.1931 73.7189 21.2574 73.7189 22.5C73.7189 24.1912 75.0901 25.5625 76.7814 25.5625C78.0239 25.5625 79.0884 24.8193 79.5685 23.7559C79.1845 23.9294 78.7614 24.0312 78.3126 24.0312Z" fill="#B7B2B8"/>
<path d="M76.7814 10.2499V8.71862C76.7814 7.5879 77.4011 6.61145 78.3126 6.08095C77.8606 5.81783 77.3421 5.65614 76.7814 5.65614C75.0901 5.65614 73.7189 7.02718 73.7189 8.71862V10.2499C73.7189 11.9411 75.0901 13.3123 76.7814 13.3123C77.3421 13.3123 77.8607 13.1507 78.3126 12.8875C77.4011 12.3572 76.7814 11.3806 76.7814 10.2499Z" fill="#DBD9DC"/>
<path d="M67.5939 16.3748H64.5314V39.3434H67.5939V16.3748Z" fill="#867E88"/>
<path d="M98.2187 31.6874C96.5274 31.6874 95.1562 33.0587 95.1562 34.7499V48.5313H101.281V34.7499C101.281 33.0587 99.9101 31.6874 98.2187 31.6874Z" fill="#C9C6CA"/>
<path d="M99.7501 32.1122C99.2981 31.8491 98.7796 31.6874 98.2189 31.6874C96.5276 31.6874 95.1564 33.0587 95.1564 34.7499V48.5313H98.2189V34.7499C98.2187 33.6194 98.8386 32.6427 99.7501 32.1122Z" fill="#B7B2B8"/>
<path d="M76.7814 31.6874C75.0901 31.6874 73.7189 33.0587 73.7189 34.7499V47H79.8439V34.7499C79.8439 33.0587 78.4726 31.6874 76.7814 31.6874Z" fill="#C9C6CA"/>
<path d="M78.3126 32.1122C77.8606 31.8491 77.3421 31.6874 76.7814 31.6874C75.0901 31.6874 73.7189 33.0587 73.7189 34.7499V47H76.7814V34.7499C76.7814 33.6194 77.4011 32.6427 78.3126 32.1122Z" fill="#B7B2B8"/>
<path d="M87.5 27.0937C85.8087 27.0937 84.4375 28.4649 84.4375 30.1562V42.4063H90.5625V30.1562C90.5625 28.4649 89.1912 27.0937 87.5 27.0937Z" fill="#C9C6CA"/>
<path d="M89.0312 27.5185C88.5792 27.2554 88.0607 27.0937 87.5 27.0937C85.8087 27.0937 84.4375 28.4649 84.4375 30.1562V42.4063H87.5V30.1562C87.5 29.0255 88.1197 28.049 89.0312 27.5185Z" fill="#B7B2B8"/>
<path d="M66.0625 36.2811C64.3712 36.2811 63 37.6524 63 39.3436V46.8882C63 48.97 63.5286 51.0139 64.5396 52.8338L69.125 48.5312V39.3438C69.125 37.6524 67.7539 36.2811 66.0625 36.2811Z" fill="#C9C6CA"/>
<path d="M66.0625 46.8882V39.3436C66.0625 38.2129 66.6822 37.2365 67.5937 36.706C67.1417 36.4428 66.6232 36.2811 66.0625 36.2811C64.3712 36.2811 63 37.6524 63 39.3436V46.8882C63 48.97 63.5286 51.0139 64.5396 52.8338L66.7235 50.7845C66.3022 49.5314 66.0625 48.2212 66.0625 46.8882Z" fill="#B7B2B8"/>
<path d="M106.172 50.0132L90.1732 40.8713C88.4914 39.9103 86.454 39.8014 84.6793 40.5778L65.991 48.7539C64.434 49.4352 63.7014 51.3145 64.5223 52.8027C64.528 52.8131 64.5338 52.8235 64.5395 52.8338L69.8853 62.4561C70.391 63.3662 70.6561 64.3899 70.6561 65.4309V71.5C70.6561 73.1915 72.0274 74.5625 73.7186 74.5625H98.2186C99.9101 74.5625 101.281 73.1913 101.281 71.5V65.6002C101.281 64.4522 101.604 63.3276 102.212 62.3541L107.249 54.2952C108.171 52.8209 107.681 50.8758 106.172 50.0132Z" fill="#EDEBED"/>
<path d="M80.2243 68.4375C77.6873 68.4375 75.6306 66.3808 75.6306 63.8438V62.337C75.6306 61.296 75.3652 60.2723 74.8597 59.3624L69.5138 49.74C69.508 49.7296 69.5021 49.7192 69.4965 49.7088C69.0634 48.9236 69.0721 48.0333 69.3968 47.2638L65.9078 48.7902C64.3497 49.4719 63.7155 51.3459 64.5395 52.8338L69.8853 62.456C70.391 63.3661 70.6562 64.3898 70.6562 65.431V71.5002C70.6562 73.1916 72.0274 74.5626 73.7186 74.5626H98.2187C99.9101 74.5626 101.281 73.1914 101.281 71.5002V71.4688V68.4377H80.2243V68.4375Z" fill="#DBD9DC"/>
<path d="M66.0631 30.1567C67.7544 30.1567 69.1256 28.7856 69.1256 27.0942C69.1256 25.4029 67.7544 24.0317 66.0631 24.0317C64.3717 24.0317 63.0006 25.4029 63.0006 27.0942C63.0006 28.7856 64.3717 30.1567 66.0631 30.1567Z" fill="#C9C6CA"/>
<path d="M66.0625 17.9063C64.371 17.9063 63 16.5351 63 14.8438V13.3126C63 11.6211 64.3712 10.2501 66.0625 10.2501C67.7539 10.2501 69.125 11.6213 69.125 13.3126V14.8438C69.125 16.5351 67.7539 17.9063 66.0625 17.9063Z" fill="#EDEBED"/>
<path d="M75.2499 74.5625L76.2013 78.3678C76.5421 79.7311 77.767 80.6877 79.1723 80.6877H92.7651C94.1704 80.6877 95.3952 79.7313 95.7362 78.3678L96.6876 74.5625H75.2499Z" fill="#B7B2B8"/>
<path d="M67.5937 28.6249C65.9025 28.6249 64.5312 27.2537 64.5312 25.5624C64.5312 25.1137 64.633 24.6906 64.8066 24.3066C63.7432 24.7868 63 25.8512 63 27.0937C63 28.7849 64.3712 30.1562 66.0625 30.1562C67.305 30.1562 68.3695 29.413 68.8496 28.3496C68.4656 28.5231 68.0426 28.6249 67.5937 28.6249Z" fill="#B7B2B8"/>
<path d="M66.0625 14.8438V13.3126C66.0625 12.1818 66.6822 11.2054 67.5937 10.6749C67.1417 10.4118 66.6232 10.2501 66.0625 10.2501C64.3712 10.2501 63 11.6211 63 13.3126V14.8438C63 16.5351 64.3712 17.9063 66.0625 17.9063C66.6232 17.9063 67.1418 17.7446 67.5937 17.4815C66.6822 16.951 66.0625 15.9743 66.0625 14.8438Z" fill="#DBD9DC"/>
<path d="M81.8049 77.625H95.9219L96.6875 74.5625H75.2499L76.2014 78.3678C76.5422 79.7311 77.7671 80.6875 79.1724 80.6875H80.6095L80.3195 79.5276C80.0778 78.5612 80.8088 77.625 81.8049 77.625Z" fill="#9C969E"/>
<path d="M90.5629 86.8122H81.3755V89.8746H90.5629V86.8122Z" fill="#9C969E"/>
<path d="M85.9691 86.8123H81.3754V89.8748H85.9691V86.8123Z" fill="#867E88"/>
</g>
<path d="M62.1129 96H57.1452C56.4593 96 55.9033 95.444 55.9033 94.7581V82.3387H63.3548V94.7581C63.3548 95.444 62.7988 96 62.1129 96Z" fill="#867E88"/>
<path d="M60.871 86.0644H63.3548V82.3387H55.9033V94.7581C55.9033 95.444 56.4593 96 57.1452 96H59.6291V87.3065C59.6291 86.6206 60.185 86.0644 60.871 86.0644Z" fill="#6F6571"/>
<path d="M79.5 42.5968H77.0162V51.0596L73.5038 60.1585L75.8203 61.0537L79.4164 51.7379L79.5 51.2905V42.5968Z" fill="#867E88"/>
<path d="M78.2576 53.7742C79.6294 53.7742 80.7414 52.6621 80.7414 51.2904C80.7414 49.9186 79.6294 48.8065 78.2576 48.8065C76.8858 48.8065 75.7737 49.9186 75.7737 51.2904C75.7737 52.6621 76.8858 53.7742 78.2576 53.7742Z" fill="#C9C6CA"/>
<path d="M78.2581 43.8387C76.8862 43.8387 75.7742 42.7266 75.7742 41.3549V40.1129C75.7742 38.7411 76.8863 37.6291 78.2581 37.6291C79.6299 37.6291 80.7419 38.7412 80.7419 40.1129V41.3549C80.7419 42.7267 79.6299 43.8387 78.2581 43.8387Z" fill="#EDEBED"/>
<path d="M79.5 52.5323C78.1283 52.5323 77.0161 51.4202 77.0161 50.0485C77.0161 49.6845 77.0987 49.3413 77.2395 49.0299C76.377 49.4194 75.7742 50.2826 75.7742 51.2904C75.7742 52.6621 76.8863 53.7742 78.2581 53.7742C79.2658 53.7742 80.1292 53.1715 80.5186 52.309C80.2071 52.4496 79.8639 52.5323 79.5 52.5323Z" fill="#B7B2B8"/>
<path d="M78.2581 41.3549V40.1129C78.2581 39.1959 78.7607 38.4039 79.5 37.9736C79.1333 37.7602 78.7128 37.6291 78.2581 37.6291C76.8863 37.6291 75.7742 38.7411 75.7742 40.1129V41.3549C75.7742 42.7266 76.8863 43.8387 78.2581 43.8387C78.7128 43.8387 79.1335 43.7076 79.5 43.4942C78.7607 43.064 78.2581 42.2719 78.2581 41.3549Z" fill="#DBD9DC"/>
<path d="M70.8067 27.6935H68.3228V46.3224H70.8067V27.6935Z" fill="#867E88"/>
<path d="M69.5651 38.8705C70.9369 38.8705 72.0489 37.7584 72.0489 36.3866C72.0489 35.0148 70.9369 33.9028 69.5651 33.9028C68.1933 33.9028 67.0812 35.0148 67.0812 36.3866C67.0812 37.7584 68.1933 38.8705 69.5651 38.8705Z" fill="#C9C6CA"/>
<path d="M69.5644 28.9355C68.1926 28.9355 67.0806 27.8234 67.0806 26.4517V25.2096C67.0806 23.8377 68.1927 22.7258 69.5644 22.7258C70.9363 22.7258 72.0483 23.8379 72.0483 25.2096V26.4515C72.0484 27.8234 70.9363 28.9355 69.5644 28.9355Z" fill="#EDEBED"/>
<path d="M70.8065 37.629C69.4348 37.629 68.3227 36.5169 68.3227 35.1452C68.3227 34.7812 68.4052 34.438 68.546 34.1266C67.6835 34.5161 67.0807 35.3793 67.0807 36.3871C67.0807 37.7588 68.1929 38.871 69.5646 38.871C70.5724 38.871 71.4358 38.2682 71.8251 37.4057C71.5137 37.5465 71.1705 37.629 70.8065 37.629Z" fill="#B7B2B8"/>
<path d="M69.5644 26.4515V25.2096C69.5644 24.2925 70.0671 23.5006 70.8064 23.0703C70.4397 22.8569 70.0192 22.7258 69.5644 22.7258C68.1927 22.7258 67.0806 23.8377 67.0806 25.2096V26.4515C67.0806 27.8232 68.1927 28.9354 69.5644 28.9354C70.0192 28.9354 70.4399 28.8042 70.8064 28.5908C70.0672 28.1607 69.5644 27.3686 69.5644 26.4515Z" fill="#DBD9DC"/>
<path d="M62.1126 23.9674H59.6288V42.5963H62.1126V23.9674Z" fill="#867E88"/>
<path d="M60.871 35.1454C62.2427 35.1454 63.3548 34.0333 63.3548 32.6615C63.3548 31.2897 62.2427 30.1777 60.871 30.1777C59.4992 30.1777 58.3871 31.2897 58.3871 32.6615C58.3871 34.0333 59.4992 35.1454 60.871 35.1454Z" fill="#C9C6CA"/>
<path d="M60.871 25.2096C59.4991 25.2096 58.3871 24.0975 58.3871 22.7258V21.4839C58.3871 20.1121 59.4991 19 60.871 19C62.2428 19 63.3548 20.1121 63.3548 21.4839V22.7258C63.3548 24.0976 62.2428 25.2096 60.871 25.2096Z" fill="#EDEBED"/>
<path d="M62.1129 33.9033C60.7412 33.9033 59.629 32.7911 59.629 31.4194C59.629 31.0555 59.7116 30.7123 59.8524 30.4008C58.9899 30.7903 58.3871 31.6536 58.3871 32.6614C58.3871 34.0331 59.4992 35.1452 60.871 35.1452C61.8787 35.1452 62.7421 34.5424 63.1315 33.68C62.82 33.8206 62.4768 33.9033 62.1129 33.9033Z" fill="#B7B2B8"/>
<path d="M60.871 22.7258V21.4839C60.871 20.5668 61.3736 19.7748 62.1129 19.3445C61.7464 19.1311 61.3257 19 60.871 19C59.4992 19 58.3871 20.112 58.3871 21.4839V22.7258C58.3871 24.0975 59.4992 25.2096 60.871 25.2096C61.3257 25.2096 61.7464 25.0785 62.1129 24.8651C61.3736 24.435 60.871 23.6429 60.871 22.7258Z" fill="#DBD9DC"/>
<path d="M53.42 27.6935H50.9362V46.3224H53.42V27.6935Z" fill="#867E88"/>
<path d="M52.1768 38.8705C53.5486 38.8705 54.6607 37.7584 54.6607 36.3866C54.6607 35.0148 53.5486 33.9028 52.1768 33.9028C50.8051 33.9028 49.693 35.0148 49.693 36.3866C49.693 37.7584 50.8051 38.8705 52.1768 38.8705Z" fill="#C9C6CA"/>
<path d="M52.1775 28.9355C50.8056 28.9355 49.6936 27.8234 49.6936 26.4517V25.2096C49.6936 23.8377 50.8058 22.7258 52.1775 22.7258C53.5494 22.7258 54.6614 23.8379 54.6614 25.2096V26.4515C54.6614 27.8234 53.5492 28.9355 52.1775 28.9355Z" fill="#EDEBED"/>
<path d="M53.4194 37.629C52.0477 37.629 50.9356 36.5169 50.9356 35.1452C50.9356 34.7812 51.0181 34.438 51.1589 34.1266C50.2964 34.5161 49.6936 35.3793 49.6936 36.3871C49.6936 37.7588 50.8058 38.871 52.1775 38.871C53.1853 38.871 54.0487 38.2682 54.438 37.4057C54.1266 37.5465 53.7834 37.629 53.4194 37.629Z" fill="#B7B2B8"/>
<path d="M52.1775 26.4515V25.2096C52.1775 24.2925 52.6801 23.5006 53.4194 23.0703C53.0528 22.8569 52.6323 22.7258 52.1775 22.7258C50.8058 22.7258 49.6936 23.8377 49.6936 25.2096V26.4515C49.6936 27.8232 50.8058 28.9354 52.1775 28.9354C52.6323 28.9354 53.0529 28.8042 53.4194 28.5908C52.6801 28.1607 52.1775 27.3686 52.1775 26.4515Z" fill="#DBD9DC"/>
<path d="M44.7259 31.4193H42.2421V50.0481H44.7259V31.4193Z" fill="#867E88"/>
<path d="M69.5644 43.8387C68.1927 43.8387 67.0806 44.9508 67.0806 46.3225V57.5H72.0483V46.3225C72.0484 44.9508 70.9363 43.8387 69.5644 43.8387Z" fill="#C9C6CA"/>
<path d="M70.8065 44.1832C70.4399 43.9698 70.0194 43.8387 69.5646 43.8387C68.1929 43.8387 67.0807 44.9508 67.0807 46.3225V57.5H69.5646V46.3225C69.5645 45.4056 70.0672 44.6135 70.8065 44.1832Z" fill="#B7B2B8"/>
<path d="M52.1775 43.8387C50.8058 43.8387 49.6936 44.9508 49.6936 46.3225V56.2581H54.6614V46.3225C54.6614 44.9508 53.5492 43.8387 52.1775 43.8387Z" fill="#C9C6CA"/>
<path d="M53.4194 44.1832C53.0528 43.9698 52.6323 43.8387 52.1775 43.8387C50.8058 43.8387 49.6936 44.9508 49.6936 46.3225V56.2581H52.1775V46.3225C52.1775 45.4056 52.6801 44.6135 53.4194 44.1832Z" fill="#B7B2B8"/>
<path d="M60.871 40.1129C59.4992 40.1129 58.3871 41.225 58.3871 42.5968V52.5323H63.3548V42.5968C63.3548 41.225 62.2427 40.1129 60.871 40.1129Z" fill="#C9C6CA"/>
<path d="M62.1129 40.4574C61.7462 40.244 61.3257 40.1129 60.871 40.1129C59.4992 40.1129 58.3871 41.225 58.3871 42.5968V52.5323H60.871V42.5968C60.871 41.6797 61.3736 40.8877 62.1129 40.4574Z" fill="#B7B2B8"/>
<path d="M43.4839 47.5645C42.1121 47.5645 41 48.6766 41 50.0483V56.1674C41 57.8559 41.4288 59.5136 42.2487 60.9897L45.9677 57.5V50.0485C45.9677 48.6766 44.8557 47.5645 43.4839 47.5645Z" fill="#C9C6CA"/>
<path d="M43.4839 56.1674V50.0483C43.4839 49.1312 43.9865 48.3393 44.7258 47.909C44.3591 47.6956 43.9386 47.5645 43.4839 47.5645C42.1121 47.5645 41 48.6766 41 50.0483V56.1674C41 57.8559 41.4288 59.5136 42.2487 60.9897L44.02 59.3276C43.6783 58.3112 43.4839 57.2486 43.4839 56.1674Z" fill="#B7B2B8"/>
<path d="M76.0147 58.7019L63.0391 51.2874C61.6751 50.5079 60.0226 50.4196 58.5832 51.0493L43.4259 57.6806C42.1631 58.2332 41.5689 59.7574 42.2347 60.9644C42.2393 60.9728 42.244 60.9813 42.2486 60.9897L46.5844 68.7939C46.9945 69.532 47.2096 70.3623 47.2096 71.2066V76.129C47.2096 77.5009 48.3217 78.6129 49.6934 78.6129H69.5644C70.9363 78.6129 72.0483 77.5008 72.0483 76.129V71.3439C72.0483 70.4129 72.3099 69.5007 72.8034 68.7112L76.8886 62.1749C77.636 60.9791 77.239 59.4015 76.0147 58.7019Z" fill="#EDEBED"/>
<path d="M54.9699 73.6451C52.9123 73.6451 51.2442 71.977 51.2442 69.9194V68.6973C51.2442 67.853 51.0289 67.0227 50.619 66.2847L46.2831 58.4804C46.2784 58.4719 46.2736 58.4635 46.2691 58.4551C45.9178 57.8182 45.9248 57.0962 46.1882 56.472L43.3584 57.71C42.0947 58.2629 41.5804 59.7829 42.2487 60.9896L46.5844 68.7938C46.9946 69.532 47.2096 70.3623 47.2096 71.2067V76.1291C47.2096 77.501 48.3218 78.613 49.6935 78.613H69.5644C70.9363 78.613 72.0483 77.5009 72.0483 76.1291V76.1037V73.6453H54.9699V73.6451Z" fill="#DBD9DC"/>
<path d="M43.4844 42.5971C44.8561 42.5971 45.9682 41.4851 45.9682 40.1133C45.9682 38.7415 44.8561 37.6294 43.4844 37.6294C42.1126 37.6294 41.0005 38.7415 41.0005 40.1133C41.0005 41.4851 42.1126 42.5971 43.4844 42.5971Z" fill="#C9C6CA"/>
<path d="M43.4839 32.6613C42.112 32.6613 41 31.5492 41 30.1775V28.9356C41 27.5637 42.1121 26.4517 43.4839 26.4517C44.8557 26.4517 45.9677 27.5639 45.9677 28.9356V30.1775C45.9677 31.5492 44.8557 32.6613 43.4839 32.6613Z" fill="#EDEBED"/>
<path d="M50.9354 78.6129L51.707 81.6992C51.9835 82.8049 52.9769 83.5807 54.1168 83.5807H65.1413C66.2811 83.5807 67.2744 82.805 67.551 81.6992L68.3227 78.6129H50.9354Z" fill="#B7B2B8"/>
<path d="M44.7258 41.3548C43.3541 41.3548 42.2419 40.2426 42.2419 38.8709C42.2419 38.507 42.3245 38.1638 42.4653 37.8523C41.6028 38.2419 41 39.1051 41 40.1129C41 41.4846 42.1121 42.5967 43.4839 42.5967C44.4916 42.5967 45.355 41.9939 45.7444 41.1315C45.4329 41.2722 45.0899 41.3548 44.7258 41.3548Z" fill="#B7B2B8"/>
<path d="M43.4839 30.1775V28.9356C43.4839 28.0185 43.9865 27.2265 44.7258 26.7963C44.3591 26.5829 43.9386 26.4517 43.4839 26.4517C42.1121 26.4517 41 27.5637 41 28.9356V30.1775C41 31.5492 42.1121 32.6613 43.4839 32.6613C43.9386 32.6613 44.3593 32.5302 44.7258 32.3168C43.9865 31.8865 43.4839 31.0944 43.4839 30.1775Z" fill="#DBD9DC"/>
<path d="M56.2519 81.0968H67.7016L68.3226 78.6129H50.9354L51.7071 81.6992C51.9835 82.8049 52.977 83.5806 54.1168 83.5806H55.2823L55.0471 82.6399C54.8512 81.8561 55.444 81.0968 56.2519 81.0968Z" fill="#9C969E"/>
<path d="M63.3552 88.5481H55.9037V91.0319H63.3552V88.5481Z" fill="#9C969E"/>
<path d="M59.6294 88.5482H55.9036V91.032H59.6294V88.5482Z" fill="#867E88"/>
</svg>
