<svg width="121" height="96" viewBox="0 0 121 96" fill="none" xmlns="http://www.w3.org/2000/svg">
<rect width="120.847" height="96" rx="16" fill="#00C8B4"/>
<rect width="120.847" height="96" rx="16" stroke="#6F6571"/>
<g opacity="0.15">
<path d="M81.8376 63.2816L43.2646 58.2132L42.8748 61.1803L81.4477 66.2487L81.8376 63.2816Z" fill="#9C969E"/>
<path d="M70.6431 35.7885C70.5648 35.1064 70.0322 34.5651 69.3514 34.4756L62.7666 33.6104C62.0859 33.521 61.4316 33.9063 61.1796 34.545L59.3449 39.1975L71.2136 40.757L70.6431 35.7885Z" fill="#AEA8AF"/>
<path d="M73.6556 55.2906L72.779 42.176C72.7314 41.4643 72.1882 40.8851 71.4809 40.7921L59.0781 39.1624C58.371 39.0695 57.6964 39.4886 57.4666 40.1638L53.2315 52.6067C53.0409 53.1665 52.9061 53.7436 52.829 54.3298L50.8006 69.7676C50.6929 70.5869 51.2698 71.3385 52.0892 71.4461L69.8921 73.7854C70.7115 73.893 71.463 73.316 71.5706 72.4968L73.5991 57.059C73.6761 56.4728 73.6951 55.8806 73.6556 55.2906Z" fill="#DBD9DC"/>
<path d="M58.2185 70.7425L60.247 55.3047C60.324 54.7185 60.4589 54.1412 60.6494 53.5816L64.8846 41.1387C65.1144 40.4635 65.7888 40.0444 66.4961 40.1373L59.0783 39.1627C58.3712 39.0697 57.6966 39.4888 57.4668 40.164L53.2316 52.6069C53.0411 53.1667 52.9062 53.7439 52.8292 54.3301L50.8007 69.7678C50.6931 70.5871 51.27 71.3387 52.0894 71.4464L59.5072 72.421C58.6878 72.3134 58.1109 71.5617 58.2185 70.7425Z" fill="#C9C6CA"/>
<path d="M71.4809 40.7921L59.0781 39.1625C58.371 39.0695 57.6964 39.4886 57.4666 40.1638L53.2315 52.6067C53.1366 52.8852 53.0559 53.1681 52.9889 53.4541L73.6709 56.1716C73.6802 55.8781 73.6752 55.5839 73.6555 55.2904L72.7789 42.1758C72.7314 41.4643 72.1882 40.8851 71.4809 40.7921Z" fill="#EDEBED"/>
<path d="M60.4069 54.429C60.4737 54.1428 60.5546 53.8599 60.6494 53.5816L64.8846 41.1387C65.1144 40.4635 65.7888 40.0444 66.4961 40.1373L59.0783 39.1627C58.3712 39.0698 57.6966 39.4888 57.4668 40.164L53.2316 52.6069C53.1368 52.8854 53.0561 53.1683 52.9891 53.4543L60.4069 54.429Z" fill="#DBD9DC"/>
<path d="M18.6279 50.4485L45.3321 53.9574C46.1515 54.065 46.7284 54.8165 46.6208 55.6359L45.4511 64.5372C45.3435 65.3566 44.592 65.9335 43.7727 65.8258L17.0684 62.317C16.249 62.2093 15.6721 61.4579 15.7798 60.6385L16.9494 51.7371C17.057 50.9178 17.8085 50.3409 18.6279 50.4485Z" fill="#59D8FF"/>
<path d="M64.1097 48.8788C62.4711 48.6635 60.968 49.8173 60.7527 51.456L60.3628 54.4232L66.2971 55.2029L66.6869 52.2358C66.9023 50.597 65.7483 49.0941 64.1097 48.8788Z" fill="#99E7FF"/>
<path d="M57.0059 57.0004C56.1858 56.8927 55.6095 56.1419 55.7173 55.3219L55.9122 53.8384C56.02 53.0183 56.7708 52.442 57.5907 52.5498C58.4106 52.6575 58.9871 53.4083 58.8793 54.2282L58.6844 55.7118C58.5766 56.5319 57.8258 57.1082 57.0059 57.0004Z" fill="#9C969E"/>
<path d="M68.8743 58.5599C68.0542 58.4521 67.478 57.7013 67.5857 56.8814L67.7806 55.3978C67.8884 54.5777 68.6392 54.0015 69.4591 54.1092C70.2791 54.217 70.8555 54.9678 70.7478 55.7877L70.5528 57.2713C70.4451 58.0914 69.6944 58.6677 68.8743 58.5599Z" fill="#9C969E"/>
<path d="M26.0452 51.4239L23.0781 51.034L21.5187 62.9018L24.4858 63.2916L26.0452 51.4239Z" fill="#99E7FF"/>
<path d="M40.8808 53.3732L37.9137 52.9833L36.3543 64.8511L39.3214 65.241L40.8808 53.3732Z" fill="#99E7FF"/>
<path d="M33.463 52.3985L30.4959 52.0087L28.9365 63.8764L31.9036 64.2663L33.463 52.3985Z" fill="#99E7FF"/>
<path d="M80.938 58.6359L107.642 62.1447C108.462 62.2524 109.039 63.0038 108.931 63.8232L107.761 72.7246C107.654 73.5439 106.902 74.1208 106.083 74.0132L79.3785 70.5043C78.5591 70.3967 77.9822 69.6452 78.0898 68.8258L79.2595 59.9245C79.3671 59.1051 80.1186 58.5282 80.938 58.6359Z" fill="#59D8FF"/>
<path d="M88.3555 59.6112L85.3884 59.2214L83.829 71.0891L86.7962 71.479L88.3555 59.6112Z" fill="#99E7FF"/>
<path d="M103.191 61.5606L100.224 61.1707L98.6646 73.0385L101.632 73.4283L103.191 61.5606Z" fill="#99E7FF"/>
<path d="M95.7732 60.5859L92.8061 60.196L91.2467 72.0638L94.2139 72.4537L95.7732 60.5859Z" fill="#99E7FF"/>
<path d="M64.1097 48.8788C62.4711 48.6635 60.968 49.8173 60.7527 51.456L60.3628 54.4232C60.5782 52.7844 62.0812 51.6306 63.7198 51.8459C65.3584 52.0612 66.5124 53.5641 66.2971 55.2029L66.6869 52.2358C66.9023 50.597 65.7483 49.0941 64.1097 48.8788Z" fill="#59D8FF"/>
<path d="M65.734 34.0003L62.7668 33.6104C62.0861 33.521 61.4319 33.9064 61.1798 34.545L59.3452 39.1975L62.3123 39.5874L64.1469 34.9349C64.3988 34.2962 65.0531 33.9109 65.734 34.0003Z" fill="#9C969E"/>
</g>
<g opacity="0.1">
<path d="M84.244 45.6447H35.6459V49.383H84.244V45.6447Z" fill="#9C969E"/>
<path d="M65.9053 13.4158C65.6973 12.5837 64.9497 12 64.0918 12H55.7957C54.9381 12 54.1904 12.5837 53.9822 13.4158L52.4671 19.4766H67.4204L65.9053 13.4158Z" fill="#AEA8AF"/>
<path d="M72.8101 37.0793L69.5902 20.9793C69.4154 20.1056 68.6484 19.4766 67.7572 19.4766H52.131C51.2401 19.4766 50.4728 20.1054 50.298 20.9791L47.0776 37.0791C46.9328 37.8034 46.8597 38.5401 46.8597 39.2787V58.7288C46.8597 59.7609 47.6965 60.5979 48.7288 60.5979H71.1587C72.1911 60.5979 73.0279 59.7609 73.0279 58.7288V39.2787C73.0279 38.5401 72.955 37.8036 72.8101 37.0793Z" fill="#DBD9DC"/>
<path d="M56.2056 58.729V39.2789C56.2056 38.5403 56.2787 37.8033 56.4236 37.0793L59.644 20.9793C59.8187 20.1056 60.5858 19.4768 61.4769 19.4768H52.1312C51.2403 19.4768 50.473 20.1056 50.2983 20.9793L47.0779 37.0793C46.933 37.8036 46.8599 38.5403 46.8599 39.2789V58.729C46.8599 59.7611 47.6967 60.5981 48.729 60.5981H58.0747C57.0424 60.5981 56.2056 59.7611 56.2056 58.729Z" fill="#C9C6CA"/>
<path d="M67.7572 19.4766H52.131C51.2401 19.4766 50.4728 20.1054 50.2981 20.979L47.0776 37.0791C47.0054 37.4394 46.9516 37.8029 46.9151 38.168H72.9724C72.9362 37.8029 72.8821 37.4394 72.8099 37.0791L69.59 20.979C69.4154 20.1056 68.6484 19.4766 67.7572 19.4766Z" fill="#EDEBED"/>
<path d="M56.2611 38.1682C56.2973 37.8029 56.3514 37.4394 56.4236 37.0793L59.644 20.9793C59.8187 20.1056 60.5858 19.4768 61.4769 19.4768H52.1312C51.2403 19.4768 50.473 20.1056 50.2983 20.9793L47.0779 37.0793C47.0057 37.4396 46.9518 37.8031 46.9153 38.1682H56.2611Z" fill="#DBD9DC"/>
<path d="M3.86914 40.0373H37.5139C38.5463 40.0373 39.383 40.8741 39.383 41.9065V53.1213C39.383 54.1537 38.5463 54.9905 37.5139 54.9905H3.86914C2.83679 54.9905 2 54.1537 2 53.1213L2 41.9065C2 40.8741 2.83679 40.0373 3.86914 40.0373Z" fill="#59D8FF"/>
<path d="M59.9438 30.6916C57.8793 30.6916 56.2055 32.3652 56.2055 34.4299V38.1681H63.6821V34.4299C63.6821 32.3652 62.0083 30.6916 59.9438 30.6916Z" fill="#99E7FF"/>
<path d="M52.4674 41.9065C51.4341 41.9065 50.5982 41.0704 50.5982 40.0374V38.1682C50.5982 37.135 51.4343 36.2991 52.4674 36.2991C53.5004 36.2991 54.3365 37.1352 54.3365 38.1682V40.0374C54.3365 41.0706 53.5004 41.9065 52.4674 41.9065Z" fill="#9C969E"/>
<path d="M67.4206 41.9066C66.3873 41.9066 65.5514 41.0705 65.5514 40.0374V38.1683C65.5514 37.135 66.3875 36.2991 67.4206 36.2991C68.4536 36.2991 69.2897 37.1353 69.2897 38.1683V40.0374C69.2897 41.0707 68.4538 41.9066 67.4206 41.9066Z" fill="#9C969E"/>
<path d="M13.2145 40.0383H9.47626V54.9905H13.2145V40.0383Z" fill="#99E7FF"/>
<path d="M31.9059 40.0383H28.1676V54.9905H31.9059V40.0383Z" fill="#99E7FF"/>
<path d="M22.5602 40.0383H18.8219V54.9905H22.5602V40.0383Z" fill="#99E7FF"/>
<path d="M82.3737 40.0374H116.019C117.051 40.0374 117.888 40.8741 117.888 41.9065V53.1213C117.888 54.1537 117.051 54.9905 116.019 54.9905H82.3737C81.3414 54.9905 80.5046 54.1537 80.5046 53.1213V41.9065C80.5046 40.8741 81.3414 40.0374 82.3737 40.0374Z" fill="#59D8FF"/>
<path d="M91.7194 40.0383H87.9811V54.9905H91.7194V40.0383Z" fill="#99E7FF"/>
<path d="M110.411 40.0382H106.672V54.9905H110.411V40.0382Z" fill="#99E7FF"/>
<path d="M101.065 40.0382H97.3266V54.9904H101.065V40.0382Z" fill="#99E7FF"/>
<path d="M59.9438 30.6916C57.8793 30.6916 56.2055 32.3652 56.2055 34.4299V38.1681C56.2055 36.1034 57.8793 34.4299 59.9438 34.4299C62.0083 34.4299 63.6821 36.1034 63.6821 38.1681V34.4299C63.6821 32.3652 62.0083 30.6916 59.9438 30.6916Z" fill="#59D8FF"/>
<path d="M59.5343 12H55.796C54.9384 12 54.1908 12.5838 53.9825 13.4158L52.4674 19.4766H56.2057L57.7208 13.4158C57.9288 12.5838 58.6765 12 59.5343 12Z" fill="#9C969E"/>
</g>
<path d="M83.4636 50.98L41.6795 62.1761L42.5407 65.3902L84.3249 54.1942L83.4636 50.98Z" fill="#9C969E"/>
<path d="M60.2712 27.4948C59.9007 26.8273 59.1234 26.4977 58.3859 26.6953L51.2529 28.6066C50.5156 28.8041 50.0073 29.4783 50.0199 30.2416L50.1135 35.8017L62.9702 32.3567L60.2712 27.4948Z" fill="#AEA8AF"/>
<path d="M71.6595 46.2497L65.1819 33.1489C64.8304 32.4379 64.026 32.0738 63.2598 32.2791L49.8245 35.8791C49.0585 36.0844 48.5436 36.8018 48.5947 37.5932L49.5349 52.1777C49.5772 52.8338 49.6841 53.4841 49.8543 54.1191L54.3352 70.8421C54.573 71.7296 55.4853 72.2564 56.3729 72.0186L75.6579 66.8512C76.5455 66.6134 77.0721 65.7009 76.8343 64.8135L72.3534 48.0905C72.1833 47.4555 71.9509 46.839 71.6595 46.2497Z" fill="#DBD9DC"/>
<path d="M62.3708 68.6892L57.8899 51.9662C57.7197 51.3312 57.6128 50.6807 57.5705 50.0248L56.6303 35.4403C56.5792 34.6488 57.0939 33.9315 57.8601 33.7262L49.8247 35.8793C49.0587 36.0845 48.5439 36.8019 48.5949 37.5933L49.5352 52.1779C49.5775 52.834 49.6844 53.4843 49.8545 54.1193L54.3354 70.8423C54.5732 71.7297 55.4855 72.2566 56.3731 72.0187L64.4085 69.8657C63.5208 70.1035 62.6085 69.5766 62.3708 68.6892Z" fill="#C9C6CA"/>
<path d="M63.2598 32.2791L49.8245 35.8791C49.0585 36.0844 48.5436 36.8017 48.5947 37.5932L49.5349 52.1777C49.5559 52.5042 49.5933 52.8291 49.6461 53.1514L72.0499 47.1483C71.9346 46.8428 71.8044 46.5427 71.6593 46.2495L65.1817 33.1487C64.8304 32.4379 64.026 32.0738 63.2598 32.2791Z" fill="#EDEBED"/>
<path d="M57.6817 50.9985C57.6286 50.6761 57.5914 50.3511 57.5705 50.0248L56.6303 35.4403C56.5792 34.6488 57.0939 33.9315 57.8601 33.7262L49.8247 35.8793C49.0588 36.0845 48.5439 36.8019 48.5949 37.5933L49.5352 52.1779C49.5561 52.5043 49.5935 52.8293 49.6463 53.1516L57.6817 50.9985Z" fill="#DBD9DC"/>
<path d="M13.0663 64.6756L41.9937 56.9245C42.8813 56.6867 43.7936 57.2134 44.0314 58.101L46.6151 67.7434C46.8529 68.631 46.3262 69.5432 45.4386 69.7811L16.5112 77.5321C15.6236 77.77 14.7114 77.2433 14.4735 76.3557L11.8899 66.7133C11.652 65.8257 12.1787 64.9134 13.0663 64.6756Z" fill="#59D8FF"/>
<path d="M59.1257 43.7218C57.3507 44.1974 56.2971 46.0219 56.7728 47.7971L57.634 51.0113L64.0623 49.2888L63.201 46.0747C62.7254 44.2995 60.9007 43.2462 59.1257 43.7218Z" fill="#99E7FF"/>
<path d="M55.2811 55.0866C54.3927 55.3247 53.4814 54.7984 53.2434 53.9102L52.8128 52.3031C52.5748 51.4147 53.1011 50.5034 53.9893 50.2654C54.8775 50.0274 55.789 50.5537 56.0269 51.4419L56.4576 53.0489C56.6956 53.9373 56.1693 54.8486 55.2811 55.0866Z" fill="#9C969E"/>
<path d="M68.1376 51.6417C67.2492 51.8798 66.3379 51.3535 66.0999 50.4653L65.6693 48.8582C65.4313 47.9698 65.9576 47.0585 66.8458 46.8205C67.734 46.5825 68.6455 47.1088 68.8835 47.997L69.3141 49.6041C69.5521 50.4924 69.026 51.4037 68.1376 51.6417Z" fill="#9C969E"/>
<path d="M21.1015 62.5234L17.8873 63.3846L21.332 76.2404L24.5462 75.3792L21.1015 62.5234Z" fill="#99E7FF"/>
<path d="M37.1721 58.2173L33.958 59.0785L37.4027 71.9343L40.6168 71.0731L37.1721 58.2173Z" fill="#99E7FF"/>
<path d="M29.1368 60.3703L25.9227 61.2316L29.3674 74.0873L32.5815 73.2261L29.1368 60.3703Z" fill="#99E7FF"/>
<path d="M80.5638 46.5897L109.491 38.8386C110.379 38.6008 111.291 39.1275 111.529 40.0151L114.113 49.6575C114.35 50.5451 113.824 51.4573 112.936 51.6952L84.0087 59.4463C83.1211 59.6841 82.2088 59.1574 81.971 58.2698L79.3873 48.6274C79.1495 47.7398 79.6762 46.8275 80.5638 46.5897Z" fill="#59D8FF"/>
<path d="M88.5991 44.4375L85.385 45.2987L88.8297 58.1545L92.0438 57.2932L88.5991 44.4375Z" fill="#99E7FF"/>
<path d="M104.67 40.1314L101.456 40.9926L104.9 53.8483L108.114 52.9871L104.67 40.1314Z" fill="#99E7FF"/>
<path d="M96.6344 42.2844L93.4203 43.1456L96.865 56.0014L100.079 55.1402L96.6344 42.2844Z" fill="#99E7FF"/>
<path d="M59.1257 43.7218C57.3507 44.1974 56.2971 46.0219 56.7728 47.7971L57.634 51.0113C57.1583 49.2361 58.2119 47.4115 59.9869 46.9359C61.7619 46.4603 63.5866 47.5136 64.0623 49.2888L63.201 46.0747C62.7254 44.2995 60.9007 43.2462 59.1257 43.7218Z" fill="#59D8FF"/>
<path d="M54.4673 27.7453L51.2531 28.6065C50.5158 28.8041 50.0075 29.4782 50.0201 30.2416L50.1137 35.8016L53.3278 34.9404L53.2342 29.3803C53.2214 28.617 53.7297 27.9429 54.4673 27.7453Z" fill="#9C969E"/>
</svg>
