<svg width="105" height="29" viewBox="0 0 105 29" fill="none" xmlns="http://www.w3.org/2000/svg">
<rect width="105" height="29" rx="14.5" fill="#5D00EF"/>
<path d="M10.9703 12.064C10.6583 12.064 10.4103 12.14 10.2263 12.292C10.0503 12.436 9.96228 12.632 9.96228 12.88C9.96228 13.12 10.0703 13.312 10.2863 13.456C10.5103 13.6 11.0183 13.772 11.8103 13.972C12.6103 14.164 13.2303 14.456 13.6703 14.848C14.1103 15.24 14.3303 15.812 14.3303 16.564C14.3303 17.316 14.0463 17.928 13.4783 18.4C12.9183 18.864 12.1783 19.096 11.2583 19.096C9.93028 19.096 8.73428 18.604 7.67028 17.62L8.78628 16.252C9.69028 17.044 10.5263 17.44 11.2943 17.44C11.6383 17.44 11.9063 17.368 12.0983 17.224C12.2983 17.072 12.3983 16.872 12.3983 16.624C12.3983 16.368 12.2943 16.168 12.0863 16.024C11.8783 15.872 11.4663 15.72 10.8503 15.568C9.87428 15.336 9.15828 15.036 8.70228 14.668C8.25428 14.292 8.03028 13.708 8.03028 12.916C8.03028 12.116 8.31428 11.5 8.88228 11.068C9.45828 10.636 10.1743 10.42 11.0303 10.42C11.5903 10.42 12.1503 10.516 12.7103 10.708C13.2703 10.9 13.7583 11.172 14.1743 11.524L13.2263 12.892C12.4983 12.34 11.7463 12.064 10.9703 12.064ZM17.5426 15.52V19H15.7426V10.096H17.5426V13.264C18.0866 12.712 18.6946 12.436 19.3666 12.436C20.0466 12.436 20.6186 12.676 21.0826 13.156C21.5466 13.636 21.7786 14.276 21.7786 15.076V19H19.9786V15.472C19.9786 14.48 19.6146 13.984 18.8866 13.984C18.5266 13.984 18.2106 14.116 17.9386 14.38C17.6746 14.636 17.5426 15.016 17.5426 15.52ZM24.8467 15.772C24.8467 16.3 24.9947 16.732 25.2907 17.068C25.5947 17.396 25.9787 17.56 26.4427 17.56C26.9147 17.56 27.2987 17.396 27.5947 17.068C27.8987 16.732 28.0507 16.3 28.0507 15.772C28.0507 15.244 27.8987 14.812 27.5947 14.476C27.2987 14.14 26.9147 13.972 26.4427 13.972C25.9787 13.972 25.5947 14.14 25.2907 14.476C24.9947 14.812 24.8467 15.244 24.8467 15.772ZM29.8627 15.772C29.8627 16.708 29.5387 17.496 28.8907 18.136C28.2427 18.776 27.4267 19.096 26.4427 19.096C25.4667 19.096 24.6547 18.776 24.0067 18.136C23.3587 17.496 23.0347 16.708 23.0347 15.772C23.0347 14.836 23.3587 14.048 24.0067 13.408C24.6547 12.76 25.4667 12.436 26.4427 12.436C27.4267 12.436 28.2427 12.76 28.8907 13.408C29.5387 14.048 29.8627 14.836 29.8627 15.772ZM34.4425 19H32.5825L30.3865 12.544H32.2465L33.5065 16.444L34.7665 12.544H36.5065L37.7665 16.444L39.0265 12.544H40.8985L38.7025 19H36.8305L35.6425 15.484L34.4425 19ZM46.6768 16.996C46.6768 17.628 46.4408 18.136 45.9688 18.52C45.5048 18.904 44.9128 19.096 44.1928 19.096C43.7128 19.096 43.2128 19.012 42.6928 18.844C42.1728 18.668 41.7048 18.412 41.2888 18.076L42.0808 16.948C42.7528 17.468 43.4688 17.728 44.2288 17.728C44.4608 17.728 44.6448 17.684 44.7808 17.596C44.9168 17.5 44.9848 17.376 44.9848 17.224C44.9848 17.072 44.8888 16.932 44.6968 16.804C44.5128 16.676 44.2408 16.556 43.8808 16.444C43.5288 16.332 43.2568 16.236 43.0648 16.156C42.8808 16.076 42.6688 15.96 42.4288 15.808C41.9408 15.504 41.6968 15.056 41.6968 14.464C41.6968 13.864 41.9368 13.376 42.4168 13C42.8968 12.624 43.5168 12.436 44.2768 12.436C45.0368 12.436 45.7968 12.692 46.5568 13.204L45.8848 14.404C45.3248 14.02 44.7648 13.828 44.2048 13.828C43.6528 13.828 43.3768 13.98 43.3768 14.284C43.3768 14.452 43.4648 14.584 43.6408 14.68C43.8168 14.776 44.1088 14.888 44.5168 15.016C44.9248 15.144 45.2128 15.244 45.3808 15.316C45.5568 15.38 45.7648 15.484 46.0048 15.628C46.4528 15.9 46.6768 16.356 46.6768 16.996ZM56.2913 18.28C55.6193 18.824 54.8393 19.096 53.9513 19.096C53.0713 19.096 52.3473 18.872 51.7793 18.424C51.2113 17.968 50.9273 17.348 50.9273 16.564C50.9273 15.684 51.5153 14.904 52.6913 14.224C52.4273 13.904 52.2353 13.624 52.1153 13.384C51.9953 13.136 51.9353 12.848 51.9353 12.52C51.9353 11.84 52.1793 11.32 52.6673 10.96C53.1633 10.6 53.7473 10.42 54.4193 10.42C55.0913 10.42 55.6633 10.596 56.1353 10.948C56.6153 11.292 56.8553 11.776 56.8553 12.4C56.8553 13.184 56.2833 13.912 55.1393 14.584C55.5873 15.144 55.9233 15.548 56.1473 15.796C56.3473 15.428 56.4993 15.04 56.6033 14.632L58.0073 15.64C57.8233 16.144 57.5993 16.612 57.3353 17.044L58.5233 18.22L57.3353 19.348L56.2913 18.28ZM52.7153 16.624C52.7153 16.904 52.8313 17.136 53.0633 17.32C53.2953 17.504 53.5953 17.596 53.9633 17.596C54.3313 17.596 54.7273 17.42 55.1513 17.068C54.5673 16.452 54.0633 15.892 53.6393 15.388C53.0233 15.772 52.7153 16.184 52.7153 16.624ZM54.4193 11.836C54.2433 11.836 54.0833 11.9 53.9393 12.028C53.8033 12.148 53.7353 12.316 53.7353 12.532C53.7353 12.74 53.8953 13.044 54.2153 13.444C54.8153 13.124 55.1153 12.824 55.1153 12.544C55.1153 12.312 55.0433 12.136 54.8993 12.016C54.7553 11.896 54.5953 11.836 54.4193 11.836ZM69.0097 10.612V12.28H64.8337V14.008H68.5897V15.604H64.8337V17.344H69.1417V19H62.9617V10.612H69.0097ZM72.2053 12.544L73.3092 14.272L74.4493 12.544H76.5612L74.3413 15.7L76.6453 19H74.4973L73.2373 17.224L72.0133 19H69.9373L72.1933 15.712L70.0573 12.544H72.2053ZM81.4088 12.436C82.1608 12.436 82.8288 12.752 83.4128 13.384C84.0048 14.008 84.3008 14.796 84.3008 15.748C84.3008 16.7 84.0048 17.496 83.4128 18.136C82.8288 18.776 82.1408 19.096 81.3488 19.096C80.5648 19.096 79.9328 18.78 79.4528 18.148V21.328H77.6528V12.544H79.4528V13.264C80.0048 12.712 80.6568 12.436 81.4088 12.436ZM79.4288 15.784C79.4288 16.304 79.5728 16.732 79.8608 17.068C80.1568 17.396 80.5128 17.56 80.9288 17.56C81.3448 17.56 81.7088 17.396 82.0208 17.068C82.3328 16.732 82.4888 16.304 82.4888 15.784C82.4888 15.264 82.3368 14.828 82.0328 14.476C81.7288 14.124 81.3648 13.948 80.9408 13.948C80.5168 13.948 80.1568 14.124 79.8608 14.476C79.5728 14.82 79.4288 15.256 79.4288 15.784ZM87.085 15.772C87.085 16.3 87.233 16.732 87.529 17.068C87.833 17.396 88.217 17.56 88.681 17.56C89.153 17.56 89.537 17.396 89.833 17.068C90.137 16.732 90.289 16.3 90.289 15.772C90.289 15.244 90.137 14.812 89.833 14.476C89.537 14.14 89.153 13.972 88.681 13.972C88.217 13.972 87.833 14.14 87.529 14.476C87.233 14.812 87.085 15.244 87.085 15.772ZM92.101 15.772C92.101 16.708 91.777 17.496 91.129 18.136C90.481 18.776 89.665 19.096 88.681 19.096C87.705 19.096 86.893 18.776 86.245 18.136C85.597 17.496 85.273 16.708 85.273 15.772C85.273 14.836 85.597 14.048 86.245 13.408C86.893 12.76 87.705 12.436 88.681 12.436C89.665 12.436 90.481 12.76 91.129 13.408C91.777 14.048 92.101 14.836 92.101 15.772ZM98.2393 16.996C98.2393 17.628 98.0033 18.136 97.5313 18.52C97.0673 18.904 96.4753 19.096 95.7553 19.096C95.2753 19.096 94.7753 19.012 94.2553 18.844C93.7353 18.668 93.2673 18.412 92.8513 18.076L93.6433 16.948C94.3153 17.468 95.0313 17.728 95.7913 17.728C96.0233 17.728 96.2073 17.684 96.3433 17.596C96.4793 17.5 96.5473 17.376 96.5473 17.224C96.5473 17.072 96.4513 16.932 96.2593 16.804C96.0753 16.676 95.8033 16.556 95.4433 16.444C95.0913 16.332 94.8193 16.236 94.6273 16.156C94.4433 16.076 94.2313 15.96 93.9913 15.808C93.5033 15.504 93.2593 15.056 93.2593 14.464C93.2593 13.864 93.4993 13.376 93.9793 13C94.4593 12.624 95.0793 12.436 95.8393 12.436C96.5993 12.436 97.3593 12.692 98.1193 13.204L97.4473 14.404C96.8873 14.02 96.3273 13.828 95.7673 13.828C95.2153 13.828 94.9393 13.98 94.9393 14.284C94.9393 14.452 95.0273 14.584 95.2033 14.68C95.3793 14.776 95.6713 14.888 96.0793 15.016C96.4873 15.144 96.7753 15.244 96.9433 15.316C97.1193 15.38 97.3273 15.484 97.5673 15.628C98.0153 15.9 98.2393 16.356 98.2393 16.996Z" fill="white"/>
</svg>
