<svg width="156" height="395" viewBox="0 0 156 395" fill="none" xmlns="http://www.w3.org/2000/svg">
<path fill-rule="evenodd" clip-rule="evenodd" d="M156 49.2917H151.667H109.537L60.2454 0H0V2.94907V49.2917H58.9815L108.273 98.5833H151.667H156V49.2917ZM156 147.875H151.667H109.537L60.2454 98.5833H0V101.532V147.875H58.9815L108.273 197.167H151.667H156V147.875ZM156 246.459H151.667H109.537L60.2454 197.168H0V200.117V246.459H58.9815L108.273 295.751H151.667H156V246.459ZM156 345.042H151.667H109.537L60.2454 295.75H0V298.699V345.042H58.9815L108.273 394.333H151.667H156V345.042Z" fill="white" fill-opacity="0.1"/>
</svg>
