<svg width="60" height="30" viewBox="0 0 60 30" fill="none" xmlns="http://www.w3.org/2000/svg">
<rect width="60" height="30" rx="15" fill="#5D00EF"/>
<rect width="60" height="30" rx="15" stroke="black"/>
<path d="M19.3848 13.232V20H17.5128V13.232H15.1368V11.612H21.7608V13.232H19.3848ZM27.6641 20H25.9721V19.22C25.5081 19.804 24.9321 20.096 24.2441 20.096C23.5641 20.096 22.9921 19.9 22.5281 19.508C22.0641 19.108 21.8321 18.58 21.8321 17.924C21.8321 17.26 22.0721 16.764 22.5521 16.436C23.0321 16.108 23.6881 15.944 24.5201 15.944H25.8641V15.908C25.8641 15.22 25.5001 14.876 24.7721 14.876C24.4601 14.876 24.1281 14.94 23.7761 15.068C23.4321 15.188 23.1401 15.34 22.9001 15.524L22.0961 14.36C22.9441 13.744 23.9121 13.436 25.0001 13.436C25.7841 13.436 26.4241 13.632 26.9201 14.024C27.4161 14.416 27.6641 15.036 27.6641 15.884V20ZM25.8521 17.54V17.228H24.7241C24.0041 17.228 23.6441 17.452 23.6441 17.9C23.6441 18.132 23.7281 18.312 23.8961 18.44C24.0721 18.56 24.3201 18.62 24.6401 18.62C24.9601 18.62 25.2401 18.524 25.4801 18.332C25.7281 18.132 25.8521 17.868 25.8521 17.54ZM31.1051 20H29.3051V11.096H31.1051V20ZM34.609 20H32.809V11.096H34.609V15.668L36.613 13.532H38.881L36.421 16.148L38.977 20H36.841L35.197 17.528L34.609 18.14V20ZM44.6768 17.996C44.6768 18.628 44.4408 19.136 43.9688 19.52C43.5048 19.904 42.9128 20.096 42.1928 20.096C41.7128 20.096 41.2128 20.012 40.6928 19.844C40.1728 19.668 39.7048 19.412 39.2888 19.076L40.0808 17.948C40.7528 18.468 41.4688 18.728 42.2288 18.728C42.4608 18.728 42.6448 18.684 42.7808 18.596C42.9168 18.5 42.9848 18.376 42.9848 18.224C42.9848 18.072 42.8888 17.932 42.6968 17.804C42.5128 17.676 42.2408 17.556 41.8808 17.444C41.5288 17.332 41.2568 17.236 41.0648 17.156C40.8808 17.076 40.6688 16.96 40.4288 16.808C39.9408 16.504 39.6968 16.056 39.6968 15.464C39.6968 14.864 39.9368 14.376 40.4168 14C40.8968 13.624 41.5168 13.436 42.2768 13.436C43.0368 13.436 43.7968 13.692 44.5568 14.204L43.8848 15.404C43.3248 15.02 42.7648 14.828 42.2048 14.828C41.6528 14.828 41.3768 14.98 41.3768 15.284C41.3768 15.452 41.4648 15.584 41.6408 15.68C41.8168 15.776 42.1088 15.888 42.5168 16.016C42.9248 16.144 43.2128 16.244 43.3808 16.316C43.5568 16.38 43.7648 16.484 44.0048 16.628C44.4528 16.9 44.6768 17.356 44.6768 17.996Z" fill="white"/>
</svg>
