<svg width="163" height="58" viewBox="0 0 163 58" fill="none" xmlns="http://www.w3.org/2000/svg">
<rect width="163" height="58" rx="19" fill="#F8F8F8"/>
<circle cx="132.5" cy="28.5" r="17.5" fill="#5D00EF"/>
<path d="M131.946 24L136 28L131.946 32L131 31.0667L134.108 28L131 24.9333L131.946 24Z" fill="white"/>
<path d="M20.648 22.436L22.136 17.612H24.092L25.568 22.436L27.236 17.612H29.264L26.336 26H24.944L23.108 20.168L21.284 26H19.892L16.964 17.612H18.992L20.648 22.436ZM35.6667 25.064C34.9387 25.752 34.0827 26.096 33.0987 26.096C32.1227 26.096 31.3147 25.796 30.6747 25.196C30.0347 24.588 29.7147 23.776 29.7147 22.76C29.7147 21.744 30.0387 20.936 30.6867 20.336C31.3427 19.736 32.1147 19.436 33.0027 19.436C33.8907 19.436 34.6427 19.704 35.2587 20.24C35.8827 20.776 36.1947 21.512 36.1947 22.448V23.408H31.4907C31.5467 23.76 31.7307 24.048 32.0427 24.272C32.3547 24.496 32.7067 24.608 33.0987 24.608C33.7307 24.608 34.2507 24.396 34.6587 23.972L35.6667 25.064ZM34.3707 22.124C34.3307 21.74 34.1867 21.444 33.9387 21.236C33.6907 21.028 33.3867 20.924 33.0267 20.924C32.6747 20.924 32.3507 21.032 32.0547 21.248C31.7587 21.464 31.5867 21.756 31.5387 22.124H34.3707ZM41.2126 19.436C41.9966 19.436 42.6806 19.744 43.2646 20.36C43.8486 20.968 44.1406 21.752 44.1406 22.712C44.1406 23.672 43.8406 24.476 43.2406 25.124C42.6406 25.772 41.9566 26.096 41.1886 26.096C40.4286 26.096 39.7966 25.78 39.2926 25.148V26H37.4926V17.096H39.2926V20.264C39.7886 19.712 40.4286 19.436 41.2126 19.436ZM39.2686 22.784C39.2686 23.304 39.4126 23.732 39.7006 24.068C39.9966 24.396 40.3526 24.56 40.7686 24.56C41.1846 24.56 41.5486 24.396 41.8606 24.068C42.1726 23.732 42.3286 23.304 42.3286 22.784C42.3286 22.264 42.1766 21.828 41.8726 21.476C41.5686 21.124 41.2046 20.948 40.7806 20.948C40.3566 20.948 39.9966 21.124 39.7006 21.476C39.4126 21.82 39.2686 22.256 39.2686 22.784ZM20.996 32.612C22.492 32.612 23.64 32.98 24.44 33.716C25.24 34.444 25.64 35.46 25.64 36.764C25.64 38.068 25.248 39.1 24.464 39.86C23.688 40.62 22.5 41 20.9 41H18.032V32.612H20.996ZM21.092 39.344C21.948 39.344 22.604 39.128 23.06 38.696C23.524 38.264 23.756 37.636 23.756 36.812C23.756 35.988 23.524 35.356 23.06 34.916C22.604 34.468 21.9 34.244 20.948 34.244H19.904V39.344H21.092ZM32.6667 40.064C31.9387 40.752 31.0827 41.096 30.0987 41.096C29.1227 41.096 28.3147 40.796 27.6747 40.196C27.0347 39.588 26.7147 38.776 26.7147 37.76C26.7147 36.744 27.0387 35.936 27.6867 35.336C28.3427 34.736 29.1147 34.436 30.0027 34.436C30.8907 34.436 31.6427 34.704 32.2587 35.24C32.8827 35.776 33.1947 36.512 33.1947 37.448V38.408H28.4907C28.5467 38.76 28.7307 39.048 29.0427 39.272C29.3547 39.496 29.7067 39.608 30.0987 39.608C30.7307 39.608 31.2507 39.396 31.6587 38.972L32.6667 40.064ZM31.3707 37.124C31.3307 36.74 31.1867 36.444 30.9387 36.236C30.6907 36.028 30.3867 35.924 30.0267 35.924C29.6747 35.924 29.3507 36.032 29.0547 36.248C28.7587 36.464 28.5867 36.756 28.5387 37.124H31.3707ZM36.1389 41L33.5829 34.532H35.4549L37.0629 38.6L38.6709 34.532H40.5429L37.9869 41H36.1389ZM47.0221 40.064C46.2941 40.752 45.4381 41.096 44.4541 41.096C43.4781 41.096 42.6701 40.796 42.0301 40.196C41.3901 39.588 41.0701 38.776 41.0701 37.76C41.0701 36.744 41.3941 35.936 42.0421 35.336C42.6981 34.736 43.4701 34.436 44.3581 34.436C45.2461 34.436 45.9981 34.704 46.6141 35.24C47.2381 35.776 47.5501 36.512 47.5501 37.448V38.408H42.8461C42.9021 38.76 43.0861 39.048 43.3981 39.272C43.7101 39.496 44.0621 39.608 44.4541 39.608C45.0861 39.608 45.6061 39.396 46.0141 38.972L47.0221 40.064ZM45.7261 37.124C45.6861 36.74 45.5421 36.444 45.2941 36.236C45.0461 36.028 44.7421 35.924 44.3821 35.924C44.0301 35.924 43.7061 36.032 43.4101 36.248C43.1141 36.464 42.9421 36.756 42.8941 37.124H45.7261ZM50.6481 41H48.8481V32.096H50.6481V41ZM53.792 37.772C53.792 38.3 53.94 38.732 54.236 39.068C54.54 39.396 54.924 39.56 55.388 39.56C55.86 39.56 56.244 39.396 56.54 39.068C56.844 38.732 56.996 38.3 56.996 37.772C56.996 37.244 56.844 36.812 56.54 36.476C56.244 36.14 55.86 35.972 55.388 35.972C54.924 35.972 54.54 36.14 54.236 36.476C53.94 36.812 53.792 37.244 53.792 37.772ZM58.808 37.772C58.808 38.708 58.484 39.496 57.836 40.136C57.188 40.776 56.372 41.096 55.388 41.096C54.412 41.096 53.6 40.776 52.952 40.136C52.304 39.496 51.98 38.708 51.98 37.772C51.98 36.836 52.304 36.048 52.952 35.408C53.6 34.76 54.412 34.436 55.388 34.436C56.372 34.436 57.188 34.76 57.836 35.408C58.484 36.048 58.808 36.836 58.808 37.772ZM63.901 34.436C64.653 34.436 65.321 34.752 65.905 35.384C66.497 36.008 66.793 36.796 66.793 37.748C66.793 38.7 66.497 39.496 65.905 40.136C65.321 40.776 64.633 41.096 63.841 41.096C63.057 41.096 62.425 40.78 61.945 40.148V43.328H60.145V34.544H61.945V35.264C62.497 34.712 63.149 34.436 63.901 34.436ZM61.921 37.784C61.921 38.304 62.065 38.732 62.353 39.068C62.649 39.396 63.005 39.56 63.421 39.56C63.837 39.56 64.201 39.396 64.513 39.068C64.825 38.732 64.981 38.304 64.981 37.784C64.981 37.264 64.829 36.828 64.525 36.476C64.221 36.124 63.857 35.948 63.433 35.948C63.009 35.948 62.649 36.124 62.353 36.476C62.065 36.82 61.921 37.256 61.921 37.784ZM74.0652 37.52V41H72.2532V37.472C72.2532 36.96 72.1732 36.584 72.0132 36.344C71.8612 36.104 71.6092 35.984 71.2572 35.984C70.9132 35.984 70.6052 36.116 70.3332 36.38C70.0692 36.636 69.9372 37.016 69.9372 37.52V41H68.1372V34.544H69.9372V35.276C70.4332 34.716 71.0012 34.436 71.6412 34.436C72.0492 34.436 72.4172 34.556 72.7452 34.796C73.0812 35.036 73.3332 35.328 73.5012 35.672C73.7492 35.28 74.0812 34.976 74.4972 34.76C74.9212 34.544 75.3452 34.436 75.7692 34.436C76.5292 34.436 77.1412 34.664 77.6052 35.12C78.0692 35.568 78.3012 36.22 78.3012 37.076V41H76.4892V37.472C76.4892 36.48 76.1252 35.984 75.3972 35.984C75.0372 35.984 74.7252 36.116 74.4612 36.38C74.1972 36.636 74.0652 37.016 74.0652 37.52ZM85.5299 40.064C84.8019 40.752 83.9459 41.096 82.9619 41.096C81.9859 41.096 81.1779 40.796 80.5379 40.196C79.8979 39.588 79.5779 38.776 79.5779 37.76C79.5779 36.744 79.9019 35.936 80.5499 35.336C81.2059 34.736 81.9779 34.436 82.8659 34.436C83.7539 34.436 84.5059 34.704 85.1219 35.24C85.7459 35.776 86.0579 36.512 86.0579 37.448V38.408H81.3539C81.4099 38.76 81.5939 39.048 81.9059 39.272C82.2179 39.496 82.5699 39.608 82.9619 39.608C83.5939 39.608 84.1139 39.396 84.5219 38.972L85.5299 40.064ZM84.2339 37.124C84.1939 36.74 84.0499 36.444 83.8019 36.236C83.5539 36.028 83.2499 35.924 82.8899 35.924C82.5379 35.924 82.2139 36.032 81.9179 36.248C81.6219 36.464 81.4499 36.756 81.4019 37.124H84.2339ZM89.1559 37.4V41H87.3559V34.544H89.1559V35.264C89.6999 34.712 90.3119 34.436 90.9919 34.436C91.6719 34.436 92.2399 34.676 92.6959 35.156C93.1599 35.636 93.3919 36.276 93.3919 37.076V41H91.5919V37.352C91.5919 36.36 91.2279 35.864 90.4999 35.864C90.1399 35.864 89.8239 35.996 89.5519 36.26C89.2879 36.516 89.1559 36.896 89.1559 37.4ZM97.0742 35.84V38.732C97.0742 38.98 97.1382 39.176 97.2662 39.32C97.3942 39.456 97.5462 39.524 97.7222 39.524C98.0582 39.524 98.3422 39.372 98.5742 39.068L99.2462 40.328C98.6862 40.84 98.0942 41.096 97.4702 41.096C96.8542 41.096 96.3302 40.892 95.8982 40.484C95.4742 40.076 95.2622 39.52 95.2622 38.816V35.84H94.5062V34.544H95.2622V32.612H97.0742V34.544H98.6342V35.84H97.0742Z" fill="black"/>
</svg>
