<svg width="90" height="30" viewBox="0 0 90 30" fill="none" xmlns="http://www.w3.org/2000/svg">
<rect width="90" height="30" rx="15" fill="#5D00EF"/>
<rect width="90" height="30" rx="15" stroke="black"/>
<path d="M14.9918 15.436L16.4798 10.612H18.4358L19.9118 15.436L21.5798 10.612H23.6078L20.6798 19H19.2878L17.4518 13.168L15.6278 19H14.2358L11.3077 10.612H13.3358L14.9918 15.436ZM25.3545 15.772C25.3545 16.3 25.5025 16.732 25.7985 17.068C26.1025 17.396 26.4865 17.56 26.9505 17.56C27.4225 17.56 27.8065 17.396 28.1025 17.068C28.4065 16.732 28.5585 16.3 28.5585 15.772C28.5585 15.244 28.4065 14.812 28.1025 14.476C27.8065 14.14 27.4225 13.972 26.9505 13.972C26.4865 13.972 26.1025 14.14 25.7985 14.476C25.5025 14.812 25.3545 15.244 25.3545 15.772ZM30.3705 15.772C30.3705 16.708 30.0465 17.496 29.3985 18.136C28.7505 18.776 27.9345 19.096 26.9505 19.096C25.9745 19.096 25.1625 18.776 24.5145 18.136C23.8665 17.496 23.5425 16.708 23.5425 15.772C23.5425 14.836 23.8665 14.048 24.5145 13.408C25.1625 12.76 25.9745 12.436 26.9505 12.436C27.9345 12.436 28.7505 12.76 29.3985 13.408C30.0465 14.048 30.3705 14.836 30.3705 15.772ZM35.1035 14.128C34.5675 14.128 34.1675 14.32 33.9035 14.704C33.6395 15.08 33.5075 15.58 33.5075 16.204V19H31.7075V12.544H33.5075V13.396C33.7395 13.132 34.0275 12.908 34.3715 12.724C34.7235 12.54 35.0795 12.444 35.4395 12.436L35.4515 14.128H35.1035ZM38.4411 19H36.6411V10.096H38.4411V14.668L40.4451 12.532H42.7131L40.2531 15.148L42.8091 19H40.6731L39.0291 16.528L38.4411 17.14V19ZM48.5089 16.996C48.5089 17.628 48.2729 18.136 47.8009 18.52C47.3369 18.904 46.7449 19.096 46.0249 19.096C45.5449 19.096 45.0449 19.012 44.5249 18.844C44.0049 18.668 43.5369 18.412 43.1209 18.076L43.9129 16.948C44.5849 17.468 45.3009 17.728 46.0609 17.728C46.2929 17.728 46.4769 17.684 46.6129 17.596C46.7489 17.5 46.8169 17.376 46.8169 17.224C46.8169 17.072 46.7209 16.932 46.5289 16.804C46.3449 16.676 46.0729 16.556 45.7129 16.444C45.3609 16.332 45.0889 16.236 44.8969 16.156C44.7129 16.076 44.5009 15.96 44.2609 15.808C43.7729 15.504 43.5289 15.056 43.5289 14.464C43.5289 13.864 43.7689 13.376 44.2489 13C44.7289 12.624 45.3489 12.436 46.1089 12.436C46.8689 12.436 47.6289 12.692 48.3889 13.204L47.7169 14.404C47.1569 14.02 46.5969 13.828 46.0369 13.828C45.4849 13.828 45.2089 13.98 45.2089 14.284C45.2089 14.452 45.2969 14.584 45.4729 14.68C45.6489 14.776 45.9409 14.888 46.3489 15.016C46.7569 15.144 47.0449 15.244 47.2129 15.316C47.3889 15.38 47.5969 15.484 47.8369 15.628C48.2849 15.9 48.5089 16.356 48.5089 16.996ZM51.6833 15.52V19H49.8833V10.096H51.6833V13.264C52.2273 12.712 52.8353 12.436 53.5073 12.436C54.1873 12.436 54.7593 12.676 55.2233 13.156C55.6873 13.636 55.9193 14.276 55.9193 15.076V19H54.1193V15.472C54.1193 14.48 53.7553 13.984 53.0273 13.984C52.6673 13.984 52.3513 14.116 52.0793 14.38C51.8153 14.636 51.6833 15.016 51.6833 15.52ZM58.9873 15.772C58.9873 16.3 59.1353 16.732 59.4313 17.068C59.7353 17.396 60.1193 17.56 60.5833 17.56C61.0553 17.56 61.4393 17.396 61.7353 17.068C62.0393 16.732 62.1913 16.3 62.1913 15.772C62.1913 15.244 62.0393 14.812 61.7353 14.476C61.4393 14.14 61.0553 13.972 60.5833 13.972C60.1193 13.972 59.7353 14.14 59.4313 14.476C59.1353 14.812 58.9873 15.244 58.9873 15.772ZM64.0033 15.772C64.0033 16.708 63.6793 17.496 63.0313 18.136C62.3833 18.776 61.5673 19.096 60.5833 19.096C59.6073 19.096 58.7953 18.776 58.1473 18.136C57.4993 17.496 57.1753 16.708 57.1753 15.772C57.1753 14.836 57.4993 14.048 58.1473 13.408C58.7953 12.76 59.6073 12.436 60.5833 12.436C61.5673 12.436 62.3833 12.76 63.0313 13.408C63.6793 14.048 64.0033 14.836 64.0033 15.772ZM69.0963 12.436C69.8483 12.436 70.5163 12.752 71.1003 13.384C71.6923 14.008 71.9883 14.796 71.9883 15.748C71.9883 16.7 71.6923 17.496 71.1003 18.136C70.5163 18.776 69.8283 19.096 69.0363 19.096C68.2523 19.096 67.6203 18.78 67.1403 18.148V21.328H65.3403V12.544H67.1403V13.264C67.6923 12.712 68.3443 12.436 69.0963 12.436ZM67.1163 15.784C67.1163 16.304 67.2603 16.732 67.5483 17.068C67.8443 17.396 68.2003 17.56 68.6163 17.56C69.0323 17.56 69.3963 17.396 69.7083 17.068C70.0203 16.732 70.1763 16.304 70.1763 15.784C70.1763 15.264 70.0243 14.828 69.7203 14.476C69.4163 14.124 69.0523 13.948 68.6283 13.948C68.2043 13.948 67.8443 14.124 67.5483 14.476C67.2603 14.82 67.1163 15.256 67.1163 15.784ZM78.1339 16.996C78.1339 17.628 77.8979 18.136 77.4259 18.52C76.9619 18.904 76.3699 19.096 75.6499 19.096C75.1699 19.096 74.6699 19.012 74.1499 18.844C73.6299 18.668 73.1619 18.412 72.7459 18.076L73.5379 16.948C74.2099 17.468 74.9259 17.728 75.6859 17.728C75.9179 17.728 76.1019 17.684 76.2379 17.596C76.3739 17.5 76.4419 17.376 76.4419 17.224C76.4419 17.072 76.3459 16.932 76.1539 16.804C75.9699 16.676 75.6979 16.556 75.3379 16.444C74.9859 16.332 74.7139 16.236 74.5219 16.156C74.3379 16.076 74.1259 15.96 73.8859 15.808C73.3979 15.504 73.1539 15.056 73.1539 14.464C73.1539 13.864 73.3939 13.376 73.8739 13C74.3539 12.624 74.9739 12.436 75.7339 12.436C76.4939 12.436 77.2539 12.692 78.0139 13.204L77.3419 14.404C76.7819 14.02 76.2219 13.828 75.6619 13.828C75.1099 13.828 74.8339 13.98 74.8339 14.284C74.8339 14.452 74.9219 14.584 75.0979 14.68C75.2739 14.776 75.5659 14.888 75.9739 15.016C76.3819 15.144 76.6699 15.244 76.8379 15.316C77.0139 15.38 77.2219 15.484 77.4619 15.628C77.9099 15.9 78.1339 16.356 78.1339 16.996Z" fill="white"/>
</svg>
